<svg xmlns="http://www.w3.org/2000/svg" viewBox="0 0 500 500"><g id="freepik--background-complete--inject-24"><path d="M403.49,80.45h-102s10.11-27.63,25.68-27.63S347.6,71.89,347.6,71.89s10.5-10.36,19.13-10.36,16.13,13.69,16.13,13.69S395.05,67.86,403.49,80.45Z" style="fill:#ebebeb"></path><path d="M451,109.93H403.36S414,94.5,422.41,94.5s10.87,10.29,10.87,10.29,5.92-4.81,11.41-4S451,109.93,451,109.93Z" style="fill:#ebebeb;opacity:0.5"></path><path d="M354.35,167.34H306.68s10.65-15.43,19.05-15.43,10.87,10.28,10.87,10.28,5.92-4.8,11.41-3.94S354.35,167.34,354.35,167.34Z" style="fill:#ebebeb;opacity:0.5"></path><path d="M141.82,179.2H49S61.68,150.81,75.28,149s20.11,21.09,20.11,21.09,8.78-8.08,15.68-8.08,12.22,10.64,12.22,10.64S137.09,165.4,141.82,179.2Z" style="fill:#ebebeb"></path><path d="M184.23,95.77H121.5S132.28,75.2,144,74.9,161.8,90.47,161.8,90.47,180,75.88,184.23,95.77Z" style="fill:#ebebeb;opacity:0.5"></path><rect x="247.73" y="193.62" width="37.28" height="195.44" style="fill:#dbdbdb"></rect><rect x="253.52" y="199.97" width="7.25" height="7.46" style="fill:#ebebeb"></rect><rect x="262.79" y="199.97" width="7.25" height="7.46" style="fill:#ebebeb"></rect><rect x="253.52" y="212.64" width="7.25" height="7.46" style="fill:#ebebeb"></rect><rect x="262.79" y="212.64" width="7.25" height="7.46" style="fill:#ebebeb"></rect><rect x="253.52" y="225.31" width="7.25" height="7.46" style="fill:#ebebeb"></rect><rect x="262.79" y="225.31" width="7.25" height="7.46" style="fill:#ebebeb"></rect><rect x="253.52" y="237.98" width="7.25" height="7.46" style="fill:#ebebeb"></rect><rect x="262.79" y="237.98" width="7.25" height="7.46" style="fill:#ebebeb"></rect><rect x="253.52" y="250.65" width="7.25" height="7.46" style="fill:#ebebeb"></rect><rect x="262.79" y="250.65" width="7.25" height="7.46" style="fill:#ebebeb"></rect><rect x="253.52" y="263.32" width="7.25" height="7.46" style="fill:#ebebeb"></rect><rect x="262.79" y="263.32" width="7.25" height="7.46" style="fill:#ebebeb"></rect><rect x="253.52" y="275.99" width="7.25" height="7.46" style="fill:#ebebeb"></rect><rect x="262.79" y="275.99" width="7.25" height="7.46" style="fill:#ebebeb"></rect><rect x="253.52" y="288.66" width="7.25" height="7.46" style="fill:#ebebeb"></rect><rect x="262.79" y="288.66" width="7.25" height="7.46" style="fill:#ebebeb"></rect><rect x="253.52" y="301.33" width="7.25" height="7.46" style="fill:#ebebeb"></rect><rect x="262.79" y="301.33" width="7.25" height="7.46" style="fill:#ebebeb"></rect><rect x="253.52" y="314" width="7.25" height="7.46" style="fill:#ebebeb"></rect><rect x="262.79" y="314" width="7.25" height="7.46" style="fill:#ebebeb"></rect><rect x="253.52" y="326.67" width="7.25" height="7.46" style="fill:#ebebeb"></rect><rect x="262.79" y="326.67" width="7.25" height="7.46" style="fill:#ebebeb"></rect><rect x="253.52" y="339.34" width="7.25" height="7.46" style="fill:#ebebeb"></rect><rect x="262.79" y="339.34" width="7.25" height="7.46" style="fill:#ebebeb"></rect><rect x="253.52" y="352.01" width="7.25" height="7.46" style="fill:#ebebeb"></rect><rect x="262.79" y="352.01" width="7.25" height="7.46" style="fill:#ebebeb"></rect><rect x="253.52" y="364.68" width="7.25" height="7.46" style="fill:#ebebeb"></rect><rect x="271.98" y="364.68" width="7.25" height="7.46" transform="translate(551.2 736.81) rotate(180)" style="fill:#ebebeb"></rect><rect x="271.98" y="352.01" width="7.25" height="7.46" transform="translate(551.2 711.47) rotate(180)" style="fill:#ebebeb"></rect><rect x="271.98" y="339.34" width="7.25" height="7.46" transform="translate(551.2 686.13) rotate(180)" style="fill:#ebebeb"></rect><rect x="271.98" y="326.67" width="7.25" height="7.46" transform="translate(551.2 660.8) rotate(180)" style="fill:#ebebeb"></rect><rect x="271.98" y="314" width="7.25" height="7.46" transform="translate(551.2 635.46) rotate(180)" style="fill:#ebebeb"></rect><rect x="271.98" y="301.33" width="7.25" height="7.46" transform="translate(551.2 610.12) rotate(180)" style="fill:#ebebeb"></rect><rect x="271.98" y="288.66" width="7.25" height="7.46" transform="translate(551.2 584.78) rotate(180)" style="fill:#ebebeb"></rect><rect x="271.98" y="275.99" width="7.25" height="7.46" transform="translate(551.2 559.44) rotate(180)" style="fill:#ebebeb"></rect><rect x="271.98" y="263.32" width="7.25" height="7.46" transform="translate(551.2 534.1) rotate(180)" style="fill:#ebebeb"></rect><rect x="271.98" y="250.65" width="7.25" height="7.46" transform="translate(551.2 508.76) rotate(180)" style="fill:#ebebeb"></rect><rect x="271.98" y="237.98" width="7.25" height="7.46" transform="translate(551.2 483.42) rotate(180)" style="fill:#ebebeb"></rect><rect x="271.98" y="225.31" width="7.25" height="7.46" transform="translate(551.2 458.08) rotate(180)" style="fill:#ebebeb"></rect><rect x="271.98" y="212.64" width="7.25" height="7.46" transform="translate(551.2 432.74) rotate(180)" style="fill:#ebebeb"></rect><rect x="271.98" y="199.97" width="7.25" height="7.46" transform="translate(551.2 407.4) rotate(180)" style="fill:#ebebeb"></rect><rect x="262.79" y="364.68" width="7.25" height="7.46" style="fill:#ebebeb"></rect><rect x="285.01" y="193.62" width="29.4" height="195.44" style="fill:#a6a6a6"></rect><rect x="305.39" y="364.68" width="5.99" height="7.46" transform="translate(616.77 736.81) rotate(180)" style="fill:#c7c7c7"></rect><rect x="297.74" y="364.68" width="5.98" height="7.46" transform="translate(601.46 736.81) rotate(180)" style="fill:#c7c7c7"></rect><rect x="305.39" y="352.01" width="5.99" height="7.46" transform="translate(616.77 711.47) rotate(180)" style="fill:#c7c7c7"></rect><rect x="297.74" y="352.01" width="5.98" height="7.46" transform="translate(601.46 711.47) rotate(180)" style="fill:#c7c7c7"></rect><rect x="305.39" y="339.34" width="5.99" height="7.46" transform="translate(616.77 686.13) rotate(180)" style="fill:#c7c7c7"></rect><rect x="297.74" y="339.34" width="5.98" height="7.46" transform="translate(601.46 686.13) rotate(180)" style="fill:#c7c7c7"></rect><rect x="305.39" y="326.67" width="5.99" height="7.46" transform="translate(616.77 660.8) rotate(180)" style="fill:#c7c7c7"></rect><rect x="297.74" y="326.67" width="5.98" height="7.46" transform="translate(601.46 660.8) rotate(180)" style="fill:#c7c7c7"></rect><rect x="305.39" y="314" width="5.99" height="7.46" transform="translate(616.77 635.46) rotate(180)" style="fill:#c7c7c7"></rect><rect x="297.74" y="314" width="5.98" height="7.46" transform="translate(601.46 635.46) rotate(180)" style="fill:#c7c7c7"></rect><rect x="305.39" y="301.33" width="5.99" height="7.46" transform="translate(616.77 610.12) rotate(180)" style="fill:#c7c7c7"></rect><rect x="297.74" y="301.33" width="5.98" height="7.46" transform="translate(601.46 610.12) rotate(180)" style="fill:#c7c7c7"></rect><rect x="305.39" y="288.66" width="5.99" height="7.46" transform="translate(616.77 584.78) rotate(180)" style="fill:#c7c7c7"></rect><rect x="297.74" y="288.66" width="5.98" height="7.46" transform="translate(601.46 584.78) rotate(180)" style="fill:#c7c7c7"></rect><rect x="305.39" y="275.99" width="5.99" height="7.46" transform="translate(616.77 559.44) rotate(180)" style="fill:#c7c7c7"></rect><rect x="297.74" y="275.99" width="5.98" height="7.46" transform="translate(601.46 559.44) rotate(180)" style="fill:#c7c7c7"></rect><rect x="305.39" y="263.32" width="5.99" height="7.46" transform="translate(616.77 534.1) rotate(180)" style="fill:#c7c7c7"></rect><rect x="297.74" y="263.32" width="5.98" height="7.46" transform="translate(601.46 534.1) rotate(180)" style="fill:#c7c7c7"></rect><rect x="305.39" y="250.65" width="5.99" height="7.46" transform="translate(616.77 508.76) rotate(180)" style="fill:#c7c7c7"></rect><rect x="297.74" y="250.65" width="5.98" height="7.46" transform="translate(601.46 508.76) rotate(180)" style="fill:#c7c7c7"></rect><rect x="305.39" y="237.98" width="5.99" height="7.46" transform="translate(616.77 483.42) rotate(180)" style="fill:#c7c7c7"></rect><rect x="297.74" y="237.98" width="5.98" height="7.46" transform="translate(601.46 483.42) rotate(180)" style="fill:#c7c7c7"></rect><rect x="305.39" y="225.31" width="5.99" height="7.46" transform="translate(616.77 458.08) rotate(180)" style="fill:#c7c7c7"></rect><rect x="297.74" y="225.31" width="5.98" height="7.46" transform="translate(601.46 458.08) rotate(180)" style="fill:#c7c7c7"></rect><rect x="305.39" y="212.64" width="5.99" height="7.46" transform="translate(616.77 432.74) rotate(180)" style="fill:#c7c7c7"></rect><rect x="297.74" y="212.64" width="5.98" height="7.46" transform="translate(601.46 432.74) rotate(180)" style="fill:#c7c7c7"></rect><rect x="305.39" y="199.97" width="5.99" height="7.46" transform="translate(616.77 407.4) rotate(180)" style="fill:#c7c7c7"></rect><rect x="290.15" y="199.97" width="5.98" height="7.46" style="fill:#c7c7c7"></rect><rect x="290.15" y="212.64" width="5.98" height="7.46" style="fill:#c7c7c7"></rect><rect x="290.15" y="225.31" width="5.98" height="7.46" style="fill:#c7c7c7"></rect><rect x="290.15" y="237.98" width="5.98" height="7.46" style="fill:#c7c7c7"></rect><rect x="290.15" y="250.65" width="5.98" height="7.46" style="fill:#c7c7c7"></rect><rect x="290.15" y="263.32" width="5.98" height="7.46" style="fill:#c7c7c7"></rect><rect x="290.15" y="275.99" width="5.98" height="7.46" style="fill:#c7c7c7"></rect><rect x="290.15" y="288.66" width="5.98" height="7.46" style="fill:#c7c7c7"></rect><rect x="290.15" y="301.33" width="5.98" height="7.46" style="fill:#c7c7c7"></rect><rect x="290.15" y="314" width="5.98" height="7.46" style="fill:#c7c7c7"></rect><rect x="290.15" y="326.67" width="5.98" height="7.46" style="fill:#c7c7c7"></rect><rect x="290.15" y="339.34" width="5.98" height="7.46" style="fill:#c7c7c7"></rect><rect x="290.15" y="352.01" width="5.98" height="7.46" style="fill:#c7c7c7"></rect><rect x="290.15" y="364.68" width="5.98" height="7.46" style="fill:#c7c7c7"></rect><rect x="297.74" y="199.97" width="5.98" height="7.46" transform="translate(601.46 407.4) rotate(180)" style="fill:#c7c7c7"></rect><rect x="112.07" y="189.36" width="38.89" height="199.7" style="fill:#ebebeb"></rect><rect x="111.14" y="185.38" width="39.83" height="3.98" style="fill:#c7c7c7"></rect><rect x="115.59" y="195.22" width="3.94" height="193.84" style="fill:#fff"></rect><rect x="122.57" y="195.22" width="3.94" height="193.84" style="fill:#fff"></rect><rect x="129.55" y="195.22" width="3.94" height="193.84" style="fill:#fff"></rect><rect x="136.53" y="195.22" width="3.94" height="193.84" style="fill:#fff"></rect><rect x="143.51" y="195.22" width="3.94" height="193.84" style="fill:#fff"></rect><rect x="115.59" y="200.24" width="3.94" height="7.85" style="fill:#ebebeb"></rect><rect x="122.57" y="200.24" width="3.94" height="7.85" style="fill:#ebebeb"></rect><rect x="129.55" y="200.24" width="3.94" height="7.85" style="fill:#ebebeb"></rect><rect x="136.53" y="200.24" width="3.94" height="7.85" style="fill:#ebebeb"></rect><rect x="143.51" y="200.24" width="3.94" height="7.85" style="fill:#ebebeb"></rect><rect x="115.59" y="213" width="3.94" height="7.85" style="fill:#ebebeb"></rect><rect x="122.57" y="213" width="3.94" height="7.85" style="fill:#ebebeb"></rect><rect x="129.55" y="213" width="3.94" height="7.85" style="fill:#ebebeb"></rect><rect x="136.53" y="213" width="3.94" height="7.85" style="fill:#ebebeb"></rect><rect x="143.51" y="213" width="3.94" height="7.85" style="fill:#ebebeb"></rect><rect x="115.59" y="225.76" width="3.94" height="7.85" style="fill:#ebebeb"></rect><rect x="122.57" y="225.76" width="3.94" height="7.85" style="fill:#ebebeb"></rect><rect x="129.55" y="225.76" width="3.94" height="7.85" style="fill:#ebebeb"></rect><rect x="136.53" y="225.76" width="3.94" height="7.85" style="fill:#ebebeb"></rect><rect x="143.51" y="225.76" width="3.94" height="7.85" style="fill:#ebebeb"></rect><rect x="115.59" y="238.52" width="3.94" height="7.85" style="fill:#ebebeb"></rect><rect x="122.57" y="238.52" width="3.94" height="7.85" style="fill:#ebebeb"></rect><rect x="129.55" y="238.52" width="3.94" height="7.85" style="fill:#ebebeb"></rect><rect x="136.53" y="238.52" width="3.94" height="7.85" style="fill:#ebebeb"></rect><rect x="143.51" y="238.52" width="3.94" height="7.85" style="fill:#ebebeb"></rect><rect x="115.59" y="251.28" width="3.94" height="7.85" style="fill:#ebebeb"></rect><rect x="122.57" y="251.28" width="3.94" height="7.85" style="fill:#ebebeb"></rect><rect x="129.55" y="251.28" width="3.94" height="7.85" style="fill:#ebebeb"></rect><rect x="136.53" y="251.28" width="3.94" height="7.85" style="fill:#ebebeb"></rect><rect x="143.51" y="251.28" width="3.94" height="7.85" style="fill:#ebebeb"></rect><rect x="115.59" y="264.03" width="3.94" height="7.85" style="fill:#ebebeb"></rect><rect x="122.57" y="264.03" width="3.94" height="7.85" style="fill:#ebebeb"></rect><rect x="129.55" y="264.03" width="3.94" height="7.85" style="fill:#ebebeb"></rect><rect x="136.53" y="264.03" width="3.94" height="7.85" style="fill:#ebebeb"></rect><rect x="143.51" y="264.03" width="3.94" height="7.85" style="fill:#ebebeb"></rect><rect x="115.59" y="276.79" width="3.94" height="7.85" style="fill:#ebebeb"></rect><rect x="122.57" y="276.79" width="3.94" height="7.85" style="fill:#ebebeb"></rect><rect x="129.55" y="276.79" width="3.94" height="7.85" style="fill:#ebebeb"></rect><rect x="136.53" y="276.79" width="3.94" height="7.85" style="fill:#ebebeb"></rect><rect x="143.51" y="276.79" width="3.94" height="7.85" style="fill:#ebebeb"></rect><rect x="115.59" y="289.55" width="3.94" height="7.85" style="fill:#ebebeb"></rect><rect x="122.57" y="289.55" width="3.94" height="7.85" style="fill:#ebebeb"></rect><rect x="129.55" y="289.55" width="3.94" height="7.85" style="fill:#ebebeb"></rect><rect x="136.53" y="289.55" width="3.94" height="7.85" style="fill:#ebebeb"></rect><rect x="143.51" y="289.55" width="3.94" height="7.85" style="fill:#ebebeb"></rect><rect x="115.59" y="302.31" width="3.94" height="7.85" style="fill:#ebebeb"></rect><rect x="122.57" y="302.31" width="3.94" height="7.85" style="fill:#ebebeb"></rect><rect x="129.55" y="302.31" width="3.94" height="7.85" style="fill:#ebebeb"></rect><rect x="136.53" y="302.31" width="3.94" height="7.85" style="fill:#ebebeb"></rect><rect x="143.51" y="302.31" width="3.94" height="7.85" style="fill:#ebebeb"></rect><rect x="115.59" y="315.07" width="3.94" height="7.85" style="fill:#ebebeb"></rect><rect x="122.57" y="315.07" width="3.94" height="7.85" style="fill:#ebebeb"></rect><rect x="129.55" y="315.07" width="3.94" height="7.85" style="fill:#ebebeb"></rect><rect x="136.53" y="315.07" width="3.94" height="7.85" style="fill:#ebebeb"></rect><rect x="143.51" y="315.07" width="3.94" height="7.85" style="fill:#ebebeb"></rect><rect x="115.59" y="327.83" width="3.94" height="7.85" style="fill:#ebebeb"></rect><rect x="122.57" y="327.83" width="3.94" height="7.85" style="fill:#ebebeb"></rect><rect x="129.55" y="327.83" width="3.94" height="7.85" style="fill:#ebebeb"></rect><rect x="136.53" y="327.83" width="3.94" height="7.85" style="fill:#ebebeb"></rect><rect x="143.51" y="327.83" width="3.94" height="7.85" style="fill:#ebebeb"></rect><rect x="115.59" y="340.58" width="3.94" height="7.85" style="fill:#ebebeb"></rect><rect x="122.57" y="340.58" width="3.94" height="7.85" style="fill:#ebebeb"></rect><rect x="129.55" y="340.58" width="3.94" height="7.85" style="fill:#ebebeb"></rect><rect x="136.53" y="340.58" width="3.94" height="7.85" style="fill:#ebebeb"></rect><rect x="143.51" y="340.58" width="3.94" height="7.85" style="fill:#ebebeb"></rect><rect x="115.59" y="353.34" width="3.94" height="7.85" style="fill:#ebebeb"></rect><rect x="122.57" y="353.34" width="3.94" height="7.85" style="fill:#ebebeb"></rect><rect x="129.55" y="353.34" width="3.94" height="7.85" style="fill:#ebebeb"></rect><rect x="136.53" y="353.34" width="3.94" height="7.85" style="fill:#ebebeb"></rect><rect x="143.51" y="353.34" width="3.94" height="7.85" style="fill:#ebebeb"></rect><rect x="115.59" y="366.1" width="3.94" height="22.96" style="fill:#ebebeb"></rect><rect x="122.57" y="366.1" width="3.94" height="22.96" style="fill:#ebebeb"></rect><rect x="129.55" y="366.1" width="3.94" height="22.96" style="fill:#ebebeb"></rect><rect x="136.53" y="366.1" width="3.94" height="22.96" style="fill:#ebebeb"></rect><rect x="143.51" y="366.1" width="3.94" height="22.96" style="fill:#ebebeb"></rect><rect x="150.97" y="189.36" width="24.97" height="199.7" style="fill:#dbdbdb"></rect><rect x="150.97" y="185.38" width="26.05" height="3.98" style="fill:#c7c7c7"></rect><rect x="154.48" y="195.22" width="3.94" height="193.84" style="fill:#c7c7c7"></rect><rect x="161.46" y="195.22" width="3.94" height="193.84" style="fill:#c7c7c7"></rect><rect x="168.44" y="195.22" width="3.94" height="193.84" style="fill:#c7c7c7"></rect><rect x="154.48" y="200.24" width="3.94" height="7.85" style="fill:#dbdbdb"></rect><rect x="161.46" y="200.24" width="3.94" height="7.85" style="fill:#dbdbdb"></rect><rect x="168.44" y="200.24" width="3.94" height="7.85" style="fill:#dbdbdb"></rect><rect x="154.48" y="213" width="3.94" height="7.85" style="fill:#dbdbdb"></rect><rect x="161.46" y="213" width="3.94" height="7.85" style="fill:#dbdbdb"></rect><rect x="168.44" y="213" width="3.94" height="7.85" style="fill:#dbdbdb"></rect><rect x="154.48" y="225.76" width="3.94" height="7.85" style="fill:#dbdbdb"></rect><rect x="161.46" y="225.76" width="3.94" height="7.85" style="fill:#dbdbdb"></rect><rect x="168.44" y="225.76" width="3.94" height="7.85" style="fill:#dbdbdb"></rect><rect x="154.48" y="238.52" width="3.94" height="7.85" style="fill:#dbdbdb"></rect><rect x="161.46" y="238.52" width="3.94" height="7.85" style="fill:#dbdbdb"></rect><rect x="168.44" y="238.52" width="3.94" height="7.85" style="fill:#dbdbdb"></rect><rect x="154.48" y="251.28" width="3.94" height="7.85" style="fill:#dbdbdb"></rect><rect x="161.46" y="251.28" width="3.94" height="7.85" style="fill:#dbdbdb"></rect><rect x="168.44" y="251.28" width="3.94" height="7.85" style="fill:#dbdbdb"></rect><rect x="154.48" y="264.03" width="3.94" height="7.85" style="fill:#dbdbdb"></rect><rect x="161.46" y="264.03" width="3.94" height="7.85" style="fill:#dbdbdb"></rect><rect x="168.44" y="264.03" width="3.94" height="7.85" style="fill:#dbdbdb"></rect><rect x="154.48" y="276.79" width="3.94" height="7.85" style="fill:#dbdbdb"></rect><rect x="161.46" y="276.79" width="3.94" height="7.85" style="fill:#dbdbdb"></rect><rect x="168.44" y="276.79" width="3.94" height="7.85" style="fill:#dbdbdb"></rect><rect x="154.48" y="289.55" width="3.94" height="7.85" style="fill:#dbdbdb"></rect><rect x="161.46" y="289.55" width="3.94" height="7.85" style="fill:#dbdbdb"></rect><rect x="168.44" y="289.55" width="3.94" height="7.85" style="fill:#dbdbdb"></rect><rect x="154.48" y="302.31" width="3.94" height="7.85" style="fill:#dbdbdb"></rect><rect x="161.46" y="302.31" width="3.94" height="7.85" style="fill:#dbdbdb"></rect><rect x="168.44" y="302.31" width="3.94" height="7.85" style="fill:#dbdbdb"></rect><rect x="154.48" y="315.07" width="3.94" height="7.85" style="fill:#dbdbdb"></rect><rect x="161.46" y="315.07" width="3.94" height="7.85" style="fill:#dbdbdb"></rect><rect x="168.44" y="315.07" width="3.94" height="7.85" style="fill:#dbdbdb"></rect><rect x="154.48" y="327.83" width="3.94" height="7.85" style="fill:#dbdbdb"></rect><rect x="161.46" y="327.83" width="3.94" height="7.85" style="fill:#dbdbdb"></rect><rect x="168.44" y="327.83" width="3.94" height="7.85" style="fill:#dbdbdb"></rect><rect x="154.48" y="340.58" width="3.94" height="7.85" style="fill:#dbdbdb"></rect><rect x="161.46" y="340.58" width="3.94" height="7.85" style="fill:#dbdbdb"></rect><rect x="168.44" y="340.58" width="3.94" height="7.85" style="fill:#dbdbdb"></rect><rect x="154.48" y="353.34" width="3.94" height="7.85" style="fill:#dbdbdb"></rect><rect x="161.46" y="353.34" width="3.94" height="7.85" style="fill:#dbdbdb"></rect><rect x="168.44" y="353.34" width="3.94" height="7.85" style="fill:#dbdbdb"></rect><rect x="154.48" y="366.1" width="3.94" height="22.96" style="fill:#dbdbdb"></rect><rect x="161.46" y="366.1" width="3.94" height="22.96" style="fill:#dbdbdb"></rect><rect x="168.44" y="366.1" width="3.94" height="22.96" style="fill:#dbdbdb"></rect><rect x="57.64" y="249.17" width="36.89" height="139.89" style="fill:#ebebeb"></rect><rect x="62.89" y="239.89" width="31.64" height="9.28" style="fill:#c7c7c7"></rect><rect x="61.68" y="254.01" width="28.8" height="104.58" style="fill:#dbdbdb"></rect><rect x="61.68" y="263.99" width="28.8" height="2.47" style="fill:#fff"></rect><rect x="61.68" y="274.23" width="28.8" height="2.47" style="fill:#fff"></rect><rect x="61.68" y="284.46" width="28.8" height="2.47" style="fill:#fff"></rect><rect x="61.68" y="294.7" width="28.8" height="2.47" style="fill:#fff"></rect><rect x="61.68" y="304.94" width="28.8" height="2.47" style="fill:#fff"></rect><rect x="61.68" y="315.17" width="28.8" height="2.47" style="fill:#fff"></rect><rect x="61.68" y="325.41" width="28.8" height="2.47" style="fill:#fff"></rect><rect x="61.68" y="335.65" width="28.8" height="2.47" style="fill:#fff"></rect><rect x="61.68" y="345.88" width="28.8" height="2.47" style="fill:#fff"></rect><rect x="61.68" y="356.12" width="28.8" height="2.47" style="fill:#fff"></rect><rect x="94.53" y="249.17" width="23.1" height="139.89" style="fill:#dbdbdb"></rect><rect x="94.53" y="239.89" width="19.64" height="9.28" style="fill:#a6a6a6"></rect><rect x="97.71" y="254.01" width="17.76" height="104.58" style="fill:#c7c7c7"></rect><rect x="97.71" y="263.99" width="17.76" height="2.47" style="fill:#fff"></rect><rect x="97.71" y="274.23" width="17.76" height="2.47" style="fill:#fff"></rect><rect x="97.71" y="284.46" width="17.76" height="2.47" style="fill:#fff"></rect><rect x="97.71" y="294.7" width="17.76" height="2.47" style="fill:#fff"></rect><rect x="97.71" y="304.94" width="17.76" height="2.47" style="fill:#fff"></rect><rect x="97.71" y="315.17" width="17.76" height="2.47" style="fill:#fff"></rect><rect x="97.71" y="325.41" width="17.76" height="2.47" style="fill:#fff"></rect><rect x="97.71" y="335.65" width="17.76" height="2.47" style="fill:#fff"></rect><rect x="97.71" y="345.88" width="17.76" height="2.47" style="fill:#fff"></rect><rect x="97.71" y="356.12" width="17.76" height="2.47" style="fill:#fff"></rect><rect x="387.24" y="251.53" width="19.7" height="23.27" style="fill:#dbdbdb"></rect><rect x="406.94" y="251.53" width="12.49" height="24.13" style="fill:#c7c7c7"></rect><rect x="407.86" y="261.8" width="12.4" height="13.85" style="fill:#dbdbdb"></rect><rect x="420.26" y="261.8" width="7.73" height="13.85" style="fill:#c7c7c7"></rect><rect x="379.68" y="273.29" width="31.86" height="115.78" style="fill:#ebebeb"></rect><rect x="383.32" y="278.26" width="10.02" height="4.09" style="fill:#fff"></rect><rect x="396.14" y="278.26" width="10.02" height="4.09" style="fill:#fff"></rect><rect x="383.32" y="285.21" width="10.02" height="4.09" style="fill:#fff"></rect><rect x="396.14" y="285.21" width="10.02" height="4.09" style="fill:#fff"></rect><rect x="383.32" y="292.16" width="10.02" height="4.09" style="fill:#fff"></rect><rect x="396.14" y="292.16" width="10.02" height="4.09" style="fill:#fff"></rect><rect x="383.32" y="299.11" width="10.02" height="4.09" style="fill:#fff"></rect><rect x="396.14" y="299.11" width="10.02" height="4.09" style="fill:#fff"></rect><rect x="383.32" y="306.06" width="10.02" height="4.09" style="fill:#fff"></rect><rect x="396.14" y="306.06" width="10.02" height="4.09" style="fill:#fff"></rect><rect x="383.32" y="313.01" width="10.02" height="4.09" style="fill:#fff"></rect><rect x="396.14" y="313.01" width="10.02" height="4.09" style="fill:#fff"></rect><rect x="383.32" y="319.96" width="10.02" height="4.09" style="fill:#fff"></rect><rect x="396.14" y="319.96" width="10.02" height="4.09" style="fill:#fff"></rect><rect x="383.32" y="326.91" width="10.02" height="4.09" style="fill:#fff"></rect><rect x="396.14" y="326.91" width="10.02" height="4.09" style="fill:#fff"></rect><rect x="383.32" y="333.86" width="10.02" height="4.09" style="fill:#fff"></rect><rect x="396.14" y="333.86" width="10.02" height="4.09" style="fill:#fff"></rect><rect x="383.32" y="340.81" width="10.02" height="4.09" style="fill:#fff"></rect><rect x="396.14" y="340.81" width="10.02" height="4.09" style="fill:#fff"></rect><rect x="383.32" y="347.75" width="10.02" height="4.09" style="fill:#fff"></rect><rect x="396.14" y="347.75" width="10.02" height="4.09" style="fill:#fff"></rect><rect x="383.32" y="354.7" width="10.02" height="4.09" style="fill:#fff"></rect><rect x="396.14" y="354.7" width="10.02" height="4.09" style="fill:#fff"></rect><rect x="383.32" y="361.65" width="10.02" height="4.09" style="fill:#fff"></rect><rect x="396.14" y="361.65" width="10.02" height="4.09" style="fill:#fff"></rect><rect x="383.32" y="368.6" width="10.02" height="4.09" style="fill:#fff"></rect><rect x="396.14" y="368.6" width="10.02" height="4.09" style="fill:#fff"></rect><rect x="411.54" y="273.29" width="25.81" height="115.78" style="fill:#c7c7c7"></rect><rect x="426.54" y="368.6" width="8.22" height="4.09" transform="translate(861.3 741.3) rotate(180)" style="fill:#ebebeb"></rect><rect x="416.02" y="368.6" width="8.22" height="4.09" transform="translate(840.26 741.3) rotate(180)" style="fill:#ebebeb"></rect><rect x="426.54" y="361.65" width="8.22" height="4.09" transform="translate(861.3 727.4) rotate(180)" style="fill:#ebebeb"></rect><rect x="416.02" y="361.65" width="8.22" height="4.09" transform="translate(840.26 727.4) rotate(180)" style="fill:#ebebeb"></rect><rect x="426.54" y="354.7" width="8.22" height="4.09" transform="translate(861.3 713.5) rotate(180)" style="fill:#ebebeb"></rect><rect x="416.02" y="354.7" width="8.22" height="4.09" transform="translate(840.26 713.5) rotate(180)" style="fill:#ebebeb"></rect><rect x="426.54" y="347.75" width="8.22" height="4.09" transform="translate(861.3 699.6) rotate(180)" style="fill:#ebebeb"></rect><rect x="416.02" y="347.75" width="8.22" height="4.09" transform="translate(840.26 699.6) rotate(180)" style="fill:#ebebeb"></rect><rect x="426.54" y="340.81" width="8.22" height="4.09" transform="translate(861.3 685.7) rotate(180)" style="fill:#ebebeb"></rect><rect x="416.02" y="340.81" width="8.22" height="4.09" transform="translate(840.26 685.7) rotate(180)" style="fill:#ebebeb"></rect><rect x="426.54" y="333.86" width="8.22" height="4.09" transform="translate(861.3 671.81) rotate(180)" style="fill:#ebebeb"></rect><rect x="416.02" y="333.86" width="8.22" height="4.09" transform="translate(840.26 671.81) rotate(180)" style="fill:#ebebeb"></rect><rect x="426.54" y="326.91" width="8.22" height="4.09" transform="translate(861.3 657.91) rotate(180)" style="fill:#ebebeb"></rect><rect x="416.02" y="326.91" width="8.22" height="4.09" transform="translate(840.26 657.91) rotate(180)" style="fill:#ebebeb"></rect><rect x="426.54" y="319.96" width="8.22" height="4.09" transform="translate(861.3 644.01) rotate(180)" style="fill:#ebebeb"></rect><rect x="416.02" y="319.96" width="8.22" height="4.09" transform="translate(840.26 644.01) rotate(180)" style="fill:#ebebeb"></rect><rect x="426.54" y="313.01" width="8.22" height="4.09" transform="translate(861.3 630.11) rotate(180)" style="fill:#ebebeb"></rect><rect x="416.02" y="313.01" width="8.22" height="4.09" transform="translate(840.26 630.11) rotate(180)" style="fill:#ebebeb"></rect><rect x="426.54" y="306.06" width="8.22" height="4.09" transform="translate(861.3 616.21) rotate(180)" style="fill:#ebebeb"></rect><rect x="416.02" y="306.06" width="8.22" height="4.09" transform="translate(840.26 616.21) rotate(180)" style="fill:#ebebeb"></rect><rect x="426.54" y="299.11" width="8.22" height="4.09" transform="translate(861.3 602.31) rotate(180)" style="fill:#ebebeb"></rect><rect x="416.02" y="299.11" width="8.22" height="4.09" transform="translate(840.26 602.31) rotate(180)" style="fill:#ebebeb"></rect><rect x="426.54" y="292.16" width="8.22" height="4.09" transform="translate(861.3 588.42) rotate(180)" style="fill:#ebebeb"></rect><rect x="416.02" y="292.16" width="8.22" height="4.09" transform="translate(840.26 588.42) rotate(180)" style="fill:#ebebeb"></rect><rect x="426.54" y="285.21" width="8.22" height="4.09" transform="translate(861.3 574.52) rotate(180)" style="fill:#ebebeb"></rect><rect x="416.02" y="285.21" width="8.22" height="4.09" transform="translate(840.26 574.52) rotate(180)" style="fill:#ebebeb"></rect><rect x="426.54" y="278.26" width="8.22" height="4.09" transform="translate(861.3 560.62) rotate(180)" style="fill:#ebebeb"></rect><rect x="416.02" y="278.26" width="8.22" height="4.09" transform="translate(840.26 560.62) rotate(180)" style="fill:#ebebeb"></rect><rect x="174.25" y="251.53" width="19.7" height="23.27" style="fill:#dbdbdb"></rect><rect x="193.95" y="251.53" width="12.49" height="24.13" style="fill:#c7c7c7"></rect><rect x="194.88" y="261.8" width="12.4" height="13.85" style="fill:#dbdbdb"></rect><rect x="207.27" y="261.8" width="7.73" height="13.85" style="fill:#c7c7c7"></rect><rect x="166.69" y="273.29" width="31.86" height="115.78" style="fill:#ebebeb"></rect><rect x="170.33" y="278.26" width="10.02" height="4.09" style="fill:#fff"></rect><rect x="183.15" y="278.26" width="10.02" height="4.09" style="fill:#fff"></rect><rect x="170.33" y="285.21" width="10.02" height="4.09" style="fill:#fff"></rect><rect x="183.15" y="285.21" width="10.02" height="4.09" style="fill:#fff"></rect><rect x="170.33" y="292.16" width="10.02" height="4.09" style="fill:#fff"></rect><rect x="183.15" y="292.16" width="10.02" height="4.09" style="fill:#fff"></rect><rect x="170.33" y="299.11" width="10.02" height="4.09" style="fill:#fff"></rect><rect x="183.15" y="299.11" width="10.02" height="4.09" style="fill:#fff"></rect><rect x="170.33" y="306.06" width="10.02" height="4.09" style="fill:#fff"></rect><rect x="183.15" y="306.06" width="10.02" height="4.09" style="fill:#fff"></rect><rect x="170.33" y="313.01" width="10.02" height="4.09" style="fill:#fff"></rect><rect x="183.15" y="313.01" width="10.02" height="4.09" style="fill:#fff"></rect><rect x="170.33" y="319.96" width="10.02" height="4.09" style="fill:#fff"></rect><rect x="183.15" y="319.96" width="10.02" height="4.09" style="fill:#fff"></rect><rect x="170.33" y="326.91" width="10.02" height="4.09" style="fill:#fff"></rect><rect x="183.15" y="326.91" width="10.02" height="4.09" style="fill:#fff"></rect><rect x="170.33" y="333.86" width="10.02" height="4.09" style="fill:#fff"></rect><rect x="183.15" y="333.86" width="10.02" height="4.09" style="fill:#fff"></rect><rect x="170.33" y="340.81" width="10.02" height="4.09" style="fill:#fff"></rect><rect x="183.15" y="340.81" width="10.02" height="4.09" style="fill:#fff"></rect><rect x="170.33" y="347.75" width="10.02" height="4.09" style="fill:#fff"></rect><rect x="183.15" y="347.75" width="10.02" height="4.09" style="fill:#fff"></rect><rect x="170.33" y="354.7" width="10.02" height="4.09" style="fill:#fff"></rect><rect x="183.15" y="354.7" width="10.02" height="4.09" style="fill:#fff"></rect><rect x="170.33" y="361.65" width="10.02" height="4.09" style="fill:#fff"></rect><rect x="183.15" y="361.65" width="10.02" height="4.09" style="fill:#fff"></rect><rect x="170.33" y="368.6" width="10.02" height="4.09" style="fill:#fff"></rect><rect x="183.15" y="368.6" width="10.02" height="4.09" style="fill:#fff"></rect><rect x="198.55" y="273.29" width="25.81" height="115.78" style="fill:#c7c7c7"></rect><rect x="213.55" y="368.6" width="8.22" height="4.09" transform="translate(435.32 741.3) rotate(180)" style="fill:#ebebeb"></rect><rect x="203.03" y="368.6" width="8.22" height="4.09" transform="translate(414.28 741.3) rotate(180)" style="fill:#ebebeb"></rect><rect x="213.55" y="361.65" width="8.22" height="4.09" transform="translate(435.32 727.4) rotate(180)" style="fill:#ebebeb"></rect><rect x="203.03" y="361.65" width="8.22" height="4.09" transform="translate(414.28 727.4) rotate(180)" style="fill:#ebebeb"></rect><rect x="213.55" y="354.7" width="8.22" height="4.09" transform="translate(435.32 713.5) rotate(180)" style="fill:#ebebeb"></rect><rect x="203.03" y="354.7" width="8.22" height="4.09" transform="translate(414.28 713.5) rotate(180)" style="fill:#ebebeb"></rect><rect x="213.55" y="347.75" width="8.22" height="4.09" transform="translate(435.32 699.6) rotate(180)" style="fill:#ebebeb"></rect><rect x="203.03" y="347.75" width="8.22" height="4.09" transform="translate(414.28 699.6) rotate(180)" style="fill:#ebebeb"></rect><rect x="213.55" y="340.81" width="8.22" height="4.09" transform="translate(435.32 685.7) rotate(180)" style="fill:#ebebeb"></rect><rect x="203.03" y="340.81" width="8.22" height="4.09" transform="translate(414.28 685.7) rotate(180)" style="fill:#ebebeb"></rect><rect x="213.55" y="333.86" width="8.22" height="4.09" transform="translate(435.32 671.81) rotate(180)" style="fill:#ebebeb"></rect><rect x="203.03" y="333.86" width="8.22" height="4.09" transform="translate(414.28 671.81) rotate(180)" style="fill:#ebebeb"></rect><rect x="213.55" y="326.91" width="8.22" height="4.09" transform="translate(435.32 657.91) rotate(180)" style="fill:#ebebeb"></rect><rect x="203.03" y="326.91" width="8.22" height="4.09" transform="translate(414.28 657.91) rotate(180)" style="fill:#ebebeb"></rect><rect x="213.55" y="319.96" width="8.22" height="4.09" transform="translate(435.32 644.01) rotate(180)" style="fill:#ebebeb"></rect><rect x="203.03" y="319.96" width="8.22" height="4.09" transform="translate(414.28 644.01) rotate(180)" style="fill:#ebebeb"></rect><rect x="213.55" y="313.01" width="8.22" height="4.09" transform="translate(435.32 630.11) rotate(180)" style="fill:#ebebeb"></rect><rect x="203.03" y="313.01" width="8.22" height="4.09" transform="translate(414.28 630.11) rotate(180)" style="fill:#ebebeb"></rect><rect x="213.55" y="306.06" width="8.22" height="4.09" transform="translate(435.32 616.21) rotate(180)" style="fill:#ebebeb"></rect><rect x="203.03" y="306.06" width="8.22" height="4.09" transform="translate(414.28 616.21) rotate(180)" style="fill:#ebebeb"></rect><rect x="213.55" y="299.11" width="8.22" height="4.09" transform="translate(435.32 602.31) rotate(180)" style="fill:#ebebeb"></rect><rect x="203.03" y="299.11" width="8.22" height="4.09" transform="translate(414.28 602.31) rotate(180)" style="fill:#ebebeb"></rect><rect x="213.55" y="292.16" width="8.22" height="4.09" transform="translate(435.32 588.42) rotate(180)" style="fill:#ebebeb"></rect><rect x="203.03" y="292.16" width="8.22" height="4.09" transform="translate(414.28 588.42) rotate(180)" style="fill:#ebebeb"></rect><rect x="213.55" y="285.21" width="8.22" height="4.09" transform="translate(435.32 574.52) rotate(180)" style="fill:#ebebeb"></rect><rect x="203.03" y="285.21" width="8.22" height="4.09" transform="translate(414.28 574.52) rotate(180)" style="fill:#ebebeb"></rect><rect x="213.55" y="278.26" width="8.22" height="4.09" transform="translate(435.32 560.62) rotate(180)" style="fill:#ebebeb"></rect><rect x="203.03" y="278.26" width="8.22" height="4.09" transform="translate(414.28 560.62) rotate(180)" style="fill:#ebebeb"></rect></g><g id="freepik--Building--inject-24"><rect x="309.55" y="313.62" width="37.57" height="75.44" style="fill:#37474f"></rect><rect x="315.46" y="320.15" width="6.65" height="4.62" style="fill:#455a64"></rect><rect x="315.46" y="330.02" width="6.65" height="4.62" style="fill:#455a64"></rect><rect x="315.46" y="339.89" width="6.65" height="4.62" style="fill:#455a64"></rect><rect x="315.46" y="349.77" width="6.65" height="4.62" style="fill:#455a64"></rect><rect x="315.46" y="359.64" width="6.65" height="4.62" style="fill:#455a64"></rect><rect x="315.46" y="369.51" width="6.65" height="4.62" style="fill:#455a64"></rect><rect x="315.46" y="379.38" width="6.65" height="4.62" style="fill:#455a64"></rect><rect x="325.02" y="320.15" width="6.65" height="4.62" style="fill:#455a64"></rect><rect x="325.02" y="330.02" width="6.65" height="4.62" style="fill:#455a64"></rect><rect x="325.02" y="339.89" width="6.65" height="4.62" style="fill:#455a64"></rect><rect x="325.02" y="349.77" width="6.65" height="4.62" style="fill:#455a64"></rect><rect x="325.02" y="359.64" width="6.65" height="4.62" style="fill:#455a64"></rect><rect x="325.02" y="369.51" width="6.65" height="4.62" style="fill:#455a64"></rect><rect x="325.02" y="379.38" width="6.65" height="4.62" style="fill:#455a64"></rect><rect x="334.57" y="320.15" width="6.65" height="4.62" style="fill:#455a64"></rect><rect x="334.57" y="330.02" width="6.65" height="4.62" style="fill:#455a64"></rect><rect x="334.57" y="339.89" width="6.65" height="4.62" style="fill:#455a64"></rect><rect x="334.57" y="349.77" width="6.65" height="4.62" style="fill:#455a64"></rect><rect x="334.57" y="359.64" width="6.65" height="4.62" style="fill:#455a64"></rect><rect x="334.57" y="369.51" width="6.65" height="4.62" style="fill:#455a64"></rect><rect x="334.57" y="379.38" width="6.65" height="4.62" style="fill:#455a64"></rect><rect x="322.11" y="305.76" width="25.02" height="7.86" style="fill:#455a64"></rect><rect x="331.26" y="300.89" width="15.86" height="4.87" style="fill:#37474f"></rect><rect x="347.12" y="313.62" width="26.36" height="75.44" style="fill:#263238"></rect><rect x="365.38" y="378.65" width="5.41" height="4.62" transform="translate(736.16 761.91) rotate(180)" style="fill:#37474f"></rect><rect x="365.38" y="368.77" width="5.41" height="4.62" transform="translate(736.16 742.17) rotate(180)" style="fill:#37474f"></rect><rect x="365.38" y="358.9" width="5.41" height="4.62" transform="translate(736.16 722.43) rotate(180)" style="fill:#37474f"></rect><rect x="365.38" y="349.03" width="5.41" height="4.62" transform="translate(736.16 702.68) rotate(180)" style="fill:#37474f"></rect><rect x="365.38" y="339.16" width="5.41" height="4.62" transform="translate(736.16 682.94) rotate(180)" style="fill:#37474f"></rect><rect x="365.38" y="329.29" width="5.41" height="4.62" transform="translate(736.16 663.19) rotate(180)" style="fill:#37474f"></rect><rect x="365.38" y="319.41" width="5.41" height="4.62" transform="translate(736.16 643.45) rotate(180)" style="fill:#37474f"></rect><rect x="357.59" y="378.65" width="5.41" height="4.62" transform="translate(720.59 761.91) rotate(180)" style="fill:#37474f"></rect><rect x="357.59" y="368.77" width="5.41" height="4.62" transform="translate(720.59 742.17) rotate(180)" style="fill:#37474f"></rect><rect x="357.59" y="358.9" width="5.41" height="4.62" transform="translate(720.59 722.43) rotate(180)" style="fill:#37474f"></rect><rect x="357.59" y="349.03" width="5.41" height="4.62" transform="translate(720.59 702.68) rotate(180)" style="fill:#37474f"></rect><rect x="357.59" y="339.16" width="5.41" height="4.62" transform="translate(720.59 682.94) rotate(180)" style="fill:#37474f"></rect><rect x="357.59" y="329.29" width="5.41" height="4.62" transform="translate(720.59 663.19) rotate(180)" style="fill:#37474f"></rect><rect x="357.59" y="319.41" width="5.41" height="4.62" transform="translate(720.59 643.45) rotate(180)" style="fill:#37474f"></rect><rect x="349.82" y="378.65" width="5.41" height="4.62" transform="translate(705.06 761.91) rotate(180)" style="fill:#37474f"></rect><rect x="349.82" y="368.77" width="5.41" height="4.62" transform="translate(705.06 742.17) rotate(180)" style="fill:#37474f"></rect><rect x="349.82" y="358.9" width="5.41" height="4.62" transform="translate(705.06 722.43) rotate(180)" style="fill:#37474f"></rect><rect x="349.82" y="349.03" width="5.41" height="4.62" transform="translate(705.06 702.68) rotate(180)" style="fill:#37474f"></rect><rect x="349.82" y="339.16" width="5.41" height="4.62" transform="translate(705.06 682.94) rotate(180)" style="fill:#37474f"></rect><rect x="349.82" y="329.29" width="5.41" height="4.62" transform="translate(705.06 663.19) rotate(180)" style="fill:#37474f"></rect><rect x="349.82" y="319.41" width="5.41" height="4.62" transform="translate(705.06 643.45) rotate(180)" style="fill:#37474f"></rect><rect x="347.12" y="305.76" width="22.37" height="7.86" style="fill:#37474f"></rect><rect x="347.12" y="300.89" width="12.12" height="4.87" style="fill:#263238"></rect></g><g id="freepik--Location--inject-24"><path d="M336.9,97.46H347c-22.23,0-40.24,18.29-40.24,40.85s18,40.87,40.24,40.87H336.9c-22.23,0-40.24-18.29-40.24-40.87S314.67,97.46,336.9,97.46Z" style="fill:#90CAF9"></path><g style="opacity:0.1"><path d="M336.9,97.46H347c-22.23,0-40.24,18.29-40.24,40.85s18,40.87,40.24,40.87H336.9c-22.23,0-40.24-18.29-40.24-40.87S314.67,97.46,336.9,97.46Z"></path></g><path d="M347,295.11H336.9c40.85-47.59,79.11-99.76,73.49-157.36-3.66-37.31-29-74.47-73.49-74.47H347c44.5,0,69.83,37.16,73.48,74.47C426.15,195.35,387.89,247.52,347,295.11Z" style="fill:#90CAF9"></path><g style="opacity:0.1"><path d="M347,295.11H336.9c40.85-47.59,79.11-99.76,73.49-157.36-3.66-37.31-29-74.47-73.49-74.47H347c44.5,0,69.83,37.16,73.48,74.47C426.15,195.35,387.89,247.52,347,295.11Z"></path></g><path d="M410.38,137.75c5.63,57.6-32.63,109.77-73.48,157.37-40.8-47.6-79.06-99.77-73.44-157.37,3.66-37.31,29-74.46,73.44-74.46S406.73,100.44,410.38,137.75ZM336.9,179.18c22.28,0,40.29-18.29,40.29-40.87s-18-40.85-40.29-40.85-40.24,18.29-40.24,40.85,18,40.87,40.24,40.87" style="fill:#90CAF9"></path></g><g id="freepik--Floor--inject-24"><polygon points="50.88 393.7 100.66 393.46 150.44 393.37 250 393.2 349.56 393.37 399.34 393.46 449.12 393.7 399.34 393.95 349.56 394.04 250 394.2 150.44 394.04 100.66 393.95 50.88 393.7" style="fill:#263238"></polygon><rect x="50.7" y="389.06" width="398.6" height="4.64" style="fill:#c7c7c7"></rect><path d="M62.23,389.06a13.56,13.56,0,0,1,0,4.64,12.92,12.92,0,0,1,0-4.64Z" style="fill:#263238"></path><path d="M75.64,389.06a13.56,13.56,0,0,1,0,4.64,13.56,13.56,0,0,1,0-4.64Z" style="fill:#263238"></path><path d="M89.05,389.06a13.56,13.56,0,0,1,0,4.64,13.56,13.56,0,0,1,0-4.64Z" style="fill:#263238"></path><path d="M102.46,389.06a13.56,13.56,0,0,1,0,4.64,13.56,13.56,0,0,1,0-4.64Z" style="fill:#263238"></path><path d="M115.88,389.06a13.56,13.56,0,0,1,0,4.64,12.92,12.92,0,0,1,0-4.64Z" style="fill:#263238"></path><path d="M129.29,389.06a13.56,13.56,0,0,1,0,4.64,13.56,13.56,0,0,1,0-4.64Z" style="fill:#263238"></path><path d="M142.7,389.06a13.56,13.56,0,0,1,0,4.64,13.56,13.56,0,0,1,0-4.64Z" style="fill:#263238"></path><path d="M156.11,389.06a13.56,13.56,0,0,1,0,4.64,13.56,13.56,0,0,1,0-4.64Z" style="fill:#263238"></path><path d="M169.53,389.06a13.56,13.56,0,0,1,0,4.64,12.92,12.92,0,0,1,0-4.64Z" style="fill:#263238"></path><path d="M182.94,389.06a13.56,13.56,0,0,1,0,4.64,13.56,13.56,0,0,1,0-4.64Z" style="fill:#263238"></path><path d="M196.35,389.06a13.56,13.56,0,0,1,0,4.64,13.56,13.56,0,0,1,0-4.64Z" style="fill:#263238"></path><path d="M209.76,389.06a13.56,13.56,0,0,1,0,4.64,13.56,13.56,0,0,1,0-4.64Z" style="fill:#263238"></path><path d="M223.18,389.06a13.56,13.56,0,0,1,0,4.64,12.92,12.92,0,0,1,0-4.64Z" style="fill:#263238"></path><path d="M236.59,389.06a13.56,13.56,0,0,1,0,4.64,13.56,13.56,0,0,1,0-4.64Z" style="fill:#263238"></path><path d="M250,389.06a13.56,13.56,0,0,1,0,4.64,13.56,13.56,0,0,1,0-4.64Z" style="fill:#263238"></path><path d="M263.41,389.06a13.56,13.56,0,0,1,0,4.64,13.56,13.56,0,0,1,0-4.64Z" style="fill:#263238"></path><path d="M276.83,389.06a13.56,13.56,0,0,1,0,4.64,12.92,12.92,0,0,1,0-4.64Z" style="fill:#263238"></path><path d="M290.24,389.06a13.56,13.56,0,0,1,0,4.64,13.56,13.56,0,0,1,0-4.64Z" style="fill:#263238"></path><path d="M303.65,389.06a13.56,13.56,0,0,1,0,4.64,13.56,13.56,0,0,1,0-4.64Z" style="fill:#263238"></path><path d="M317.06,389.06a13.56,13.56,0,0,1,0,4.64,13.56,13.56,0,0,1,0-4.64Z" style="fill:#263238"></path><path d="M330.47,389.06a12.92,12.92,0,0,1,0,4.64,13.56,13.56,0,0,1,0-4.64Z" style="fill:#263238"></path><path d="M343.89,389.06a13.56,13.56,0,0,1,0,4.64,13.56,13.56,0,0,1,0-4.64Z" style="fill:#263238"></path><path d="M357.3,389.06a13.56,13.56,0,0,1,0,4.64,13.56,13.56,0,0,1,0-4.64Z" style="fill:#263238"></path><path d="M370.71,389.06a13.56,13.56,0,0,1,0,4.64,13.56,13.56,0,0,1,0-4.64Z" style="fill:#263238"></path><path d="M384.12,389.06a12.92,12.92,0,0,1,0,4.64,13.56,13.56,0,0,1,0-4.64Z" style="fill:#263238"></path><path d="M397.54,389.06a13.56,13.56,0,0,1,0,4.64,13.56,13.56,0,0,1,0-4.64Z" style="fill:#263238"></path><path d="M411,389.06a13.56,13.56,0,0,1,0,4.64,11.31,11.31,0,0,1-.2-2.32A12.12,12.12,0,0,1,411,389.06Z" style="fill:#263238"></path><path d="M424.36,389.06a13.56,13.56,0,0,1,0,4.64,13.56,13.56,0,0,1,0-4.64Z" style="fill:#263238"></path><path d="M437.77,389.06a12.92,12.92,0,0,1,0,4.64,13.56,13.56,0,0,1,0-4.64Z" style="fill:#263238"></path></g><g id="freepik--Plants--inject-24"><path d="M92.45,389.06h-22s0-3.27,2.21-4.14a3,3,0,0,1,3.45.83s.88-6,4.91-6S87,384.92,87,384.92a3.09,3.09,0,0,1,3.14-1.28C92.36,383.94,92.45,389.06,92.45,389.06Z" style="fill:#37474f"></path><path d="M445.86,389.06s-.67-3.14-2-3.63a1.91,1.91,0,0,0-2.16.93s-.32-3-2.23-3.9-3.34.94-3.34.94-1.46-3.81-4.08-3.81-3.94,5.57-3.94,5.57-1.54-1.66-3.12-.72-1.58,4.62-1.58,4.62Z" style="fill:#37474f"></path><path d="M240.59,389.06s-.67-3.14-2-3.63a1.92,1.92,0,0,0-2.17.93s-.31-3-2.22-3.9-3.34.94-3.34.94-1.47-3.81-4.08-3.81-3.94,5.57-3.94,5.57-1.54-1.66-3.12-.72-1.59,4.62-1.59,4.62Z" style="fill:#37474f"></path><path d="M74.41,389.06H54.14s.67-2.86,2-3.06a2,2,0,0,1,2,1.12s-.06-4,2.45-4.66,4.61,2.84,4.61,2.84a5,5,0,0,1,3.72-1.88c2.15.13,2.69,3.45,2.69,3.45S73.55,385.72,74.41,389.06Z" style="fill:#455a64"></path><path d="M222.48,389.06H202.21s.67-2.86,2-3.06a2,2,0,0,1,2,1.12s-.06-4,2.45-4.66,4.62,2.84,4.62,2.84a5,5,0,0,1,3.72-1.88c2.14.13,2.69,3.45,2.69,3.45S221.62,385.72,222.48,389.06Z" style="fill:#455a64"></path><path d="M424.84,389.06H412.38s0-1.85,1.26-2.34a1.66,1.66,0,0,1,1.95.46s.5-3.4,2.78-3.4,3.37,2.94,3.37,2.94a1.76,1.76,0,0,1,1.78-.73C424.79,386.16,424.84,389.06,424.84,389.06Z" style="fill:#455a64"></path><path d="M272.47,389.06H260s0-1.85,1.25-2.34a1.67,1.67,0,0,1,2,.46s.5-3.4,2.78-3.4,3.37,2.94,3.37,2.94a1.76,1.76,0,0,1,1.78-.73C272.42,386.16,272.47,389.06,272.47,389.06Z" style="fill:#455a64"></path></g></svg>