<svg id="OBJECTS" xmlns="http://www.w3.org/2000/svg" xmlns:xlink="http://www.w3.org/1999/xlink" viewBox="0 0 652.79 383.66"><defs><style>.cls-1{fill:#e89a49;}.cls-2,.cls-22,.cls-26,.cls-6{fill:none;}.cls-3{fill:#fff1cd;}.cls-4{fill:#ffc366;}.cls-5{fill:#ffdb82;}.cls-6{stroke:#ffc366;stroke-width:1.08px;}.cls-26,.cls-6{stroke-linecap:round;}.cls-22,.cls-6{stroke-miterlimit:10;}.cls-7{fill:#b9d3f4;}.cls-8{fill:#a7c8f1;}.cls-9{clip-path:url(#clip-path);}.cls-10{fill:#fff;}.cls-11{fill:#193441;}.cls-12{fill:#b56b1f;}.cls-13{fill:#d3e3f8;}.cls-14{fill:#e88620;}.cls-15{fill:#fb523a;}.cls-16{fill:#ffbfb3;}.cls-17{fill:#ffaa9a;}.cls-18{fill:#91baee;}.cls-19{clip-path:url(#clip-path-2);}.cls-20{fill:#edf4fc;}.cls-21{clip-path:url(#clip-path-3);}.cls-22{stroke:#91baee;stroke-width:0.75px;}.cls-23{fill:#7dc1a3;}.cls-24{fill:#5db18c;}.cls-25{fill:#97cdb5;}.cls-26{stroke:#db8832;stroke-linejoin:round;}.cls-27{fill:#a8cfff;}.cls-28{fill:#e9f1fc;}</style><clipPath id="clip-path" transform="translate(-48.61 -53.78)"><path class="cls-1" d="M329.14,435.67h19a684.09,684.09,0,0,1,105,0h14.6a15.54,15.54,0,0,0,8.55-4.2c4.81-4.9,4.77-12.83,2.78-19.39-4.77-15.69-18.95-27.56-34.82-31.68s-33-1.11-47.77,6.1c-10.19,5-15.55,9.12-26.19,5.17-5.31-2-18-8-30.71,1.64-6.83,5.18-7.29,16-17.44,20.66-4.26,1.94-3.86,9-2.49,13.5C321,431.63,324.93,434.5,329.14,435.67Z"/></clipPath><clipPath id="clip-path-2" transform="translate(-48.61 -53.78)"><rect class="cls-2" x="309.23" y="161" width="170.67" height="139.33"/></clipPath><clipPath id="clip-path-3" transform="translate(-48.61 -53.78)"><rect class="cls-2" x="349.82" y="261.16" width="57.75" height="18.23"/></clipPath></defs><path class="cls-3" d="M188.82,435.67a229.63,229.63,0,0,1-68.15-104.51c-7.07-22.8-8.83-51.6,9.73-66.62,22.67-18.33,57.2-2.57,85.11-11,25.69-7.76,40.6-34.21,50-59.34s16.93-52.62,36.84-70.63c26.7-24.14,69.06-23.41,101.39-7.58s56.79,43.82,79.72,71.56,46,56.57,76.85,75c18.72,11.21,40.37,18.67,55,34.83,16.2,17.86,21,43.8,18.19,67.75s-12.29,46.53-21.69,68.74Z" transform="translate(-48.61 -53.78)"/><path class="cls-4" d="M376.84,411c-3.11,5.58-7.8,10.53-13.81,12.72s-13.38,1.16-17.76-3.5-4.59-13,.28-17.14c-5.59,2.38-10,6.8-15,10.26s-11.32,6-17.07,4.09A12.11,12.11,0,0,1,312.21,395,21.23,21.23,0,0,1,287,387.76c-5-7.29-4.81-16.83-4.43-25.66,4.73,3,10.9,2.37,16.35,1s11-3.37,16.55-2.6,11.12,5.57,10.26,11.12a16.23,16.23,0,0,1,32.1,3.36c1-4.37,7.17-5.72,11.13-3.57C383.38,379.22,383.79,398.66,376.84,411Z" transform="translate(-48.61 -53.78)"/><path class="cls-5" d="M375.26,413.52c-11.83-13-26.19-21.28-43.46-26.15-9.09-2.57-18.15-5-26.89-8.6-8.26-3.43-17.19-8.52-21.91-16.44l-.41-.23c-.38,8.83-.57,18.37,4.43,25.66A21.23,21.23,0,0,0,312.21,395a12.11,12.11,0,0,0,1.27,22.41c5.75,2,12.08-.63,17.07-4.09s9.41-7.88,15-10.26c-4.87,4.14-4.66,12.48-.28,17.14s11.76,5.69,17.76,3.5A25.92,25.92,0,0,0,375.26,413.52Z" transform="translate(-48.61 -53.78)"/><path class="cls-6" d="M339.33,389.77c19.6,7.5,37,21.84,52,37.09" transform="translate(-48.61 -53.78)"/><path class="cls-7" d="M433.39,363.34c-4.07-1.63-5.21-5.83-4.16-9.73,1.11-4.1,2.13-8.19,2.92-12.32a47.63,47.63,0,0,0-13.69-10.82,53.7,53.7,0,0,0-8-3.35c.11,2.47.26,4.93.47,7.39.83,9.59-14,11.8-14.81,2.2-.37-4.25-.55-8.5-.67-12.76a133.81,133.81,0,0,0-18.22-.56c-5.23.15-17.18-.74-17.18-.74s1.8,22.9.92,29.86c-.1.78-.19,1.56-.29,2.35,2.55,1.32,5.06,2.73,7.53,4.25,3.46,2.12,3.67,7.52,1.42,10.49-2.57,3.37-6.87,3.52-10.27,1.54-.12,7.2.64,14.29,3.29,20.95.33.85.71,1.68,1.11,2.49,1.68-.11,3.37-.17,5.05-.27a35.63,35.63,0,0,0,5.61-.68c4.24-1.39,8.93,0,10.8,4.34,1.64,3.85-.11,9.42-4.34,10.81a31,31,0,0,1-3.9,1c9.18,6.38,20.89,9.29,31.91,7.18,18.64-3.56,33.61-20.63,35.45-39.51a45.15,45.15,0,0,0-1.7-17.15C441,363.4,436.46,364.58,433.39,363.34Z" transform="translate(-48.61 -53.78)"/><path class="cls-8" d="M399,371.87a241,241,0,0,0-18.79-25.34c-6.44-7.42-13.3-14.45-19.95-21.68.43,5.9,1.47,22,.76,27.66-.1.78-.19,1.56-.29,2.35,2.55,1.32,5.06,2.73,7.53,4.25,3.46,2.12,3.67,7.52,1.42,10.49-2.57,3.37-6.87,3.52-10.27,1.54-.12,7.2.64,14.29,3.29,20.95.33.85.71,1.68,1.11,2.49,1.68-.11,3.37-.17,5.05-.27a35.63,35.63,0,0,0,5.61-.68c4.24-1.39,8.93,0,10.8,4.34,1.64,3.85-.11,9.42-4.34,10.81a31,31,0,0,1-3.9,1c9.18,6.38,20.89,9.29,31.91,7.18a42.47,42.47,0,0,0,19.74-9.79C416.32,398,407.41,384.61,399,371.87Z" transform="translate(-48.61 -53.78)"/><path class="cls-6" d="M403,377.63c10.77,17.9,26.13,33.13,43.24,45.12" transform="translate(-48.61 -53.78)"/><path class="cls-1" d="M329.14,435.67h19a684.09,684.09,0,0,1,105,0h14.6a15.54,15.54,0,0,0,8.55-4.2c4.81-4.9,4.77-12.83,2.78-19.39-4.77-15.69-18.95-27.56-34.82-31.68s-33-1.11-47.77,6.1c-10.19,5-15.55,9.12-26.19,5.17-5.31-2-18-8-30.71,1.64-6.83,5.18-7.29,16-17.44,20.66-4.26,1.94-3.86,9-2.49,13.5C321,431.63,324.93,434.5,329.14,435.67Z" transform="translate(-48.61 -53.78)"/><g class="cls-9"><path class="cls-10" d="M390.44,387.29c1.57,2.25,1.46,5.25,1,8s-1.2,5.46-.68,8.15a9.87,9.87,0,0,0,7.14,7.4,11.73,11.73,0,0,0,10.19-2.38c2.23-1.82,3.86-4.77,3.09-7.54-1.23-4.37-7.4-5.73-8.82-10-.56-1.69-.26-3.55-.63-5.29s-1.94-3.54-3.66-3.05" transform="translate(-48.61 -53.78)"/><path class="cls-10" d="M456.09,380.94l-11.51,8.76a14.74,14.74,0,0,0-4.57,4.7c-1,2-.91,4.67.8,6.07s4.42.94,6.74.79a17.6,17.6,0,0,1,8,1.39c2.15.93,4.28,2.33,6.62,2.14,3.07-.25,5.32-3.34,5.59-6.41s-1-6.06-2.45-8.78" transform="translate(-48.61 -53.78)"/></g><path class="cls-11" d="M321.83,413.83s-6.16,2.17-6.5,4.84,4.36,8.8,4.36,8.8S323.17,417.83,321.83,413.83Z" transform="translate(-48.61 -53.78)"/><path class="cls-12" d="M434,405s-.35.19-.94.55-1.43.88-2.39,1.53c-.48.33-1,.69-1.52,1.08s-1.06.85-1.62,1.28-1.08,1-1.63,1.46a21.5,21.5,0,0,0-1.53,1.63l-.73.85c-.24.29-.44.6-.65.9s-.44.59-.64.89l-.54.92a14.81,14.81,0,0,0-.93,1.81l-.41.86q-.17.44-.3.84c-.18.54-.41,1-.54,1.49s-.22.85-.31,1.19c-.19.66-.32,1.05-.32,1.05s0-.39-.08-1.09c0-.35,0-.78,0-1.28a16,16,0,0,1,.17-1.65c.05-.3.09-.62.14-.95s.19-.64.29-1a9.82,9.82,0,0,1,.77-2.09,11.32,11.32,0,0,1,1.14-2.1c.23-.33.44-.69.69-1l.79-1a18.24,18.24,0,0,1,3.6-3.18,18.25,18.25,0,0,1,1.89-1.14,15.42,15.42,0,0,1,1.77-.83,15.93,15.93,0,0,1,2.78-.88A8,8,0,0,1,434,405Z" transform="translate(-48.61 -53.78)"/><path class="cls-1" d="M413.54,436a11.82,11.82,0,0,0,1.1.48h50c5.07-1.28,9.8-3.48,13.1-7.43l-12.09-11A56.9,56.9,0,0,1,430,422.24c-4.3-.91-8.62-2.32-13-1.78s-8.8,3.85-8.75,8.24C408.32,431.86,410.71,434.62,413.54,436Z" transform="translate(-48.61 -53.78)"/><path class="cls-12" d="M465.69,418.06l-.58.32c-.38.2-.92.54-1.66.88a45.32,45.32,0,0,1-6.25,2.57c-.66.22-1.36.42-2.09.65s-1.48.4-2.27.57a49.71,49.71,0,0,1-5,.91,52.24,52.24,0,0,1-5.41.42,55.27,55.27,0,0,1-5.6-.15,25.17,25.17,0,0,1-2.83-.36c-.93-.16-1.84-.36-2.74-.56-1.79-.39-3.51-.87-5.18-1.24A31.15,31.15,0,0,0,417,421a11.6,11.6,0,0,0-3.52.81A9.49,9.49,0,0,0,411,423.3a10.58,10.58,0,0,0-1.31,1.31l-.42.52s.12-.2.33-.58c.11-.2.26-.42.44-.68a6.65,6.65,0,0,1,.69-.86,9.24,9.24,0,0,1,2.34-1.87,11.65,11.65,0,0,1,3.71-1.26,27.43,27.43,0,0,1,9.65.47c1.72.32,3.48.69,5.24,1.07a35.51,35.51,0,0,0,5.31.82,62.13,62.13,0,0,0,10.66,0c1.7-.17,3.34-.36,4.88-.62s3-.55,4.34-.86,2.56-.64,3.63-1,2-.61,2.77-.88C464.82,418.39,465.69,418.06,465.69,418.06Z" transform="translate(-48.61 -53.78)"/><path class="cls-1" d="M365.26,422.69c-2.43,1.39-5.39,1.31-8.12,1.93s-5.65,2.54-5.63,5.34a5.21,5.21,0,0,0,3.09,4.36,14.53,14.53,0,0,0,5.47,1.16A162,162,0,0,0,396.42,434" transform="translate(-48.61 -53.78)"/><path class="cls-10" d="M335.94,409.08c-1.72,4.42-1.3,9.35-.85,14.07.18,1.85.4,3.81,1.55,5.26,1.69,2.13,4.95,2.45,7.48,1.43s4.45-3.08,6.22-5.16a27,27,0,0,0,5.2-8.13c2.3-6.41-.93-11.54-6.81-14.28C343.49,399.83,337.86,404.16,335.94,409.08Z" transform="translate(-48.61 -53.78)"/><path class="cls-12" d="M355,434l-.35-.36a9.49,9.49,0,0,1-.89-1.1,6.42,6.42,0,0,1-1-2.05,4.81,4.81,0,0,1,.17-3.06,7.07,7.07,0,0,1,2.22-2.86,13.07,13.07,0,0,1,3.39-2,18.88,18.88,0,0,1,4-1.21,16.62,16.62,0,0,1,2.15-.27,11,11,0,0,1,1.15,0c.2,0,.4,0,.62.08l.52.1c1.31.26,2.65.47,4,.64s2.63.35,3.89.45a68.12,68.12,0,0,0,6.95.32,19.3,19.3,0,0,0,4.84-.58,6.33,6.33,0,0,0,1.28-.51,4.17,4.17,0,0,0,.41-.27s-.11.13-.35.36a5.89,5.89,0,0,1-1.19.79,16.11,16.11,0,0,1-4.9,1.34,40.47,40.47,0,0,1-7.15.3,56,56,0,0,1-8.15-.88l-.5-.1a3.59,3.59,0,0,0-.39-.06c-.29,0-.6,0-.91,0a17.7,17.7,0,0,0-1.91.21,22.42,22.42,0,0,0-3.67,1c-2.3.82-4.33,2.06-5.2,3.68a4.24,4.24,0,0,0-.47,2.44,6.88,6.88,0,0,0,.56,2c.25.54.48.95.64,1.23Z" transform="translate(-48.61 -53.78)"/><path class="cls-11" d="M357.71,416.1c-.31,3.36-1.2,6.86,0,10,1.45,3.83,5.9,6,10,5.48a13.09,13.09,0,0,0,9.45-7.09,22,22,0,0,0,2.07-11.93c-.64-8.29-11.18-23.67-21.89-21.8C358,399.57,358.26,410,357.71,416.1Z" transform="translate(-48.61 -53.78)"/><path class="cls-13" d="M642.56,232.28h39.8a6.1,6.1,0,0,0-.39-.87,5.86,5.86,0,0,0-1.93-2.36,5.79,5.79,0,0,0-2.58-1.5,7.58,7.58,0,0,0-3.87-.2l-.61.11a7.34,7.34,0,0,0-2.93,1.31L670,228a6.45,6.45,0,0,0-1.52-3l-1.32-1.12a6.48,6.48,0,0,0-3.14-1,4.92,4.92,0,0,0-2.43.4l-.09,0c0-.34,0-.68-.08-1a6.69,6.69,0,0,0-1.56-3.08l-1.35-1.15a6.62,6.62,0,0,0-3.22-1,7.36,7.36,0,0,0-4.77,1.69,7.41,7.41,0,0,0-2.18,4.57c0,.56.08,1.12.13,1.68a6.32,6.32,0,0,0,.59,1.68h-.34A6.08,6.08,0,0,0,642.56,232.28Z" transform="translate(-48.61 -53.78)"/><path class="cls-11" d="M240.3,199.57c1.69-.16,3.28-1.29,4.91-2.08,4.79-2.31,9.89-1.61,14.86-.89l15,2.19c1.74.25,3.64.64,5.15-.83,3.87-3.77.53-18.91-.82-23.61s-1.17,2.23-4,0c-7.61-6-16.32-7.06-24.47-3.84-5.9,2.34-6.51-7-10.17.72C238.36,176.36,233.89,200.14,240.3,199.57Z" transform="translate(-48.61 -53.78)"/><path class="cls-1" d="M237.1,421.22l-.25,7.57a5.2,5.2,0,0,0,5,5.37l17.24.57a2.17,2.17,0,0,0,2.12-2.86h0a2.17,2.17,0,0,0-1.89-1.46l-1.57-.08a11.48,11.48,0,0,1-10.73-9.59h0Z" transform="translate(-48.61 -53.78)"/><path class="cls-1" d="M238.23,428.92s-.51-2.16-1.23-5.94c-.33-1.9-.77-4.2-1.17-6.84-.2-1.33-.41-2.74-.64-4.23s-.4-3.06-.61-4.69c-.44-3.28-.8-6.84-1.11-10.65s-.56-7.81-.53-12.32a61.66,61.66,0,0,1,.32-6.52c.24-2.18.55-4.38.93-6.55A104.5,104.5,0,0,0,236,358.57a23.54,23.54,0,0,0-.05-2.7l-.06-.59v-.38l0-.21,0-.42,0-2.09c0-2.37,0-4.55,0-6.74,0-4.33,0-8.6,0-12.72,0-8.22-.18-15.85-.52-22.35-.14-3.25-.31-6.21-.54-8.78s-.45-4.77-.7-6.46a12.1,12.1,0,0,0-.73-3.2l-.14-.14c0-.07,0,.08-.05.13l0,.19c0,.23,0,.35,0,.35a17.7,17.7,0,0,1,35.12-4.41l0,1.14c0,.19,0,.4,0,.64a6.64,6.64,0,0,1,0,.67q0,.51-.12,1.2a50.54,50.54,0,0,1-1.08,5.62c-.51,2.1-1.14,4.5-1.85,7.2s-1.52,5.64-2.4,8.9c-1.78,6.45-3.74,13.9-5.74,21.85-1,4-2,8.09-2.92,12.22-.48,2.05-.92,4.16-1.32,6.1l-.14.67-.12.48,0,.39,0,.2v.1c0-.07,0,.23,0-.14v.06l-.1,1c-.15,1.37-.33,2.6-.52,3.8-.36,2.37-.7,4.58-1,6.74s-.46,4.27-.64,6.34-.35,4.07-.53,6.07-.37,3.72-.62,5.85c-.19,1.79-.34,3.71-.46,5.58s-.22,3.76-.32,5.57c-.19,3.69-.37,7.17-.53,10.38-.08,1.62-.16,3.17-.23,4.64s-.17,2.89-.25,4.2c-.13,2.64-.47,4.95-.59,6.85-.28,3.81-.65,6-.65,6h0a3.85,3.85,0,0,1-4.34,3.68A3.93,3.93,0,0,1,238.23,428.92Z" transform="translate(-48.61 -53.78)"/><path class="cls-11" d="M261.24,431.87a2.17,2.17,0,0,0-1.89-1.46l-1.57-.08a11.46,11.46,0,0,1-9.77-6.55,7,7,0,0,1-6.6,4.26,6.17,6.17,0,0,1-4.48-1.67l-.08,2.42a5.2,5.2,0,0,0,5,5.37l17.24.57A2.17,2.17,0,0,0,261.24,431.87Z" transform="translate(-48.61 -53.78)"/><path class="cls-1" d="M240.42,197.45c12-.37,10.88-10.53,10.88-10.53l8-.25,8,.25s-1.08,10.16,10.88,10.53c3.89.11,11.69,12.74,11.69,12.74H235S238.63,197.5,240.42,197.45Z" transform="translate(-48.61 -53.78)"/><path class="cls-14" d="M267.68,190.08a11.26,11.26,0,0,0,1.19,3c-3.74,8.12-14.12,9.15-18.79-.56a8.17,8.17,0,0,0,.8-2.46Z" transform="translate(-48.61 -53.78)"/><path class="cls-1" d="M276.76,163.85c-1-11-9.09-17.32-17-17.19s-15.81,6.7-16.58,17.73c-.45,6.46,1,13.43,2,17.43a14.51,14.51,0,0,0,3.29,6.26c3.58,3.92,8.24,7,11.9,7s8.24-3.33,11.73-7.36a14.76,14.76,0,0,0,3.14-6.36C276.12,177.31,277.36,170.3,276.76,163.85Z" transform="translate(-48.61 -53.78)"/><path class="cls-1" d="M286.23,204.54l0,.05a9.54,9.54,0,0,1,.87.94,6,6,0,0,1,.44.62c.28.41.45.7.67,1.07.43.73,1,1.66,1.62,2.85,1.3,2.38,3.12,5.71,5.34,9.67S300,228.29,302.9,233c1.46,2.34,3,4.75,4.56,7,.79,1.11,1.61,2.2,2.41,3.14.39.46.78.91,1.13,1.26s.67.63.74.71,0,0,0,0l.25.14.08.05s.09.06.17.11l.23.12a6.84,6.84,0,0,0,1,.35,6.28,6.28,0,0,0,1.07.17h.41a.94.94,0,0,0,.12,0h.14l1.14-.08c3.14-.24,6.2-.32,9.17-.29s5.83.1,8.55.24,5.29.34,7.66.52,4.55.4,6.48.64,3.7-.24,5.13-.09a11.22,11.22,0,0,1,1.9.34,7.76,7.76,0,0,1,1.36.59,4.71,4.71,0,0,1,1.06.74,3.38,3.38,0,0,1-.06,4.77,3.48,3.48,0,0,1-.9.63l-.36.17a4.57,4.57,0,0,1-1.1.3,6.72,6.72,0,0,1-1.24.06,7.28,7.28,0,0,1-1.65-.18c-.6-.13-1.3-.3-2-.53a9.94,9.94,0,0,0-2.48-.45c-1.8,0-3.85.1-6.08.3-1.12.11-2.28.23-3.49.39s-2.44.35-3.72.57c-2.55.41-5.24.92-8,1.5L318.05,258l-1.11.24-.31.06-.42.07-.86.12a17.79,17.79,0,0,1-3.5,0,18.85,18.85,0,0,1-3.49-.66c-.28-.09-.57-.17-.85-.28s-.55-.19-.89-.33l-.71-.31a8.94,8.94,0,0,1-1-.53,18.86,18.86,0,0,1-2.9-2.1c-.79-.68-1.47-1.33-2.11-2-1.28-1.31-2.37-2.6-3.42-3.89-2.08-2.56-3.93-5.07-5.62-7.55-3.4-4.92-6.28-9.59-8.69-13.6s-4.3-7.41-5.63-9.72L275.06,215c-.14-.25-.26-.43-.19-.33s-.09-.1.31.42a6,6,0,0,0,.76.8l-.05,0-.58-.6a7.64,7.64,0,0,1,10.92-10.7Z" transform="translate(-48.61 -53.78)"/><path class="cls-1" d="M269.1,421.22l-.25,7.57a5.2,5.2,0,0,0,5,5.37l17.24.57a2.17,2.17,0,0,0,2.12-2.86h0a2.17,2.17,0,0,0-1.89-1.46l-1.57-.08a11.48,11.48,0,0,1-10.73-9.59h0Z" transform="translate(-48.61 -53.78)"/><path class="cls-1" d="M270.23,428.92s-.51-2.16-1.22-5.94c-.34-1.89-.78-4.19-1.18-6.84-.2-1.32-.41-2.73-.64-4.21s-.4-3.06-.61-4.7c-.43-3.27-.8-6.83-1.11-10.64s-.56-7.79-.53-12.31a58.93,58.93,0,0,1,.32-6.51c.23-2.18.54-4.38.93-6.55A105.85,105.85,0,0,0,268,358.61l0-1.41c0-.43,0-.91-.07-1.29l-.06-.59v-.07c0,.39,0,.08,0,.15v0l0-.2-.06-.4c-.07-.55-.14-1.11-.23-1.54-.36-2-.73-4-1.09-6-.78-4.16-1.63-8.3-2.47-12.28-1.72-8-3.46-15.42-5.11-21.78q-.6-2.38-1.17-4.56c-.39-1.44-.77-2.81-1.12-4.09-.7-2.57-1.35-4.81-1.9-6.62-.27-.92-.51-1.72-.74-2.4s-.42-1.31-.57-1.72l-.48-1.28a18.18,18.18,0,1,1,35.18-5.25l-.07.84s0,.64-.12,1.82-.22,2.65-.39,4.65-.36,4.32-.55,7-.41,5.73-.61,9c-.44,6.61-.8,14.3-1.12,22.53-.15,4.13-.3,8.4-.45,12.73q-.12,3.4-.23,6.85c0,.64-.07,1.17-.11,1.71l0,.4v.65l-.1,1c-.15,1.37-.33,2.59-.52,3.79-.36,2.36-.7,4.56-1,6.73s-.46,4.26-.64,6.33-.36,4.06-.53,6.06-.37,3.73-.62,5.85c-.19,1.78-.34,3.71-.46,5.57s-.22,3.77-.33,5.58c-.18,3.68-.36,7.16-.52,10.37-.08,1.61-.16,3.16-.23,4.64s-.17,2.88-.25,4.19c-.13,2.64-.47,4.95-.59,6.84-.28,3.81-.65,6-.65,6h0a3.85,3.85,0,0,1-4.34,3.68A3.93,3.93,0,0,1,270.23,428.92Z" transform="translate(-48.61 -53.78)"/><path class="cls-15" d="M268.87,337.08a162.26,162.26,0,0,0,23-5c1.47-60.53-10.25-75.1-10.25-75.1h-44c-6.14,15.5-7.07,24-7.73,31.4-2.06,22.77-3.49,31.84-5.1,41.72C237.62,338.39,253.44,339.21,268.87,337.08Z" transform="translate(-48.61 -53.78)"/><path class="cls-16" d="M297.29,222.83c-3.08-11.17-3.54-16.43-8.59-21.39s-13.38-4.16-13.38-4.16-3.37,9.48-15.65,9.63c-12.27-.15-15.64-9.63-15.64-9.63s-8.33-.8-13.38,4.16-4.45,12.4-7.53,23.58l12.74,5.69s3.12,18.17,2,26.14c0,0,8.46,4.37,21.82,4.37s21.83-4.37,21.83-4.37c-1.13-8,2.16-28.35,2.16-28.35Z" transform="translate(-48.61 -53.78)"/><path class="cls-11" d="M293.24,431.87a2.17,2.17,0,0,0-1.89-1.46l-1.57-.08a11.46,11.46,0,0,1-9.77-6.55,7,7,0,0,1-6.6,4.26,6.17,6.17,0,0,1-4.48-1.67l-.08,2.42a5.2,5.2,0,0,0,5,5.37l17.24.57A2.17,2.17,0,0,0,293.24,431.87Z" transform="translate(-48.61 -53.78)"/><path class="cls-1" d="M246,292.16a11.35,11.35,0,0,0-.77-1.84c-.32-.64-.74-1.29-1.1-2a13.29,13.29,0,0,1-.9-2.4c-.26-.86-.56-1.75-.86-2.7-.61-1.87-1.26-3.9-2-6.05s-1.4-4.41-2.18-6.74-1.59-4.73-2.45-7.16c-.45-1.2-.9-2.42-1.36-3.63l-.72-1.82-.36-.9-.09-.23,0-.11-.06-.23a5.48,5.48,0,0,1-.07-2.65c0,.05.2-.81.34-1.39.58-2.47,1.11-4.91,1.64-7.27.62-2.79,1.2-5.46,1.73-8-.38-2.56-1-6.33-1-6.33L224,225.4s-.63,2.47-.86,4.08c-.58,3.83-1.21,8.3-1.83,13.11-.3,2.4-.64,4.88-.92,7.41-.07.67-.15,1.06-.26,2.38a18.5,18.5,0,0,0,.06,3,17.75,17.75,0,0,0,1.56,5.7c.1.22.21.44.32.66l.17.32.12.21.48.84.95,1.66L225.7,268l3.84,6.36c2.48,4.13,4.74,8,6.45,11.43.41.85.83,1.67,1.2,2.45a10.08,10.08,0,0,1,.88,2.28c.34,1.5.42,2.84.78,3.83a6.65,6.65,0,0,0,1,2.11,3.81,3.81,0,0,0,.61.66l.59.47a3.15,3.15,0,0,0,.8.46,3.28,3.28,0,0,0,4.26-1.83,4.53,4.53,0,0,0,.23-1.15A7.43,7.43,0,0,0,246,292.16Z" transform="translate(-48.61 -53.78)"/><path class="cls-11" d="M268.58,152.32c-5.38,10.32-15.13,18.58-26.62,22.74a3.5,3.5,0,0,1-4.67-3.13,49.61,49.61,0,0,1,.94-14.6c1.54-6.23,5.39-12.27,11.53-15.17s14.14-2.12,20,1.39a26.48,26.48,0,0,1,11.63,15.72,36.79,36.79,0,0,1,.89,14.06,3.51,3.51,0,0,1-5.59,2.42,29,29,0,0,1-11.75-20" transform="translate(-48.61 -53.78)"/><rect class="cls-17" x="496.54" y="340.56" width="109.33" height="10"/><rect class="cls-17" x="496.54" y="311.89" width="109.33" height="10"/><polygon class="cls-16" points="515.21 381.89 489.88 381.89 489.88 289.22 502.54 275.22 515.21 289.22 515.21 381.89"/><polygon class="cls-16" points="565.21 381.89 539.88 381.89 539.88 289.22 552.54 275.22 565.21 289.22 565.21 381.89"/><polygon class="cls-16" points="615.21 381.89 589.88 381.89 589.88 289.22 602.54 275.22 615.21 289.22 615.21 381.89"/><rect class="cls-17" x="47.21" y="340.56" width="109.33" height="10"/><rect class="cls-17" x="47.21" y="311.89" width="109.33" height="10"/><polygon class="cls-16" points="65.88 381.89 40.54 381.89 40.54 289.22 53.21 275.22 65.88 289.22 65.88 381.89"/><polygon class="cls-16" points="115.88 381.89 90.54 381.89 90.54 289.22 103.21 275.22 115.88 289.22 115.88 381.89"/><polygon class="cls-16" points="165.88 381.89 140.54 381.89 140.54 289.22 153.21 275.22 165.88 289.22 165.88 381.89"/><rect class="cls-5" x="451.3" y="226.67" width="23.48" height="153.89"/><polygon class="cls-4" points="474.78 273.63 474.78 226.67 451.3 226.67 451.3 262.2 474.78 273.63"/><path class="cls-5" d="M626.82,301.39H485.31L423.07,123.08H572.56a54.25,54.25,0,0,1,54.26,54.25Z" transform="translate(-48.61 -53.78)"/><path class="cls-10" d="M377.62,69.3h0a59.58,59.58,0,0,1,59.58,59.58V247.61a0,0,0,0,1,0,0H318a0,0,0,0,1,0,0V128.88A59.58,59.58,0,0,1,377.62,69.3Z"/><path class="cls-4" d="M372.36,295.55v-112c0-31,25.82-56.43,56.82-54.7a53.86,53.86,0,0,1,50.74,53.79V295.55a.13.13,0,0,1-.13.13H372.49A.13.13,0,0,1,372.36,295.55Z" transform="translate(-48.61 -53.78)"/><path class="cls-15" d="M594.73,112H554.48V75.17h39.74a4.47,4.47,0,0,1,3.85,6.75L591.92,92.3l6.78,13.15A4.47,4.47,0,0,1,594.73,112Z" transform="translate(-48.61 -53.78)"/><path class="cls-18" d="M556.7,197.32h-9.52V76.44a4.76,4.76,0,0,1,4.76-4.76h0a4.76,4.76,0,0,1,4.76,4.76Z" transform="translate(-48.61 -53.78)"/><g class="cls-19"><rect class="cls-10" x="288.63" y="123.22" width="171.33" height="114.67"/><polygon class="cls-20" points="459.96 237.89 288.63 237.89 374.63 146.56 459.96 237.89"/><polygon class="cls-18" points="375.29 207.89 288.63 123.22 459.96 123.22 375.29 207.89"/></g><g class="cls-21"><line class="cls-22" x1="283.58" y1="214.14" x2="457.48" y2="178.22"/><line class="cls-22" x1="283.58" y1="218.71" x2="457.48" y2="182.79"/><line class="cls-22" x1="283.58" y1="223.27" x2="457.48" y2="187.35"/><line class="cls-22" x1="283.58" y1="227.84" x2="457.48" y2="191.92"/><line class="cls-22" x1="283.58" y1="232.4" x2="457.48" y2="196.48"/><line class="cls-22" x1="283.58" y1="236.97" x2="457.48" y2="201.04"/><line class="cls-22" x1="283.58" y1="241.53" x2="457.48" y2="205.61"/><line class="cls-22" x1="283.58" y1="246.09" x2="457.48" y2="210.17"/><line class="cls-22" x1="283.58" y1="250.66" x2="457.48" y2="214.74"/><line class="cls-22" x1="283.58" y1="255.22" x2="457.48" y2="219.3"/><line class="cls-22" x1="283.58" y1="259.79" x2="457.48" y2="223.87"/><line class="cls-22" x1="283.58" y1="264.35" x2="457.48" y2="228.43"/><line class="cls-22" x1="283.58" y1="268.92" x2="457.48" y2="232.99"/><line class="cls-22" x1="283.58" y1="273.48" x2="457.48" y2="237.56"/><line class="cls-22" x1="283.58" y1="278.04" x2="457.48" y2="242.12"/><line class="cls-22" x1="283.58" y1="282.61" x2="457.48" y2="246.69"/><line class="cls-22" x1="283.58" y1="287.17" x2="457.48" y2="251.25"/></g><rect class="cls-8" x="349.82" y="245.61" width="27.75" height="7.33" transform="translate(678.78 444.78) rotate(180)"/><rect class="cls-15" x="393.24" y="208.82" width="9.99" height="175.14" transform="translate(53.24 640.85) rotate(-90)"/><circle class="cls-11" cx="503.33" cy="160.68" r="22.84"/><circle class="cls-10" cx="551.94" cy="214.45" r="9.48" transform="translate(168.27 648.9) rotate(-76.77)"/><path class="cls-23" d="M463.89,402.55a14.9,14.9,0,0,1-5.78-4.48,7.26,7.26,0,0,1-1.12-7c1.42-3.3,5.62-4.43,9.21-4.16s7.13,1.5,10.71,1.18A41.62,41.62,0,0,1,455.14,375c-3-3.42-5.46-8.36-3.28-12.34,1.45-2.65,4.62-4,7.64-4a23.47,23.47,0,0,1,8.73,2.16,76.45,76.45,0,0,1-14.09-34.71c-.52-3.75-.46-8.23,2.6-10.46a7.41,7.41,0,0,1,7.11-.5,17.41,17.41,0,0,1,5.87,4.52,55.41,55.41,0,0,1,14.3,31c1.28-4,3-8,6.16-10.75s7.9-4,11.58-2.05c4.64,2.49,5.67,8.69,5.31,13.94A49.68,49.68,0,0,1,497.39,378c4.1-1.68,7-5.28,10.61-7.9s8.79-4.16,12.25-1.4c3.29,2.61,3.22,7.61,2.2,11.69C519.65,391.55,491.39,415.58,463.89,402.55Z" transform="translate(-48.61 -53.78)"/><path class="cls-24" d="M458.75,316.88a7.4,7.4,0,0,0-1.24-1.67,7.74,7.74,0,0,1,6.34,0,17.41,17.41,0,0,1,5.87,4.52,55.41,55.41,0,0,1,14.3,31c1.28-4,3-8,6.16-10.75s7.9-4,11.58-2.05c4.64,2.49,5.67,8.69,5.31,13.94A49.68,49.68,0,0,1,497.39,378c4.1-1.68,7-5.28,10.61-7.9s8.79-4.16,12.25-1.4c3.29,2.61,3.22,7.61,2.2,11.69-1.71,6.81-12.93,18.44-27.66,23.48C487.49,373.28,473.43,344.5,458.75,316.88Z" transform="translate(-48.61 -53.78)"/><path class="cls-6" d="M480,360.69c9,20,16,40,16.89,61.39" transform="translate(-48.61 -53.78)"/><path class="cls-23" d="M66.4,414.41A12,12,0,0,1,62.51,410a5.84,5.84,0,0,1,.17-5.69c1.64-2.4,5.13-2.65,7.94-1.89s5.41,2.27,8.3,2.57a33.56,33.56,0,0,1-15.25-13.68c-1.84-3.17-3.05-7.46-.71-10.28a7,7,0,0,1,6.66-2,18.92,18.92,0,0,1,6.59,3,61.62,61.62,0,0,1-5.86-29.64c.16-3,.9-6.58,3.65-7.88a6,6,0,0,1,5.72.69,14,14,0,0,1,4,4.47,44.68,44.68,0,0,1,6.59,26.74c1.62-3,3.62-5.85,6.52-7.57s6.88-2,9.49.14c3.29,2.68,3.16,7.75,2.08,11.85a40.11,40.11,0,0,1-11.67,19.24c3.5-.7,6.38-3.11,9.61-4.64s7.6-1.94,9.92.77,1.39,6.52,0,9.59C112.24,414.21,86.19,428.92,66.4,414.41Z" transform="translate(-48.61 -53.78)"/><path class="cls-24" d="M75.41,345.77a6,6,0,0,0-.72-1.51,6.26,6.26,0,0,1,5,.95,14,14,0,0,1,4,4.47,44.68,44.68,0,0,1,6.59,26.74c1.62-3,3.62-5.85,6.52-7.57s6.88-2,9.49.14c3.29,2.68,3.16,7.75,2.08,11.85a40.11,40.11,0,0,1-11.67,19.24c3.5-.7,6.38-3.11,9.61-4.64s7.6-1.94,9.92.77,1.39,6.52,0,9.59c-2.4,5.14-13,12.63-25.49,14.37C89.56,394.83,82.82,369.89,75.41,345.77Z" transform="translate(-48.61 -53.78)"/><path class="cls-6" d="M85.56,383.72c4.09,17.22,6.55,34.12,4,51.19" transform="translate(-48.61 -53.78)"/><path class="cls-23" d="M612.28,415.49a10.64,10.64,0,0,0,3.45-3.94,5.19,5.19,0,0,0-.15-5c-1.45-2.13-4.55-2.35-7-1.68s-4.8,2-7.36,2.28A29.74,29.74,0,0,0,614.7,395c1.63-2.81,2.71-6.61.63-9.12a6.23,6.23,0,0,0-5.91-1.78,16.7,16.7,0,0,0-5.84,2.7,54.7,54.7,0,0,0,5.2-26.29c-.14-2.7-.8-5.84-3.24-7a5.32,5.32,0,0,0-5.07.61,12.38,12.38,0,0,0-3.5,4,39.57,39.57,0,0,0-5.85,23.71c-1.44-2.62-3.21-5.19-5.78-6.71s-6.1-1.76-8.42.12c-2.92,2.38-2.8,6.87-1.84,10.51a35.47,35.47,0,0,0,10.35,17.07c-3.11-.63-5.66-2.76-8.52-4.11s-6.74-1.73-8.8.67-1.23,5.79,0,8.51C571.63,415.31,594.73,428.36,612.28,415.49Z" transform="translate(-48.61 -53.78)"/><path class="cls-24" d="M604.29,354.61a5.18,5.18,0,0,1,.64-1.34,5.56,5.56,0,0,0-4.46.84,12.38,12.38,0,0,0-3.5,4,39.57,39.57,0,0,0-5.85,23.71c-1.44-2.62-3.21-5.19-5.78-6.71s-6.1-1.76-8.42.12c-2.92,2.38-2.8,6.87-1.84,10.51a35.47,35.47,0,0,0,10.35,17.07c-3.11-.63-5.66-2.76-8.52-4.11s-6.74-1.73-8.8.67-1.23,5.79,0,8.51c2.12,4.56,11.57,11.2,22.61,12.75C591.74,398.12,597.72,376,604.29,354.61Z" transform="translate(-48.61 -53.78)"/><path class="cls-6" d="M595.29,388.27c-3.63,15.27-5.81,30.26-3.55,45.4" transform="translate(-48.61 -53.78)"/><path class="cls-25" d="M490.62,435.42l15,.29a86.28,86.28,0,0,1,5.61-18.94,21.54,21.54,0,0,0-9.29,9.93l-5.79-15.2a36.3,36.3,0,0,0-1,19.92,17.42,17.42,0,0,0-15.47-15.2,27,27,0,0,1,11,16.48Z" transform="translate(-48.61 -53.78)"/><path class="cls-25" d="M673,433.5a82.32,82.32,0,0,1,3.83-17.82,18.47,18.47,0,0,0-7,9.38,21.62,21.62,0,0,1-1.74-11.95,15,15,0,0,0-4.61,12.29,16.08,16.08,0,0,0-9.34-7.48,81.62,81.62,0,0,1,6.09,15.58Z" transform="translate(-48.61 -53.78)"/><path class="cls-25" d="M147.3,433.5a82.92,82.92,0,0,1,3.83-17.82,18.52,18.52,0,0,0-7,9.38,21.62,21.62,0,0,1-1.74-11.95,14.94,14.94,0,0,0-4.6,12.29,16.13,16.13,0,0,0-9.35-7.48,82.32,82.32,0,0,1,6.1,15.58Z" transform="translate(-48.61 -53.78)"/><polyline class="cls-26" points="446.89 58.22 446.89 68.72 443.39 68.72"/><polyline class="cls-26" points="440.89 54.22 440.89 68.72 437.39 68.72"/><path class="cls-27" d="M513.28,103h0a16.94,16.94,0,0,1-20.14,10.46h0a19.9,19.9,0,0,1-14.7-16.63l-.55-4.22a10.24,10.24,0,0,1,8.17-11.39h0A10.24,10.24,0,0,1,498,88.89l4.39,18.3Z" transform="translate(-48.61 -53.78)"/><path class="cls-1" d="M477.8,90.08s2.39,1.12.36,3.76l-3.54.49,1.13-1.91-1.83-3.27Z" transform="translate(-48.61 -53.78)"/><path class="cls-24" d="M48.61,435.46h0a2,2,0,0,0,2,2H699.42a2,2,0,0,0,2-2h0a2,2,0,0,0-2-2H50.58A2,2,0,0,0,48.61,435.46Z" transform="translate(-48.61 -53.78)"/><path class="cls-8" d="M108.67,162.61,81.5,148.72A16.33,16.33,0,0,0,95.26,172.2a13.33,13.33,0,0,0-4.49,2,4.54,4.54,0,0,0-1.86,4.31c.49,2.27,3.09,3.35,5.39,3.69a21.34,21.34,0,0,0,16.14-4.34" transform="translate(-48.61 -53.78)"/><path class="cls-8" d="M176,162.61l27.18-13.89a16.33,16.33,0,0,1-13.76,23.48,13.42,13.42,0,0,1,4.49,2,4.53,4.53,0,0,1,1.85,4.31c-.49,2.27-3.09,3.35-5.38,3.69a21.32,21.32,0,0,1-16.14-4.34" transform="translate(-48.61 -53.78)"/><rect class="cls-28" x="58.72" y="90" width="70.74" height="47.35"/><polygon class="cls-13" points="129.46 137.35 58.72 137.35 94.23 99.63 129.46 137.35"/><polygon class="cls-18" points="94.5 124.96 58.72 90 129.46 90 94.5 124.96"/><path class="cls-13" d="M85.92,235.88h33.35a9.34,9.34,0,0,0-1.6-2.76l-1.88-1.7a9.45,9.45,0,0,0-4.53-1.61,7.11,7.11,0,0,0-3.57.47c-.19,0-.37.11-.56.16-.14-3.76-3.21-7.46-7.14-7.58A8,8,0,0,0,91.56,230a7.47,7.47,0,0,0,.37,3h0A6.79,6.79,0,0,0,85.92,235.88Z" transform="translate(-48.61 -53.78)"/><path class="cls-13" d="M449.14,80.93H416.31c1-3.35,4-6.18,7.62-6.18a9.36,9.36,0,0,1,4.3,1l.09-1.23c.22-.62.43-1.25.65-1.87L430.12,71l1.56-1.32,1.78-.84a5.82,5.82,0,0,1,2.89-.28,3.81,3.81,0,0,1,1.9.4,5.7,5.7,0,0,1,2.61,1.48l.12.12a5.63,5.63,0,0,1,1.7,2.39,5.69,5.69,0,0,1,.75,2.75c0,.43-.06.85-.1,1.28A7.39,7.39,0,0,1,449.14,80.93Z" transform="translate(-48.61 -53.78)"/><path class="cls-13" d="M677.08,128.65l-1.51-1.27a9.29,9.29,0,0,0-4.05-1.42c.49-4.28-1.89-8.77-7.43-8.77a7.93,7.93,0,0,0-6.3,2.85,6.83,6.83,0,0,0,.06-.78c-.06-.85-.12-1.69-.19-2.54a9.87,9.87,0,0,0-2.35-4.64l-2-1.73a10,10,0,0,0-4.85-1.55,7.39,7.39,0,0,0-3.75.61,7.59,7.59,0,0,0-3.43,1.93,11.14,11.14,0,0,0-3.28,6.88c.07.84.13,1.69.2,2.53a7.73,7.73,0,0,0,.33,1.19,10.31,10.31,0,0,0-5,2.16,10.4,10.4,0,0,0-2.63,4.55Z" transform="translate(-48.61 -53.78)"/><path class="cls-13" d="M282.29,78a10.71,10.71,0,0,0,.09-1.15c-.08-1-.15-2-.23-3.06a12,12,0,0,0-2.84-5.6l-2.45-2.08A12,12,0,0,0,271,64.21a8.93,8.93,0,0,0-4.29.65c-.08-5.58-4.75-11.08-10.57-11.08-6,0-11.42,4.32-11.74,10.57,0,.21,0,.42,0,.63a9.23,9.23,0,0,0-6.09-2.42H238c-5.55,0-10.51,3.89-10.81,9.64a9.14,9.14,0,0,0,.23,2.5l-.26.16a6.39,6.39,0,0,0-3.79-1.43,7.34,7.34,0,0,0-5,1.76,5.31,5.31,0,0,0-1.59,2.23c-.1.18-.19.37-.27.55Z" transform="translate(-48.61 -53.78)"/><path class="cls-16" d="M150.88,116.54v-12a1.14,1.14,0,0,0-1.14-1.14H134.93a1.14,1.14,0,0,0-1.14,1.14v12a1.14,1.14,0,0,1-1.14,1.14h-3.36a1.14,1.14,0,0,0-.87,1.87l13,15.68a1.13,1.13,0,0,0,1.75,0l13-15.68a1.14,1.14,0,0,0-.88-1.87H152A1.14,1.14,0,0,1,150.88,116.54Z" transform="translate(-48.61 -53.78)"/><path class="cls-13" d="M150.88,94.43v-12a1.14,1.14,0,0,0-1.14-1.14H134.93a1.14,1.14,0,0,0-1.14,1.14v12a1.14,1.14,0,0,1-1.14,1.14h-3.36a1.14,1.14,0,0,0-.87,1.87l13,15.68a1.13,1.13,0,0,0,1.75,0l13-15.68a1.14,1.14,0,0,0-.88-1.87H152A1.14,1.14,0,0,1,150.88,94.43Z" transform="translate(-48.61 -53.78)"/><path class="cls-18" d="M310.72,92h36.37a7.81,7.81,0,0,1,7.91,8v27.81a8.05,8.05,0,0,1-7.91,8.24H341v7l-13-7H310.72c-4.48,0-8.72-3.76-8.72-8.24V100C302,95.47,306.24,92,310.72,92Z" transform="translate(-48.61 -53.78)"/><path class="cls-10" d="M336.79,124.46v2.12H322.11v-2.12a.85.85,0,0,1,.75-.92c.24-.05,1.79-.18,4.63-.4V107.72q0-.9.06-1.89L323.73,109a1.29,1.29,0,0,1-.49.28,1.59,1.59,0,0,1-.48.07,1.35,1.35,0,0,1-.67-.16,1.12,1.12,0,0,1-.45-.35l-1.43-2L328.3,100H332v23.18c2.46.19,3.8.31,4,.35A.84.84,0,0,1,336.79,124.46Z" transform="translate(-48.61 -53.78)"/></svg>