<svg width="200" height="200" viewBox="0 0 200 200" fill="none" xmlns="http://www.w3.org/2000/svg">
<path d="M134.472 132.284C128.292 127.968 126.892 119.956 127.136 112.752C127.176 111.552 127.044 110.28 127.616 109.228C128.188 108.176 129.524 107.452 130.6 107.956C131.492 108.376 131.88 109.416 132.38 110.276C133.047 111.421 134.025 112.355 135.2 112.968C135.964 113.368 136.912 113.608 137.668 113.192C138.708 112.62 138.828 111.192 138.82 109.992C138.82 107.76 138.807 105.531 138.78 103.304C138.708 102.108 138.83 100.909 139.14 99.752C139.512 98.616 140.34 97.564 141.472 97.244C142.604 96.924 144.016 97.584 144.272 98.752C144.316 99.2467 144.328 99.7438 144.308 100.24C144.34 100.74 144.572 101.288 145.04 101.44C145.508 101.592 145.996 101.244 146.356 100.892C147.588 99.692 148.428 98.128 149.208 96.584C149.988 95.04 150.752 93.452 151.872 92.136C152.992 90.82 154.54 89.776 156.272 89.676C158.004 89.576 159.808 90.64 160.24 92.32C160.672 94 159.692 95.716 158.64 97.08C157.052 99.1047 155.181 100.89 153.084 102.38C152.674 102.604 152.348 102.953 152.152 103.376C151.892 104.176 152.648 104.976 153.436 105.228C154.328 105.524 155.296 105.432 156.236 105.544C157.176 105.656 158.176 106.064 158.532 106.944C159.02 108.168 157.996 109.448 156.992 110.288C154.976 111.968 152.687 113.29 150.224 114.196C149.344 114.516 148.42 114.8 147.708 115.416C146.996 116.032 146.572 117.108 147 117.952C147.428 118.796 148.528 119.064 149.452 118.892C150.376 118.72 151.196 118.224 152.076 117.892C153.72 117.272 155.84 117.384 156.876 118.804C157.197 119.293 157.4 119.85 157.469 120.431C157.539 121.012 157.473 121.601 157.276 122.152C156.876 123.249 156.259 124.254 155.464 125.108C152.844 128.238 149.44 130.617 145.6 132C141.788 133.32 138.256 133.68 134.468 132.292" fill="#CC0000"/>
<path d="M158.48 90.6641C158.48 90.6641 158.444 90.7041 158.364 90.7761L158.008 91.0921C157.696 91.3721 157.236 91.7801 156.656 92.3201C155.011 93.8469 153.484 95.4956 152.088 97.2521C151.196 98.3601 150.272 99.6161 149.288 100.98C148.304 102.344 147.288 103.816 146.28 105.38C145.205 107.029 144.221 108.736 143.332 110.492C142.868 111.408 142.46 112.364 142.04 113.34L140.8 116.32C139.165 120.074 137.742 123.916 136.536 127.828C135.564 131.029 134.895 134.314 134.536 137.64C134.303 139.885 134.266 142.145 134.424 144.396C134.488 145.196 134.548 145.808 134.604 146.224C134.628 146.424 134.644 146.584 134.66 146.7V146.864C134.643 146.812 134.63 146.758 134.624 146.704C134.604 146.588 134.58 146.432 134.548 146.232C134.476 145.832 134.4 145.2 134.328 144.4C134.135 142.145 134.148 139.877 134.368 137.624C134.704 134.284 135.359 130.984 136.324 127.768C137.52 123.845 138.939 119.993 140.576 116.232L141.848 113.264C142.268 112.292 142.68 111.328 143.148 110.408C144.043 108.647 145.035 106.936 146.12 105.284C147.144 103.684 148.176 102.236 149.148 100.884C150.12 99.5321 151.06 98.2681 151.948 97.1641C153.358 95.4122 154.906 93.7751 156.576 92.2681C157.168 91.7361 157.64 91.3361 157.96 91.0681L158.332 90.7681C158.377 90.7284 158.427 90.6935 158.48 90.6641Z" fill="#263238"/>
<path d="M143.2 110.4C143.143 110.235 143.105 110.065 143.084 109.892C143.02 109.56 142.948 109.092 142.864 108.484C142.692 107.284 142.516 105.64 142.328 103.82C142.14 102 141.928 100.352 141.752 99.164C141.66 98.572 141.58 98.096 141.524 97.764C141.48 97.5941 141.457 97.4195 141.456 97.244C141.525 97.4043 141.574 97.5721 141.604 97.744C141.692 98.072 141.792 98.544 141.904 99.14C142.132 100.34 142.356 101.972 142.544 103.796C142.732 105.62 142.892 107.22 143.016 108.464C143.076 109.024 143.128 109.5 143.168 109.88C143.199 110.051 143.21 110.226 143.2 110.4Z" fill="#263238"/>
<path d="M158.592 107.528C158.397 107.57 158.199 107.595 158 107.6C157.6 107.636 157.032 107.684 156.328 107.764C154.92 107.916 152.984 108.196 150.86 108.596C148.736 108.996 146.828 109.448 145.456 109.796C144.772 109.972 144.22 110.132 143.856 110.24C143.662 110.309 143.46 110.357 143.256 110.384C143.441 110.291 143.633 110.215 143.832 110.156C144.208 110.024 144.752 109.84 145.432 109.644C146.796 109.244 148.704 108.768 150.836 108.36C152.642 108.015 154.464 107.761 156.296 107.6C157.004 107.54 157.576 107.516 157.976 107.508C158.181 107.494 158.388 107.501 158.592 107.528Z" fill="#263238"/>
<path d="M136.52 127.488C136.477 127.43 136.442 127.367 136.416 127.3L136.152 126.744C135.924 126.26 135.616 125.544 135.248 124.668C134.504 122.908 133.556 120.444 132.548 117.708C131.54 114.972 130.612 112.508 129.908 110.728C129.564 109.864 129.28 109.156 129.068 108.628L128.844 108.056C128.813 107.99 128.791 107.92 128.78 107.848C128.822 107.906 128.857 107.969 128.884 108.036L129.148 108.592C129.372 109.076 129.684 109.792 130.052 110.668C130.796 112.428 131.744 114.892 132.752 117.628C133.76 120.364 134.688 122.828 135.392 124.608C135.736 125.472 136.02 126.18 136.228 126.708C136.32 126.936 136.396 127.108 136.456 127.28C136.487 127.346 136.508 127.416 136.52 127.488Z" fill="#263238"/>
<path d="M156.952 120.9C156.888 120.937 156.819 120.965 156.748 120.984L156.156 121.184L153.968 121.892C152.12 122.492 149.568 123.348 146.768 124.292C143.968 125.236 141.404 126.076 139.544 126.636C138.616 126.92 137.86 127.136 137.336 127.28L136.732 127.436C136.662 127.458 136.589 127.473 136.516 127.48C136.58 127.443 136.648 127.415 136.72 127.396L137.312 127.196L139.5 126.488C141.348 125.888 143.9 125.032 146.7 124.088C149.5 123.144 152.06 122.304 153.92 121.744C154.852 121.46 155.604 121.244 156.132 121.1L156.736 120.944C156.806 120.922 156.879 120.907 156.952 120.9Z" fill="#263238"/>
<path d="M148.616 23.872L146.556 24.608L145.672 21.916C144.048 16.952 138.872 14.316 134.116 15.992C129.36 17.668 126.828 23.112 128.452 28.076L129.336 30.768L127.268 31.508C126.479 31.8139 125.839 32.4118 125.48 33.1777C125.121 33.9435 125.071 34.8182 125.34 35.62L131.072 53.136C131.191 53.5329 131.388 53.9019 131.653 54.221C131.917 54.54 132.243 54.8027 132.611 54.9934C132.979 55.1841 133.381 55.2988 133.795 55.3309C134.208 55.3629 134.623 55.3116 135.016 55.18L156.364 47.544C157.163 47.2387 157.812 46.6354 158.176 45.861C158.539 45.0867 158.588 44.2016 158.312 43.392L152.576 25.876C152.454 25.4802 152.253 25.113 151.986 24.7964C151.719 24.4798 151.391 24.2202 151.021 24.0332C150.652 23.8462 150.248 23.7355 149.835 23.7078C149.422 23.6801 149.007 23.7359 148.616 23.872ZM132.344 26.672C131.906 25.3813 131.985 23.9712 132.563 22.7371C133.142 21.5031 134.176 20.5409 135.448 20.052C136.076 19.8371 136.741 19.7509 137.404 19.7986C138.066 19.8463 138.712 20.0269 139.303 20.3296C139.894 20.6324 140.418 21.0511 140.843 21.5607C141.269 22.0704 141.587 22.6605 141.78 23.296L142.66 25.988L133.224 29.364L132.344 26.672ZM144.344 42.216L145.808 46.688C145.835 46.7777 145.826 46.8742 145.784 46.9577C145.741 47.0411 145.668 47.105 145.58 47.136L143.528 47.868C143.446 47.8906 143.359 47.8808 143.284 47.8405C143.21 47.8003 143.154 47.7327 143.128 47.652L141.652 43.2C140.838 43.1557 140.057 42.8637 139.414 42.3633C138.77 41.8629 138.295 41.1779 138.052 40.4C137.704 39.3716 137.768 38.2484 138.229 37.2657C138.691 36.283 139.514 35.517 140.528 35.128C141.028 34.957 141.558 34.8885 142.086 34.9266C142.613 34.9647 143.128 35.1086 143.598 35.3498C144.069 35.5909 144.486 35.9243 144.825 36.3302C145.164 36.736 145.418 37.2059 145.572 37.712C145.829 38.5022 145.851 39.3503 145.633 40.1525C145.416 40.9546 144.969 41.6759 144.348 42.228L144.344 42.216Z" fill="#CC0000"/>
<path d="M146.464 24.56C146.464 24.616 142.644 26.052 137.892 27.76C133.14 29.468 129.264 30.84 129.244 30.8C129.224 30.76 133.064 29.312 137.82 27.6C142.576 25.888 146.444 24.508 146.464 24.56Z" fill="#263238"/>
<path d="M151 25.296C151.018 25.3307 151.032 25.3669 151.044 25.404C151.076 25.484 151.112 25.588 151.16 25.716C151.264 26.008 151.408 26.412 151.588 26.916L153.124 31.388C153.764 33.284 154.528 35.532 155.376 38.028C155.776 39.28 156.248 40.584 156.688 41.956C156.923 42.663 157.025 43.4077 156.988 44.152C156.954 44.5391 156.844 44.9157 156.664 45.26C156.472 45.6032 156.215 45.9061 155.908 46.152C155.29 46.6031 154.604 46.9529 153.876 47.188L151.816 47.928L147.916 49.324L141.312 51.676L136.852 53.244L135.652 53.644L135.332 53.748C135.298 53.7632 135.261 53.7727 135.224 53.776C135.224 53.776 135.256 53.776 135.324 53.728L135.636 53.604L136.836 53.152L141.272 51.52L147.864 49.12L151.756 47.712L153.816 46.968C154.523 46.7424 155.189 46.4033 155.788 45.964C156.074 45.7358 156.313 45.4547 156.492 45.136C156.661 44.8175 156.763 44.4676 156.792 44.108C156.829 43.3909 156.731 42.6732 156.504 41.992C156.072 40.632 155.616 39.316 155.204 38.064C154.372 35.564 153.604 33.308 152.996 31.412C152.388 29.516 151.876 27.992 151.524 26.92C151.356 26.396 151.228 25.988 151.124 25.692L151.028 25.372C151.016 25.3478 151.006 25.3223 151 25.296Z" fill="#263238"/>
<path d="M139.736 19.78C139.736 19.78 139.524 19.676 139.132 19.516C138.573 19.3013 137.982 19.1823 137.384 19.164C136.497 19.1336 135.615 19.3002 134.8 19.652C133.809 20.09 132.962 20.7984 132.356 21.696C131.746 22.591 131.418 23.6487 131.416 24.732C131.424 25.6199 131.559 26.502 131.816 27.352C132.024 28.08 132.24 28.66 132.384 29.064C132.469 29.2692 132.539 29.4804 132.592 29.696C132.478 29.5041 132.383 29.3019 132.308 29.092C132.144 28.692 131.908 28.124 131.676 27.392C131.391 26.5331 131.236 25.6366 131.216 24.732C131.205 23.6077 131.541 22.5074 132.176 21.58C132.803 20.6496 133.685 19.9193 134.716 19.476C135.556 19.1223 136.466 18.9663 137.376 19.02C137.987 19.0511 138.588 19.1935 139.148 19.44C139.298 19.5091 139.442 19.5893 139.58 19.68C139.637 19.705 139.69 19.7387 139.736 19.78Z" fill="#263238"/>
<path d="M139.92 35.432C139.984 35.3933 140.051 35.3599 140.12 35.332C140.32 35.2417 140.528 35.1681 140.74 35.112C141.077 35.0125 141.425 34.9534 141.776 34.936C142.254 34.9104 142.731 34.9825 143.18 35.148C144.204 35.508 145.144 36.552 145.608 37.948C145.831 38.6972 145.831 39.4949 145.608 40.244C145.361 41.0571 144.919 41.7974 144.32 42.4L144.344 42.292C144.876 43.752 145.456 45.336 146.056 46.988L146.092 47.088L145.992 47.124L145.076 47.428L143.076 48.096L142.976 48.128L142.944 48.028C142.396 46.372 141.796 44.828 141.344 43.312L141.432 43.38C140.65 43.3151 139.904 43.0216 139.288 42.536C138.73 42.1065 138.273 41.5605 137.948 40.936C137.655 40.3823 137.509 39.7625 137.524 39.136C137.543 38.4958 137.702 37.8676 137.992 37.2964C138.282 36.7252 138.694 36.2251 139.2 35.832C139.408 35.6631 139.642 35.5281 139.892 35.432C139.666 35.5661 139.447 35.7116 139.236 35.868C138.681 36.338 138.255 36.9426 138 37.624C137.781 38.1379 137.679 38.6938 137.7 39.2519C137.722 39.81 137.866 40.3565 138.124 40.852C138.444 41.4527 138.89 41.9768 139.432 42.388C140.02 42.8495 140.731 43.1278 141.476 43.188H141.544L141.564 43.248C142.004 44.736 142.608 46.292 143.164 47.956L143.032 47.892L145.032 47.224L145.944 46.916L145.88 47.052C145.284 45.4 144.708 43.812 144.18 42.352V42.292L144.228 42.244C144.81 41.6664 145.243 40.957 145.492 40.176C145.704 39.4594 145.704 38.6967 145.492 37.98C145.056 36.636 144.156 35.616 143.18 35.256C142.748 35.0894 142.287 35.0119 141.824 35.028C141.479 35.0359 141.135 35.0829 140.8 35.168C140.204 35.316 139.924 35.452 139.92 35.432Z" fill="#263238"/>
<path d="M127.556 150.928L87.6 150.744C85.2926 150.731 83.0845 149.803 81.4608 148.164C79.8371 146.524 78.9304 144.307 78.94 142L79.364 41.836C79.3687 40.6928 79.5987 39.5618 80.0408 38.5075C80.4829 37.4533 81.1284 36.4965 81.9404 35.6918C82.7525 34.8872 83.7152 34.2505 84.7735 33.8181C85.8317 33.3858 86.9648 33.1662 88.108 33.172L128.06 33.356C130.367 33.3676 132.576 34.2946 134.2 35.9333C135.825 37.5721 136.733 39.7885 136.724 42.096L136.3 142.256C136.295 143.4 136.065 144.531 135.623 145.586C135.181 146.64 134.536 147.598 133.724 148.403C132.912 149.208 131.949 149.846 130.891 150.279C129.833 150.712 128.7 150.933 127.556 150.928Z" fill="#455A64"/>
<path d="M128 36.8H120.256C120.003 36.8047 119.754 36.8591 119.522 36.9601C119.291 37.0612 119.081 37.2069 118.906 37.3889C118.731 37.5709 118.593 37.7857 118.5 38.0209C118.408 38.2562 118.363 38.5073 118.368 38.76V40.164C118.373 40.4165 118.328 40.6674 118.235 40.9024C118.143 41.1375 118.005 41.352 117.83 41.5337C117.654 41.7154 117.445 41.8607 117.213 41.9613C116.982 42.0619 116.732 42.1158 116.48 42.12L101.384 42.052C100.873 42.0384 100.389 41.8226 100.037 41.4521C99.6853 41.0816 99.495 40.5867 99.5079 40.076V38.672C99.5208 38.162 99.3311 37.6676 98.9802 37.2972C98.6293 36.9268 98.1459 36.7106 97.6359 36.696H94.9119L88.1319 36.664C86.5193 36.6544 84.9685 37.2842 83.8192 38.4155C82.67 39.5468 82.0158 41.0874 81.9999 42.7L81.5999 140.468C81.5962 141.268 81.7502 142.061 82.0529 142.801C82.3557 143.542 82.8013 144.216 83.3644 144.784C83.9275 145.352 84.597 145.804 85.3347 146.114C86.0724 146.423 86.8639 146.584 87.6639 146.588L127.536 146.772C128.336 146.776 129.13 146.622 129.871 146.319C130.612 146.016 131.286 145.57 131.855 145.006C132.423 144.443 132.875 143.773 133.185 143.035C133.495 142.297 133.656 141.505 133.66 140.704L134.06 42.936C134.069 41.3188 133.437 39.7641 132.3 38.6135C131.164 37.4629 129.617 36.8106 128 36.8Z" fill="white"/>
<path d="M122.636 133.728L92.9881 133.6C92.6801 133.6 92.4321 133.264 92.4361 132.856L92.4681 125.1C92.4681 124.7 92.7201 124.356 93.0281 124.356L122.676 124.492C122.847 124.522 122.999 124.616 123.102 124.755C123.205 124.895 123.25 125.068 123.228 125.24L123.2 132.988C123.2 133.4 122.944 133.732 122.636 133.728Z" fill="#CC0000"/>
<path d="M103.532 134.709C103.11 134.709 102.703 134.641 102.313 134.506C101.928 134.37 101.63 134.191 101.418 133.969L101.654 133.506C101.86 133.712 102.134 133.88 102.475 134.01C102.817 134.135 103.169 134.197 103.532 134.197C104.042 134.197 104.424 134.105 104.679 133.92C104.934 133.731 105.061 133.487 105.061 133.189C105.061 132.961 104.991 132.779 104.85 132.644C104.714 132.508 104.546 132.405 104.346 132.335C104.145 132.259 103.866 132.178 103.508 132.091C103.08 131.982 102.738 131.88 102.484 131.782C102.229 131.679 102.009 131.524 101.825 131.318C101.646 131.112 101.557 130.833 101.557 130.481C101.557 130.194 101.632 129.933 101.784 129.7C101.936 129.462 102.169 129.272 102.484 129.131C102.798 128.99 103.188 128.92 103.654 128.92C103.98 128.92 104.297 128.966 104.606 129.058C104.92 129.145 105.191 129.267 105.419 129.424L105.216 129.904C104.977 129.746 104.722 129.63 104.451 129.554C104.18 129.473 103.915 129.432 103.654 129.432C103.156 129.432 102.779 129.53 102.524 129.725C102.275 129.914 102.15 130.161 102.15 130.465C102.15 130.692 102.218 130.877 102.353 131.018C102.494 131.153 102.668 131.259 102.874 131.335C103.085 131.405 103.367 131.484 103.719 131.571C104.137 131.674 104.473 131.777 104.728 131.88C104.988 131.977 105.207 132.129 105.386 132.335C105.565 132.535 105.655 132.809 105.655 133.156C105.655 133.443 105.576 133.706 105.419 133.945C105.267 134.178 105.031 134.365 104.711 134.506C104.392 134.641 103.999 134.709 103.532 134.709ZM106.966 128.968H107.567V134.66H106.966V128.968ZM106.72 138.968V144.66H106.224L102.565 140.042V144.66H101.963V138.968H102.459L106.126 143.587V138.968H106.72ZM112.586 141.814H113.164V143.986C112.898 144.219 112.584 144.397 112.221 144.522C111.857 144.647 111.475 144.709 111.074 144.709C110.505 144.709 109.993 144.585 109.537 144.335C109.082 144.086 108.724 143.742 108.464 143.302C108.204 142.858 108.074 142.362 108.074 141.814C108.074 141.267 108.204 140.774 108.464 140.335C108.724 139.89 109.082 139.543 109.537 139.294C109.993 139.044 110.508 138.92 111.082 138.92C111.516 138.92 111.914 138.99 112.277 139.131C112.641 139.267 112.947 139.47 113.196 139.741L112.822 140.123C112.372 139.679 111.8 139.456 111.107 139.456C110.646 139.456 110.228 139.559 109.854 139.765C109.486 139.966 109.196 140.248 108.984 140.611C108.773 140.969 108.667 141.37 108.667 141.814C108.667 142.259 108.773 142.66 108.984 143.018C109.196 143.376 109.486 143.658 109.854 143.864C110.223 144.07 110.638 144.173 111.098 144.173C111.684 144.173 112.18 144.026 112.586 143.733V141.814ZM104.256 154.709C103.519 154.709 102.944 154.498 102.532 154.075C102.12 153.652 101.914 153.037 101.914 152.229V148.968H102.516V152.205C102.516 152.866 102.665 153.359 102.963 153.685C103.261 154.01 103.692 154.173 104.256 154.173C104.825 154.173 105.259 154.01 105.557 153.685C105.855 153.359 106.004 152.866 106.004 152.205V148.968H106.59V152.229C106.59 153.037 106.384 153.652 105.972 154.075C105.565 154.498 104.993 154.709 104.256 154.709ZM110.533 148.968C111.26 148.968 111.829 149.142 112.241 149.489C112.653 149.836 112.859 150.313 112.859 150.92C112.859 151.527 112.653 152.004 112.241 152.351C111.829 152.693 111.26 152.863 110.533 152.863H109.005V154.66H108.403V148.968H110.533ZM110.517 152.335C111.081 152.335 111.512 152.213 111.81 151.969C112.108 151.72 112.257 151.37 112.257 150.92C112.257 150.459 112.108 150.107 111.81 149.863C111.512 149.614 111.081 149.489 110.517 149.489H109.005V152.335H110.517Z" fill="#E8E8E3"/>
<path d="M98.9016 65.5401L88.6138 65.4934L88.6052 67.3814L98.8931 67.4281L98.9016 65.5401Z" fill="#CC0000"/>
<path opacity="0.1" d="M98.9016 65.5401L88.6138 65.4934L88.6052 67.3814L98.8931 67.4281L98.9016 65.5401Z" fill="black"/>
<path d="M129.06 77.132C129.141 77.1238 129.22 77.105 129.296 77.076C129.407 77.0327 129.503 76.9591 129.574 76.8635C129.645 76.768 129.687 76.6545 129.696 76.536C129.696 75.9 129.696 74.972 129.696 73.78C129.696 73.184 129.696 72.516 129.696 71.78C129.696 71.6 129.696 71.412 129.696 71.224C129.722 71.0416 129.682 70.8558 129.584 70.7C129.529 70.6253 129.457 70.5643 129.375 70.522C129.292 70.4797 129.201 70.4571 129.108 70.456H128.484H122.704L89.2481 70.332C89.1625 70.3305 89.0777 70.3498 89.0011 70.3881C88.9245 70.4264 88.8583 70.4826 88.8081 70.552C88.7115 70.7084 88.6746 70.8945 88.7041 71.076C88.7041 71.476 88.7041 71.876 88.7041 72.276C88.7041 73.076 88.7041 73.876 88.7041 74.676C88.7041 75.076 88.7041 75.476 88.7041 75.876C88.6875 76.0623 88.6875 76.2497 88.7041 76.436C88.7251 76.5158 88.7642 76.5898 88.8182 76.6522C88.8723 76.7147 88.94 76.7638 89.0161 76.796C89.0949 76.8274 89.1793 76.8423 89.2641 76.84H91.3001L100.184 76.888L115.224 76.98L125.364 77.06L128.12 77.092H128.836C129 77.092 129.08 77.092 129.08 77.092H128.836H128.12H125.364H115.224L100.184 77.044L91.3001 77.008H89.2641C89.152 77.0125 89.0403 76.9934 88.9361 76.952C88.8308 76.907 88.7371 76.8386 88.6622 76.752C88.5874 76.6653 88.5333 76.5627 88.5041 76.452C88.4809 76.347 88.4729 76.2392 88.4801 76.132V75.836C88.4801 75.436 88.4801 75.036 88.4801 74.636C88.4801 73.836 88.4801 73.036 88.4801 72.236C88.4801 71.836 88.4801 71.436 88.4801 71.036C88.4725 70.9294 88.4725 70.8225 88.4801 70.716C88.4951 70.5983 88.5406 70.4866 88.6121 70.392C88.6811 70.2954 88.7724 70.217 88.8783 70.1634C88.9842 70.1097 89.1014 70.0825 89.2201 70.084L122.676 70.268L128.456 70.308H129.08C129.19 70.3081 129.298 70.3346 129.396 70.3855C129.493 70.4363 129.577 70.5099 129.64 70.6C129.753 70.7739 129.798 70.9829 129.768 71.188C129.768 71.376 129.768 71.564 129.768 71.744C129.768 72.472 129.768 73.14 129.768 73.744C129.768 74.944 129.74 75.864 129.732 76.504C129.722 76.627 129.678 76.7447 129.603 76.8432C129.529 76.9417 129.428 77.0169 129.312 77.06C129.236 77.1069 129.149 77.1318 129.06 77.132Z" fill="#E0E0E0"/>
<path d="M110.52 72.34H91.7041V74.104H110.52V72.34Z" fill="#CC0000"/>
<path opacity="0.2" d="M110.52 72.34H91.7041V74.104H110.52V72.34Z" fill="white"/>
<path d="M98.8316 82.7635L88.5437 82.7169L88.5351 84.6048L98.823 84.6515L98.8316 82.7635Z" fill="#CC0000"/>
<path opacity="0.1" d="M98.8316 82.7635L88.5437 82.7169L88.5351 84.6048L98.823 84.6515L98.8316 82.7635Z" fill="black"/>
<path d="M128.8 94.356C128.881 94.346 128.961 94.3313 129.04 94.312C129.152 94.2764 129.255 94.2173 129.342 94.1386C129.429 94.06 129.498 93.9636 129.544 93.856C129.607 93.6945 129.632 93.5206 129.616 93.348C129.616 93.156 129.616 92.948 129.616 92.716C129.616 92.252 129.616 91.724 129.616 91.116V88.576C129.635 88.3921 129.595 88.2069 129.5 88.048C129.401 87.885 129.246 87.7639 129.064 87.708C128.865 87.6724 128.662 87.6617 128.46 87.676H122.704L89.3641 87.552C89.1848 87.5524 89.0117 87.6179 88.8771 87.7364C88.7425 87.8548 88.6554 88.0182 88.6321 88.196C88.6321 88.576 88.6321 88.996 88.6321 89.396C88.6321 90.196 88.6321 90.996 88.6321 91.796C88.6321 92.196 88.6321 92.596 88.6321 92.996C88.6172 93.1829 88.6253 93.371 88.6561 93.556C88.7061 93.7182 88.8089 93.859 88.9481 93.956C89.0959 94.0497 89.2695 94.0945 89.4441 94.084H90.0001H91.1561L100.008 94.128L114.996 94.22L125.1 94.3L127.848 94.332H128.564H128.804H128.564H127.848H125.1H114.996L100 94.316L91.1481 94.284H89.4081C89.1918 94.2968 88.9771 94.2393 88.7961 94.12C88.6141 93.9939 88.4813 93.8088 88.4201 93.596C88.3843 93.3927 88.3735 93.1858 88.3881 92.98C88.3881 92.58 88.3881 92.18 88.3881 91.78C88.3881 90.98 88.3881 90.18 88.3881 89.38C88.3881 88.98 88.3881 88.58 88.3881 88.18C88.4173 87.9513 88.5289 87.741 88.7019 87.5886C88.8749 87.4362 89.0976 87.3521 89.3282 87.352L122.668 87.536L128.424 87.58C128.638 87.5668 128.854 87.5816 129.064 87.624C129.272 87.6919 129.447 87.8344 129.556 88.024C129.66 88.2002 129.704 88.4047 129.684 88.608C129.684 88.796 129.684 88.98 129.684 89.164C129.684 89.888 129.684 90.552 129.684 91.164C129.684 91.776 129.684 92.292 129.684 92.764C129.684 92.992 129.684 93.204 129.684 93.4C129.699 93.5789 129.67 93.7586 129.6 93.924C129.548 94.0343 129.473 94.1322 129.38 94.2109C129.287 94.2896 129.178 94.3473 129.06 94.38C128.973 94.3872 128.885 94.3791 128.8 94.356Z" fill="#E0E0E0"/>
<path d="M98.7539 100.735L88.4661 100.688L88.4575 102.576L98.7454 102.623L98.7539 100.735Z" fill="#CC0000"/>
<path opacity="0.1" d="M98.7539 100.735L88.4661 100.688L88.4575 102.576L98.7454 102.623L98.7539 100.735Z" fill="black"/>
<path d="M128.72 112.32C128.801 112.31 128.881 112.296 128.96 112.276C129.071 112.241 129.174 112.182 129.261 112.104C129.347 112.026 129.417 111.931 129.464 111.824C129.527 111.662 129.551 111.489 129.536 111.316C129.536 111.12 129.536 110.916 129.536 110.68C129.536 110.22 129.536 109.688 129.536 109.08V106.54C129.555 106.356 129.514 106.171 129.42 106.012C129.319 105.852 129.164 105.733 128.984 105.676C128.785 105.639 128.582 105.627 128.38 105.64H122.624L89.284 105.516C89.1046 105.516 88.9315 105.582 88.7969 105.7C88.6623 105.819 88.5752 105.982 88.552 106.16C88.552 106.56 88.552 106.96 88.552 107.36C88.552 108.16 88.552 108.96 88.552 109.76C88.552 110.16 88.552 110.56 88.552 110.96C88.5371 111.146 88.5451 111.332 88.576 111.516C88.6239 111.679 88.7271 111.821 88.868 111.916C89.0148 112.012 89.1891 112.057 89.364 112.044H91.104L99.956 112.092L114.944 112.184L125.048 112.264L127.796 112.296H128.512C128.672 112.296 128.752 112.296 128.752 112.296C128.752 112.296 128.672 112.296 128.512 112.296H127.796H125.048H114.944L99.956 112.252L91.104 112.216H89.364C89.1474 112.231 88.9322 112.173 88.752 112.052C88.5699 111.926 88.4371 111.741 88.376 111.528C88.3401 111.325 88.3294 111.118 88.344 110.912C88.344 110.512 88.344 110.112 88.344 109.712C88.344 108.912 88.344 108.112 88.344 107.312C88.344 106.912 88.344 106.512 88.344 106.092C88.3722 105.864 88.483 105.653 88.6553 105.501C88.8277 105.348 89.0498 105.264 89.28 105.264L122.62 105.448L128.376 105.492C128.59 105.479 128.805 105.494 129.016 105.536C129.224 105.604 129.399 105.746 129.508 105.936C129.611 106.112 129.656 106.317 129.636 106.52C129.636 106.708 129.636 106.896 129.636 107.076C129.636 107.8 129.636 108.464 129.636 109.076C129.636 109.688 129.636 110.204 129.636 110.676C129.636 110.904 129.636 111.116 129.636 111.312C129.651 111.491 129.622 111.671 129.552 111.836C129.5 111.946 129.425 112.044 129.332 112.123C129.239 112.202 129.129 112.259 129.012 112.292C128.918 112.324 128.818 112.334 128.72 112.32Z" fill="#E0E0E0"/>
<path d="M110.118 90.0627L91.3025 89.9774L91.2945 91.7413L110.11 91.8267L110.118 90.0627Z" fill="#CC0000"/>
<path opacity="0.2" d="M110.118 90.0627L91.3025 89.9774L91.2945 91.7413L110.11 91.8267L110.118 90.0627Z" fill="white"/>
<path d="M93.0039 109.056C92.9921 109.217 92.9334 109.371 92.8349 109.499C92.7364 109.626 92.6026 109.722 92.4501 109.775C92.2975 109.827 92.1329 109.834 91.9767 109.794C91.8204 109.753 91.6794 109.668 91.5712 109.549C91.4629 109.429 91.3922 109.28 91.3677 109.121C91.3432 108.961 91.3661 108.798 91.4335 108.652C91.5008 108.505 91.6098 108.381 91.7467 108.296C91.8837 108.211 92.0427 108.168 92.2039 108.172C92.4268 108.184 92.6358 108.284 92.7855 108.45C92.9353 108.615 93.0138 108.833 93.0039 109.056Z" fill="#CC0000"/>
<path d="M95.552 109.068C95.5599 109.181 95.5445 109.294 95.5067 109.401C95.469 109.507 95.4097 109.605 95.3326 109.687C95.2555 109.77 95.1622 109.836 95.0586 109.881C94.9549 109.926 94.8431 109.949 94.73 109.949C94.617 109.949 94.5051 109.926 94.4015 109.881C94.2978 109.836 94.2045 109.77 94.1274 109.687C94.0503 109.605 93.991 109.507 93.9533 109.401C93.9155 109.294 93.9001 109.181 93.908 109.068C93.9001 108.955 93.9155 108.842 93.9533 108.736C93.991 108.629 94.0503 108.531 94.1274 108.449C94.2045 108.366 94.2978 108.3 94.4015 108.255C94.5051 108.21 94.617 108.187 94.73 108.187C94.8431 108.187 94.9549 108.21 95.0586 108.255C95.1622 108.3 95.2555 108.366 95.3326 108.449C95.4097 108.531 95.469 108.629 95.5067 108.736C95.5445 108.842 95.5599 108.955 95.552 109.068Z" fill="#CC0000"/>
<path d="M98.104 109.08C98.0922 109.241 98.0335 109.395 97.935 109.523C97.8365 109.65 97.7027 109.746 97.5502 109.799C97.3976 109.851 97.233 109.858 97.0768 109.818C96.9205 109.777 96.7795 109.692 96.6713 109.573C96.563 109.453 96.4923 109.304 96.4678 109.145C96.4433 108.985 96.4662 108.822 96.5336 108.676C96.6009 108.529 96.7099 108.405 96.8468 108.32C96.9838 108.235 97.1428 108.192 97.304 108.196C97.5265 108.209 97.7349 108.309 97.8844 108.475C98.034 108.64 98.1128 108.857 98.104 109.08Z" fill="#CC0000"/>
<path d="M100.652 109.092C100.64 109.253 100.581 109.407 100.483 109.535C100.384 109.662 100.251 109.758 100.098 109.811C99.9455 109.863 99.7808 109.87 99.6246 109.83C99.4684 109.789 99.3274 109.704 99.2191 109.585C99.1109 109.465 99.0401 109.316 99.0156 109.157C98.9912 108.997 99.014 108.834 99.0814 108.688C99.1488 108.541 99.2577 108.417 99.3947 108.332C99.5316 108.247 99.6906 108.204 99.8519 108.208C100.074 108.221 100.283 108.321 100.432 108.487C100.582 108.652 100.661 108.869 100.652 109.092Z" fill="#CC0000"/>
<path d="M103.2 109.1C103.189 109.261 103.131 109.416 103.033 109.544C102.935 109.672 102.801 109.769 102.649 109.822C102.496 109.875 102.331 109.882 102.175 109.842C102.018 109.802 101.877 109.718 101.768 109.598C101.66 109.479 101.588 109.33 101.564 109.17C101.539 109.011 101.562 108.847 101.629 108.7C101.696 108.554 101.805 108.43 101.942 108.344C102.079 108.259 102.239 108.216 102.4 108.22C102.622 108.233 102.83 108.333 102.979 108.497C103.128 108.662 103.208 108.878 103.2 109.1Z" fill="#CC0000"/>
<path d="M105.752 109.112C105.741 109.272 105.684 109.426 105.586 109.554C105.489 109.682 105.357 109.779 105.206 109.833C105.054 109.886 104.89 109.895 104.734 109.856C104.578 109.818 104.437 109.735 104.327 109.618C104.218 109.5 104.145 109.353 104.118 109.195C104.091 109.036 104.111 108.874 104.175 108.726C104.239 108.579 104.345 108.454 104.48 108.366C104.614 108.278 104.771 108.232 104.932 108.232C105.157 108.24 105.37 108.338 105.524 108.503C105.678 108.668 105.76 108.887 105.752 109.112Z" fill="#CC0000"/>
<path d="M108.3 109.124C108.308 109.237 108.292 109.35 108.255 109.456C108.217 109.563 108.158 109.661 108.081 109.743C108.004 109.826 107.91 109.892 107.807 109.937C107.703 109.982 107.591 110.005 107.478 110.005C107.365 110.005 107.253 109.982 107.149 109.937C107.046 109.892 106.953 109.826 106.875 109.743C106.798 109.661 106.739 109.563 106.701 109.456C106.664 109.35 106.648 109.237 106.656 109.124C106.648 109.011 106.664 108.898 106.701 108.791C106.739 108.685 106.798 108.587 106.875 108.505C106.953 108.422 107.046 108.356 107.149 108.311C107.253 108.266 107.365 108.243 107.478 108.243C107.591 108.243 107.703 108.266 107.807 108.311C107.91 108.356 108.004 108.422 108.081 108.505C108.158 108.587 108.217 108.685 108.255 108.791C108.292 108.898 108.308 109.011 108.3 109.124Z" fill="#CC0000"/>
<path d="M110.848 109.136C110.837 109.296 110.78 109.45 110.682 109.578C110.585 109.706 110.453 109.803 110.302 109.857C110.15 109.91 109.986 109.919 109.83 109.88C109.674 109.842 109.533 109.759 109.423 109.642C109.314 109.524 109.241 109.377 109.214 109.219C109.187 109.06 109.206 108.898 109.271 108.75C109.335 108.603 109.441 108.478 109.575 108.39C109.71 108.302 109.867 108.256 110.028 108.256C110.253 108.264 110.466 108.362 110.62 108.527C110.774 108.692 110.856 108.911 110.848 109.136Z" fill="#CC0000"/>
<path d="M113.396 109.148C113.385 109.309 113.327 109.463 113.229 109.592C113.131 109.72 112.997 109.817 112.845 109.87C112.692 109.923 112.527 109.93 112.371 109.89C112.214 109.85 112.073 109.765 111.964 109.646C111.856 109.526 111.785 109.378 111.76 109.218C111.735 109.058 111.758 108.895 111.825 108.748C111.892 108.601 112.001 108.478 112.138 108.392C112.275 108.307 112.435 108.264 112.596 108.268C112.818 108.281 113.026 108.381 113.175 108.545C113.324 108.71 113.404 108.926 113.396 109.148Z" fill="#CC0000"/>
<g opacity="0.2">
<path opacity="0.2" d="M93.0039 109.056C92.9921 109.217 92.9334 109.371 92.8349 109.499C92.7364 109.626 92.6026 109.722 92.4501 109.775C92.2975 109.827 92.1329 109.834 91.9767 109.794C91.8204 109.753 91.6794 109.668 91.5712 109.549C91.4629 109.429 91.3922 109.28 91.3677 109.121C91.3432 108.961 91.3661 108.798 91.4335 108.652C91.5008 108.505 91.6098 108.381 91.7467 108.296C91.8837 108.211 92.0427 108.168 92.2039 108.172C92.4268 108.184 92.6358 108.284 92.7855 108.45C92.9353 108.615 93.0138 108.833 93.0039 109.056Z" fill="white"/>
<path opacity="0.2" d="M95.552 109.068C95.5599 109.181 95.5445 109.294 95.5067 109.401C95.469 109.507 95.4097 109.605 95.3326 109.687C95.2555 109.77 95.1622 109.836 95.0586 109.881C94.9549 109.926 94.8431 109.949 94.73 109.949C94.617 109.949 94.5051 109.926 94.4015 109.881C94.2978 109.836 94.2045 109.77 94.1274 109.687C94.0503 109.605 93.991 109.507 93.9533 109.401C93.9155 109.294 93.9001 109.181 93.908 109.068C93.9001 108.955 93.9155 108.842 93.9533 108.736C93.991 108.629 94.0503 108.531 94.1274 108.449C94.2045 108.366 94.2978 108.3 94.4015 108.255C94.5051 108.21 94.617 108.187 94.73 108.187C94.8431 108.187 94.9549 108.21 95.0586 108.255C95.1622 108.3 95.2555 108.366 95.3326 108.449C95.4097 108.531 95.469 108.629 95.5067 108.736C95.5445 108.842 95.5599 108.955 95.552 109.068Z" fill="white"/>
<path opacity="0.2" d="M98.104 109.08C98.0922 109.241 98.0335 109.395 97.935 109.523C97.8365 109.65 97.7027 109.746 97.5502 109.799C97.3976 109.851 97.233 109.858 97.0768 109.818C96.9205 109.777 96.7795 109.692 96.6713 109.573C96.563 109.453 96.4923 109.304 96.4678 109.145C96.4433 108.985 96.4662 108.822 96.5336 108.676C96.6009 108.529 96.7099 108.405 96.8468 108.32C96.9838 108.235 97.1428 108.192 97.304 108.196C97.5265 108.209 97.7349 108.309 97.8844 108.475C98.034 108.64 98.1128 108.857 98.104 109.08Z" fill="white"/>
<path opacity="0.2" d="M100.652 109.092C100.64 109.253 100.581 109.407 100.483 109.535C100.384 109.662 100.251 109.758 100.098 109.811C99.9455 109.863 99.7808 109.87 99.6246 109.83C99.4684 109.789 99.3274 109.704 99.2191 109.585C99.1109 109.465 99.0401 109.316 99.0156 109.157C98.9912 108.997 99.014 108.834 99.0814 108.688C99.1488 108.541 99.2577 108.417 99.3947 108.332C99.5316 108.247 99.6906 108.204 99.8519 108.208C100.074 108.221 100.283 108.321 100.432 108.487C100.582 108.652 100.661 108.869 100.652 109.092Z" fill="white"/>
<path opacity="0.2" d="M103.2 109.1C103.189 109.261 103.131 109.415 103.033 109.544C102.935 109.672 102.801 109.769 102.649 109.822C102.496 109.875 102.331 109.882 102.175 109.842C102.018 109.802 101.877 109.717 101.768 109.598C101.66 109.478 101.588 109.33 101.564 109.17C101.539 109.01 101.562 108.847 101.629 108.7C101.696 108.553 101.805 108.43 101.942 108.344C102.079 108.259 102.239 108.216 102.4 108.22C102.622 108.233 102.83 108.333 102.979 108.497C103.128 108.662 103.208 108.878 103.2 109.1Z" fill="white"/>
<path opacity="0.2" d="M105.752 109.112C105.741 109.272 105.684 109.426 105.586 109.554C105.489 109.682 105.357 109.779 105.206 109.833C105.054 109.886 104.89 109.895 104.734 109.856C104.578 109.818 104.437 109.735 104.327 109.618C104.218 109.5 104.145 109.353 104.118 109.195C104.091 109.036 104.111 108.874 104.175 108.726C104.239 108.579 104.345 108.454 104.48 108.366C104.614 108.278 104.771 108.232 104.932 108.232C105.157 108.24 105.37 108.338 105.524 108.503C105.678 108.668 105.76 108.887 105.752 109.112Z" fill="white"/>
<path opacity="0.2" d="M108.3 109.124C108.308 109.237 108.292 109.35 108.255 109.456C108.217 109.563 108.158 109.661 108.081 109.743C108.004 109.826 107.91 109.892 107.807 109.937C107.703 109.982 107.591 110.005 107.478 110.005C107.365 110.005 107.253 109.982 107.149 109.937C107.046 109.892 106.953 109.826 106.875 109.743C106.798 109.661 106.739 109.563 106.701 109.456C106.664 109.35 106.648 109.237 106.656 109.124C106.648 109.011 106.664 108.898 106.701 108.791C106.739 108.685 106.798 108.587 106.875 108.505C106.953 108.422 107.046 108.356 107.149 108.311C107.253 108.266 107.365 108.243 107.478 108.243C107.591 108.243 107.703 108.266 107.807 108.311C107.91 108.356 108.004 108.422 108.081 108.505C108.158 108.587 108.217 108.685 108.255 108.791C108.292 108.898 108.308 109.011 108.3 109.124Z" fill="white"/>
<path opacity="0.2" d="M110.848 109.136C110.837 109.296 110.78 109.45 110.682 109.578C110.585 109.706 110.453 109.803 110.302 109.857C110.15 109.91 109.986 109.919 109.83 109.88C109.674 109.842 109.533 109.759 109.423 109.642C109.314 109.524 109.241 109.377 109.214 109.219C109.187 109.06 109.206 108.898 109.271 108.75C109.335 108.603 109.441 108.478 109.575 108.39C109.71 108.302 109.867 108.256 110.028 108.256C110.253 108.264 110.466 108.362 110.62 108.527C110.774 108.692 110.856 108.911 110.848 109.136Z" fill="white"/>
<path opacity="0.2" d="M113.396 109.148C113.385 109.309 113.327 109.463 113.229 109.592C113.131 109.72 112.997 109.817 112.844 109.87C112.692 109.923 112.527 109.93 112.371 109.89C112.214 109.85 112.073 109.765 111.964 109.646C111.855 109.526 111.784 109.378 111.76 109.218C111.735 109.058 111.757 108.895 111.825 108.748C111.892 108.601 112.001 108.478 112.138 108.392C112.275 108.307 112.434 108.264 112.596 108.268C112.818 108.281 113.025 108.381 113.175 108.545C113.324 108.71 113.404 108.926 113.396 109.148Z" fill="white"/>
</g>
<path d="M109.776 51.404C110.054 51.2816 110.29 51.0802 110.454 50.8249C110.618 50.5696 110.704 50.2716 110.7 49.968C110.71 49.7706 110.68 49.5732 110.612 49.3878C110.544 49.2024 110.438 49.0328 110.302 48.8895C110.166 48.7461 110.002 48.6319 109.821 48.5539C109.639 48.4759 109.444 48.4357 109.246 48.4357C109.048 48.4357 108.853 48.4759 108.671 48.5539C108.49 48.6319 108.326 48.7461 108.19 48.8895C108.054 49.0328 107.948 49.2024 107.88 49.3878C107.812 49.5732 107.782 49.7706 107.792 49.968C107.786 50.2746 107.871 50.5762 108.036 50.8346C108.201 51.093 108.439 51.2967 108.72 51.42C106.48 51.756 106.58 54.188 106.58 54.188L111.876 54.212C111.876 54.212 112 51.736 109.776 51.404Z" fill="#CC0000"/>
<path opacity="0.1" d="M109.776 51.404C110.054 51.2816 110.29 51.0802 110.454 50.8249C110.618 50.5696 110.704 50.2716 110.7 49.968C110.71 49.7706 110.68 49.5732 110.612 49.3878C110.544 49.2024 110.438 49.0328 110.302 48.8895C110.166 48.7461 110.002 48.6319 109.821 48.5539C109.639 48.4759 109.444 48.4357 109.246 48.4357C109.048 48.4357 108.853 48.4759 108.671 48.5539C108.49 48.6319 108.326 48.7461 108.19 48.8895C108.054 49.0328 107.948 49.2024 107.88 49.3878C107.812 49.5732 107.782 49.7706 107.792 49.968C107.786 50.2746 107.871 50.5762 108.036 50.8346C108.201 51.093 108.439 51.2967 108.72 51.42C106.48 51.756 106.58 54.188 106.58 54.188L111.876 54.212C111.876 54.212 112 51.736 109.776 51.404Z" fill="black"/>
<path d="M118.382 55.7805L99.5061 55.6949L99.4959 57.9509L118.372 58.0365L118.382 55.7805Z" fill="#CC0000"/>
<path opacity="0.2" d="M118.382 55.7805L99.5061 55.6949L99.4959 57.9509L118.372 58.0365L118.382 55.7805Z" fill="white"/>
<path d="M48.988 67.472H48.8L48.256 67.512C47.9616 67.5297 47.6689 67.5685 47.38 67.628C47.193 67.6543 47.0074 67.6903 46.824 67.736L46.204 67.908C45.1488 68.2318 44.1531 68.7249 43.256 69.368C42.0708 70.2283 41.0811 71.3298 40.352 72.6C39.9235 73.3322 39.5825 74.1122 39.336 74.924C39.077 75.8063 38.9279 76.7172 38.892 77.636C38.8682 78.1187 38.8762 78.6024 38.916 79.084C38.916 79.328 38.984 79.572 39.016 79.82C39.043 80.07 39.0898 80.3175 39.156 80.56C39.5157 82.1651 40.2456 83.6639 41.2873 84.9369C42.329 86.2099 43.6538 87.2219 45.156 87.892C46.2433 88.3611 47.4086 88.623 48.592 88.664C49.8143 88.7312 51.0378 88.5559 52.192 88.148L52.544 88.016H52.592L52.632 88.04L57.6761 90.6L57.5281 90.728C56.9881 89.056 56.4681 87.436 55.9641 85.88V85.82L56.0081 85.776C57.2316 84.5436 58.14 83.0343 58.656 81.376C59.1235 79.86 59.2599 78.2613 59.0561 76.688C58.8748 75.2898 58.4252 73.9398 57.732 72.712C57.1346 71.6573 56.3638 70.7108 55.4521 69.912C54.6998 69.2798 53.8673 68.7498 52.976 68.336C52.3017 68.0452 51.5994 67.824 50.88 67.676L50.08 67.544L49.5 67.5L49.148 67.476H49.028C49.0679 67.4716 49.1082 67.4716 49.148 67.476H49.504L50.084 67.5L50.884 67.616C51.6123 67.7532 52.3242 67.9664 53.008 68.252C53.9146 68.6609 54.7622 69.1896 55.5281 69.824C56.4566 70.6192 57.2437 71.566 57.8561 72.624C58.5689 73.865 59.0322 75.2333 59.2201 76.652C59.4408 78.2496 59.3139 79.876 58.848 81.42C58.3286 83.1127 57.4062 84.6542 56.16 85.912L56.1841 85.808C56.6881 87.364 57.212 88.984 57.7561 90.652L57.8321 90.896L57.604 90.78L52.56 88.224H52.648L52.288 88.356C51.1116 88.77 49.8655 88.9494 48.62 88.884C47.4111 88.838 46.2214 88.5667 45.112 88.084C42.9959 87.1777 41.2353 85.6026 40.1 83.6C39.5776 82.6751 39.1961 81.6775 38.968 80.64C38.9056 80.3912 38.8588 80.1387 38.828 79.884C38.796 79.632 38.744 79.384 38.732 79.136C38.6238 77.7128 38.7742 76.2817 39.176 74.912C39.4287 74.0891 39.7792 73.2994 40.22 72.56C40.9665 71.2783 41.9768 70.1698 43.184 69.308C44.0959 68.6632 45.1083 68.1739 46.18 67.86L46.808 67.7C46.9929 67.6571 47.1798 67.6238 47.368 67.6C47.6599 67.546 47.9554 67.5139 48.252 67.504L48.8 67.484C48.8624 67.4756 48.9252 67.4716 48.988 67.472Z" fill="#CC0000"/>
<path d="M51.268 76.8H50.528L48.928 74.552V73.076C48.928 73.076 47.784 73.004 47.92 74.936C48.056 76.868 47.92 76.376 47.92 76.376C47.92 76.376 45.492 76.376 45.292 76.596C45.092 76.816 45.08 79.16 45.052 80.468C45.0366 80.7833 45.1271 81.0947 45.309 81.3527C45.4909 81.6107 45.7538 81.8005 46.056 81.892C46.1407 81.9155 46.2281 81.9276 46.316 81.928C46.924 81.928 50.016 81.436 50.016 81.436H51.292L51.268 76.8Z" fill="#CC0000"/>
<path d="M53.3841 76.404L52.9281 81.46H51.6641V76.508L53.3841 76.404Z" fill="#CC0000"/>
<path d="M68.4599 179.336V175.916L62.3279 175.872L62.2759 181.044L62.6559 181.072C64.3479 181.18 71.2639 181.34 72.3999 180.988C73.6639 180.596 68.4599 179.336 68.4599 179.336Z" fill="#CC0000"/>
<path d="M72.5439 180.668C72.5439 180.724 70.2479 180.772 67.4199 180.772C64.5919 180.772 62.2959 180.724 62.2959 180.668C62.2959 180.612 64.5919 180.564 67.4199 180.564C70.2479 180.564 72.5439 180.612 72.5439 180.668Z" fill="#263238"/>
<path d="M68.5679 180.036C68.5159 180.008 68.5679 179.828 68.6919 179.636C68.8159 179.444 68.9839 179.364 69.0239 179.404C69.0639 179.444 68.9799 179.596 68.8599 179.76C68.7399 179.924 68.6199 180.064 68.5679 180.036Z" fill="#263238"/>
<path d="M68.9598 180.26C68.9038 180.26 68.9318 180.036 69.0518 179.824C69.1718 179.612 69.3318 179.484 69.3758 179.516C69.4198 179.548 69.3478 179.728 69.2358 179.916C69.1238 180.104 69.0118 180.28 68.9598 180.26Z" fill="#263238"/>
<path d="M64.1438 180.652C64.1198 180.652 64.0279 180.58 63.8959 180.428C63.7347 180.233 63.5552 180.053 63.3598 179.892C63.1677 179.739 62.9388 179.638 62.6958 179.6C62.5078 179.576 62.3878 179.6 62.3758 179.576C62.3638 179.552 62.4798 179.468 62.6998 179.452C62.9902 179.446 63.2734 179.542 63.4998 179.724C63.712 179.897 63.8909 180.107 64.0279 180.344C64.1199 180.52 64.1678 180.636 64.1438 180.652Z" fill="#263238"/>
<path d="M68.588 179.392C68.616 179.44 68.512 179.56 68.336 179.624C68.16 179.688 68.004 179.664 67.996 179.624C67.988 179.584 68.112 179.5 68.264 179.444C68.416 179.388 68.556 179.344 68.588 179.392Z" fill="#263238"/>
<path d="M68.4919 179.06C68.4919 179.12 68.3319 179.168 68.1239 179.172C67.9159 179.176 67.7519 179.128 67.7559 179.072C67.7599 179.016 67.9239 178.964 68.1239 178.96C68.3239 178.956 68.4839 179.004 68.4919 179.06Z" fill="#263238"/>
<path d="M83.56 179.336V175.916L77.428 175.872L77.376 180.992L77.756 181.02C79.448 181.128 86.368 181.34 87.5 180.988C88.764 180.596 83.56 179.336 83.56 179.336Z" fill="#CC0000"/>
<path d="M87.6439 180.676C87.6439 180.732 85.3519 180.78 82.5199 180.78C79.6879 180.78 77.3999 180.732 77.3999 180.676C77.3999 180.62 79.6919 180.572 82.5199 180.572C85.3479 180.572 87.6439 180.62 87.6439 180.676Z" fill="#263238"/>
<path d="M83.668 180.036C83.62 180.008 83.668 179.828 83.792 179.636C83.916 179.444 84.084 179.364 84.124 179.404C84.164 179.444 84.08 179.596 83.96 179.76C83.84 179.924 83.72 180.064 83.668 180.036Z" fill="#263238"/>
<path d="M84.06 180.26C84.008 180.26 84.032 180.036 84.156 179.824C84.28 179.612 84.436 179.484 84.48 179.516C84.524 179.548 84.448 179.728 84.336 179.916C84.224 180.104 84.116 180.28 84.06 180.26Z" fill="#263238"/>
<path d="M79.2439 180.652C79.2199 180.652 79.1319 180.58 78.9959 180.428C78.8348 180.233 78.6553 180.053 78.4599 179.892C78.2678 179.739 78.0389 179.638 77.7959 179.6C77.6119 179.576 77.4879 179.6 77.4759 179.576C77.4639 179.552 77.5799 179.468 77.7999 179.452C78.0903 179.446 78.3735 179.542 78.5999 179.724C78.8132 179.896 78.9923 180.106 79.1279 180.344C79.2199 180.52 79.2679 180.636 79.2439 180.652Z" fill="#263238"/>
<path d="M83.6878 179.392C83.7158 179.44 83.6118 179.56 83.4358 179.624C83.2598 179.688 83.1038 179.664 83.0958 179.624C83.0878 179.584 83.2118 179.5 83.3638 179.444C83.5158 179.388 83.6558 179.344 83.6878 179.392Z" fill="#263238"/>
<path d="M83.6 179.06C83.6 179.12 83.44 179.168 83.232 179.172C83.024 179.176 82.864 179.128 82.868 179.072C82.872 179.016 83.032 178.964 83.232 178.96C83.432 178.956 83.6 179.004 83.6 179.06Z" fill="#263238"/>
<path d="M106.152 77.776C105.992 77.612 105.596 77.692 105.596 77.692C105.636 77.4617 105.636 77.2263 105.596 76.996C105.524 76.772 105.02 76.816 105.02 76.816C104.997 76.6274 104.997 76.4367 105.02 76.248C105.024 76.2062 105.015 76.1642 104.994 76.1277C104.973 76.0912 104.942 76.062 104.904 76.044C104.665 75.9468 104.409 75.9005 104.152 75.908C103.844 75.688 105.092 73.94 105.556 73.38C106.02 72.82 105.936 72.384 105.524 72.384C105.24 72.384 103.784 74.064 103.336 74.628C102.888 75.192 101.7 76.76 101.66 75.508C101.62 74.256 101.116 73.312 100.8 73.152C100.484 72.992 100.148 73.368 100.32 73.716C100.471 74.1114 100.565 74.5262 100.6 74.948C100.643 75.2841 100.628 75.6251 100.556 75.956C100.423 76.5718 100.243 77.1764 100.016 77.764H99.9839C99.9839 77.764 91.2559 86.136 90.6239 86.732C90.0599 87.268 78.7159 86.096 76.4399 85.856C75.6665 85.7429 74.8855 85.6894 74.1039 85.696C73.1159 85.74 72.9399 85.88 71.9559 85.892C69.4709 85.9196 66.9916 86.1376 64.5399 86.544C63.4297 86.7328 62.3928 87.2228 61.5421 87.9606C60.6914 88.6984 60.0597 89.6557 59.7159 90.728C57.4239 97.888 52.2319 114.836 51.3159 124.356C50.6237 125.611 49.9988 126.902 49.4439 128.224C48.7999 129.976 48.9559 130.036 49.1719 130.076C49.7559 130.184 50.4199 127.04 50.6679 127.8C50.9159 128.56 49.4079 131.548 50.0199 131.636C50.8199 131.748 51.4559 128.436 51.5319 128.172C51.6079 127.908 52.0039 127.992 51.9319 128.24C51.8159 128.592 50.6919 132.324 51.4759 132.444C51.9079 132.508 51.9559 131.72 51.9559 131.72C51.9559 131.72 52.7559 128.148 53.1199 128.22C53.4839 128.292 53.0959 130.4 52.9119 131.104C52.7279 131.808 52.9839 132.164 53.3599 131.992C53.6159 131.872 54.2279 129.732 54.3959 129.036C54.5639 128.34 54.9839 126.412 55.5479 127.528C56.1119 128.644 56.9679 129.292 57.3199 129.308C57.3992 129.299 57.474 129.266 57.5346 129.214C57.5951 129.162 57.6388 129.093 57.6599 129.016C57.681 128.939 57.6785 128.858 57.6528 128.782C57.6272 128.707 57.5795 128.64 57.5159 128.592C57.2131 128.296 56.9533 127.96 56.7439 127.592C56.5573 127.306 56.4219 126.989 56.3439 126.656C56.1827 125.993 56.0889 125.314 56.0639 124.632L55.9999 124.232C56.8959 119.796 59.4759 106.776 63.1999 98.46L64.7279 101.604L65.3919 103.932L61.3199 113.984L78.6879 113.756L76.0959 103.78L79.2439 93.38C82.6479 93.456 91.3879 93.584 92.8439 92.924C94.6759 92.124 104.152 80.156 104.152 80.156C104.77 79.6761 105.361 79.1633 105.924 78.62C105.924 78.62 106.5 78.136 106.152 77.776Z" fill="#FFBE9D"/>
<path d="M60.556 106.556C61.06 104.836 63.6479 96.332 63.6479 96.332C63.6479 96.332 64.92 103.264 64.584 104.1C64.2749 104.816 63.9097 105.506 63.4919 106.164C60.5559 110.632 60.94 112.868 60.94 112.868L78.6799 112.328C78.7199 109.848 77.2519 104.08 76.9479 103.16C76.6439 102.24 77.6559 99.228 77.6559 99.228C77.6559 99.228 79.656 97.192 79.584 96.144C79.546 95.2026 79.4296 94.2661 79.2359 93.344L90.0359 93.744L89.6959 86.424L74.184 84.872C73.644 86.396 68.7599 85.648 68.7599 85.648C63.4879 85.824 63.1599 86.792 60.9679 88.496C58.7759 90.2 55.1479 104.824 55.1479 104.824L60.556 106.556Z" fill="#CC0000"/>
<path d="M71.044 104.824C70.7365 104.879 70.4234 104.895 70.112 104.872C69.532 104.872 68.736 104.832 67.86 104.744C66.984 104.656 66.192 104.532 65.628 104.42C65.317 104.38 65.0121 104.302 64.72 104.188C65.0327 104.188 65.3447 104.218 65.652 104.276C66.22 104.348 67.008 104.448 67.88 104.536C68.752 104.624 69.544 104.684 70.116 104.724C70.4278 104.728 70.7385 104.761 71.044 104.824Z" fill="#263238"/>
<path d="M72.2598 103.316C71.9523 103.467 71.6271 103.578 71.2918 103.648C69.6959 104.067 68.0495 104.263 66.3998 104.228C66.0584 104.239 65.717 104.207 65.3838 104.132C65.7207 104.089 66.0603 104.072 66.3998 104.08C67.0278 104.06 67.8918 104.016 68.8438 103.904C69.7958 103.792 70.6438 103.632 71.2438 103.504C71.5771 103.415 71.9168 103.352 72.2598 103.316Z" fill="#263238"/>
<path d="M78.2278 96.588C78.2197 96.893 78.1781 97.1961 78.1038 97.492C77.9998 98.048 77.8398 98.808 77.6358 99.64C77.4318 100.472 77.2358 101.24 77.0598 101.76C76.989 102.058 76.8844 102.346 76.7478 102.62C76.7701 102.316 76.8264 102.015 76.9158 101.724C77.0678 101.1 77.2398 100.38 77.4318 99.592C77.6238 98.804 77.8078 98.084 77.9598 97.46C78.014 97.1597 78.1039 96.8669 78.2278 96.588Z" fill="#263238"/>
<path d="M60.7438 105.536C59.8184 105.393 58.9051 105.181 58.0118 104.9C57.0989 104.687 56.2032 104.406 55.3318 104.06C56.2567 104.205 57.1698 104.418 58.0638 104.696C58.9768 104.909 59.8727 105.19 60.7438 105.536Z" fill="#263238"/>
<path d="M79.4279 93.256C79.277 93.282 79.1228 93.282 78.9719 93.256C78.5541 93.2132 78.1438 93.115 77.7519 92.964C77.0975 92.7181 76.5019 92.3381 76.0031 91.8483C75.5044 91.3585 75.1136 90.7698 74.8559 90.12C74.5711 89.4052 74.4494 88.6358 74.4999 87.868C74.5177 87.2347 74.7071 86.6181 75.0479 86.084C75.2876 85.7242 75.6456 85.4596 76.0599 85.336C76.1706 85.3055 76.2851 85.2907 76.3999 85.292C76.4799 85.292 76.5199 85.292 76.5199 85.292C76.5199 85.292 76.3519 85.292 76.0839 85.4C75.7038 85.5404 75.3815 85.8037 75.1679 86.148C74.6239 87.004 74.4719 88.568 75.0519 90.028C75.3218 90.7164 75.7444 91.3346 76.2879 91.836C76.7332 92.2463 77.2461 92.5765 77.8039 92.812C78.3274 93.0189 78.872 93.1678 79.4279 93.256Z" fill="#263238"/>
<path d="M88.752 93.6C88.6519 92.3734 88.6198 91.1422 88.656 89.912C88.6246 88.6829 88.662 87.453 88.768 86.228C88.8681 87.4533 88.9001 88.6832 88.864 89.912C88.8976 91.1425 88.8602 92.3739 88.752 93.6Z" fill="#263238"/>
<path d="M74.08 85.32C74.124 84.428 74.216 83.42 74.216 83.42C74.216 83.42 76.424 83.176 76.556 80.896C76.688 78.616 76.556 73.356 76.556 73.356L72.556 71.308L68.116 74.8L68.8 86.2L72.872 86.46C73.1832 86.4687 73.4852 86.3535 73.7116 86.1398C73.9381 85.9261 74.0706 85.6313 74.08 85.32Z" fill="#FFBE9D"/>
<path d="M74.4758 79.0921C74.4758 79.0921 74.4758 79.1361 74.4398 79.1881C74.4101 79.2258 74.3716 79.2557 74.3277 79.2752C74.2837 79.2947 74.2358 79.3032 74.1878 79.3001C73.9318 79.3001 73.6838 79.0041 73.5958 78.66C73.554 78.4933 73.554 78.3188 73.5958 78.1521C73.604 78.0793 73.6303 78.0097 73.6722 77.9496C73.7141 77.8895 73.7703 77.8409 73.8358 77.808C73.8896 77.7858 73.95 77.7858 74.0038 77.808C74.0437 77.8279 74.076 77.8602 74.0958 77.9C74.1238 77.968 74.0958 78.0121 74.0958 78.0081C74.0958 78.0041 74.0958 77.9681 74.0558 77.9281C74.0349 77.8994 74.0042 77.8795 73.9695 77.8721C73.9348 77.8647 73.8986 77.8704 73.8678 77.888C73.8188 77.9177 73.778 77.9593 73.7493 78.009C73.7206 78.0586 73.705 78.1147 73.7038 78.172C73.6701 78.3208 73.6701 78.4753 73.7038 78.6241C73.7838 78.9361 73.9998 79.1881 74.1918 79.2121C74.2294 79.2171 74.2676 79.2144 74.3041 79.2041C74.3405 79.1938 74.3745 79.1761 74.4038 79.1521C74.4518 79.1201 74.4678 79.0881 74.4758 79.0921Z" fill="#EB996E"/>
<path d="M77.9278 72.124C77.6198 71.076 76.5038 70.556 75.4878 70.268C73.9398 69.828 72.2678 69.636 70.7558 70.192C69.2438 70.748 67.4278 71.724 67.4278 73.392C66.5358 73.32 66.0238 74.1 65.6718 75.068C65.4468 75.6578 65.3119 76.2781 65.2718 76.908C65.1598 79.092 64.5478 82.108 63.1318 83.708C62.3318 84.6 61.2238 85.216 60.7678 86.328C60.3678 87.292 60.5758 88.436 60.2038 89.412C59.8718 90.272 59.1398 90.884 58.6038 91.632C58.0578 92.4806 57.7364 93.4541 57.6699 94.4609C57.6034 95.4678 57.794 96.4751 58.2238 97.3881C58.6567 98.2776 59.2661 99.0697 60.015 99.7162C60.7639 100.363 61.6366 100.85 62.5798 101.148C64.4482 101.716 66.4407 101.736 68.3198 101.204C69.7301 100.867 71.0457 100.215 72.1678 99.2961C73.316 98.3585 74.1045 97.0527 74.3998 95.6C74.6838 93.968 74.2278 92.3081 73.8878 90.684C72.8238 85.552 73.1278 85.284 74.4718 80.52C74.5038 80.436 74.5198 80.348 74.5438 80.264C74.5678 80.18 74.5798 80.14 74.5958 80.076C74.634 79.8877 74.6541 79.6962 74.6558 79.504C74.4595 79.577 74.2464 79.5925 74.0417 79.5485C73.8369 79.5046 73.6489 79.4031 73.4998 79.256C73.3504 79.0992 73.2462 78.9048 73.1983 78.6936C73.1504 78.4823 73.1606 78.262 73.2278 78.056C73.3222 77.8308 73.4628 77.6279 73.6406 77.4604C73.8184 77.293 74.0293 77.1648 74.2598 77.084C74.7038 76.9 75.1798 76.804 75.6158 76.6C76.5398 76.16 77.1798 75.248 77.6158 74.292C77.9743 73.6294 78.0849 72.8608 77.9278 72.124Z" fill="#263238"/>
<path d="M74.6358 79.2C74.7203 79.3249 74.7901 79.4591 74.8438 79.6C74.9638 79.852 75.1238 80.208 75.2998 80.62L75.3318 80.696H75.2478L74.8478 80.732C74.5718 80.732 74.3398 80.784 74.0678 80.78C74.0441 80.7747 74.0221 80.7635 74.0039 80.7474C73.9858 80.7313 73.9719 80.7109 73.9638 80.688C73.9519 80.6516 73.9519 80.6124 73.9638 80.576C73.973 80.5221 73.985 80.4687 73.9998 80.416L74.0718 80.132C74.1079 79.9426 74.1643 79.7575 74.2398 79.58C74.2323 79.7731 74.2042 79.9649 74.1558 80.152L74.0998 80.436C74.0798 80.532 74.0438 80.68 74.0998 80.668C74.2998 80.668 74.5838 80.624 74.8478 80.608L75.2478 80.572L75.1958 80.66C75.0238 80.26 74.8798 79.884 74.7958 79.624C74.7221 79.4912 74.6682 79.3484 74.6358 79.2Z" fill="#CC0000"/>
<path d="M60.94 112.868L78.68 112.328L86.4 142.464L84.98 177.032H75.6L76.748 143.2L69.888 122.22L70.944 178.372L61.464 178.512L60.468 125.732C60.424 124.264 59.944 120.956 60.124 119.5L60.94 112.868Z" fill="#263238"/>
<path d="M72.2479 122.648C71.9575 122.666 71.666 122.649 71.3799 122.596C70.8439 122.532 70.1119 122.42 69.3079 122.26C68.5039 122.1 67.7839 121.916 67.2639 121.768C66.9859 121.707 66.717 121.61 66.4639 121.48C66.4639 121.42 67.7679 121.732 69.3679 122.056C70.9679 122.38 72.2559 122.588 72.2479 122.648Z" fill="#455A64"/>
<path d="M84.8839 175.136C84.8839 175.192 82.7599 175.24 80.1399 175.24C77.5198 175.24 75.3918 175.192 75.3918 175.136C75.3918 175.08 77.5158 175.032 80.1399 175.032C82.7638 175.032 84.8839 175.076 84.8839 175.136Z" fill="#455A64"/>
<path d="M70.86 176.912C70.86 176.972 68.796 177.016 66.252 177.016C63.708 177.016 61.6479 176.972 61.6479 176.912C61.6479 176.852 63.712 176.808 66.252 176.808C68.792 176.808 70.86 176.856 70.86 176.912Z" fill="#455A64"/>
<path d="M69.6358 176.768C69.5798 176.768 69.3318 164.5 69.0798 149.368C68.8278 134.236 68.6798 121.96 68.7318 121.96C68.7838 121.96 69.0398 134.224 69.2878 149.364C69.5358 164.504 69.6958 176.768 69.6358 176.768Z" fill="#455A64"/>
<path d="M83.6238 175.136C83.6194 175.081 83.6194 175.027 83.6238 174.972V174.492C83.6238 174.06 83.6558 173.44 83.6798 172.652C83.7358 171.052 83.8158 168.728 83.9158 165.88C84.1318 160.152 84.4358 152.256 84.7678 143.54C84.7678 143.456 84.7678 143.376 84.7678 143.304V143.332C82.6678 134.932 80.7678 127.308 79.3878 121.792L77.7878 115.268C77.6038 114.504 77.4638 113.908 77.3638 113.492C77.3158 113.296 77.2838 113.144 77.2558 113.028C77.2402 112.976 77.2308 112.922 77.2278 112.868C77.2486 112.918 77.2646 112.971 77.2758 113.024C77.3078 113.136 77.3478 113.288 77.4038 113.48C77.5118 113.88 77.6678 114.488 77.8678 115.248C78.2678 116.792 78.8318 119.016 79.5358 121.756C80.9278 127.268 82.8478 134.872 84.9758 143.284V143.312C84.9758 143.384 84.9758 143.468 84.9758 143.548C84.6198 152.264 84.2958 160.156 84.0598 165.884C83.9358 168.736 83.8318 171.044 83.7598 172.652C83.7198 173.452 83.6878 174.06 83.6678 174.492C83.6678 174.696 83.6438 174.856 83.6398 174.972C83.6404 175.027 83.635 175.082 83.6238 175.136Z" fill="#455A64"/>
<path d="M80.5639 142.6C79.8902 142.822 79.1961 142.976 78.492 143.06C77.628 143.208 76.892 143.312 76.56 143.328V143.248C76.668 143.28 76.724 143.3 76.724 143.316C76.724 143.332 76.656 143.316 76.544 143.316H76.304L76.544 143.244C76.856 143.152 77.592 143 78.456 142.844C79.1489 142.694 79.855 142.612 80.5639 142.6Z" fill="#455A64"/>
<path d="M80.3999 143.748C79.776 143.777 79.1507 143.749 78.5319 143.664C77.9071 143.651 77.2846 143.583 76.6719 143.46C77.922 143.358 79.1803 143.455 80.3999 143.748Z" fill="#455A64"/>
<path opacity="0.2" d="M60.8638 113.504C61.0739 113.774 61.3385 113.996 61.6404 114.157C61.9423 114.317 62.2746 114.413 62.6158 114.436C63.3302 114.521 64.0529 114.507 64.7638 114.396C69.3438 113.888 74.1958 113.42 78.6798 112.328C72.8758 112.652 66.7438 112.544 60.9398 112.868L60.8798 113.364" fill="black"/>
<g opacity="0.2">
<path opacity="0.2" d="M66.844 121.684L70.116 134.38L69.888 122.22L66.844 121.684Z" fill="black"/>
</g>
</svg>
