<svg xmlns="http://www.w3.org/2000/svg" viewBox="0 0 750 500"><g id="freepik--Servers--inject-4"><rect x="270.84" y="285.58" width="138.56" height="98.08" style="fill:#263238"></rect><rect x="250.61" y="275.44" width="151.47" height="37.58" style="fill:#455a64"></rect><path d="M298.58,285.58a1.71,1.71,0,1,1-1.71-1.71A1.71,1.71,0,0,1,298.58,285.58Z" style="fill:#263238"></path><path d="M306.13,285.58a1.71,1.71,0,1,1-1.71-1.71A1.71,1.71,0,0,1,306.13,285.58Z" style="fill:#263238"></path><path d="M313.68,285.58a1.71,1.71,0,1,1-1.71-1.71A1.71,1.71,0,0,1,313.68,285.58Z" style="fill:#263238"></path><path d="M321.23,285.58a1.71,1.71,0,1,1-1.71-1.71A1.71,1.71,0,0,1,321.23,285.58Z" style="fill:#263238"></path><path d="M379.73,285.58a1.71,1.71,0,1,1-1.71-1.71A1.7,1.7,0,0,1,379.73,285.58Z" style="fill:#263238"></path><path d="M387.43,285.58a1.71,1.71,0,1,1-1.71-1.71A1.7,1.7,0,0,1,387.43,285.58Z" style="fill:#263238"></path><path d="M328.78,285.58a1.71,1.71,0,1,1-1.71-1.71A1.71,1.71,0,0,1,328.78,285.58Z" style="fill:#263238"></path><path d="M365.86,285.58a1.72,1.72,0,1,1-1.72-1.71A1.71,1.71,0,0,1,365.86,285.58Z" style="fill:#263238"></path><path d="M336.33,285.58a1.71,1.71,0,1,1-1.71-1.71A1.71,1.71,0,0,1,336.33,285.58Z" style="fill:#f5f5f5"></path><path d="M343.88,285.58a1.71,1.71,0,1,1-1.71-1.71A1.71,1.71,0,0,1,343.88,285.58Z" style="fill:#f5f5f5"></path><path d="M359.2,285.58a1.72,1.72,0,1,1-1.72-1.71A1.71,1.71,0,0,1,359.2,285.58Z" style="fill:#f5f5f5"></path><path d="M393.7,285.58a1.72,1.72,0,1,1-1.72-1.71A1.71,1.71,0,0,1,393.7,285.58Z" style="fill:#f5f5f5"></path><path d="M351.43,285.58a1.71,1.71,0,1,1-1.71-1.71A1.71,1.71,0,0,1,351.43,285.58Z" style="fill:#90CAF9"></path><path d="M373,285.58a1.71,1.71,0,1,1-1.71-1.71A1.7,1.7,0,0,1,373,285.58Z" style="fill:#90CAF9"></path><path d="M390.27,293.83a1.72,1.72,0,1,1,1.71,1.71A1.71,1.71,0,0,1,390.27,293.83Z" style="fill:#263238"></path><circle cx="384.43" cy="293.83" r="1.71" style="fill:#263238"></circle><path d="M375.17,293.83a1.72,1.72,0,1,1,1.72,1.71A1.71,1.71,0,0,1,375.17,293.83Z" style="fill:#263238"></path><path d="M367.62,293.83a1.72,1.72,0,1,1,1.72,1.71A1.71,1.71,0,0,1,367.62,293.83Z" style="fill:#263238"></path><path d="M309.12,293.83a1.71,1.71,0,1,1,1.71,1.71A1.71,1.71,0,0,1,309.12,293.83Z" style="fill:#263238"></path><path d="M301.42,293.83a1.71,1.71,0,1,1,1.71,1.71A1.71,1.71,0,0,1,301.42,293.83Z" style="fill:#263238"></path><circle cx="361.79" cy="293.83" r="1.71" style="fill:#263238"></circle><circle cx="324.71" cy="293.83" r="1.71" style="fill:#263238"></circle><path d="M352.52,293.83a1.72,1.72,0,1,1,1.72,1.71A1.71,1.71,0,0,1,352.52,293.83Z" style="fill:#f5f5f5"></path><path d="M345,293.83a1.71,1.71,0,1,1,1.71,1.71A1.7,1.7,0,0,1,345,293.83Z" style="fill:#f5f5f5"></path><path d="M329.66,293.83a1.71,1.71,0,1,1,1.71,1.71A1.7,1.7,0,0,1,329.66,293.83Z" style="fill:#f5f5f5"></path><path d="M295.16,293.83a1.71,1.71,0,1,1,1.71,1.71A1.7,1.7,0,0,1,295.16,293.83Z" style="fill:#f5f5f5"></path><path d="M337.43,293.83a1.71,1.71,0,1,1,1.71,1.71A1.7,1.7,0,0,1,337.43,293.83Z" style="fill:#90CAF9"></path><path d="M315.81,293.83a1.71,1.71,0,1,1,1.71,1.71A1.71,1.71,0,0,1,315.81,293.83Z" style="fill:#90CAF9"></path><path d="M298.58,301.16a1.71,1.71,0,1,1-1.71-1.71A1.71,1.71,0,0,1,298.58,301.16Z" style="fill:#263238"></path><path d="M306.13,301.16a1.71,1.71,0,1,1-1.71-1.71A1.71,1.71,0,0,1,306.13,301.16Z" style="fill:#263238"></path><path d="M313.68,301.16a1.71,1.71,0,1,1-1.71-1.71A1.71,1.71,0,0,1,313.68,301.16Z" style="fill:#263238"></path><path d="M321.23,301.16a1.71,1.71,0,1,1-1.71-1.71A1.71,1.71,0,0,1,321.23,301.16Z" style="fill:#263238"></path><path d="M379.73,301.16a1.71,1.71,0,1,1-1.71-1.71A1.7,1.7,0,0,1,379.73,301.16Z" style="fill:#263238"></path><path d="M387.43,301.16a1.71,1.71,0,1,1-1.71-1.71A1.7,1.7,0,0,1,387.43,301.16Z" style="fill:#263238"></path><path d="M328.78,301.16a1.71,1.71,0,1,1-1.71-1.71A1.71,1.71,0,0,1,328.78,301.16Z" style="fill:#263238"></path><path d="M365.86,301.16a1.72,1.72,0,1,1-1.72-1.71A1.71,1.71,0,0,1,365.86,301.16Z" style="fill:#263238"></path><path d="M336.33,301.16a1.71,1.71,0,1,1-1.71-1.71A1.71,1.71,0,0,1,336.33,301.16Z" style="fill:#f5f5f5"></path><path d="M343.88,301.16a1.71,1.71,0,1,1-1.71-1.71A1.71,1.71,0,0,1,343.88,301.16Z" style="fill:#f5f5f5"></path><path d="M359.2,301.16a1.72,1.72,0,1,1-1.72-1.71A1.71,1.71,0,0,1,359.2,301.16Z" style="fill:#f5f5f5"></path><path d="M393.7,301.16a1.72,1.72,0,1,1-1.72-1.71A1.71,1.71,0,0,1,393.7,301.16Z" style="fill:#f5f5f5"></path><path d="M351.43,301.16a1.71,1.71,0,1,1-1.71-1.71A1.71,1.71,0,0,1,351.43,301.16Z" style="fill:#90CAF9"></path><path d="M373,301.16a1.71,1.71,0,1,1-1.71-1.71A1.7,1.7,0,0,1,373,301.16Z" style="fill:#90CAF9"></path><rect x="257.34" y="283.18" width="29.82" height="4.59" style="fill:#263238"></rect><rect x="257.34" y="291.08" width="29.82" height="4.59" style="fill:#263238"></rect><rect x="257.34" y="299.24" width="29.82" height="4.59" style="fill:#263238"></rect><rect x="250.61" y="321.82" width="151.47" height="37.58" style="fill:#455a64"></rect><rect x="257.34" y="329.56" width="29.82" height="4.59" style="fill:#263238"></rect><rect x="257.34" y="337.45" width="29.82" height="4.59" style="fill:#263238"></rect><rect x="257.34" y="345.62" width="29.82" height="4.59" style="fill:#263238"></rect><path d="M298,332a1.71,1.71,0,1,1-1.71-1.71A1.72,1.72,0,0,1,298,332Z" style="fill:#263238"></path><path d="M305.58,332a1.71,1.71,0,1,1-1.71-1.71A1.72,1.72,0,0,1,305.58,332Z" style="fill:#263238"></path><path d="M313.13,332a1.71,1.71,0,1,1-1.71-1.71A1.72,1.72,0,0,1,313.13,332Z" style="fill:#263238"></path><path d="M320.68,332a1.71,1.71,0,1,1-1.71-1.71A1.72,1.72,0,0,1,320.68,332Z" style="fill:#263238"></path><path d="M379.18,332a1.71,1.71,0,1,1-1.71-1.71A1.71,1.71,0,0,1,379.18,332Z" style="fill:#263238"></path><path d="M386.88,332a1.71,1.71,0,1,1-1.71-1.71A1.71,1.71,0,0,1,386.88,332Z" style="fill:#263238"></path><path d="M328.23,332a1.71,1.71,0,1,1-1.71-1.71A1.72,1.72,0,0,1,328.23,332Z" style="fill:#263238"></path><path d="M365.31,332a1.72,1.72,0,1,1-1.71-1.71A1.72,1.72,0,0,1,365.31,332Z" style="fill:#263238"></path><path d="M335.78,332a1.71,1.71,0,1,1-1.71-1.71A1.72,1.72,0,0,1,335.78,332Z" style="fill:#f5f5f5"></path><path d="M343.33,332a1.71,1.71,0,1,1-1.71-1.71A1.72,1.72,0,0,1,343.33,332Z" style="fill:#f5f5f5"></path><path d="M358.65,332a1.71,1.71,0,1,1-1.71-1.71A1.72,1.72,0,0,1,358.65,332Z" style="fill:#f5f5f5"></path><path d="M393.15,332a1.71,1.71,0,1,1-1.71-1.71A1.72,1.72,0,0,1,393.15,332Z" style="fill:#f5f5f5"></path><path d="M350.88,332a1.71,1.71,0,1,1-1.71-1.71A1.72,1.72,0,0,1,350.88,332Z" style="fill:#90CAF9"></path><path d="M372.5,332a1.72,1.72,0,1,1-1.72-1.71A1.72,1.72,0,0,1,372.5,332Z" style="fill:#90CAF9"></path><path d="M389.73,340.2a1.71,1.71,0,1,1,1.71,1.71A1.71,1.71,0,0,1,389.73,340.2Z" style="fill:#263238"></path><path d="M382.18,340.2a1.71,1.71,0,1,1,1.71,1.71A1.71,1.71,0,0,1,382.18,340.2Z" style="fill:#263238"></path><path d="M374.63,340.2a1.71,1.71,0,1,1,1.71,1.71A1.71,1.71,0,0,1,374.63,340.2Z" style="fill:#263238"></path><path d="M367.08,340.2a1.71,1.71,0,1,1,1.71,1.71A1.71,1.71,0,0,1,367.08,340.2Z" style="fill:#263238"></path><path d="M308.57,340.2a1.71,1.71,0,1,1,1.71,1.71A1.72,1.72,0,0,1,308.57,340.2Z" style="fill:#263238"></path><path d="M300.87,340.2a1.71,1.71,0,1,1,1.71,1.71A1.72,1.72,0,0,1,300.87,340.2Z" style="fill:#263238"></path><path d="M359.53,340.2a1.71,1.71,0,1,1,1.71,1.71A1.71,1.71,0,0,1,359.53,340.2Z" style="fill:#263238"></path><path d="M322.45,340.2a1.71,1.71,0,1,1,1.71,1.71A1.72,1.72,0,0,1,322.45,340.2Z" style="fill:#263238"></path><path d="M352,340.2a1.71,1.71,0,1,1,1.71,1.71A1.71,1.71,0,0,1,352,340.2Z" style="fill:#f5f5f5"></path><path d="M344.43,340.2a1.71,1.71,0,1,1,1.71,1.71A1.71,1.71,0,0,1,344.43,340.2Z" style="fill:#f5f5f5"></path><path d="M329.11,340.2a1.71,1.71,0,1,1,1.71,1.71A1.72,1.72,0,0,1,329.11,340.2Z" style="fill:#f5f5f5"></path><path d="M294.61,340.2a1.71,1.71,0,1,1,1.71,1.71A1.71,1.71,0,0,1,294.61,340.2Z" style="fill:#f5f5f5"></path><path d="M336.88,340.2a1.71,1.71,0,1,1,1.71,1.71A1.71,1.71,0,0,1,336.88,340.2Z" style="fill:#90CAF9"></path><path d="M315.26,340.2a1.71,1.71,0,1,1,1.71,1.71A1.72,1.72,0,0,1,315.26,340.2Z" style="fill:#90CAF9"></path><path d="M298,347.54a1.71,1.71,0,1,1-1.71-1.71A1.72,1.72,0,0,1,298,347.54Z" style="fill:#263238"></path><path d="M305.58,347.54a1.71,1.71,0,1,1-1.71-1.71A1.72,1.72,0,0,1,305.58,347.54Z" style="fill:#263238"></path><path d="M313.13,347.54a1.71,1.71,0,1,1-1.71-1.71A1.72,1.72,0,0,1,313.13,347.54Z" style="fill:#263238"></path><path d="M320.68,347.54a1.71,1.71,0,1,1-1.71-1.71A1.72,1.72,0,0,1,320.68,347.54Z" style="fill:#263238"></path><path d="M379.18,347.54a1.71,1.71,0,1,1-1.71-1.71A1.71,1.71,0,0,1,379.18,347.54Z" style="fill:#263238"></path><path d="M386.88,347.54a1.71,1.71,0,1,1-1.71-1.71A1.71,1.71,0,0,1,386.88,347.54Z" style="fill:#263238"></path><path d="M328.23,347.54a1.71,1.71,0,1,1-1.71-1.71A1.72,1.72,0,0,1,328.23,347.54Z" style="fill:#263238"></path><path d="M365.31,347.54a1.72,1.72,0,1,1-1.71-1.71A1.72,1.72,0,0,1,365.31,347.54Z" style="fill:#263238"></path><path d="M335.78,347.54a1.71,1.71,0,1,1-1.71-1.71A1.72,1.72,0,0,1,335.78,347.54Z" style="fill:#f5f5f5"></path><path d="M343.33,347.54a1.71,1.71,0,1,1-1.71-1.71A1.72,1.72,0,0,1,343.33,347.54Z" style="fill:#f5f5f5"></path><path d="M358.65,347.54a1.71,1.71,0,1,1-1.71-1.71A1.72,1.72,0,0,1,358.65,347.54Z" style="fill:#f5f5f5"></path><path d="M393.15,347.54a1.71,1.71,0,1,1-1.71-1.71A1.72,1.72,0,0,1,393.15,347.54Z" style="fill:#f5f5f5"></path><path d="M350.88,347.54a1.71,1.71,0,1,1-1.71-1.71A1.72,1.72,0,0,1,350.88,347.54Z" style="fill:#90CAF9"></path><path d="M372.5,347.54a1.72,1.72,0,1,1-1.72-1.71A1.72,1.72,0,0,1,372.5,347.54Z" style="fill:#90CAF9"></path><polygon points="424.85 312.67 402.08 312.73 402.08 275.15 424.85 275.09 424.85 312.67" style="fill:#263238"></polygon><polygon points="424.85 359.34 402.08 359.4 402.08 321.82 424.85 321.76 424.85 359.34" style="fill:#263238"></polygon><polygon points="423.45 406.36 400.68 406.42 400.68 368.84 423.45 368.77 423.45 406.36" style="fill:#263238"></polygon><rect x="250.31" y="368.84" width="151.47" height="37.58" style="fill:#455a64"></rect><rect x="257.03" y="376.58" width="29.82" height="4.59" style="fill:#263238"></rect><rect x="257.03" y="384.47" width="29.82" height="4.59" style="fill:#263238"></rect><path d="M298.65,379.35a1.71,1.71,0,1,1-1.71-1.71A1.72,1.72,0,0,1,298.65,379.35Z" style="fill:#263238"></path><path d="M306.2,379.35a1.71,1.71,0,1,1-1.71-1.71A1.72,1.72,0,0,1,306.2,379.35Z" style="fill:#263238"></path><path d="M313.75,379.35a1.71,1.71,0,1,1-1.71-1.71A1.72,1.72,0,0,1,313.75,379.35Z" style="fill:#263238"></path><path d="M321.3,379.35a1.71,1.71,0,1,1-1.71-1.71A1.72,1.72,0,0,1,321.3,379.35Z" style="fill:#263238"></path><path d="M379.8,379.35a1.71,1.71,0,1,1-1.71-1.71A1.71,1.71,0,0,1,379.8,379.35Z" style="fill:#263238"></path><path d="M387.5,379.35a1.71,1.71,0,1,1-1.71-1.71A1.72,1.72,0,0,1,387.5,379.35Z" style="fill:#263238"></path><path d="M328.85,379.35a1.71,1.71,0,1,1-1.71-1.71A1.72,1.72,0,0,1,328.85,379.35Z" style="fill:#263238"></path><path d="M365.92,379.35a1.71,1.71,0,1,1-1.71-1.71A1.71,1.71,0,0,1,365.92,379.35Z" style="fill:#263238"></path><path d="M336.4,379.35a1.71,1.71,0,1,1-1.71-1.71A1.72,1.72,0,0,1,336.4,379.35Z" style="fill:#f5f5f5"></path><path d="M344,379.35a1.72,1.72,0,1,1-1.71-1.71A1.72,1.72,0,0,1,344,379.35Z" style="fill:#f5f5f5"></path><path d="M359.26,379.35a1.71,1.71,0,1,1-1.71-1.71A1.71,1.71,0,0,1,359.26,379.35Z" style="fill:#f5f5f5"></path><path d="M393.76,379.35a1.71,1.71,0,1,1-1.71-1.71A1.71,1.71,0,0,1,393.76,379.35Z" style="fill:#f5f5f5"></path><path d="M351.5,379.35a1.72,1.72,0,1,1-1.71-1.71A1.72,1.72,0,0,1,351.5,379.35Z" style="fill:#90CAF9"></path><path d="M373.11,379.35a1.71,1.71,0,1,1-1.71-1.71A1.71,1.71,0,0,1,373.11,379.35Z" style="fill:#90CAF9"></path><path d="M390.34,387.6a1.71,1.71,0,1,1,1.71,1.71A1.72,1.72,0,0,1,390.34,387.6Z" style="fill:#263238"></path><path d="M382.79,387.6a1.71,1.71,0,1,1,1.71,1.71A1.72,1.72,0,0,1,382.79,387.6Z" style="fill:#263238"></path><path d="M375.24,387.6a1.71,1.71,0,1,1,1.71,1.71A1.72,1.72,0,0,1,375.24,387.6Z" style="fill:#263238"></path><path d="M367.69,387.6a1.71,1.71,0,1,1,1.71,1.71A1.72,1.72,0,0,1,367.69,387.6Z" style="fill:#263238"></path><path d="M309.19,387.6a1.71,1.71,0,1,1,1.71,1.71A1.71,1.71,0,0,1,309.19,387.6Z" style="fill:#263238"></path><path d="M301.49,387.6a1.71,1.71,0,1,1,1.71,1.71A1.72,1.72,0,0,1,301.49,387.6Z" style="fill:#263238"></path><path d="M360.14,387.6a1.71,1.71,0,1,1,1.71,1.71A1.72,1.72,0,0,1,360.14,387.6Z" style="fill:#263238"></path><path d="M323.07,387.6a1.71,1.71,0,1,1,1.71,1.71A1.71,1.71,0,0,1,323.07,387.6Z" style="fill:#263238"></path><path d="M352.59,387.6a1.72,1.72,0,1,1,1.71,1.71A1.72,1.72,0,0,1,352.59,387.6Z" style="fill:#f5f5f5"></path><path d="M345,387.6a1.72,1.72,0,1,1,1.71,1.71A1.72,1.72,0,0,1,345,387.6Z" style="fill:#f5f5f5"></path><path d="M329.73,387.6a1.71,1.71,0,1,1,1.71,1.71A1.71,1.71,0,0,1,329.73,387.6Z" style="fill:#f5f5f5"></path><path d="M295.23,387.6a1.71,1.71,0,1,1,1.71,1.71A1.71,1.71,0,0,1,295.23,387.6Z" style="fill:#f5f5f5"></path><path d="M337.49,387.6a1.72,1.72,0,1,1,1.71,1.71A1.72,1.72,0,0,1,337.49,387.6Z" style="fill:#90CAF9"></path><path d="M315.88,387.6a1.71,1.71,0,1,1,1.71,1.71A1.71,1.71,0,0,1,315.88,387.6Z" style="fill:#90CAF9"></path><path d="M298.65,394.93a1.71,1.71,0,1,1-1.71-1.71A1.72,1.72,0,0,1,298.65,394.93Z" style="fill:#263238"></path><path d="M306.2,394.93a1.71,1.71,0,1,1-1.71-1.71A1.72,1.72,0,0,1,306.2,394.93Z" style="fill:#263238"></path><path d="M313.75,394.93a1.71,1.71,0,1,1-1.71-1.71A1.72,1.72,0,0,1,313.75,394.93Z" style="fill:#263238"></path><path d="M321.3,394.93a1.71,1.71,0,1,1-1.71-1.71A1.72,1.72,0,0,1,321.3,394.93Z" style="fill:#263238"></path><path d="M379.8,394.93a1.71,1.71,0,1,1-1.71-1.71A1.71,1.71,0,0,1,379.8,394.93Z" style="fill:#263238"></path><path d="M387.5,394.93a1.71,1.71,0,1,1-1.71-1.71A1.72,1.72,0,0,1,387.5,394.93Z" style="fill:#263238"></path><path d="M328.85,394.93a1.71,1.71,0,1,1-1.71-1.71A1.72,1.72,0,0,1,328.85,394.93Z" style="fill:#263238"></path><path d="M365.92,394.93a1.71,1.71,0,1,1-1.71-1.71A1.71,1.71,0,0,1,365.92,394.93Z" style="fill:#263238"></path><path d="M336.4,394.93a1.71,1.71,0,1,1-1.71-1.71A1.72,1.72,0,0,1,336.4,394.93Z" style="fill:#f5f5f5"></path><path d="M344,394.93a1.72,1.72,0,1,1-1.71-1.71A1.72,1.72,0,0,1,344,394.93Z" style="fill:#f5f5f5"></path><path d="M359.26,394.93a1.71,1.71,0,1,1-1.71-1.71A1.71,1.71,0,0,1,359.26,394.93Z" style="fill:#f5f5f5"></path><path d="M393.76,394.93a1.71,1.71,0,1,1-1.71-1.71A1.71,1.71,0,0,1,393.76,394.93Z" style="fill:#f5f5f5"></path><path d="M351.5,394.93a1.72,1.72,0,1,1-1.71-1.71A1.72,1.72,0,0,1,351.5,394.93Z" style="fill:#90CAF9"></path><path d="M373.11,394.93a1.71,1.71,0,1,1-1.71-1.71A1.71,1.71,0,0,1,373.11,394.93Z" style="fill:#90CAF9"></path><rect x="430.16" y="63.44" width="111.96" height="342.97" style="fill:#ebebeb"></rect><polygon points="630.45 406.42 542.12 406.42 541.96 63.44 630.45 63.44 630.45 406.42" style="fill:#e0e0e0"></polygon><rect x="436.36" y="118.33" width="94.97" height="26.74" style="fill:#263238"></rect><rect x="439.01" y="121.7" width="5.32" height="20.46" style="fill:#455a64"></rect><path d="M450.59,126a1.69,1.69,0,1,1-1.69-1.69A1.69,1.69,0,0,1,450.59,126Z" style="fill:#fff"></path><path d="M450.59,133.23a1.69,1.69,0,1,1-1.69-1.69A1.69,1.69,0,0,1,450.59,133.23Z" style="fill:#fff"></path><rect x="457.35" y="124.31" width="5.23" height="15.72" style="fill:#455a64"></rect><rect x="464.9" y="124.31" width="5.23" height="15.72" style="fill:#455a64"></rect><rect x="472.45" y="124.31" width="5.23" height="15.72" style="fill:#455a64"></rect><rect x="479.99" y="124.31" width="5.23" height="15.72" style="fill:#455a64"></rect><rect x="487.54" y="124.31" width="5.23" height="15.72" style="fill:#455a64"></rect><rect x="495.09" y="124.31" width="5.23" height="15.72" style="fill:#455a64"></rect><rect x="502.64" y="124.31" width="5.23" height="15.72" style="fill:#455a64"></rect><rect x="510.19" y="124.31" width="5.23" height="15.72" style="fill:#455a64"></rect><rect x="517.74" y="124.31" width="5.23" height="15.72" style="fill:#455a64"></rect><rect x="525.29" y="124.31" width="5.23" height="15.72" style="fill:#455a64"></rect><rect x="436.36" y="156.75" width="94.97" height="26.74" style="fill:#263238"></rect><rect x="439.01" y="160.11" width="5.32" height="20.46" style="fill:#455a64"></rect><path d="M450.59,164.41a1.69,1.69,0,1,1-1.69-1.69A1.69,1.69,0,0,1,450.59,164.41Z" style="fill:#fff"></path><path d="M450.59,171.64A1.69,1.69,0,1,1,448.9,170,1.69,1.69,0,0,1,450.59,171.64Z" style="fill:#fff"></path><rect x="457.35" y="162.72" width="5.23" height="15.72" style="fill:#455a64"></rect><rect x="464.9" y="162.72" width="5.23" height="15.72" style="fill:#455a64"></rect><rect x="472.45" y="162.72" width="5.23" height="15.72" style="fill:#455a64"></rect><rect x="479.99" y="162.72" width="5.23" height="15.72" style="fill:#455a64"></rect><rect x="487.54" y="162.72" width="5.23" height="15.72" style="fill:#455a64"></rect><rect x="495.09" y="162.72" width="5.23" height="15.72" style="fill:#455a64"></rect><rect x="502.64" y="162.72" width="5.23" height="15.72" style="fill:#455a64"></rect><rect x="510.19" y="162.72" width="5.23" height="15.72" style="fill:#455a64"></rect><rect x="517.74" y="162.72" width="5.23" height="15.72" style="fill:#455a64"></rect><rect x="525.29" y="162.72" width="5.23" height="15.72" style="fill:#455a64"></rect><rect x="436.36" y="195.47" width="94.97" height="26.74" style="fill:#263238"></rect><rect x="439.01" y="198.83" width="5.32" height="20.46" style="fill:#455a64"></rect><path d="M450.59,203.13a1.69,1.69,0,1,1-1.69-1.69A1.69,1.69,0,0,1,450.59,203.13Z" style="fill:#fff"></path><path d="M450.59,210.36a1.69,1.69,0,1,1-1.69-1.69A1.69,1.69,0,0,1,450.59,210.36Z" style="fill:#fff"></path><rect x="457.35" y="201.44" width="5.23" height="15.72" style="fill:#455a64"></rect><rect x="464.9" y="201.44" width="5.23" height="15.72" style="fill:#455a64"></rect><rect x="472.45" y="201.44" width="5.23" height="15.72" style="fill:#455a64"></rect><rect x="479.99" y="201.44" width="5.23" height="15.72" style="fill:#455a64"></rect><rect x="487.54" y="201.44" width="5.23" height="15.72" style="fill:#455a64"></rect><rect x="495.09" y="201.44" width="5.23" height="15.72" style="fill:#455a64"></rect><rect x="502.64" y="201.44" width="5.23" height="15.72" style="fill:#455a64"></rect><rect x="510.19" y="201.44" width="5.23" height="15.72" style="fill:#455a64"></rect><rect x="517.74" y="201.44" width="5.23" height="15.72" style="fill:#455a64"></rect><rect x="525.29" y="201.44" width="5.23" height="15.72" style="fill:#455a64"></rect><rect x="436.36" y="237.29" width="94.97" height="26.74" style="fill:#263238"></rect><rect x="439.01" y="240.66" width="5.32" height="20.46" style="fill:#455a64"></rect><path d="M450.59,245a1.69,1.69,0,1,1-1.69-1.69A1.69,1.69,0,0,1,450.59,245Z" style="fill:#fff"></path><path d="M450.59,252.19a1.69,1.69,0,1,1-1.69-1.69A1.69,1.69,0,0,1,450.59,252.19Z" style="fill:#fff"></path><rect x="457.35" y="243.27" width="5.23" height="15.72" style="fill:#455a64"></rect><rect x="464.9" y="243.27" width="5.23" height="15.72" style="fill:#455a64"></rect><rect x="472.45" y="243.27" width="5.23" height="15.72" style="fill:#455a64"></rect><rect x="479.99" y="243.27" width="5.23" height="15.72" style="fill:#455a64"></rect><rect x="487.54" y="243.27" width="5.23" height="15.72" style="fill:#455a64"></rect><rect x="495.09" y="243.27" width="5.23" height="15.72" style="fill:#455a64"></rect><rect x="502.64" y="243.27" width="5.23" height="15.72" style="fill:#455a64"></rect><rect x="510.19" y="243.27" width="5.23" height="15.72" style="fill:#455a64"></rect><rect x="517.74" y="243.27" width="5.23" height="15.72" style="fill:#455a64"></rect><rect x="525.29" y="243.27" width="5.23" height="15.72" style="fill:#455a64"></rect><rect x="436.36" y="279.53" width="94.97" height="26.74" style="fill:#263238"></rect><rect x="439.01" y="282.9" width="5.32" height="20.46" style="fill:#455a64"></rect><path d="M450.59,287.2a1.69,1.69,0,1,1-1.69-1.69A1.69,1.69,0,0,1,450.59,287.2Z" style="fill:#fff"></path><path d="M450.59,294.43a1.69,1.69,0,1,1-1.69-1.69A1.69,1.69,0,0,1,450.59,294.43Z" style="fill:#fff"></path><rect x="457.35" y="285.51" width="5.23" height="15.72" style="fill:#455a64"></rect><rect x="464.9" y="285.51" width="5.23" height="15.72" style="fill:#455a64"></rect><rect x="472.45" y="285.51" width="5.23" height="15.72" style="fill:#455a64"></rect><rect x="479.99" y="285.51" width="5.23" height="15.72" style="fill:#455a64"></rect><rect x="487.54" y="285.51" width="5.23" height="15.72" style="fill:#455a64"></rect><rect x="495.09" y="285.51" width="5.23" height="15.72" style="fill:#455a64"></rect><rect x="502.64" y="285.51" width="5.23" height="15.72" style="fill:#455a64"></rect><rect x="510.19" y="285.51" width="5.23" height="15.72" style="fill:#455a64"></rect><rect x="517.74" y="285.51" width="5.23" height="15.72" style="fill:#455a64"></rect><rect x="525.29" y="285.51" width="5.23" height="15.72" style="fill:#455a64"></rect><rect x="436.36" y="363.6" width="94.97" height="26.74" style="fill:#263238"></rect><rect x="439.01" y="366.96" width="5.32" height="20.46" style="fill:#455a64"></rect><path d="M450.59,371.27a1.69,1.69,0,1,1-1.69-1.69A1.69,1.69,0,0,1,450.59,371.27Z" style="fill:#fff"></path><path d="M450.59,378.5a1.69,1.69,0,1,1-1.69-1.69A1.69,1.69,0,0,1,450.59,378.5Z" style="fill:#fff"></path><rect x="457.35" y="369.58" width="5.23" height="15.72" style="fill:#455a64"></rect><rect x="464.9" y="369.58" width="5.23" height="15.72" style="fill:#455a64"></rect><rect x="472.45" y="369.58" width="5.23" height="15.72" style="fill:#455a64"></rect><rect x="479.99" y="369.58" width="5.23" height="15.72" style="fill:#455a64"></rect><rect x="487.54" y="369.58" width="5.23" height="15.72" style="fill:#455a64"></rect><rect x="495.09" y="369.58" width="5.23" height="15.72" style="fill:#455a64"></rect><rect x="502.64" y="369.58" width="5.23" height="15.72" style="fill:#455a64"></rect><rect x="510.19" y="369.58" width="5.23" height="15.72" style="fill:#455a64"></rect><rect x="517.74" y="369.58" width="5.23" height="15.72" style="fill:#455a64"></rect><rect x="525.29" y="369.58" width="5.23" height="15.72" style="fill:#455a64"></rect><rect x="436.36" y="321.6" width="94.97" height="26.74" style="fill:#263238"></rect><rect x="439.01" y="324.97" width="5.32" height="20.46" style="fill:#455a64"></rect><path d="M450.59,329.27a1.69,1.69,0,1,1-1.69-1.69A1.69,1.69,0,0,1,450.59,329.27Z" style="fill:#fff"></path><path d="M450.59,336.5a1.69,1.69,0,1,1-1.69-1.69A1.69,1.69,0,0,1,450.59,336.5Z" style="fill:#fff"></path><rect x="457.35" y="327.58" width="5.23" height="15.72" style="fill:#455a64"></rect><rect x="464.9" y="327.58" width="5.23" height="15.72" style="fill:#455a64"></rect><rect x="472.45" y="327.58" width="5.23" height="15.72" style="fill:#455a64"></rect><rect x="479.99" y="327.58" width="5.23" height="15.72" style="fill:#455a64"></rect><rect x="487.54" y="327.58" width="5.23" height="15.72" style="fill:#455a64"></rect><rect x="495.09" y="327.58" width="5.23" height="15.72" style="fill:#455a64"></rect><rect x="502.64" y="327.58" width="5.23" height="15.72" style="fill:#455a64"></rect><rect x="510.19" y="327.58" width="5.23" height="15.72" style="fill:#455a64"></rect><rect x="517.74" y="327.58" width="5.23" height="15.72" style="fill:#455a64"></rect><rect x="525.29" y="327.58" width="5.23" height="15.72" style="fill:#455a64"></rect><path d="M495.09,118.33a4.26,4.26,0,0,1-.09-.82c0-.54-.07-1.35-.1-2.38s0-2.29-.11-3.75a24,24,0,0,0-.65-4.88,17.59,17.59,0,0,0-2.54-5.35A11.87,11.87,0,0,0,486.4,97a25.14,25.14,0,0,0-7.39-1.5l-8.18-.71c-11.21-1-21.37-1.6-28.74-1.73-3.69-.08-6.67,0-8.73,0L431,93a4.36,4.36,0,0,1-.83,0,3.14,3.14,0,0,1,.82-.1l2.38-.14c2.06-.08,5-.17,8.73-.15,7.39,0,17.58.58,28.8,1.56l8.18.72a25.36,25.36,0,0,1,7.54,1.57,12.37,12.37,0,0,1,5.4,4.41,17.62,17.62,0,0,1,2.54,5.53,23.54,23.54,0,0,1,.58,5c0,1.47,0,2.73,0,3.76s0,1.77,0,2.38A4.29,4.29,0,0,1,495.09,118.33Z" style="fill:#263238"></path><path d="M466.28,118.33a3.81,3.81,0,0,1-.06-.77c0-.58,0-1.32,0-2.24s0-2.16-.11-3.52a10.88,10.88,0,0,0-1.17-4.41,8.49,8.49,0,0,0-4.29-3.3,11.77,11.77,0,0,0-6.26-.64,10.66,10.66,0,0,0-3.23,1.1,6.12,6.12,0,0,0-2.51,2.38,3.39,3.39,0,0,0,0,3.35,4.46,4.46,0,0,0,2.85,2.14,3.59,3.59,0,0,0,3.33-1,4.93,4.93,0,0,0,1.5-3.17,4.76,4.76,0,0,0-1-3.25,6.92,6.92,0,0,0-2.51-2.22,9.33,9.33,0,0,0-3.14-.81c-1.07-.16-2.11-.3-3.12-.41-2-.23-3.91-.36-5.64-.43-3.46-.13-6.27-.08-8.21-.08h-2.23a4.19,4.19,0,0,1-.78,0,3.55,3.55,0,0,1,.77-.08l2.23-.11c1.94-.08,4.75-.2,8.23-.12,1.74.05,3.64.15,5.68.36,1,.1,2.07.23,3.15.38.54.09,1.08.16,1.64.26a6.44,6.44,0,0,1,1.68.58,7.79,7.79,0,0,1,2.73,2.39,5.41,5.41,0,0,1,1.11,3.62,5.56,5.56,0,0,1-1.67,3.57,4.24,4.24,0,0,1-3.88,1.11,5,5,0,0,1-3.24-2.44,4,4,0,0,1,0-3.92,6.69,6.69,0,0,1,2.76-2.6,11.09,11.09,0,0,1,3.41-1.15,12.23,12.23,0,0,1,6.53.73,8.73,8.73,0,0,1,4.48,3.55,11,11,0,0,1,1.14,4.6c.07,1.38,0,2.57,0,3.54s-.07,1.66-.09,2.24A4.17,4.17,0,0,1,466.28,118.33Z" style="fill:#263238"></path><path d="M502.84,118.33a5.58,5.58,0,0,1-.19-.88c-.1-.58-.26-1.44-.5-2.54a49.06,49.06,0,0,0-2.79-9.06,26.37,26.37,0,0,0-8.27-11.09,15.57,15.57,0,0,0-7.58-2.89,79.68,79.68,0,0,0-8.9-.48c-12.27-.23-23.4-.18-31.45-.49-4-.14-7.27-.33-9.52-.49l-2.58-.21a5.48,5.48,0,0,1-.9-.12,5.62,5.62,0,0,1,.9,0l2.59.11c2.25.08,5.5.21,9.52.29,8.05.2,19.16.09,31.45.32a77.33,77.33,0,0,1,9,.5,16.14,16.14,0,0,1,7.83,3,24,24,0,0,1,5.22,5.53,32.34,32.34,0,0,1,3.1,5.85,45.61,45.61,0,0,1,2.63,9.18c.2,1.1.33,2,.39,2.56A3.82,3.82,0,0,1,502.84,118.33Z" style="fill:#263238"></path><rect x="437.66" y="67.71" width="92.36" height="13.41" style="fill:#263238"></rect><rect x="457.98" y="74.41" width="50.29" height="6.7" style="fill:#455a64"></rect><path d="M567.71,345.79c0,.06-1,.16-2.8.68a23.92,23.92,0,0,0-7,3.42,19.21,19.21,0,0,0-3.92,3.64,13.72,13.72,0,0,0-1.61,2.48,17.11,17.11,0,0,0-1,3c-1,4.23-.73,9.08-.52,14.14s-.12,10.07-2.12,14.12a15.76,15.76,0,0,1-3.77,5,18.32,18.32,0,0,1-9,4.23,15.76,15.76,0,0,1-3.4.14,12.46,12.46,0,0,1-2.13-.33,3.77,3.77,0,0,1-.71-.22c0-.08,1,.24,2.85.32a16.64,16.64,0,0,0,3.33-.25,17.89,17.89,0,0,0,4.21-1.35,17.56,17.56,0,0,0,4.47-2.92,15.4,15.4,0,0,0,3.6-4.9c1.9-3.93,2.22-8.84,2-13.86s-.52-10,.59-14.3a18.25,18.25,0,0,1,1.07-3.07,14.68,14.68,0,0,1,1.7-2.57,19.33,19.33,0,0,1,4.06-3.67,23,23,0,0,1,7.16-3.3,15.23,15.23,0,0,1,2.11-.4A2.51,2.51,0,0,1,567.71,345.79Z" style="fill:#263238"></path><rect x="525.13" y="391.96" width="7.58" height="9.22" style="fill:#263238"></rect><rect x="567.71" y="322.49" width="42.52" height="46.59" style="fill:#455a64"></rect><circle cx="588.97" cy="345.97" r="14" style="fill:#263238"></circle><circle cx="588.97" cy="345.97" r="7" style="fill:#455a64"></circle><circle cx="573.46" cy="329.72" r="1.3" style="fill:#263238"></circle><path d="M605,329.72a1.3,1.3,0,1,1-1.3-1.3A1.3,1.3,0,0,1,605,329.72Z" style="fill:#263238"></path><path d="M605.3,364.12a1.3,1.3,0,1,1-1.3-1.3A1.3,1.3,0,0,1,605.3,364.12Z" style="fill:#263238"></path><path d="M574.76,364.66a1.3,1.3,0,1,1-1.3-1.3A1.3,1.3,0,0,1,574.76,364.66Z" style="fill:#263238"></path><rect x="610.23" y="322.49" width="3.43" height="46.59" style="fill:#263238"></rect></g><g id="freepik--speech-bubble--inject-4"><path d="M96.63,202.6l-18.54-4.55.13,0a30.79,30.79,0,0,1-16,4.79,33.6,33.6,0,0,1-9.92-1.44A31.13,31.13,0,0,1,31,175.59a30.66,30.66,0,0,1,8-24.75,32.2,32.2,0,0,1,5.37-4.68c1-.62,2-1.26,3-1.8l1.57-.76.79-.38.82-.3a31.38,31.38,0,0,1,13.32-2A30.9,30.9,0,0,1,91,161.66a32.14,32.14,0,0,1,1.71,10,30.71,30.71,0,0,1-4.44,16.06v-.17c5.16,9.31,7.76,14,8.34,15-.6-1-3.29-5.67-8.63-14.87l0-.09,0-.08a30.52,30.52,0,0,0,4.28-15.88,31.65,31.65,0,0,0-1.73-9.85,30.22,30.22,0,0,0-5.42-9.55,30.58,30.58,0,0,0-34.42-8.79l-.8.29-.77.38-1.55.74c-1,.53-2,1.17-3,1.77a31.38,31.38,0,0,0-5.26,4.59A30.53,30.53,0,0,0,52.46,200.9a33.1,33.1,0,0,0,9.75,1.46A30.54,30.54,0,0,0,78,197.73l.06,0,.07,0Z" style="fill:#263238"></path><path d="M59.18,158.07l1,15.48a2.5,2.5,0,0,0,2.36,2.35h0a2.52,2.52,0,0,0,2.65-2.23l1.71-15.56a2,2,0,0,0-2-2.19l-3.78.05A2,2,0,0,0,59.18,158.07Z" style="fill:#90CAF9"></path><path d="M66.62,184.61a3.78,3.78,0,1,1-2.39-4.77A3.76,3.76,0,0,1,66.62,184.61Z" style="fill:#90CAF9"></path></g><g id="freepik--Device--inject-4"><path d="M313.79,156.92c-.06,0-.93-1.09-2.4-2.85s-3.57-4.15-5.9-6.77-4.4-5.06-5.8-6.89c-.7-.92-1.25-1.67-1.6-2.21a3.57,3.57,0,0,1-.51-.87c.06,0,.93,1.08,2.4,2.85s3.57,4.15,5.9,6.77,4.4,5.05,5.8,6.89c.7.92,1.25,1.67,1.6,2.21A3.37,3.37,0,0,1,313.79,156.92Z" style="fill:#263238"></path><path d="M332.94,146.47c-.13.05-4.32-12-9.36-27s-9-27.09-8.86-27.14,4.32,12,9.36,27S333.08,146.43,332.94,146.47Z" style="fill:#263238"></path><path d="M349.53,149.61c-.14-.05,1.91-6.72,4.56-14.9S359,119.92,359.15,120s-1.9,6.72-4.56,14.91S349.67,149.65,349.53,149.61Z" style="fill:#263238"></path><path d="M377.63,148.77c.08.12-2.47,2.08-5.49,4.63s-5.4,4.72-5.5,4.62a8.09,8.09,0,0,1,1.4-1.59c.92-.92,2.24-2.15,3.76-3.43s3-2.37,4-3.12A7.46,7.46,0,0,1,377.63,148.77Z" style="fill:#263238"></path><path d="M362.51,108.59c.13,0,0,.79-.28,1.67s-.64,1.54-.78,1.49,0-.78.28-1.66S362.37,108.55,362.51,108.59Z" style="fill:#263238"></path><path d="M292.72,132c-.11.09-.5-.26-.87-.77s-.56-1-.44-1.07.5.26.87.77S292.84,132,292.72,132Z" style="fill:#263238"></path><path d="M399.9,164H274.1a3.93,3.93,0,0,0-3.93,3.93v88.86a3.93,3.93,0,0,0,3.93,3.93h48.28s3.07,9.49-6.45,14.41h45.15s-10.75-3.69-8-14.41H399.9a3.93,3.93,0,0,0,3.93-3.93V167.93A3.93,3.93,0,0,0,399.9,164Z" style="fill:#263238"></path><path d="M338.68,251.37a2.42,2.42,0,0,1-3.41,3.41.7.7,0,0,1-.21-.21,2.42,2.42,0,0,1,3.41-3.41A1,1,0,0,1,338.68,251.37Z" style="fill:#455a64"></path><path d="M275.19,165.63H398.81a2.85,2.85,0,0,1,2.85,2.85v76a0,0,0,0,1,0,0H272.34a0,0,0,0,1,0,0v-76A2.85,2.85,0,0,1,275.19,165.63Z" style="fill:#fff"></path><path d="M275.32,165.63h123.9a2.45,2.45,0,0,1,2.45,2.45v4.1a0,0,0,0,1,0,0H272.34a0,0,0,0,1,0,0v-3.57A3,3,0,0,1,275.32,165.63Z" style="fill:#ebebeb"></path><path d="M277.36,169.05a.91.91,0,1,1-.9-.91A.9.9,0,0,1,277.36,169.05Z" style="fill:#e0e0e0"></path><path d="M280.07,169.05a.91.91,0,1,1-.91-.91A.9.9,0,0,1,280.07,169.05Z" style="fill:#e0e0e0"></path><path d="M282.65,169.05a.91.91,0,1,1-.91-.91A.9.9,0,0,1,282.65,169.05Z" style="fill:#e0e0e0"></path><path d="M377.41,260.73s-17.9.07-40,.07-40,0-40-.07,17.89-.08,40-.08S377.41,260.69,377.41,260.73Z" style="fill:#455a64"></path><path d="M324.76,201.15c0,4-2.92,7.45-9.35,7.45a15.53,15.53,0,0,1-8.57-2.41l2.06-4a10.83,10.83,0,0,0,6.39,2c2.6,0,4.2-1.09,4.2-2.92s-1.15-2.92-5.23-2.92h-5.75l1.16-12.65h13.71v4.17H314l-.35,4.27h1.83C322.12,194.18,324.76,197.17,324.76,201.15Z" style="fill:#90CAF9"></path><path d="M326.87,197c0-7.41,4.11-11.62,9.63-11.62s9.63,4.21,9.63,11.62-4.07,11.63-9.63,11.63S326.87,204.39,326.87,197Zm14,0c0-5.1-1.8-7.22-4.4-7.22s-4.36,2.12-4.36,7.22,1.79,7.23,4.36,7.23S340.9,202.08,340.9,197Z" style="fill:#90CAF9"></path><path d="M348.67,197c0-7.41,4.11-11.62,9.63-11.62s9.63,4.21,9.63,11.62-4.08,11.63-9.63,11.63S348.67,204.39,348.67,197Zm14,0c0-5.1-1.8-7.22-4.4-7.22s-4.37,2.12-4.37,7.22,1.8,7.23,4.37,7.23S362.7,202.08,362.7,197Z" style="fill:#90CAF9"></path><path d="M291.51,214.06h.95v6.64h-.95Z" style="fill:#263238"></path><path d="M300.16,214.06v6.64h-.77l-4-4.95v4.95h-.95v-6.64h.78l4,5v-5Z" style="fill:#263238"></path><path d="M303.47,214.89h-2.28v-.83h5.5v.83h-2.28v5.81h-.94Z" style="fill:#263238"></path><path d="M312.54,219.88v.82h-4.82v-6.64h4.69v.83h-3.74v2H312v.8h-3.33v2.15Z" style="fill:#263238"></path><path d="M318.52,220.7l-1.44-2-.41,0H315v2h-.94v-6.64h2.59c1.72,0,2.77.87,2.77,2.32a2.09,2.09,0,0,1-1.46,2.09l1.57,2.23Zm0-4.32c0-.95-.64-1.49-1.85-1.49H315v3h1.62C317.85,217.88,318.49,217.33,318.49,216.38Z" style="fill:#263238"></path><path d="M326.69,214.06v6.64h-.78l-4-4.95v4.95H321v-6.64h.78l4,5v-5Z" style="fill:#263238"></path><path d="M332.91,219h-3.53l-.73,1.66h-1l3-6.64h.94l3,6.64h-1Zm-.34-.76L331.14,215l-1.43,3.25Z" style="fill:#263238"></path><path d="M335.62,214.06h.95v5.82h3.59v.82h-4.54Z" style="fill:#263238"></path><path d="M343.19,220l.36-.74a3.42,3.42,0,0,0,2.19.76c1.15,0,1.64-.44,1.64-1,0-1.62-4-.6-4-3.07,0-1,.79-1.89,2.54-1.89a3.94,3.94,0,0,1,2.14.58l-.32.76a3.42,3.42,0,0,0-1.82-.54c-1.13,0-1.61.48-1.61,1.06,0,1.62,4,.6,4,3,0,1-.82,1.89-2.57,1.89A4,4,0,0,1,343.19,220Z" style="fill:#263238"></path><path d="M354.52,219.88v.82h-4.83v-6.64h4.69v.83h-3.74v2H354v.8h-3.33v2.15Z" style="fill:#263238"></path><path d="M360.49,220.7l-1.43-2-.42,0H357v2h-.95v-6.64h2.59c1.73,0,2.77.87,2.77,2.32a2.09,2.09,0,0,1-1.46,2.09l1.57,2.23Zm0-4.32c0-.95-.63-1.49-1.85-1.49H357v3h1.61C359.83,217.88,360.46,217.33,360.46,216.38Z" style="fill:#263238"></path><path d="M368.71,214.06l-2.91,6.64h-.94l-2.92-6.64h1l2.4,5.46,2.41-5.46Z" style="fill:#263238"></path><path d="M374.38,219.88v.82h-4.82v-6.64h4.68v.83H370.5v2h3.34v.8H370.5v2.15Z" style="fill:#263238"></path><path d="M380.35,220.7l-1.43-2-.42,0h-1.64v2h-.95v-6.64h2.59c1.73,0,2.77.87,2.77,2.32a2.09,2.09,0,0,1-1.46,2.09l1.58,2.23Zm0-4.32c0-.95-.63-1.49-1.85-1.49h-1.61v3h1.61C379.69,217.88,380.32,217.33,380.32,216.38Z" style="fill:#263238"></path><path d="M326.12,231.33v1.32h-5.47v-7.07H326v1.31h-3.72v1.54h3.29v1.27h-3.29v1.63Z" style="fill:#263238"></path><path d="M331.93,232.65l-1.36-2h-1.51v2h-1.64v-7.07h3.06c1.89,0,3.08,1,3.08,2.56a2.3,2.3,0,0,1-1.46,2.23l1.59,2.28Zm-1.54-5.74h-1.33v2.46h1.33c1,0,1.51-.46,1.51-1.23S331.39,226.91,330.39,226.91Z" style="fill:#263238"></path><path d="M339.35,232.65l-1.36-2h-1.51v2h-1.63v-7.07h3.06c1.89,0,3.07,1,3.07,2.56a2.3,2.3,0,0,1-1.46,2.23l1.59,2.28Zm-1.53-5.74h-1.34v2.46h1.34c1,0,1.5-.46,1.5-1.23S338.82,226.91,337.82,226.91Z" style="fill:#263238"></path><path d="M341.82,229.11a3.88,3.88,0,1,1,3.87,3.66A3.66,3.66,0,0,1,341.82,229.11Zm6.08,0a2.21,2.21,0,1,0-2.21,2.26A2.16,2.16,0,0,0,347.9,229.11Z" style="fill:#263238"></path><path d="M355.3,232.65l-1.37-2h-1.5v2h-1.64v-7.07h3.06c1.89,0,3.07,1,3.07,2.56a2.29,2.29,0,0,1-1.45,2.23l1.58,2.28Zm-1.54-5.74h-1.33v2.46h1.33c1,0,1.51-.46,1.51-1.23S354.76,226.91,353.76,226.91Z" style="fill:#263238"></path><path d="M285.69,206.3a2.35,2.35,0,0,1-2.06-1.2,2.39,2.39,0,0,1,0-2.4l6.95-11.91a2.39,2.39,0,0,1,2.08-1.19h0a2.38,2.38,0,0,1,2.06,1.21l6.84,12a2.35,2.35,0,0,1,0,2.39,2.38,2.38,0,0,1-2.08,1.19l-13.79-.07Zm7-16h0a1.64,1.64,0,0,0-1.46.83l-6.95,11.91a1.68,1.68,0,0,0,1.44,2.53h0l13.79.06a1.68,1.68,0,0,0,1.47-2.51l-6.84-12A1.66,1.66,0,0,0,292.67,190.32Z" style="fill:#90CAF9"></path><path d="M291.63,202.47a.87.87,0,0,1,.92-.87.86.86,0,0,1,.9.88.88.88,0,0,1-.9.89A.89.89,0,0,1,291.63,202.47Zm.08-7.18h1.69l-.29,5.35H292Z" style="fill:#90CAF9"></path><path d="M373.72,206.3a2.35,2.35,0,0,1-2.06-1.2,2.39,2.39,0,0,1,0-2.4l6.95-11.91a2.39,2.39,0,0,1,2.08-1.19h0a2.38,2.38,0,0,1,2.06,1.21l6.84,12a2.35,2.35,0,0,1,0,2.39,2.38,2.38,0,0,1-2.08,1.19l-13.79-.07Zm7-16h0a1.64,1.64,0,0,0-1.46.83l-6.95,11.91a1.68,1.68,0,0,0,1.44,2.53h0l13.8.06a1.68,1.68,0,0,0,1.46-2.51l-6.84-12A1.66,1.66,0,0,0,380.7,190.32Z" style="fill:#90CAF9"></path><path d="M379.66,202.47a.87.87,0,0,1,.92-.87.86.86,0,0,1,.9.88.88.88,0,0,1-.9.89A.89.89,0,0,1,379.66,202.47Zm.08-7.18h1.69l-.29,5.35H380Z" style="fill:#90CAF9"></path></g></svg>