<svg id="Layer_5" enable-background="new 0 0 64 64" height="512" viewBox="0 0 64 64" width="512" xmlns="http://www.w3.org/2000/svg"><g><g><g><path d="m52 39h10v12h-10z" fill="#e6e9ed"/></g><g><path d="m28 50.8v-1.8c0-1.1.9-2 2-2h1 2 1c1.1 0 2 .9 2 2v9c0 1.1-.45 2.1-1.17 2.83-.73.72-1.73 1.17-2.83 1.17-2.21 0-4-1.79-4-4z" fill="#d3a06c"/></g><g><path d="m35 40.74v4.26c0 1.1-.9 2-2 2h-2c-1.1 0-2-.9-2-2v-4.26c.97.17 1.98.26 3 .26s2.03-.09 3-.26z" fill="#ccd1d9"/></g><g><circle cx="32" cy="23" fill="#e6e9ed" r="18"/></g><g><circle cx="32" cy="23" fill="#69d6f4" r="14"/></g><g><path d="m31 47h-1c-1.1 0-2 .9-2 2v1.8l-4.22 4.22-2.29-1.36c-.59.3-1.2.57-1.84.77l-.65 2.57h-6l-.65-2.57c-.64-.2-1.25-.47-1.84-.77l-2.29 1.36-4.24-4.24 1.36-2.29c-.3-.59-.57-1.2-.77-1.84l-2.57-.65v-6l2.57-.65c.2-.64.47-1.25.77-1.84l-1.36-2.29 4.24-4.24 2.29 1.36c.59-.3 1.2-.57 1.84-.77l.65-2.57h2.02c.9 2.54 2.36 4.82 4.21 6.69-.99-.44-2.08-.69-3.23-.69-4.42 0-8 3.58-8 8s3.58 8 8 8 8-3.58 8-8c0-1.79-.59-3.44-1.6-4.78 1.97 1.25 4.21 2.13 6.6 2.52v4.26c0 1.1.9 2 2 2z" fill="#ffc729"/></g><g><path d="m22.4 38.22c1.01 1.34 1.6 2.99 1.6 4.78 0 4.42-3.58 8-8 8s-8-3.58-8-8 3.58-8 8-8c1.15 0 2.24.25 3.23.69.96.96 2.02 1.81 3.17 2.53zm-2.4 4.78c0-2.21-1.79-4-4-4s-4 1.79-4 4 1.79 4 4 4 4-1.79 4-4z" fill="#fcd770"/></g><g><path d="m34.78 27.92c1.69-2.34 2.77-5.08 3.11-7.95l1.9.38c1.87.38 3.21 2.02 3.21 3.92v7.37c-2.55 3.26-6.53 5.36-11 5.36-.68 0-1.35-.05-2-.14v-3.86l2-2 1.05-1.05c.63-.63 1.21-1.31 1.73-2.03z" fill="#b4dd7f"/></g><g><path d="m39.94 6.84c.04.27.06.54.06.82 0 1.15-.35 2.27-1.01 3.21-.17.26-.36.5-.58.72-.36-.37-.86-.59-1.41-.59h-1c0-.55-.45-1-1-1h-6c-.55 0-1 .45-1 1h-1c-.55 0-1.05.22-1.41.59-.22-.22-.41-.46-.58-.72-.66-.94-1.01-2.06-1.01-3.21 0-.28.02-.55.06-.82.18-1.23.75-2.34 1.6-3.18 1.02-1.03 2.44-1.66 4-1.66h4.68c2.85 0 5.2 2.1 5.6 4.84z" fill="#656d78"/></g><g><path d="m38.41 11.59c.37.36.59.86.59 1.41 0 1.1-.9 2-2 2h-1.13c.09-.32.13-.65.13-1v-3h1c.55 0 1.05.22 1.41.59z" fill="#f0d0b4"/></g><g><path d="m36.18 19.62 1.71.35c-.34 2.87-1.42 5.61-3.11 7.95l-1.78-5.92 2.17-2.89c.29.23.63.4 1.01.51z" fill="#fc6e51"/></g><g><path d="m28.13 15c-.09-.32-.13-.65-.13-1v-3c0-.55.45-1 1-1h6c.55 0 1 .45 1 1v3c0 .35-.04.68-.13 1-.26 1.02-.91 1.88-1.79 2.41-.61.38-1.32.59-2.08.59s-1.47-.21-2.08-.59c-.27-.16-.52-.36-.75-.58-.49-.5-.86-1.13-1.04-1.83z" fill="#f0d0b4"/></g><g><path d="m35.17 19.11-2.17 2.89h-2l-2.17-2.89c.55-.42.93-1.02 1.09-1.69v-.01c.61.38 1.32.59 2.08.59s1.47-.21 2.08-.59v.01c.16.67.54 1.27 1.09 1.69z" fill="#f0d0b4"/></g><g><path d="m33 22 1.78 5.92c-.52.72-1.1 1.4-1.73 2.03l-1.05 1.05-1.05-1.05c-.63-.63-1.21-1.31-1.73-2.03l1.78-5.92z" fill="#fcd770"/></g><g><path d="m29.22 27.92c.52.72 1.1 1.4 1.73 2.03l1.05 1.05-2 2v3.86c-3.65-.52-6.84-2.45-9-5.22v-7.37c0-1.9 1.34-3.54 3.21-3.92l1.9-.38c.34 2.87 1.42 5.61 3.11 7.95z" fill="#b4dd7f"/></g><g><path d="m28.83 19.11 2.17 2.89-1.78 5.92c-1.69-2.34-2.77-5.08-3.11-7.95l1.71-.35c.38-.11.72-.28 1.01-.51z" fill="#fc6e51"/></g><g><path d="m28.13 15h-1.13c-.55 0-1.05-.22-1.41-.59-.37-.36-.59-.86-.59-1.41s.22-1.05.59-1.41c.36-.37.86-.59 1.41-.59h1v3c0 .35.04.68.13 1z" fill="#f0d0b4"/></g></g><g><g><path d="m19.777 58h-7.555l-.713-2.802c-.319-.119-.639-.252-.956-.4l-2.49 1.48-5.342-5.342 1.48-2.49c-.147-.317-.281-.636-.4-.956l-2.801-.713v-7.555l2.802-.713c.119-.319.252-.639.4-.956l-1.48-2.489 5.342-5.342 2.49 1.48c.317-.147.636-.281.956-.4l.713-2.802h2.802v2h-1.247l-.599 2.354-.528.169c-.56.179-1.125.416-1.683.704l-.493.254-2.095-1.246-3.143 3.143 1.246 2.095-.254.493c-.288.559-.525 1.125-.704 1.684l-.169.528-2.356.599v4.445l2.354.599.169.528c.179.56.416 1.125.704 1.683l.254.493-1.246 2.095 3.143 3.143 2.095-1.246.493.254c.558.288 1.124.525 1.683.704l.528.169.6 2.356h4.445l.599-2.354.528-.169c.56-.179 1.125-.416 1.683-.704l.493-.254 2.095 1.246 3.693-3.693 1.414 1.414-4.792 4.792-2.49-1.48c-.317.147-.636.281-.956.4z"/></g><g><path d="m16 52c-4.962 0-9-4.038-9-9s4.038-9 9-9c1.258 0 2.482.26 3.64.773l-.811 1.828c-.9-.399-1.852-.601-2.829-.601-3.86 0-7 3.14-7 7s3.14 7 7 7 7-3.14 7-7c0-1.52-.487-2.971-1.409-4.197l1.599-1.202c1.184 1.575 1.81 3.442 1.81 5.399 0 4.962-4.038 9-9 9z"/></g><g><path d="m16 48c-2.757 0-5-2.243-5-5s2.243-5 5-5 5 2.243 5 5-2.243 5-5 5zm0-8c-1.654 0-3 1.346-3 3s1.346 3 3 3 3-1.346 3-3-1.346-3-3-3z"/></g><g><path d="m35.599 46.471c.248-.437.401-.934.401-1.471v-3.432c8.561-1.843 15-9.464 15-18.568 0-7.125-3.887-13.516-10.169-16.815-.673-2.964-3.324-5.185-6.488-5.185h-4.687c-3.164 0-5.815 2.221-6.487 5.185-6.282 3.299-10.169 9.69-10.169 16.815 0 9.104 6.439 16.725 15 18.568v3.432c0 .537.153 1.034.401 1.471-.839.532-1.401 1.464-1.401 2.529v9c0 2.757 2.243 5 5 5s5-2.243 5-5v-9c0-1.065-.562-1.997-1.401-2.529zm-8.599-32.471c-.551 0-1-.449-1-1s.449-1 1-1zm0 2h.424c.297.677.749 1.263 1.297 1.744-.252.436-.649.768-1.095.897l-3.616.73c-2.324.469-4.01 2.53-4.01 4.901v3.719c-.642-1.538-1-3.224-1-4.992 0-4.03 1.89-7.821 5.027-10.266-.008.09-.027.176-.027.267 0 1.654 1.346 3 3 3zm5.343 13.243-.343.343-.343-.343c-.479-.479-.914-.996-1.326-1.53l1.413-4.713h.512l1.414 4.712c-.412.535-.848 1.051-1.327 1.531zm-4.244-8.66c.159-.045.313-.103.464-.167l1.335 1.78-.993 3.311c-.795-1.484-1.356-3.087-1.651-4.752zm6.997 4.924-.993-3.311 1.339-1.785c.172.074.351.138.536.19l.769.155c-.295 1.666-.856 3.269-1.651 4.751zm-1.241-6.314-1.355 1.807h-1l-1.353-1.804c.115-.147.22-.301.314-.463.488.159.999.267 1.539.267.541 0 1.052-.108 1.54-.268.094.161.2.315.315.461zm1.145-5.193c0 1.654-1.346 3-3 3s-3-1.346-3-3v-3l6-.001zm-13 10.273c0-1.422 1.012-2.659 2.406-2.941l.887-.18c.644 3.581 2.37 6.925 4.95 9.505l.343.343-1.586 1.586v3.051c-2.784-.661-5.228-2.209-7-4.342zm9 9.141 2.757-2.757c2.58-2.58 4.305-5.923 4.949-9.504l.888.179c1.394.282 2.406 1.519 2.406 2.941v7.022c-2.386 2.872-5.983 4.705-10 4.705-.338 0-.669-.025-1-.051zm8.99-14.042-3.54-.712c-.502-.143-.914-.479-1.17-.917.548-.481.999-1.067 1.296-1.743h.424c1.654 0 3-1.346 3-3 0-.091-.019-.177-.027-.266 3.137 2.445 5.027 6.236 5.027 10.266 0 1.768-.358 3.454-1 4.992v-3.719c0-2.371-1.687-4.432-4.01-4.901zm-2.99-7.372c.551 0 1 .449 1 1s-.449 1-1 1zm-7.343-9h4.687c2.567 0 4.656 2.089 4.656 4.657 0 .939-.284 1.835-.8 2.598-.368-.162-.773-.255-1.2-.255h-.278c-.347-.595-.985-1-1.722-1h-6c-.737 0-1.375.405-1.722 1h-.278c-.427 0-.832.093-1.2.254-.516-.763-.8-1.659-.8-2.597 0-2.568 2.089-4.657 4.657-4.657zm-14.657 20c0-5.975 3.056-11.372 8.066-14.458.092.695.292 1.364.592 1.99-4.13 2.771-6.658 7.461-6.658 12.468 0 8.271 6.729 15 15 15s15-6.729 15-15c0-5.007-2.528-9.697-6.658-12.468.3-.625.5-1.295.592-1.99 5.01 3.086 8.066 8.484 8.066 14.458 0 9.374-7.626 17-17 17s-17-7.626-17-17zm17 19c.676 0 1.342-.038 2-.107v3.107c0 .551-.449 1-1 1h-2c-.551 0-1-.449-1-1v-3.107c.658.069 1.324.107 2 .107zm3 16c0 1.654-1.346 3-3 3s-3-1.346-3-3v-9c0-.551.449-1 1-1h1 2 1c.551 0 1 .449 1 1z"/><path d="m39.768 42.36-1.536 1.28 10.3 12.36h14.468v-2h-13.532z"/><path d="m51 52h12v-14h-12zm2-12h8v10h-8z"/><path d="m55 42h4v2h-4z"/><path d="m55 46h4v2h-4z"/><path d="m53.586 9-3.293 3.293 1.414 1.414 2.707-2.707h8.586v-2z"/><path d="m61.707 3.707-1.414-1.414-3.293 3.293-1.293-1.293-1.414 1.414 2.707 2.707z"/></g></g></g></svg>