<svg id="light" enable-background="new 0 0 24 24" height="512" viewBox="0 0 24 24" width="512" xmlns="http://www.w3.org/2000/svg"><path d="m.619 20.001c-.08 0-.125-.001-.133-.001-.276-.008-.493-.238-.486-.514.008-.276.251-.474.514-.486.161-.002 17.15.3 21.001-14.625.069-.268.342-.427.609-.359.267.069.428.342.359.609-3.866 14.983-20.216 15.376-21.864 15.376z"/><path d="m23.5 7.598c-.173 0-.341-.089-.434-.25l-1.25-2.165-2.165 1.25c-.239.137-.544.056-.683-.183-.138-.239-.056-.545.183-.683l2.598-1.5c.237-.139.544-.057.683.183l1.5 2.598c.138.239.056.545-.183.683-.078.046-.164.067-.249.067z"/><path d="m21.5 24c-.276 0-.5-.224-.5-.5v-13c0-.276.224-.5.5-.5s.5.224.5.5v13c0 .276-.224.5-.5.5z"/><path d="m15.5 24c-.276 0-.5-.224-.5-.5v-6c0-.276.224-.5.5-.5s.5.224.5.5v6c0 .276-.224.5-.5.5z"/><path d="m9.5 24c-.276 0-.5-.224-.5-.5v-3c0-.276.224-.5.5-.5s.5.224.5.5v3c0 .276-.224.5-.5.5z"/><path d="m3.5 24c-.276 0-.5-.224-.5-.5v-1.5c0-.276.224-.5.5-.5s.5.224.5.5v1.5c0 .276-.224.5-.5.5z"/><path d="m9.5 13h-9c-.276 0-.5-.224-.5-.5v-1.171c0-.668.26-1.296.732-1.768l1.268-1.268v-2.842c0-1.207.405-2.397 1.141-3.354l1.463-1.902c.189-.246.604-.246.793 0l1.463 1.902c.735.956 1.14 2.147 1.14 3.354v2.842l1.268 1.268c.472.472.732 1.1.732 1.768v1.171c0 .276-.224.5-.5.5zm-8.5-1h8v-.671c0-.401-.156-.777-.439-1.061l-1.415-1.414c-.093-.094-.146-.221-.146-.354v-3.049c0-.987-.332-1.961-.934-2.744l-1.066-1.387-1.066 1.387c-.602.782-.934 1.757-.934 2.744v3.049c0 .133-.053.26-.146.354l-1.414 1.414c-.284.283-.44.66-.44 1.061z"/><path d="m7.5 15c-.276 0-.5-.224-.5-.5v-2c0-.276.224-.5.5-.5s.5.224.5.5v2c0 .276-.224.5-.5.5z"/><path d="m2.5 15c-.276 0-.5-.224-.5-.5v-2c0-.276.224-.5.5-.5s.5.224.5.5v2c0 .276-.224.5-.5.5z"/></svg>