<svg xmlns="http://www.w3.org/2000/svg" xmlns:xlink="http://www.w3.org/1999/xlink" viewBox="0 0 425.2 425.2"><defs><style>.cls-1{fill:#e74645;}.cls-2{fill:#1db2a8;}.cls-3{fill:#f9b233;}.cls-4{fill:#6ebebf;}.cls-5{fill:#f08046;}.cls-6{isolation:isolate;}.cls-7{fill:#fff;}.cls-11,.cls-13,.cls-16,.cls-8{mix-blend-mode:multiply;}.cls-9{clip-path:url(#clip-path);}.cls-10{fill:#f8bb94;}.cls-11,.cls-12{fill:#dadada;}.cls-13{fill:#c6c6c6;}.cls-14{fill:#0d3953;}.cls-15{fill:#031d2d;}.cls-16{fill:#b2b2b2;}.cls-17{fill:#956000;}.cls-18{clip-path:url(#clip-path-2);}.cls-19{fill:#1a7290;}.cls-20{fill:#054153;}.cls-21{fill:#732400;}.cls-22{fill:#511800;}.cls-23{clip-path:url(#clip-path-3);}.cls-24{fill:#373c47;}.cls-25{fill:#432918;}.cls-26{fill:#2a1807;}.cls-27{clip-path:url(#clip-path-4);}.cls-28{clip-path:url(#clip-path-5);}.cls-29{fill:#00b1c3;}.cls-30{clip-path:url(#clip-path-6);}.cls-31{fill:#881719;}</style><clipPath id="clip-path"><path class="cls-1" d="M202.76,107.59A59.06,59.06,0,1,1,143.7,48.53,59.06,59.06,0,0,1,202.76,107.59Z"/></clipPath><clipPath id="clip-path-2"><circle class="cls-2" cx="298.34" cy="215.14" r="59.06" transform="translate(-10.35 15.13) rotate(-2.86)"/></clipPath><clipPath id="clip-path-3"><path class="cls-3" d="M256.75,192.1a59.06,59.06,0,1,1-59.05-59A59.06,59.06,0,0,1,256.75,192.1Z"/></clipPath><clipPath id="clip-path-4"><path class="cls-4" d="M163.21,215.15a59.06,59.06,0,1,1-59.06-59.06A59.06,59.06,0,0,1,163.21,215.15Z"/></clipPath><clipPath id="clip-path-5"><circle class="cls-5" cx="253.43" cy="107.59" r="59.06"/></clipPath><clipPath id="clip-path-6"><path class="cls-1" d="M256.75,295.21a59.06,59.06,0,1,1-59.05-59.06A59.06,59.06,0,0,1,256.75,295.21Z"/></clipPath></defs><g class="cls-6"><g id="Capa_1" data-name="Capa 1"><rect class="cls-7" width="425.2" height="425.2"/><g class="cls-8"><path class="cls-1" d="M202.76,107.59A59.06,59.06,0,1,1,143.7,48.53,59.06,59.06,0,0,1,202.76,107.59Z"/><g class="cls-9"><rect class="cls-10" x="139.12" y="135.23" width="11.62" height="6.91"/><path class="cls-11" d="M146.48,141.21c-2.44-.77-4.48-2.3-4.79-5a2.37,2.37,0,0,1,.1-1h-2.67v6.91h11.62v-.87A7.79,7.79,0,0,1,146.48,141.21Z"/><path class="cls-10" d="M174,113.06a5.36,5.36,0,1,1-5.36-5.17A5.26,5.26,0,0,1,174,113.06Z"/><g class="cls-8"><path class="cls-12" d="M169.34,110.18a2,2,0,0,1,.36,0,2.87,2.87,0,0,1,1,.19,2.29,2.29,0,0,1,1.14.87c.08.12.13.25.2.37s.08.28.12.42l0,.43c0,.14,0,.28,0,.42a3.77,3.77,0,0,1-.17.81,3.38,3.38,0,0,1-.33.72,2.59,2.59,0,0,1-1,1,2.36,2.36,0,0,1-.52.21,1.83,1.83,0,0,1-.42.07h-.36l.33-.13c.11,0,.22-.12.35-.18a4.34,4.34,0,0,0,.39-.29,3.89,3.89,0,0,0,.38-.42,4,4,0,0,0,.32-.54,6,6,0,0,0,.22-.64,2.56,2.56,0,0,0,.12-.69l0-.33,0-.33c0-.1-.05-.2-.08-.31a1.69,1.69,0,0,0-.12-.28,2.23,2.23,0,0,0-.78-.83,5.13,5.13,0,0,0-.81-.41Z"/></g><path class="cls-11" d="M170,113.31a.87.87,0,1,1-.86-1A.95.95,0,0,1,170,113.31Z"/><path class="cls-10" d="M116.58,113.06a5.36,5.36,0,1,0,5.36-5.17A5.26,5.26,0,0,0,116.58,113.06Z"/><g class="cls-8"><path class="cls-12" d="M121.25,110.18a2.12,2.12,0,0,0-.37,0,2.87,2.87,0,0,0-.94.19,2.29,2.29,0,0,0-1.14.87c-.08.12-.13.25-.2.37a3.31,3.31,0,0,0-.12.42l0,.43c0,.14,0,.28,0,.42a4.47,4.47,0,0,0,.16.81,3,3,0,0,0,.34.72,2.59,2.59,0,0,0,1,1,2.18,2.18,0,0,0,.52.21,1.85,1.85,0,0,0,.41.07h.37l-.33-.13c-.1,0-.22-.12-.35-.18a3.27,3.27,0,0,1-.39-.29,3.07,3.07,0,0,1-.38-.42,2.61,2.61,0,0,1-.31-.54,4.44,4.44,0,0,1-.24-.64,4.72,4.72,0,0,1-.12-.69l0-.33,0-.33a2.82,2.82,0,0,0,.07-.31c0-.09.07-.19.12-.28a2.43,2.43,0,0,1,.79-.83,5.57,5.57,0,0,1,.8-.41Z"/></g><path class="cls-11" d="M120.56,113.31a.87.87,0,1,0,.86-1A.94.94,0,0,0,120.56,113.31Z"/><path class="cls-10" d="M168.65,106.24c0,17.57-8.24,29.91-23.72,29.91s-23.73-12.34-23.73-29.91,8.56-31.82,24-31.82S168.65,88.67,168.65,106.24Z"/><path class="cls-10" d="M139.35,141.85s-14.73,2-20,6.53-7,8.71-8.94,17.94h69.09c-1.94-9.23-3.54-13.26-8.93-17.94s-20-6.53-20-6.53Z"/><path class="cls-7" d="M134.9,142.61s-10.28,1.19-15.58,5.77-7,8.71-8.94,17.94h69.09c-1.94-9.23-3.51-13.3-8.93-17.94-4.48-3.82-14.54-5.56-14.54-5.56l-5.5-1H139.35Z"/><path class="cls-1" d="M142.17,150.83a.77.77,0,0,1,.19-.2l-.19.2-1.9,15.49h9.32l-1.9-15.49L149,145.5a2.37,2.37,0,0,0,.13-2.52,2.81,2.81,0,0,0-1.74-1.3,13.89,13.89,0,0,0-3.54-.12,3.07,3.07,0,0,0-2.74,1,2.33,2.33,0,0,0-.19,2.93Z"/><path class="cls-13" d="M142,150s3.86-1.81,5.71.83a6.14,6.14,0,0,0-5.51,0Z"/><path class="cls-14" d="M134.9,142.61s-10.28,1.19-15.58,5.77-7,8.71-8.94,17.94h69.09c-1.94-9.23-3.51-13.3-8.93-17.94-4.48-3.82-14.54-5.56-14.54-5.56l-11.07,22.87Z"/><path class="cls-15" d="M135,142.77l9.89,22.92-10.52-6.79,2.37-4.07L125,145.12S131.69,142.54,135,142.77Z"/><path class="cls-15" d="M156,142.82l-11.07,22.87,10.51-6.79-2.36-4.07,11.76-9.71S159.35,142.59,156,142.82Z"/><polygon class="cls-16" points="132.84 142.81 141.73 149.01 140.99 145.91 132.84 142.81"/><polygon class="cls-16" points="157.87 142.92 148.11 149.14 148.96 145.52 157.87 142.92"/><polygon class="cls-7" points="139.12 139.81 132.84 142.81 140.27 147.25 145.47 141.51 139.12 139.81"/><path class="cls-11" d="M139,142a4.57,4.57,0,0,1,3.29-1.35l-3.2-.85-6.29,3,5.62,3.35A3.33,3.33,0,0,1,139,142Z"/><polygon class="cls-7" points="151.71 139.81 157.99 142.81 150.56 147.25 145.35 141.51 151.71 139.81"/><path class="cls-11" d="M151.8,142a4.59,4.59,0,0,0-3.29-1.35l3.2-.85,6.28,3-5.61,3.35A3.35,3.35,0,0,0,151.8,142Z"/><path class="cls-17" d="M121.28,110.52l2.4,2.41.46-19.36s.16-10,10.83-10a27.22,27.22,0,0,0,19.91.79s10-1.57,11.16,8.78L166,113.31l2.55-3.14.14-2.63a78.26,78.26,0,0,0,0-21.05s-2-13.87-14.54-16.22c0,0-20.46-5.27-29.09,7.62a26.08,26.08,0,0,0-4.85,19.71Z"/></g></g><g class="cls-8"><circle class="cls-2" cx="298.34" cy="215.14" r="59.06" transform="translate(-10.35 15.13) rotate(-2.86)"/><g class="cls-18"><rect class="cls-10" x="292.53" y="243.11" width="11.62" height="6.91"/><path class="cls-13" d="M293.2,248.27a7.86,7.86,0,0,1,5.07-2.29c1.66-.13,4.49.23,5.38-1.5a2.07,2.07,0,0,1,.5-.64v-.73H292.53v6A5.57,5.57,0,0,1,293.2,248.27Z"/><path class="cls-10" d="M327.42,220.94a5.36,5.36,0,1,1-5.36-5.18A5.27,5.27,0,0,1,327.42,220.94Z"/><g class="cls-8"><path class="cls-12" d="M322.75,218.06a2,2,0,0,1,.36,0,3.09,3.09,0,0,1,.95.18,2.32,2.32,0,0,1,1.14.88,3.22,3.22,0,0,1,.2.37,2.77,2.77,0,0,1,.12.41l.05.43c0,.14,0,.28,0,.43a3.68,3.68,0,0,1-.17.8,3.46,3.46,0,0,1-.33.73,2.66,2.66,0,0,1-1,1,2.36,2.36,0,0,1-.52.21,2.7,2.7,0,0,1-.41.07h-.37l.33-.13c.1,0,.21-.12.35-.18a2.55,2.55,0,0,0,.39-.3,3,3,0,0,0,.38-.41,3.61,3.61,0,0,0,.32-.55,3.89,3.89,0,0,0,.22-.63,3.11,3.11,0,0,0,.12-.69l0-.33,0-.33c0-.1-.05-.21-.07-.31s-.07-.19-.12-.28a2.28,2.28,0,0,0-.8-.83,4.32,4.32,0,0,0-.79-.41Z"/></g><path class="cls-11" d="M323.44,221.19a.87.87,0,1,1-.86-1A.94.94,0,0,1,323.44,221.19Z"/><path class="cls-10" d="M270,220.94a5.36,5.36,0,1,0,5.36-5.18A5.27,5.27,0,0,0,270,220.94Z"/><g class="cls-8"><path class="cls-12" d="M274.66,218.06a2,2,0,0,0-.36,0,3.09,3.09,0,0,0-.95.18,2.32,2.32,0,0,0-1.14.88,3.22,3.22,0,0,0-.2.37c-.05.13-.09.27-.13.41l0,.43c0,.14,0,.28,0,.43a3.68,3.68,0,0,0,.17.8,3,3,0,0,0,.33.73,2.66,2.66,0,0,0,1,1,2.36,2.36,0,0,0,.52.21,2.61,2.61,0,0,0,.42.07h.36l-.33-.13c-.11,0-.22-.12-.35-.18a2.55,2.55,0,0,1-.39-.3,2.5,2.5,0,0,1-.38-.41,3.61,3.61,0,0,1-.32-.55,3.89,3.89,0,0,1-.22-.63,3.83,3.83,0,0,1-.13-.69l0-.33,0-.33c0-.1,0-.21.07-.31s.07-.19.12-.28a2.28,2.28,0,0,1,.8-.83,4.32,4.32,0,0,1,.79-.41Z"/></g><path class="cls-11" d="M274,221.19a.87.87,0,1,0,.86-1A.94.94,0,0,0,274,221.19Z"/><path class="cls-10" d="M322.06,214.12c0,17.57-8.24,29.91-23.72,29.91s-23.72-12.34-23.72-29.91,8.55-31.82,24-31.82S322.06,196.55,322.06,214.12Z"/><path class="cls-10" d="M292.76,249.73s-14.73,2-20,6.53-7,8.71-8.94,17.94h69.1c-1.95-9.23-3.54-13.27-8.94-17.94s-20-6.53-20-6.53Z"/><path class="cls-19" d="M309.62,250.75s9,.93,14.33,5.51,7,8.71,8.94,17.94h-69.1c1.95-9.23,3.54-13.27,8.94-17.94s14.37-5.52,14.37-5.52-2,12.6,11.73,12.49C298.83,263.23,310.15,263.68,309.62,250.75Z"/><path class="cls-20" d="M289,250.37a1.77,1.77,0,0,1,0,.65c0,.08-.64,4.57,1.94,7.54,1.63,1.88,4.31,2.82,7.92,2.79h.09a9.54,9.54,0,0,0,6.39-2.49c1.76-1.78,2.58-4.94,2.43-8.49l3.78.66c.12,4.49-1.08,8-3.57,10.51a13.24,13.24,0,0,1-9,3.58h-.29c-4.7,0-8.28-1.39-10.64-4.12-3.09-3.58-3-8.32-2.86-10Z"/><path class="cls-21" d="M274,204.45l.85,14.34,2.1.59c-1.85-23.15,10.35-28.44,10.35-28.44l3.41-14.49a17,17,0,0,0-15,8.27S271.84,188.63,274,204.45Z"/><path class="cls-22" d="M274.08,206.31s-.4-1.81-.75-4.53c-.19-1.37-.36-3-.51-4.66-.06-.86-.16-1.74-.2-2.64,0-.44-.06-.9-.08-1.35l0-.34v-.42l0-.69a9.68,9.68,0,0,1,.17-1.44,8.81,8.81,0,0,1,.31-1.43c.07-.23.12-.47.2-.69l.26-.66a10.1,10.1,0,0,1,.56-1.25,9.8,9.8,0,0,1,.65-1.15,11.83,11.83,0,0,1,.71-1,13.91,13.91,0,0,1,1.49-1.74,13.49,13.49,0,0,1,1.42-1.29,13.91,13.91,0,0,1,1.18-.87,10.13,10.13,0,0,1,1.1-.65,27.82,27.82,0,0,0-2.87,3.5,9.33,9.33,0,0,0-.57.87c-.19.3-.39.61-.57.95s-.37.66-.54,1-.35.72-.49,1.1a8.77,8.77,0,0,0-.43,1.15c-.13.4-.25.8-.34,1.21a9.06,9.06,0,0,0-.24,1.22,9.46,9.46,0,0,0-.12,1.27l0,.68v.26h0V193c0,.46,0,.91.05,1.36,0,.9,0,1.78,0,2.64,0,1.71,0,3.31-.07,4.69C274.31,204.47,274.08,206.31,274.08,206.31Z"/><path class="cls-21" d="M322.53,207.26l-.85,14.34-2.1.59c2.13-30.87-9.38-31.39-9.38-31.39l-4.38-11.54a17,17,0,0,1,15,8.27S324.66,191.44,322.53,207.26Z"/><path class="cls-21" d="M287.43,190.85s13.33-5.24,27.06,1.77L315.54,182s-2.69-20.68-29.68-14.09a19.48,19.48,0,0,1,4.82,3.13s-10.39-.72-15,8.74c0,0,7-2.34,12.68-.83C288.38,179,279.9,184.57,287.43,190.85Z"/><path class="cls-22" d="M315.54,182a15.65,15.65,0,0,0-.52-1.52,21.93,21.93,0,0,0-3.44-6,23.43,23.43,0,0,0-2.08-2.18,19.42,19.42,0,0,0-2.59-1.9,17,17,0,0,0-3-1.45,14.71,14.71,0,0,0-1.58-.54,15.19,15.19,0,0,0-1.61-.41,26.24,26.24,0,0,0-3.22-.51c-.53-.06-1-.08-1.56-.11s-1-.07-1.51-.05c-1,0-1.93,0-2.79.06s-1.66.1-2.37.16-1.33.11-1.83.17c-1,.12-1.61.17-1.61.17s.55-.21,1.53-.53a16.89,16.89,0,0,1,1.79-.52c.7-.18,1.48-.39,2.36-.53.44-.07.9-.17,1.38-.23l1.48-.16c.51-.06,1-.06,1.58-.09a15.35,15.35,0,0,1,1.66,0,16.76,16.76,0,0,1,1.72.12,13.6,13.6,0,0,1,1.76.26,20.75,20.75,0,0,1,3.5,1,17.9,17.9,0,0,1,3.26,1.67,16.33,16.33,0,0,1,2.75,2.23,17.16,17.16,0,0,1,3.49,5.12,17.61,17.61,0,0,1,1.26,4.14A10,10,0,0,1,315.54,182Z"/></g></g><g class="cls-8"><path class="cls-3" d="M256.75,192.1a59.06,59.06,0,1,1-59.05-59A59.06,59.06,0,0,1,256.75,192.1Z"/><g class="cls-23"><rect class="cls-10" x="191.89" y="220.07" width="11.62" height="6.91"/><path class="cls-13" d="M192.55,225.22a7.94,7.94,0,0,1,5.08-2.29c1.66-.12,4.49.24,5.37-1.49a2,2,0,0,1,.51-.64v-.73H191.89v6A7.09,7.09,0,0,1,192.55,225.22Z"/><path class="cls-10" d="M226.78,197.9a5.36,5.36,0,1,1-5.36-5.18A5.27,5.27,0,0,1,226.78,197.9Z"/><g class="cls-8"><path class="cls-12" d="M222.11,195a2,2,0,0,1,.36,0,2.81,2.81,0,0,1,.95.18,2.32,2.32,0,0,1,1.14.88,3.22,3.22,0,0,1,.2.37c.05.13.08.27.12.41l.05.43c0,.14,0,.28,0,.43a3.68,3.68,0,0,1-.17.8,3.46,3.46,0,0,1-.33.73,2.68,2.68,0,0,1-1,1,2.12,2.12,0,0,1-.51.21,2.61,2.61,0,0,1-.42.07h-.36l.33-.13c.1,0,.22-.12.35-.18a3.15,3.15,0,0,0,.39-.3,2.61,2.61,0,0,0,.38-.42,2.55,2.55,0,0,0,.31-.54,3.86,3.86,0,0,0,.35-1.32l0-.34,0-.32c0-.1,0-.21-.07-.31l-.12-.28a2.36,2.36,0,0,0-.8-.83,4.06,4.06,0,0,0-.8-.41A2,2,0,0,0,222.11,195Z"/></g><path class="cls-11" d="M222.8,198.15a.87.87,0,1,1-.86-1A.94.94,0,0,1,222.8,198.15Z"/><path class="cls-10" d="M169.35,197.9a5.36,5.36,0,1,0,5.35-5.18A5.27,5.27,0,0,0,169.35,197.9Z"/><g class="cls-8"><path class="cls-12" d="M174,195a2,2,0,0,0-.36,0,2.76,2.76,0,0,0-.94.18,2.32,2.32,0,0,0-1.14.88,3.22,3.22,0,0,0-.2.37c-.05.13-.09.27-.13.41l0,.43c0,.14,0,.28,0,.43a4.36,4.36,0,0,0,.16.8,4.05,4.05,0,0,0,.33.73,2.75,2.75,0,0,0,1,1,2,2,0,0,0,.52.21,2.7,2.7,0,0,0,.41.07H174l-.32-.13c-.11,0-.22-.12-.35-.18a2.55,2.55,0,0,1-.39-.3,2.22,2.22,0,0,1-.38-.42,3.08,3.08,0,0,1-.32-.54,5.16,5.16,0,0,1-.23-.63,2.62,2.62,0,0,1-.11-.69l0-.34,0-.32c0-.1,0-.21.07-.31s.07-.19.12-.28a2.34,2.34,0,0,1,.79-.83,4.69,4.69,0,0,1,.8-.41A2.45,2.45,0,0,1,174,195Z"/></g><path class="cls-11" d="M173.32,198.15a.88.88,0,1,0,.87-1A.94.94,0,0,0,173.32,198.15Z"/><path class="cls-10" d="M221.42,191.08c0,17.57-8.25,29.91-23.72,29.91S174,208.65,174,191.08s8.56-31.82,24-31.82S221.42,173.5,221.42,191.08Z"/><path class="cls-10" d="M192.12,226.69s-14.74,1.95-20,6.53-7,8.71-8.94,17.94h69.09c-1.94-9.23-3.54-13.27-8.93-17.94s-20-6.53-20-6.53Z"/><path class="cls-24" d="M186.46,227.7s-9.08.94-14.37,5.52-7,8.71-8.94,17.94h69.09c-1.94-9.23-3.54-13.27-8.93-17.94S209,227.71,209,227.71L197.7,238.92Z"/><path class="cls-25" d="M173.32,181.41l.86,14.34,2.1.59c-1.85-23.15,10.35-28.45,10.35-28.45L190,153.4a17,17,0,0,0-15,8.28S171.2,165.59,173.32,181.41Z"/><path class="cls-26" d="M173.43,183.27s-.43-1.81-.8-4.53c-.2-1.37-.38-3-.53-4.66-.07-.86-.17-1.74-.22-2.63,0-.45,0-.9-.08-1.36l0-.34v-1.11a10.18,10.18,0,0,1,.18-1.46,8.17,8.17,0,0,1,.32-1.44c.06-.23.12-.46.19-.69l.26-.66a12.1,12.1,0,0,1,.58-1.26A10.68,10.68,0,0,1,174,162a11.88,11.88,0,0,1,.72-1,13.2,13.2,0,0,1,1.51-1.74,14.41,14.41,0,0,1,1.43-1.28c.44-.36.86-.63,1.2-.86a9,9,0,0,1,1.11-.63,27.54,27.54,0,0,0-2.83,3.54c-.19.27-.38.56-.56.87a10.8,10.8,0,0,0-.56.95,9.78,9.78,0,0,0-.53,1c-.17.36-.35.71-.49,1.09a8.7,8.7,0,0,0-.41,1.15,11.81,11.81,0,0,0-.34,1.2,7.57,7.57,0,0,0-.23,1.21,7.75,7.75,0,0,0-.13,1.26l0,.68v.26h0v0l0,.34c0,.45,0,.9,0,1.35,0,.9,0,1.79,0,2.64,0,1.72,0,3.32-.1,4.69C173.7,181.43,173.43,183.27,173.43,183.27Z"/><path class="cls-13" d="M185.22,168.74s7.32,12.64,30.84,12c0,0-4.4-5.2-2.21-7.67C213.85,173.06,191.08,162.23,185.22,168.74Z"/><path class="cls-25" d="M221.89,184.22,221,198.56l-2.09.59c1.84-23.15-10.36-28.44-10.36-28.44l-3.4-14.49a17,17,0,0,1,15,8.27S224,168.4,221.89,184.22Z"/><path class="cls-25" d="M181.36,155.53s3.39-6.89,15.52-8.77c0,0,20.2-2.43,26.64,11.59,0,0,3.26,6.74,2.08,18.62,0,0-1.22-5.35-4.53-7.12,0,0-.56,6.32-9.28,2.43,0,0-1.38,2.59,1.66,7.2C213.45,179.48,185.22,179.48,181.36,155.53Z"/><path class="cls-26" d="M181.36,155.53a8.81,8.81,0,0,1,1.07-1.86,13.14,13.14,0,0,1,1.62-1.88c.33-.36.73-.67,1.13-1s.87-.69,1.37-1a20.45,20.45,0,0,1,3.35-1.87,24.13,24.13,0,0,1,4-1.43c.71-.23,1.46-.34,2.2-.51l.57-.12.63-.08,1.16-.08a41.32,41.32,0,0,1,4.72,0,40.49,40.49,0,0,1,4.68.63,28.44,28.44,0,0,1,4.41,1.28,23.28,23.28,0,0,1,3.88,1.89,18.47,18.47,0,0,1,3.07,2.34,15.9,15.9,0,0,1,2.14,2.44,14.59,14.59,0,0,1,1.28,2.13,13.27,13.27,0,0,1,.63,1.45l.2.52-.3-.47c-.2-.31-.48-.76-.89-1.29a16.64,16.64,0,0,0-1.54-1.83,12.81,12.81,0,0,0-1-1,14.68,14.68,0,0,0-1.24-1,21.31,21.31,0,0,0-3.06-1.9,27.25,27.25,0,0,0-3.72-1.52,34.2,34.2,0,0,0-4.19-1,38.35,38.35,0,0,0-4.45-.54,41.92,41.92,0,0,0-4.48-.09l-1.09.05-.49,0-.54.09c-.71.13-1.43.19-2.1.37a30.74,30.74,0,0,0-3.9,1.1l-.89.33c-.29.12-.57.24-.84.37a16.68,16.68,0,0,0-1.59.75,21.71,21.71,0,0,0-2.6,1.65,16.45,16.45,0,0,0-1.82,1.55,12.52,12.52,0,0,0-1.05,1.15A4.77,4.77,0,0,0,181.36,155.53Z"/></g></g><g class="cls-8"><path class="cls-4" d="M163.21,215.15a59.06,59.06,0,1,1-59.06-59.06A59.06,59.06,0,0,1,163.21,215.15Z"/><g class="cls-27"><path class="cls-25" d="M130.87,222.28s-7.64,25.83-21.14,27.45v-5.89S123.57,218.05,130.87,222.28Z"/><rect class="cls-10" x="98.34" y="243.11" width="11.62" height="6.91"/><path class="cls-13" d="M99,248.27a7.89,7.89,0,0,1,5.07-2.29c1.67-.13,4.5.23,5.38-1.5a2.07,2.07,0,0,1,.5-.64v-.73H98.34v6A5.15,5.15,0,0,1,99,248.27Z"/><path class="cls-10" d="M133.23,220.94a5.36,5.36,0,1,1-5.35-5.17A5.27,5.27,0,0,1,133.23,220.94Z"/><g class="cls-8"><path class="cls-12" d="M128.57,218.06a2,2,0,0,1,.36,0,3,3,0,0,1,.94.18,2.4,2.4,0,0,1,1.15.88,3.2,3.2,0,0,1,.19.37c0,.13.09.27.13.41l0,.43a4.13,4.13,0,0,1-.18,1.23,3.46,3.46,0,0,1-.33.73,2.75,2.75,0,0,1-1,1,2.12,2.12,0,0,1-.51.21,2.81,2.81,0,0,1-.42.07h-.36l.32-.13c.11,0,.22-.12.35-.18a3.2,3.2,0,0,0,.4-.3,3,3,0,0,0,.37-.41,4,4,0,0,0,.32-.54,4.41,4.41,0,0,0,.23-.64,3.13,3.13,0,0,0,.12-.68l0-.34,0-.33c0-.1-.05-.21-.07-.31s-.07-.19-.12-.28a2.34,2.34,0,0,0-.79-.83,4.06,4.06,0,0,0-.8-.41Z"/></g><path class="cls-11" d="M129.26,221.19a.88.88,0,1,1-.87-1A.94.94,0,0,1,129.26,221.19Z"/><path class="cls-10" d="M75.81,220.94a5.36,5.36,0,1,0,5.35-5.17A5.26,5.26,0,0,0,75.81,220.94Z"/><g class="cls-8"><path class="cls-12" d="M80.47,218.06a2,2,0,0,0-.36,0,3,3,0,0,0-.94.18,2.4,2.4,0,0,0-1.15.88c-.07.11-.13.24-.2.37l-.12.41,0,.43c0,.14,0,.29,0,.43a3.56,3.56,0,0,0,.17.8,3.46,3.46,0,0,0,.33.73,2.75,2.75,0,0,0,1,1,2.12,2.12,0,0,0,.51.21,3,3,0,0,0,.42.07h.36l-.33-.13c-.1,0-.21-.12-.35-.18a3.15,3.15,0,0,1-.39-.3,2.45,2.45,0,0,1-.37-.41,2.65,2.65,0,0,1-.32-.54,3.48,3.48,0,0,1-.23-.64,3.13,3.13,0,0,1-.12-.68l0-.34,0-.33c0-.1,0-.21.07-.31s.07-.19.12-.28a2.26,2.26,0,0,1,.79-.83,4.06,4.06,0,0,1,.8-.41Z"/></g><path class="cls-11" d="M79.78,221.19a.88.88,0,1,0,.87-1A.94.94,0,0,0,79.78,221.19Z"/><path class="cls-10" d="M127.88,214.12c0,17.57-8.25,29.91-23.73,29.91s-23.72-12.34-23.72-29.91,8.56-31.82,24-31.82S127.88,196.55,127.88,214.12Z"/><path class="cls-10" d="M98.58,249.73s-14.74,2-20,6.53-7,8.71-9,17.94h69.1c-1.94-9.23-3.54-13.27-8.94-17.94s-20-6.53-20-6.53Z"/><path class="cls-1" d="M109.73,249.73A77.41,77.41,0,0,1,123.57,253s-3.69,8.93,0,21.21H85.51s2.63-7.49,1-21.81a82.16,82.16,0,0,1,12.06-2.66l5.34,10.39Z"/><path class="cls-25" d="M128.75,215.84c-8-2-11.88-11.9-11.88-11.9a11.65,11.65,0,0,0,.26,4.82,73.12,73.12,0,0,1-23.25-17.37c-7.36-9.09,4.46-15.06,4.46-15.06,19-6.7,27.13,6,27.13,6s13.48,12.19,6.85,35.75A5.76,5.76,0,0,0,128.75,215.84Z"/><path class="cls-25" d="M96.06,181.72s-17,.58-20.25,27.45c0,0-4.7,49.17,17.36,57.54,0,0-1.45-13.92,5.17-16.95v-6.37s-16.07-2.83-15.86-23.86c0,0,.1-24.27,12.45-28.87Z"/><path class="cls-7" d="M129.67,225.91a1.79,1.79,0,1,1-1.79-1.79A1.79,1.79,0,0,1,129.67,225.91Z"/></g></g><g class="cls-8"><circle class="cls-5" cx="253.43" cy="107.59" r="59.06"/><g class="cls-28"><rect class="cls-10" x="247.62" y="135.55" width="11.62" height="6.91"/><path class="cls-13" d="M248.28,140.71a7.94,7.94,0,0,1,5.08-2.29c1.66-.12,4.49.23,5.38-1.5a1.89,1.89,0,0,1,.5-.63v-.74H247.62v6A5.57,5.57,0,0,1,248.28,140.71Z"/><path class="cls-10" d="M282.51,113.38a5.36,5.36,0,1,1-5.36-5.17A5.26,5.26,0,0,1,282.51,113.38Z"/><g class="cls-8"><path class="cls-12" d="M277.84,110.5a2,2,0,0,1,.36,0,2.87,2.87,0,0,1,.95.19,2.35,2.35,0,0,1,1.14.87c.08.12.13.25.2.38s.09.27.13.41l0,.43c0,.14,0,.28,0,.42a3.77,3.77,0,0,1-.17.81,3.2,3.2,0,0,1-.33.73,2.56,2.56,0,0,1-1,1,2.44,2.44,0,0,1-.52.22l-.41.07h-.37l.33-.14c.1,0,.22-.11.35-.18a4.34,4.34,0,0,0,.39-.29,3.13,3.13,0,0,0,.38-.42,3.16,3.16,0,0,0,.31-.54,3.38,3.38,0,0,0,.23-.63,3.22,3.22,0,0,0,.12-.69l0-.34,0-.33c0-.1,0-.2-.07-.3s-.07-.2-.12-.29a2.36,2.36,0,0,0-.8-.83,5.57,5.57,0,0,0-.8-.41Z"/></g><path class="cls-11" d="M278.54,113.64a.88.88,0,1,1-.87-1A1,1,0,0,1,278.54,113.64Z"/><path class="cls-10" d="M225.08,113.38a5.36,5.36,0,1,0,5.36-5.17A5.26,5.26,0,0,0,225.08,113.38Z"/><g class="cls-8"><path class="cls-12" d="M229.75,110.5a2.12,2.12,0,0,0-.37,0,2.87,2.87,0,0,0-.94.19,2.35,2.35,0,0,0-1.14.87c-.08.12-.13.25-.2.38a2.77,2.77,0,0,0-.12.41l0,.43c0,.14,0,.28,0,.42a3.77,3.77,0,0,0,.17.81,3.2,3.2,0,0,0,.33.73,2.63,2.63,0,0,0,1,1,2.07,2.07,0,0,0,.52.22l.41.07h.37l-.33-.14a2.94,2.94,0,0,1-.35-.18,3.27,3.27,0,0,1-.39-.29,2.57,2.57,0,0,1-.38-.42,4,4,0,0,1-.32-.54,5.85,5.85,0,0,1-.23-.63,4,4,0,0,1-.11-.69l0-.34,0-.33c0-.1.05-.2.07-.3a2,2,0,0,1,.91-1.12,6.85,6.85,0,0,1,.8-.41Z"/></g><path class="cls-11" d="M229.05,113.64a.88.88,0,1,0,.87-1A.94.94,0,0,0,229.05,113.64Z"/><path class="cls-10" d="M277.15,106.56c0,17.57-8.25,29.91-23.72,29.91s-23.73-12.34-23.73-29.91,8.56-31.82,24-31.82S277.15,89,277.15,106.56Z"/><path class="cls-10" d="M247.85,142.17s-14.73,2-20,6.54-7,8.71-8.94,17.94H288c-1.94-9.23-3.54-13.27-8.93-17.94s-20-6.54-20-6.54Z"/><path class="cls-29" d="M240,143.67s1.59-.67-4.23,1.17c1.6,14.48-1,21.81-1,21.81h38c-3.69-12.28,0-21.21,0-21.21l-3.52-1.28s-.32,17.64-16.13,16.42C253.19,160.58,239.5,161.92,240,143.67Z"/><path class="cls-21" d="M245.34,74.16s-17,.58-20.26,27.46c0,0-3.17,22.13,7.56,41a70.48,70.48,0,0,1,15-.43v-6.37S231.55,133,231.75,112c0,0,.11-24.26,12.45-28.87Z"/><path class="cls-21" d="M261.52,74.16s19.27-.29,22.53,26.58c0,0,1.67,18-9.83,41.89a70.53,70.53,0,0,0-15-.43v-6.37S275.31,133,275.1,112c0,0-.1-24.26-12.45-28.87Z"/><path class="cls-21" d="M238.51,81a37.63,37.63,0,0,0,33.79,15.8l4.5,11.44,4.45,1.85S288,108.21,281,81c0,0-7.23-19.91-33.36-14C247.62,67,234.6,69.36,238.51,81Z"/></g></g><g class="cls-8"><path class="cls-1" d="M256.75,295.21a59.06,59.06,0,1,1-59.05-59.06A59.06,59.06,0,0,1,256.75,295.21Z"/><g class="cls-30"><rect class="cls-10" x="191.89" y="323.17" width="11.61" height="6.91"/><path class="cls-13" d="M192.55,328.33a7.88,7.88,0,0,1,5.08-2.28c1.66-.13,4.49.23,5.37-1.5a2,2,0,0,1,.5-.64v-.74H191.89v6A7.09,7.09,0,0,1,192.55,328.33Z"/><path class="cls-10" d="M226.78,301a5.36,5.36,0,1,1-5.36-5.17A5.27,5.27,0,0,1,226.78,301Z"/><g class="cls-8"><path class="cls-12" d="M222.11,298.13a2.63,2.63,0,0,1,.36,0,3.21,3.21,0,0,1,.95.19,2.32,2.32,0,0,1,1.14.88c.07.11.13.24.2.37l.12.41.05.43c0,.14,0,.28,0,.43a3.81,3.81,0,0,1-.17.8,3.7,3.7,0,0,1-.33.73,2.75,2.75,0,0,1-1,1,2.12,2.12,0,0,1-.51.21l-.42.07h-.36l.33-.14a3,3,0,0,0,.35-.18,2.3,2.3,0,0,0,.39-.29,2.61,2.61,0,0,0,.38-.42,2.82,2.82,0,0,0,.31-.54,3.14,3.14,0,0,0,.23-.63,3.22,3.22,0,0,0,.12-.69l0-.34,0-.32c0-.11,0-.21-.08-.31s-.07-.19-.11-.28a2.39,2.39,0,0,0-.8-.84,4.54,4.54,0,0,0-.8-.4A2,2,0,0,0,222.11,298.13Z"/></g><path class="cls-11" d="M222.8,301.26a.87.87,0,1,1-.87-1A.94.94,0,0,1,222.8,301.26Z"/><path class="cls-10" d="M169.35,301a5.36,5.36,0,1,0,5.35-5.17A5.27,5.27,0,0,0,169.35,301Z"/><g class="cls-8"><path class="cls-12" d="M174,298.13a2.63,2.63,0,0,0-.36,0,3.1,3.1,0,0,0-.94.19,2.32,2.32,0,0,0-1.14.88,2.18,2.18,0,0,0-.2.37c-.05.13-.09.27-.13.41l0,.43c0,.14,0,.28,0,.43a3.78,3.78,0,0,0,.16.8,4.39,4.39,0,0,0,.33.73,2.75,2.75,0,0,0,1,1,2,2,0,0,0,.52.21l.41.07H174l-.32-.14A2.68,2.68,0,0,1,173,303a2.22,2.22,0,0,1-.38-.42,3.5,3.5,0,0,1-.32-.54,5.16,5.16,0,0,1-.23-.63,3.22,3.22,0,0,1-.12-.69l0-.34,0-.32c0-.11,0-.21.07-.31s.07-.19.12-.28a2.37,2.37,0,0,1,.79-.84,4.54,4.54,0,0,1,.8-.4A2.45,2.45,0,0,1,174,298.13Z"/></g><path class="cls-11" d="M173.32,301.26a.88.88,0,1,0,.87-1A.94.94,0,0,0,173.32,301.26Z"/><path class="cls-10" d="M221.42,294.18c0,17.58-8.24,29.92-23.72,29.92S174,311.76,174,294.18s8.56-31.81,24-31.81S221.42,276.61,221.42,294.18Z"/><path class="cls-10" d="M192.12,329.8s-14.74,1.95-20,6.53-7,8.71-8.94,17.94h69.09C230.3,345,228.7,341,223.3,336.33s-20-6.53-20-6.53Z"/><path class="cls-31" d="M210.42,331.14c4.53,1,10.05,2.74,12.88,5.19,5.4,4.67,7,8.71,8.94,17.94H163.15c1.94-9.23,3.54-13.27,8.94-17.94,2.91-2.52,8.67-4.24,13.26-5.28l12.35,13.3Z"/><path class="cls-25" d="M189.61,261.79s-17,.58-20.26,27.45c0,0-.63,23.09-.63,50.39,0,0,3.89-6.83,23.17-9.8v-6.38S175.81,320.62,176,299.6c0,0,.11-24.27,12.45-28.87Z"/><path class="cls-25" d="M205.79,261.79s19.31-1,22.56,25.9c0,0,.38,23.85-1.57,52.21,0,0-5.36-7.65-23.28-10.07v-6.38s16.08-2.83,15.87-23.85c0,0-.1-24.27-12.45-28.87Z"/><path class="cls-25" d="M195.06,287.69l2.4-12v12h11.92l2-8.47,2,8.47h14.94a77.66,77.66,0,0,0-1.57-15.48s-4-18.73-32-17.07c0,0-23.63,0-25.34,32.55Z"/></g></g><path class="cls-2" d="M189.92,40.37a8.17,8.17,0,1,1-8.17-8.17A8.16,8.16,0,0,1,189.92,40.37Z"/><path class="cls-1" d="M203.28,59.28a5.59,5.59,0,1,1-5.58-5.59A5.59,5.59,0,0,1,203.28,59.28Z"/><path class="cls-3" d="M224.36,42a9.78,9.78,0,1,1-9.78-9.78A9.78,9.78,0,0,1,224.36,42Z"/><path class="cls-2" d="M326.35,138.34a7.28,7.28,0,1,1-7.28,7.27A7.28,7.28,0,0,1,326.35,138.34Z"/><path class="cls-1" d="M343.19,126.43a5,5,0,1,1-5,5A5,5,0,0,1,343.19,126.43Z"/><path class="cls-3" d="M327.78,107.66a8.71,8.71,0,1,1-8.71,8.71A8.71,8.71,0,0,1,327.78,107.66Z"/><path class="cls-2" d="M62,143.29a7.28,7.28,0,1,1-9.81,3.09A7.27,7.27,0,0,1,62,143.29Z"/><path class="cls-1" d="M82.41,140.52a5,5,0,1,1-6.72,2.11A5,5,0,0,1,82.41,140.52Z"/><path class="cls-3" d="M77.43,116.75a8.71,8.71,0,1,1-11.76,3.7A8.71,8.71,0,0,1,77.43,116.75Z"/><path class="cls-2" d="M118.5,311.57a7.27,7.27,0,1,1-2.81,9.89A7.26,7.26,0,0,1,118.5,311.57Z"/><path class="cls-1" d="M127.41,293a5,5,0,1,1-1.92,6.78A5,5,0,0,1,127.41,293Z"/><path class="cls-3" d="M104.82,284.07a8.71,8.71,0,1,1-3.37,11.85A8.7,8.7,0,0,1,104.82,284.07Z"/><path class="cls-2" d="M274.39,301.31a7.27,7.27,0,1,1-9.89-2.82A7.27,7.27,0,0,1,274.39,301.31Z"/><path class="cls-1" d="M293,310.22a5,5,0,1,1-6.78-1.92A5,5,0,0,1,293,310.22Z"/><path class="cls-3" d="M301.89,287.63A8.71,8.71,0,1,1,290,284.26,8.71,8.71,0,0,1,301.89,287.63Z"/></g></g></svg>