<svg xmlns="http://www.w3.org/2000/svg" xmlns:xlink="http://www.w3.org/1999/xlink" version="1.1" width="256" height="256" viewBox="0 0 256 256" xml:space="preserve">
<desc>Created with Fabric.js 1.7.22</desc>
<defs>
</defs>
<g transform="translate(128 128) scale(0.72 0.72)" style="">
	<g style="stroke: none; stroke-width: 0; stroke-dasharray: none; stroke-linecap: butt; stroke-linejoin: miter; stroke-miterlimit: 10; fill: none; fill-rule: nonzero; opacity: 1;" transform="translate(-175.05 -175.05000000000004) scale(3.89 3.89)" >
	<rect x="4.02" y="23.49" rx="0" ry="0" width="81.96" height="43.02" style="stroke: none; stroke-width: 1; stroke-dasharray: none; stroke-linecap: butt; stroke-linejoin: miter; stroke-miterlimit: 10; fill: rgb(62,108,144); fill-rule: nonzero; opacity: 1;" transform=" matrix(0.9791 -0.2035 0.2035 0.9791 -8.217 10.1009) "/>
	<path d="M 9.255 74.898 c -0.097 0 -0.192 -0.028 -0.274 -0.082 C 8.87 74.744 8.792 74.63 8.765 74.5 L 0.01 32.385 c -0.056 -0.27 0.118 -0.535 0.388 -0.591 l 80.245 -16.682 c 0.129 -0.025 0.265 -0.001 0.376 0.072 c 0.11 0.073 0.188 0.187 0.215 0.316 l 8.755 42.115 c 0.057 0.271 -0.117 0.535 -0.388 0.591 L 9.356 74.888 C 9.323 74.895 9.289 74.898 9.255 74.898 z M 1.091 32.671 l 8.551 41.137 l 79.267 -16.479 l -8.552 -41.136 L 1.091 32.671 z" style="stroke: none; stroke-width: 1; stroke-dasharray: none; stroke-linecap: butt; stroke-linejoin: miter; stroke-miterlimit: 10; fill: rgb(18,34,46); fill-rule: nonzero; opacity: 1;" transform=" matrix(1 0 0 1 0 0) " stroke-linecap="round" />
	<rect x="4.02" y="23.49" rx="0" ry="0" width="81.96" height="43.02" style="stroke: none; stroke-width: 1; stroke-dasharray: none; stroke-linecap: butt; stroke-linejoin: miter; stroke-miterlimit: 10; fill: rgb(179,229,159); fill-rule: nonzero; opacity: 1;" transform=" matrix(1 0 0 1 0 0) "/>
	<path d="M 59.284 41.842 h -0.759 c -0.646 0 -1.236 -0.398 -1.447 -1.009 c -0.169 -0.491 -0.368 -0.967 -0.594 -1.429 c -0.282 -0.578 -0.149 -1.273 0.305 -1.727 l 0.544 -0.544 c 0.238 -0.238 0.238 -0.625 0 -0.863 l -3.604 -3.604 c -0.238 -0.238 -0.625 -0.238 -0.863 0 l -0.544 0.544 c -0.455 0.455 -1.15 0.587 -1.727 0.305 c -0.461 -0.226 -0.938 -0.424 -1.429 -0.594 c -0.611 -0.211 -1.009 -0.801 -1.009 -1.447 v -0.759 c 0 -0.337 -0.273 -0.61 -0.61 -0.61 h -5.096 c -0.337 0 -0.61 0.273 -0.61 0.61 v 0.759 c 0 0.646 -0.398 1.236 -1.009 1.447 c -0.491 0.169 -0.967 0.368 -1.429 0.594 c -0.578 0.282 -1.273 0.149 -1.727 -0.305 l -0.544 -0.544 c -0.238 -0.238 -0.625 -0.238 -0.863 0 l -3.604 3.604 c -0.238 0.238 -0.238 0.625 0 0.863 l 0.544 0.544 c 0.455 0.455 0.587 1.15 0.305 1.727 c -0.226 0.461 -0.424 0.938 -0.594 1.429 c -0.211 0.611 -0.801 1.009 -1.447 1.009 h -0.759 c -0.337 0 -0.61 0.273 -0.61 0.61 v 5.096 c 0 0.337 0.273 0.61 0.61 0.61 h 0.759 c 0.646 0 1.236 0.398 1.447 1.009 c 0.169 0.491 0.368 0.967 0.594 1.429 c 0.282 0.578 0.149 1.273 -0.305 1.727 l -0.544 0.544 c -0.238 0.238 -0.238 0.625 0 0.863 l 3.604 3.604 c 0.238 0.238 0.625 0.238 0.863 0 l 0.544 -0.544 c 0.455 -0.455 1.15 -0.587 1.727 -0.305 c 0.461 0.226 0.938 0.424 1.429 0.594 c 0.611 0.211 1.009 0.801 1.009 1.447 v 0.759 c 0 0.337 0.273 0.61 0.61 0.61 h 5.096 c 0.337 0 0.61 -0.273 0.61 -0.61 v -0.759 c 0 -0.646 0.398 -1.236 1.009 -1.447 c 0.491 -0.169 0.967 -0.368 1.429 -0.594 c 0.578 -0.282 1.273 -0.149 1.727 0.305 l 0.544 0.544 c 0.238 0.238 0.625 0.238 0.863 0 l 3.604 -3.604 c 0.238 -0.238 0.238 -0.625 0 -0.863 l -0.544 -0.544 c -0.455 -0.455 -0.587 -1.15 -0.305 -1.727 c 0.226 -0.461 0.424 -0.938 0.594 -1.429 c 0.211 -0.611 0.801 -1.009 1.447 -1.009 h 0.759 c 0.337 0 0.61 -0.273 0.61 -0.61 v -5.096 C 59.894 42.115 59.621 41.842 59.284 41.842 z" style="stroke: none; stroke-width: 1; stroke-dasharray: none; stroke-linecap: butt; stroke-linejoin: miter; stroke-miterlimit: 10; fill: rgb(117,159,100); fill-rule: nonzero; opacity: 1;" transform=" matrix(1 0 0 1 0 0) " stroke-linecap="round" />
	<path d="M 45.747 54.18 c -5.674 0.448 -10.374 -4.252 -9.927 -9.927 c 0.352 -4.464 3.968 -8.08 8.432 -8.432 c 5.674 -0.447 10.374 4.252 9.927 9.927 C 53.828 50.211 50.211 53.827 45.747 54.18 z" style="stroke: none; stroke-width: 1; stroke-dasharray: none; stroke-linecap: butt; stroke-linejoin: miter; stroke-miterlimit: 10; fill: rgb(255,208,100); fill-rule: nonzero; opacity: 1;" transform=" matrix(1 0 0 1 0 0) " stroke-linecap="round" />
	<path d="M 47.548 60.395 h -5.096 c -0.612 0 -1.11 -0.498 -1.11 -1.11 v -0.759 c 0 -0.444 -0.27 -0.836 -0.672 -0.975 c -0.5 -0.172 -1 -0.38 -1.485 -0.617 c -0.378 -0.184 -0.842 -0.102 -1.154 0.21 l -0.544 0.544 c -0.419 0.42 -1.151 0.42 -1.57 0 l -3.604 -3.604 c -0.21 -0.21 -0.325 -0.488 -0.325 -0.785 s 0.115 -0.575 0.325 -0.785 l 0.544 -0.544 c 0.311 -0.312 0.395 -0.775 0.209 -1.154 c -0.235 -0.48 -0.442 -0.98 -0.617 -1.485 c -0.139 -0.401 -0.531 -0.672 -0.975 -0.672 h -0.759 c -0.612 0 -1.11 -0.498 -1.11 -1.11 v -5.096 c 0 -0.612 0.498 -1.11 1.11 -1.11 h 0.759 c 0.444 0 0.836 -0.27 0.975 -0.672 c 0.174 -0.503 0.381 -1.003 0.617 -1.485 c 0.186 -0.379 0.101 -0.843 -0.209 -1.154 l -0.544 -0.544 c -0.21 -0.209 -0.325 -0.488 -0.325 -0.785 c 0 -0.297 0.115 -0.576 0.325 -0.785 l 3.604 -3.604 c 0.433 -0.433 1.137 -0.432 1.569 0 l 0.544 0.545 c 0.313 0.311 0.776 0.396 1.154 0.209 c 0.484 -0.236 0.983 -0.443 1.485 -0.617 c 0.402 -0.139 0.672 -0.53 0.672 -0.975 v -0.759 c 0 -0.612 0.498 -1.11 1.11 -1.11 h 5.096 c 0.612 0 1.11 0.498 1.11 1.11 v 0.759 c 0 0.444 0.271 0.836 0.672 0.975 c 0.505 0.174 1.005 0.382 1.485 0.617 c 0.376 0.185 0.842 0.103 1.154 -0.209 l 0.544 -0.544 c 0.42 -0.42 1.15 -0.42 1.57 0 l 3.604 3.604 c 0.21 0.209 0.325 0.488 0.325 0.785 c 0 0.296 -0.115 0.575 -0.325 0.785 l -0.544 0.544 c -0.312 0.311 -0.396 0.775 -0.21 1.154 c 0.237 0.486 0.445 0.986 0.617 1.486 c 0.139 0.401 0.53 0.671 0.975 0.671 h 0.759 c 0.612 0 1.11 0.498 1.11 1.11 v 5.096 c 0 0.612 -0.498 1.11 -1.11 1.11 h -0.759 c -0.444 0 -0.836 0.271 -0.975 0.672 c -0.173 0.503 -0.381 1.002 -0.617 1.485 c -0.186 0.379 -0.102 0.843 0.21 1.154 l 0.544 0.544 c 0.21 0.21 0.325 0.488 0.325 0.785 s -0.115 0.575 -0.325 0.785 l -3.604 3.604 c -0.42 0.42 -1.15 0.42 -1.57 0 l -0.544 -0.544 c -0.312 -0.311 -0.776 -0.396 -1.154 -0.21 c -0.483 0.236 -0.982 0.444 -1.485 0.617 c -0.401 0.139 -0.672 0.53 -0.672 0.975 v 0.759 C 48.658 59.896 48.16 60.395 47.548 60.395 z M 38.761 55.836 c 0.293 0 0.588 0.065 0.863 0.199 c 0.449 0.22 0.911 0.411 1.372 0.57 c 0.806 0.278 1.346 1.05 1.346 1.92 v 0.759 c 0 0.061 0.049 0.11 0.11 0.11 h 5.096 c 0.061 0 0.11 -0.05 0.11 -0.11 v -0.759 c 0 -0.87 0.541 -1.642 1.346 -1.92 c 0.464 -0.16 0.926 -0.352 1.372 -0.57 c 0.764 -0.372 1.689 -0.212 2.301 0.401 l 0.544 0.544 c 0.037 0.037 0.119 0.037 0.156 0 l 3.604 -3.604 c 0.037 -0.037 0.037 -0.119 0 -0.156 l -0.544 -0.544 c -0.613 -0.613 -0.774 -1.538 -0.401 -2.301 c 0.219 -0.446 0.41 -0.908 0.57 -1.372 c 0.278 -0.805 1.05 -1.346 1.92 -1.346 h 0.759 c 0.061 0 0.11 -0.05 0.11 -0.11 v -5.096 c 0 -0.061 -0.05 -0.11 -0.11 -0.11 h -0.759 c -0.87 0 -1.642 -0.541 -1.92 -1.346 c -0.159 -0.461 -0.351 -0.923 -0.57 -1.372 c -0.373 -0.764 -0.212 -1.688 0.401 -2.301 l 0.544 -0.544 c 0.037 -0.037 0.037 -0.119 0 -0.156 l -3.604 -3.604 c -0.037 -0.037 -0.119 -0.037 -0.156 0 l -0.544 0.544 c -0.613 0.612 -1.538 0.773 -2.301 0.4 c -0.444 -0.217 -0.906 -0.409 -1.372 -0.57 c -0.805 -0.278 -1.346 -1.05 -1.346 -1.92 v -0.759 c 0 -0.061 -0.05 -0.11 -0.11 -0.11 h -5.096 c -0.061 0 -0.11 0.049 -0.11 0.11 v 0.759 c 0 0.871 -0.541 1.642 -1.346 1.92 c -0.463 0.16 -0.925 0.352 -1.373 0.57 c -0.761 0.374 -1.687 0.213 -2.3 -0.4 l -0.544 -0.544 c -0.043 -0.043 -0.112 -0.042 -0.156 0 l -3.603 3.604 c -0.037 0.037 -0.037 0.119 0 0.156 l 0.544 0.544 c 0.613 0.613 0.774 1.537 0.401 2.301 c -0.218 0.446 -0.41 0.907 -0.57 1.372 c -0.278 0.805 -1.049 1.346 -1.92 1.346 h -0.759 c -0.061 0 -0.11 0.049 -0.11 0.11 v 5.096 c 0 0.061 0.049 0.11 0.11 0.11 h 0.759 c 0.87 0 1.642 0.541 1.92 1.346 c 0.161 0.466 0.353 0.928 0.57 1.372 c 0.374 0.763 0.213 1.688 -0.4 2.301 l -0.544 0.544 c -0.037 0.037 -0.037 0.119 0 0.156 l 3.604 3.604 c 0.038 0.037 0.119 0.037 0.156 0 l 0.544 -0.544 C 37.716 56.044 38.237 55.836 38.761 55.836 z" style="stroke: none; stroke-width: 1; stroke-dasharray: none; stroke-linecap: butt; stroke-linejoin: miter; stroke-miterlimit: 10; fill: rgb(18,34,46); fill-rule: nonzero; opacity: 1;" transform=" matrix(1 0 0 1 0 0) " stroke-linecap="round" />
	<path d="M 45.013 54.709 c -2.577 0 -5.048 -1.014 -6.878 -2.844 c -2.012 -2.013 -3.038 -4.801 -2.813 -7.651 c 0.371 -4.699 4.193 -8.521 8.892 -8.892 c 2.851 -0.228 5.639 0.8 7.652 2.813 c 2.013 2.012 3.037 4.801 2.813 7.651 c -0.369 4.698 -4.192 8.521 -8.891 8.892 h 0 C 45.528 54.698 45.27 54.709 45.013 54.709 z M 44.987 36.292 c -0.231 0 -0.463 0.009 -0.695 0.027 c -4.213 0.332 -7.641 3.76 -7.973 7.974 c -0.202 2.558 0.718 5.06 2.523 6.866 c 1.805 1.805 4.308 2.717 6.867 2.523 c 4.213 -0.333 7.641 -3.761 7.973 -7.974 c 0.201 -2.559 -0.719 -5.061 -2.523 -6.866 C 49.518 37.201 47.299 36.292 44.987 36.292 z" style="stroke: none; stroke-width: 1; stroke-dasharray: none; stroke-linecap: butt; stroke-linejoin: miter; stroke-miterlimit: 10; fill: rgb(18,34,46); fill-rule: nonzero; opacity: 1;" transform=" matrix(1 0 0 1 0 0) " stroke-linecap="round" />
	<path d="M 46.376 44.424 h -2.752 c -0.489 0 -0.887 -0.398 -0.887 -0.887 v -2.135 c 0 -0.489 0.398 -0.887 0.887 -0.887 h 2.752 c 0.489 0 0.887 0.398 0.887 0.887 c 0 0.276 0.224 0.5 0.5 0.5 s 0.5 -0.224 0.5 -0.5 c 0 -1.041 -0.847 -1.887 -1.887 -1.887 H 45.5 v -1.218 c 0 -0.276 -0.224 -0.5 -0.5 -0.5 s -0.5 0.224 -0.5 0.5 v 1.218 h -0.876 c -1.041 0 -1.887 0.847 -1.887 1.887 v 2.135 c 0 1.041 0.846 1.887 1.887 1.887 h 2.752 c 0.489 0 0.887 0.398 0.887 0.887 v 2.135 c 0 0.489 -0.397 0.887 -0.887 0.887 h -2.752 c -0.489 0 -0.887 -0.397 -0.887 -0.887 c 0 -0.276 -0.224 -0.5 -0.5 -0.5 s -0.5 0.224 -0.5 0.5 c 0 1.04 0.846 1.887 1.887 1.887 H 44.5 v 1.369 c 0 0.276 0.224 0.5 0.5 0.5 s 0.5 -0.224 0.5 -0.5 v -1.369 h 0.876 c 1.04 0 1.887 -0.847 1.887 -1.887 v -2.135 C 48.263 45.271 47.416 44.424 46.376 44.424 z" style="stroke: none; stroke-width: 1; stroke-dasharray: none; stroke-linecap: butt; stroke-linejoin: miter; stroke-miterlimit: 10; fill: rgb(18,34,46); fill-rule: nonzero; opacity: 1;" transform=" matrix(1 0 0 1 0 0) " stroke-linecap="round" />
	<path d="M 15.711 23.492 c 0 6.457 -5.234 11.691 -11.691 11.691 V 23.492 H 15.711 z" style="stroke: none; stroke-width: 1; stroke-dasharray: none; stroke-linecap: butt; stroke-linejoin: miter; stroke-miterlimit: 10; fill: rgb(117,159,100); fill-rule: nonzero; opacity: 1;" transform=" matrix(1 0 0 1 0 0) " stroke-linecap="round" />
	<path d="M 15.711 66.508 c 0 -6.457 -5.234 -11.691 -11.691 -11.691 v 11.691 H 15.711 z" style="stroke: none; stroke-width: 1; stroke-dasharray: none; stroke-linecap: butt; stroke-linejoin: miter; stroke-miterlimit: 10; fill: rgb(117,159,100); fill-rule: nonzero; opacity: 1;" transform=" matrix(1 0 0 1 0 0) " stroke-linecap="round" />
	<path d="M 74.329 23.492 c 0 6.457 5.234 11.691 11.691 11.691 V 23.492 H 74.329 z" style="stroke: none; stroke-width: 1; stroke-dasharray: none; stroke-linecap: butt; stroke-linejoin: miter; stroke-miterlimit: 10; fill: rgb(117,159,100); fill-rule: nonzero; opacity: 1;" transform=" matrix(1 0 0 1 0 0) " stroke-linecap="round" />
	<path d="M 74.329 66.508 c 0 -6.457 5.234 -11.691 11.691 -11.691 v 11.691 H 74.329 z" style="stroke: none; stroke-width: 1; stroke-dasharray: none; stroke-linecap: butt; stroke-linejoin: miter; stroke-miterlimit: 10; fill: rgb(117,159,100); fill-rule: nonzero; opacity: 1;" transform=" matrix(1 0 0 1 0 0) " stroke-linecap="round" />
	<path d="M 86.521 35.184 V 23.492 c 0 -0.276 -0.224 -0.5 -0.5 -0.5 h -0.04 H 74.329 H 15.711 H 4.02 c -0.276 0 -0.5 0.224 -0.5 0.5 v 11.691 v 19.633 v 11.691 c 0 0.276 0.224 0.5 0.5 0.5 h 11.691 h 58.618 H 85.98 h 0.04 c 0.276 0 0.5 -0.224 0.5 -0.5 V 54.816 c 0 -0.07 -0.014 -0.136 -0.04 -0.196 V 35.379 C 86.506 35.319 86.521 35.253 86.521 35.184 z M 85.48 54.344 c -6.304 0.278 -11.368 5.355 -11.626 11.664 H 16.186 C 15.927 59.685 10.842 54.6 4.52 54.342 V 35.658 c 6.322 -0.258 11.408 -5.344 11.666 -11.666 h 57.669 c 0.258 6.309 5.322 11.386 11.626 11.664 V 54.344 z M 85.48 23.992 v 10.677 c -5.756 -0.275 -10.385 -4.916 -10.641 -10.677 H 85.48 z M 4.52 23.992 H 15.2 c -0.255 5.774 -4.906 10.425 -10.68 10.68 V 23.992 z M 4.52 66.008 V 55.327 c 5.774 0.256 10.425 4.906 10.68 10.681 H 4.52 z M 74.84 66.008 c 0.255 -5.761 4.885 -10.401 10.641 -10.677 v 10.677 H 74.84 z" style="stroke: none; stroke-width: 1; stroke-dasharray: none; stroke-linecap: butt; stroke-linejoin: miter; stroke-miterlimit: 10; fill: rgb(18,34,46); fill-rule: nonzero; opacity: 1;" transform=" matrix(1 0 0 1 0 0) " stroke-linecap="round" />
</g>
</g>
</svg>