<svg width="886" height="758" viewBox="0 0 886 758" fill="none" xmlns="http://www.w3.org/2000/svg">
<g clip-path="url(#clip0)">
<rect width="886" height="757.3" fill="white"/>
<path opacity="0.2" d="M560.52 366.66C574.611 366.66 588.125 361.062 598.089 351.099C608.052 341.135 613.65 327.621 613.65 313.53H507.39C507.39 327.621 512.988 341.135 522.951 351.099C532.915 361.062 546.429 366.66 560.52 366.66V366.66Z" fill="#0E04A7"/>
<path d="M709 242.4V176H768V299.07L709 242.4Z" fill="url(#paint0_linear)"/>
<path d="M716 247V189H760V299.07L716 247Z" fill="#0E04A7"/>
<path d="M816 110C846.376 110 871 85.3757 871 55C871 24.6243 846.376 0 816 0C785.624 0 761 24.6243 761 55C761 85.3757 785.624 110 816 110Z" fill="url(#paint1_linear)"/>
<path d="M816 99C840.301 99 860 79.3005 860 55C860 30.6995 840.301 11 816 11C791.699 11 772 30.6995 772 55C772 79.3005 791.699 99 816 99Z" fill="#FF9800"/>
<path d="M345.49 305.47C353.609 296.183 359.64 285.261 363.175 273.443C366.71 261.624 367.667 249.184 365.98 236.964C364.294 224.744 360.004 213.029 353.399 202.61C346.795 192.191 338.031 183.311 327.7 176.57C333.041 168.301 335.875 158.664 335.86 148.82C335.86 120.98 313.79 98.41 286.57 98.41C264.15 98.41 245.25 113.74 239.28 134.7C226.41 112.95 203.06 98.41 176.39 98.41C135.82 98.41 102.94 132.04 102.94 173.53C102.931 182.368 104.453 191.142 107.44 199.46C105.95 199.34 104.44 199.23 102.94 199.23C70.38 199.23 43.94 226.23 43.94 259.53C43.94 261.58 44.04 263.61 44.24 265.62C30.9945 271.568 19.7622 281.236 11.9083 293.448C4.05445 305.66 -0.0826136 319.891 -7.37957e-06 334.41C-7.37957e-06 375.76 32.78 409.29 73.21 409.29C77.4587 409.285 81.6986 408.903 85.88 408.15C85.66 410.64 85.53 413.15 85.53 415.72C85.53 462.12 122.31 499.72 167.68 499.72C184.455 499.716 200.81 494.472 214.46 484.72C225.443 494.371 239.559 499.702 254.18 499.72C288.07 499.72 315.55 471.62 315.55 436.95C315.55 435.45 315.43 433.95 315.33 432.5H315.55C351.85 432.5 381.27 402.41 381.27 365.29C381.326 353.004 378.023 340.937 371.716 330.394C365.41 319.85 356.341 311.232 345.49 305.47V305.47Z" fill="url(#paint2_linear)"/>
<path d="M336 305.07C343.623 296.353 349.286 286.1 352.605 275.006C355.924 263.912 356.822 252.234 355.239 240.762C353.655 229.291 349.628 218.293 343.427 208.512C337.227 198.732 328.999 190.397 319.3 184.07C324.306 176.323 326.967 167.294 326.96 158.07C326.96 131.94 306.25 110.75 280.69 110.75C259.69 110.75 241.91 125.14 236.3 144.81C230.283 134.487 221.674 125.914 211.326 119.94C200.978 113.966 189.249 110.798 177.3 110.75C139.22 110.75 108.35 142.32 108.35 181.26C108.34 189.556 109.768 197.791 112.57 205.6C111.17 205.49 109.77 205.38 108.35 205.38C77.75 205.37 53 230.7 53 262C53 263.93 53.1 265.83 53.28 267.71C40.8405 273.288 30.29 282.36 22.9116 293.823C15.5332 305.287 11.645 318.647 11.72 332.28C11.72 371.1 42.49 402.56 80.44 402.56C84.4271 402.555 88.406 402.197 92.33 401.49C92.13 403.83 92 406.2 92 408.59C92 452.14 126.52 487.45 169.11 487.45C184.847 487.47 200.198 482.576 213.02 473.45C223.34 482.479 236.588 487.454 250.3 487.45C282.11 487.45 307.91 461.07 307.91 428.53C307.91 427.12 307.8 425.74 307.7 424.35H307.91C341.98 424.35 369.6 396.1 369.6 361.26C369.659 349.72 366.56 338.383 360.637 328.479C354.715 318.574 346.194 310.479 336 305.07Z" fill="#00897B"/>
<path d="M214.35 215.07H196.44V660.58H214.35V215.07Z" fill="url(#paint3_linear)"/>
<path d="M210.54 221.33H201.53V660.58H210.54V221.33Z" fill="#795548"/>
<path d="M274.642 270.931L200.712 350.768L207.323 356.89L281.253 277.053L274.642 270.931Z" fill="#795548"/>
<path d="M130.047 361.93L124.675 369.164L201.328 426.091L206.7 418.858L130.047 361.93Z" fill="#795548"/>
<path d="M233 355C220.906 342.131 214.163 325.141 214.14 307.48C214.14 282.04 227.97 259.74 248.75 247.17C244.074 240.348 241.572 232.271 241.57 224C241.57 200.71 261.11 181.83 285.22 181.83C305.08 181.83 321.81 194.65 327.1 212.19C333.052 202.827 341.284 195.13 351.025 189.819C360.766 184.509 371.696 181.76 382.79 181.83C418.72 181.83 447.79 209.97 447.79 244.68C447.789 252.093 446.434 259.444 443.79 266.37C445.11 266.27 446.43 266.18 447.79 266.18C476.63 266.18 500 288.76 500 316.62C499.998 318.32 499.908 320.019 499.73 321.71C522.79 331.31 538.94 353.46 538.94 379.26C538.94 413.86 509.94 441.9 474.1 441.9C470.339 441.88 466.586 441.546 462.88 440.9C463.07 442.99 463.19 445.09 463.19 447.23C463.19 486.05 430.62 517.52 390.44 517.52C375.713 517.547 361.311 513.189 349.07 505C339.153 513.131 326.715 517.558 313.89 517.52C283.89 517.52 259.54 494.01 259.54 465.01C259.54 463.75 259.64 462.52 259.73 461.28H259.54C227.4 461.28 201.34 436.1 201.34 405.05C201.34 383.23 214.23 364.32 233 355Z" fill="url(#paint4_linear)"/>
<path d="M238.91 354.77C227.351 342.442 220.916 326.179 220.91 309.28C220.91 284.93 234.15 263.59 254.04 251.56C249.541 245.023 247.131 237.275 247.13 229.34C247.13 207.05 265.84 188.97 288.91 188.97C307.91 188.97 323.91 201.24 329 218.03C334.696 209.082 342.569 201.725 351.881 196.648C361.194 191.571 371.643 188.94 382.25 189C416.64 189 444.51 215.93 444.51 249.15C444.517 256.248 443.225 263.287 440.7 269.92C441.96 269.83 443.22 269.73 444.51 269.73C472.11 269.73 494.51 291.35 494.51 318.01C494.511 319.637 494.427 321.262 494.26 322.88C516.33 332.07 531.79 353.27 531.79 377.96C531.79 411.07 504.01 437.96 469.73 437.96C466.133 437.94 462.544 437.619 459 437C459.18 439 459.29 441 459.29 443.06C459.29 480.22 428.11 510.34 389.66 510.34C375.544 510.37 361.74 506.193 350.01 498.34C340.521 506.128 328.616 510.371 316.34 510.34C287.61 510.34 264.34 487.84 264.34 460.08C264.34 458.88 264.44 457.7 264.53 456.51H264.34C233.57 456.51 208.63 432.41 208.63 402.69C208.58 381.79 220.91 363.69 238.91 354.77Z" fill="#009688"/>
<path d="M366.8 284.4H346.43V658.32H366.8V284.4Z" fill="url(#paint5_linear)"/>
<path d="M362.58 284.4H351.32V658.32H362.58V284.4Z" fill="#795548"/>
<path d="M295.334 324.341L287.294 332.223L354.063 400.335L362.104 392.452L295.334 324.341Z" fill="#795548"/>
<path d="M424.072 401.732L354.855 450.306L361.323 459.523L430.54 410.949L424.072 401.732Z" fill="#795548"/>
<path d="M813.21 350H311C299.53 350 290.24 355.16 290.24 361.54V730.22H834V361.54C834 355.16 824.68 350 813.21 350Z" fill="url(#paint6_linear)"/>
<path d="M560.52 139.04L298.53 333.64V716.16H824.08V347.52L560.52 139.04Z" fill="white"/>
<path d="M561.04 372.91C593.26 372.91 619.38 346.79 619.38 314.57C619.38 282.35 593.26 256.23 561.04 256.23C528.82 256.23 502.7 282.35 502.7 314.57C502.7 346.79 528.82 372.91 561.04 372.91Z" fill="url(#paint7_linear)"/>
<path d="M451.66 427.08H348.53V530.21H451.66V427.08Z" fill="url(#paint8_linear)"/>
<path d="M771.47 427.08H668.34V530.21H771.47V427.08Z" fill="url(#paint9_linear)"/>
<path d="M248 430.7L234.03 352.56L561.67 100.75L886 357.59L877 427.7L561.62 189.72L248 430.7Z" fill="url(#paint10_linear)"/>
<path d="M248.64 415.01L239.03 361.02L561.59 109.32L881 361.04L871.33 414.98L561.54 170.84L248.64 415.01Z" fill="#0E04A7"/>
<path d="M623.55 543.75H497.5V716.16H623.55V543.75Z" fill="url(#paint11_linear)"/>
<path d="M619.9 547.4H501.14V716.16H619.9V547.4Z" fill="#0E04A7"/>
<path d="M449.06 430.72H353.22V464.58H449.06V430.72Z" fill="#0E04A7"/>
<path opacity="0.2" d="M449.06 464.58H353.22V526.56H449.06V464.58Z" fill="#6C63FF"/>
<path d="M767.83 430.72H671.99V464.58H767.83V430.72Z" fill="#0E04A7"/>
<path opacity="0.2" d="M767.83 464.58H671.99V526.56H767.83V464.58Z" fill="#6C63FF"/>
<path d="M560.52 367.18C567.501 367.18 574.414 365.804 580.864 363.131C587.313 360.458 593.172 356.54 598.106 351.601C603.041 346.662 606.953 340.799 609.62 334.347C612.287 327.896 613.657 320.981 613.65 314H507.39C507.383 320.981 508.753 327.896 511.42 334.347C514.087 340.799 518 346.662 522.934 351.601C527.868 356.54 533.727 360.458 540.176 363.131C546.626 365.804 553.539 367.18 560.52 367.18V367.18Z" fill="#0E04A7"/>
<path opacity="0.2" d="M560.52 260.92C546.438 260.92 532.931 266.511 522.969 276.464C513.007 286.417 507.403 299.918 507.39 314H613.65C613.637 299.918 608.033 286.417 598.071 276.464C588.109 266.511 574.602 260.92 560.52 260.92V260.92Z" fill="#6C63FF"/>
<path opacity="0.2" d="M560.52 260.92C546.438 260.92 532.931 266.511 522.969 276.464C513.007 286.417 507.403 299.918 507.39 314H613.65C613.637 299.918 608.033 286.417 598.071 276.464C588.109 266.511 574.602 260.92 560.52 260.92V260.92Z" fill="#6C63FF"/>
<path d="M592.29 643.76C599.194 643.76 604.79 638.164 604.79 631.26C604.79 624.356 599.194 618.76 592.29 618.76C585.386 618.76 579.79 624.356 579.79 631.26C579.79 638.164 585.386 643.76 592.29 643.76Z" fill="url(#paint12_linear)"/>
<path d="M592.29 640.64C597.47 640.64 601.67 636.44 601.67 631.26C601.67 626.08 597.47 621.88 592.29 621.88C587.11 621.88 582.91 626.08 582.91 631.26C582.91 636.44 587.11 640.64 592.29 640.64Z" fill="#152CF7"/>
<path d="M635 691.68H481.87V741.68H635V691.68Z" fill="url(#paint13_linear)"/>
<path d="M631.87 695.84H484.99V738.55H631.87V695.84Z" fill="white"/>
<path d="M338.53 576.37C342.271 572.089 345.049 567.055 346.677 561.608C348.306 556.161 348.746 550.428 347.969 544.796C347.191 539.165 345.215 533.765 342.172 528.963C339.129 524.161 335.091 520.068 330.33 516.96C332.792 513.149 334.098 508.707 334.09 504.17C334.229 498.632 332.334 493.235 328.765 488.999C325.195 484.763 320.197 481.982 314.716 481.18C309.234 480.379 303.649 481.613 299.016 484.649C294.383 487.686 291.023 492.314 289.57 497.66C286.614 492.586 282.382 488.372 277.295 485.438C272.208 482.503 266.443 480.949 260.57 480.93C241.87 480.93 226.71 496.43 226.71 515.56C226.699 519.65 227.399 523.71 228.78 527.56C228.09 527.51 227.41 527.45 226.71 527.45C211.71 527.45 199.53 539.89 199.53 555.24C199.53 556.19 199.53 557.12 199.67 558.05C193.562 560.79 188.381 565.245 184.757 570.875C181.134 576.504 179.224 583.065 179.26 589.76C179.26 608.82 194.37 624.27 213.01 624.27C214.969 624.266 216.923 624.089 218.85 623.74C218.75 624.89 218.69 626.05 218.69 627.23C218.69 648.62 235.69 665.96 256.56 665.96C264.29 665.962 271.827 663.549 278.12 659.06C283.185 663.504 289.692 665.956 296.43 665.96C312.05 665.96 324.72 652.96 324.72 637.03C324.72 636.34 324.67 635.66 324.62 634.98H324.72C341.45 634.98 355.01 621.11 355.01 603.98C355.044 598.312 353.526 592.743 350.621 587.876C347.716 583.01 343.535 579.03 338.53 576.37V576.37Z" fill="url(#paint14_linear)"/>
<path d="M334.15 576.19C337.662 572.171 340.271 567.446 341.8 562.332C343.329 557.219 343.742 551.837 343.012 546.55C342.282 541.263 340.426 536.194 337.569 531.686C334.711 527.178 330.92 523.336 326.45 520.42C328.76 516.845 329.986 512.677 329.98 508.42C330.111 503.221 328.333 498.155 324.982 494.178C321.631 490.201 316.94 487.59 311.794 486.837C306.648 486.085 301.405 487.244 297.056 490.095C292.707 492.946 289.553 497.291 288.19 502.31C285.417 497.553 281.449 493.602 276.681 490.848C271.912 488.095 266.507 486.634 261 486.61C243.45 486.61 229.22 501.16 229.22 519.11C229.217 522.935 229.877 526.731 231.17 530.33C230.53 530.33 229.88 530.23 229.22 530.23C215.13 530.23 203.71 541.91 203.71 556.32C203.71 557.21 203.71 558.09 203.84 558.95C198.107 561.521 193.244 565.702 189.842 570.986C186.441 576.269 184.647 582.427 184.68 588.71C184.68 606.6 198.86 621.11 216.36 621.11C218.198 621.109 220.031 620.945 221.84 620.62C221.75 621.7 221.69 622.79 221.69 623.89C221.69 643.97 237.6 660.24 257.23 660.24C264.487 660.241 271.563 657.976 277.47 653.76C282.225 657.933 288.334 660.235 294.66 660.24C309.33 660.24 321.21 648.08 321.21 633.08C321.21 632.43 321.16 631.79 321.11 631.15H321.21C336.91 631.15 349.65 618.15 349.65 602.07C349.673 596.753 348.24 591.531 345.508 586.969C342.776 582.407 338.848 578.68 334.15 576.19V576.19Z" fill="#00897B"/>
<path d="M278.08 534.71H269.82V740.07H278.08V534.71Z" fill="url(#paint15_linear)"/>
<path d="M276.32 537.59H272.17V740.07H276.32V537.59Z" fill="#795548"/>
<path d="M305.882 560.416L271.801 597.22L274.846 600.04L308.927 563.236L305.882 560.416Z" fill="#795548"/>
<path d="M239.216 602.42L236.742 605.752L272.074 631.992L274.548 628.66L239.216 602.42Z" fill="#795548"/>
<path d="M286.69 599.21C281.111 593.278 278.003 585.443 278 577.3C278.037 571.678 279.53 566.162 282.334 561.29C285.138 556.418 289.158 552.356 294 549.5C291.833 546.353 290.672 542.621 290.67 538.8C290.67 528.06 299.67 519.36 310.79 519.36C315.085 519.31 319.283 520.645 322.76 523.167C326.238 525.688 328.812 529.262 330.1 533.36C332.843 529.043 336.637 525.494 341.127 523.045C345.617 520.596 350.656 519.328 355.77 519.36C372.33 519.36 385.77 532.36 385.77 548.36C385.772 551.778 385.148 555.167 383.93 558.36C384.54 558.36 385.15 558.27 385.77 558.27C399.06 558.27 409.84 568.68 409.84 581.52C409.841 582.305 409.801 583.089 409.72 583.87C415.019 586.009 419.564 589.671 422.78 594.393C425.997 599.116 427.74 604.686 427.79 610.4C427.79 626.35 414.41 639.28 397.9 639.28C396.167 639.278 394.438 639.131 392.73 638.84C392.82 639.84 392.87 640.77 392.87 641.76C392.87 659.65 377.87 674.16 359.33 674.16C352.531 674.178 345.881 672.17 340.23 668.39C335.649 672.126 329.911 674.152 324 674.12C310.16 674.12 298.95 663.28 298.95 649.91C298.95 649.33 298.95 648.76 299.04 648.19H298.95C284.13 648.19 272.12 636.58 272.12 622.27C272.155 617.45 273.538 612.735 276.113 608.66C278.688 604.585 282.352 601.311 286.69 599.21Z" fill="url(#paint16_linear)"/>
<path d="M289.4 599.1C284.056 593.413 281.081 585.904 281.08 578.1C281.111 572.723 282.533 567.447 285.209 562.783C287.885 558.12 291.723 554.229 296.35 551.49C294.275 548.478 293.163 544.908 293.16 541.25C293.16 530.97 301.78 522.64 312.42 522.64C316.528 522.598 320.541 523.877 323.868 526.287C327.195 528.698 329.66 532.113 330.9 536.03C333.527 531.9 337.159 528.505 341.456 526.163C345.754 523.821 350.576 522.609 355.47 522.64C371.32 522.64 384.17 535.05 384.17 550.37C384.171 553.641 383.575 556.884 382.41 559.94C382.99 559.94 383.57 559.85 384.17 559.85C396.89 559.85 407.17 569.85 407.17 582.11C407.169 582.862 407.129 583.613 407.05 584.36C412.122 586.406 416.473 589.91 419.553 594.43C422.632 598.95 424.302 604.281 424.35 609.75C424.35 625.01 411.54 637.39 395.74 637.39C394.064 637.391 392.392 637.251 390.74 636.97C390.83 637.89 390.88 638.82 390.88 639.76C390.88 656.89 376.51 670.76 358.78 670.76C352.273 670.779 345.909 668.857 340.5 665.24C336.124 668.826 330.637 670.777 324.98 670.76C311.74 670.76 300.98 660.39 300.98 647.59C300.98 647.04 300.98 646.49 301.07 645.95H300.98C286.8 645.95 275.3 634.84 275.3 621.14C275.353 616.515 276.702 611.998 279.195 608.102C281.688 604.205 285.223 601.087 289.4 599.1V599.1Z" fill="#009688"/>
<path d="M348.35 566.66H338.96V739.02H348.35V566.66Z" fill="url(#paint17_linear)"/>
<path d="M346.41 566.66H341.22V739.02H346.41V566.66Z" fill="#795548"/>
<path d="M315.41 585.077L311.704 588.711L342.485 620.11L346.191 616.477L315.41 585.077Z" fill="#795548"/>
<path d="M374.761 620.737L342.854 643.128L345.836 647.377L377.743 624.985L374.761 620.737Z" fill="#795548"/>
<path d="M89.22 503.76L156.78 573.98L233.22 503.76" stroke="#37474F" stroke-miterlimit="10"/>
<path d="M67.89 468.2H22.56V748.2H67.89V468.2Z" fill="url(#paint18_linear)"/>
<path d="M64.33 473.53H26.11V738.42H64.33V473.53Z" fill="#F5F5F5"/>
<path d="M283 479.76H11V528.65H283V479.76Z" fill="url(#paint19_linear)"/>
<path d="M14.56 485.09L14.56 523.31H279.45V485.09H14.56Z" fill="#F5F5F5"/>
<path d="M45.67 511.76C50.0883 511.76 53.67 508.178 53.67 503.76C53.67 499.342 50.0883 495.76 45.67 495.76C41.2517 495.76 37.67 499.342 37.67 503.76C37.67 508.178 41.2517 511.76 45.67 511.76Z" fill="url(#paint20_linear)"/>
<path d="M259.89 511.76C264.308 511.76 267.89 508.178 267.89 503.76C267.89 499.342 264.308 495.76 259.89 495.76C255.472 495.76 251.89 499.342 251.89 503.76C251.89 508.178 255.472 511.76 259.89 511.76Z" fill="url(#paint21_linear)"/>
<path d="M45.67 509.98C49.1052 509.98 51.89 507.195 51.89 503.76C51.89 500.325 49.1052 497.54 45.67 497.54C42.2348 497.54 39.45 500.325 39.45 503.76C39.45 507.195 42.2348 509.98 45.67 509.98Z" fill="#E6E6E6"/>
<path d="M259.89 509.98C263.325 509.98 266.11 507.195 266.11 503.76C266.11 500.325 263.325 497.54 259.89 497.54C256.455 497.54 253.67 500.325 253.67 503.76C253.67 507.195 256.455 509.98 259.89 509.98Z" fill="#E6E6E6"/>
<path d="M247.45 569.53H75.89V685.97H247.45V569.53Z" fill="url(#paint22_linear)"/>
<path d="M246.11 570.87H77.22V682.87H246.11V570.87Z" fill="#0E04A7"/>
<path d="M215.89 588.64H96.78V599.31H215.89V588.64Z" fill="white"/>
<path d="M203 609.53H118.56V620.2H203V609.53Z" fill="white"/>
<path d="M210.11 630.42H107.89V641.09H210.11V630.42Z" fill="white"/>
<path d="M217.22 651.31H98.11V661.98H217.22V651.31Z" fill="white"/>
<path d="M735.74 608.47C732.341 604.578 729.818 600.002 728.339 595.051C726.86 590.1 726.461 584.889 727.168 579.771C727.875 574.652 729.672 569.745 732.438 565.38C735.204 561.016 738.874 557.295 743.2 554.47C740.961 551.005 739.773 546.966 739.78 542.84C739.646 537.8 741.364 532.887 744.61 529.029C747.856 525.171 752.403 522.638 757.392 521.909C762.38 521.179 767.463 522.304 771.677 525.071C775.892 527.837 778.945 532.053 780.26 536.92C782.947 532.308 786.794 528.478 791.417 525.81C796.041 523.142 801.282 521.728 806.62 521.71C823.62 521.71 837.4 535.81 837.4 553.19C837.406 556.895 836.77 560.573 835.52 564.06C836.14 564.06 836.77 563.96 837.4 563.96C851.05 563.96 862.11 575.27 862.11 589.23C862.11 590.09 862.11 590.94 861.98 591.78C867.534 594.27 872.246 598.321 875.541 603.439C878.836 608.557 880.573 614.523 880.54 620.61C880.54 637.94 866.8 651.99 849.86 651.99C848.079 651.987 846.302 651.826 844.55 651.51C844.64 652.51 844.7 653.61 844.7 654.68C844.7 674.13 829.29 689.89 810.27 689.89C803.24 689.894 796.384 687.702 790.66 683.62C786.051 687.662 780.13 689.89 774 689.89C759.8 689.89 748.28 678.11 748.28 663.58C748.28 662.95 748.28 662.33 748.37 661.71H748.28C733.07 661.71 720.74 649.1 720.74 633.54C720.717 628.391 722.102 623.333 724.746 618.915C727.39 614.496 731.192 610.884 735.74 608.47V608.47Z" fill="url(#paint23_linear)"/>
<path d="M739.72 608.31C736.527 604.657 734.155 600.361 732.765 595.712C731.376 591.064 731 586.171 731.663 581.364C732.327 576.558 734.014 571.95 736.612 567.852C739.21 563.754 742.657 560.261 746.72 557.61C744.617 554.361 743.502 550.571 743.51 546.7C743.388 541.971 745.002 537.362 748.049 533.743C751.096 530.125 755.363 527.748 760.044 527.063C764.724 526.378 769.493 527.433 773.449 530.027C777.405 532.621 780.272 536.574 781.51 541.14C784.032 536.81 787.641 533.215 791.981 530.71C796.321 528.205 801.239 526.878 806.25 526.86C822.25 526.86 835.14 540.09 835.14 556.41C835.144 559.887 834.545 563.338 833.37 566.61C833.96 566.61 834.54 566.52 835.14 566.52C847.95 566.52 858.33 577.14 858.33 590.24C858.33 591.05 858.33 591.85 858.21 592.63C863.424 594.967 867.846 598.769 870.938 603.573C874.031 608.377 875.661 613.977 875.63 619.69C875.63 635.96 862.74 649.14 846.83 649.14C845.153 649.138 843.48 648.988 841.83 648.69C841.92 649.69 841.97 650.69 841.97 651.69C841.97 669.94 827.5 684.74 809.65 684.74C803.053 684.741 796.62 682.682 791.25 678.85C786.929 682.641 781.378 684.734 775.63 684.74C762.3 684.74 751.49 673.69 751.49 660.05C751.49 659.46 751.49 658.88 751.58 658.3H751.49C737.21 658.3 725.64 646.46 725.64 631.86C725.615 627.024 726.914 622.273 729.396 618.122C731.878 613.971 735.448 610.578 739.72 608.31Z" fill="#00897B"/>
<path d="M798.2 570.59H790.69V757.3H798.2V570.59Z" fill="url(#paint24_linear)"/>
<path d="M796.07 573.21H792.29V757.3H796.07V573.21Z" fill="#795548"/>
<path d="M765.434 594.081L762.66 596.649L793.643 630.107L796.416 627.539L765.434 594.081Z" fill="#795548"/>
<path d="M826.031 632.115L793.903 655.976L796.156 659.01L828.285 635.149L826.031 632.115Z" fill="#795548"/>
<path d="M782.86 629.23C787.929 623.835 790.753 616.713 790.76 609.31C790.737 604.198 789.389 599.179 786.848 594.743C784.307 590.307 780.659 586.605 776.26 584C778.221 581.135 779.267 577.742 779.26 574.27C779.26 564.51 771.07 556.59 760.97 556.59C757.068 556.55 753.256 557.764 750.096 560.055C746.937 562.345 744.596 565.589 743.42 569.31C740.925 565.387 737.475 562.161 733.392 559.936C729.31 557.712 724.729 556.56 720.08 556.59C705.02 556.59 692.82 568.38 692.82 582.93C692.818 586.036 693.384 589.117 694.49 592.02C693.94 592.02 693.38 591.94 692.82 591.94C680.74 591.94 670.94 601.4 670.94 613.08C670.94 613.791 670.977 614.502 671.05 615.21C666.232 617.153 662.099 620.483 659.174 624.776C656.249 629.07 654.664 634.135 654.62 639.33C654.62 653.83 666.79 665.58 681.79 665.58C683.365 665.578 684.937 665.444 686.49 665.18C686.41 666.05 686.36 666.94 686.36 667.83C686.36 684.1 700.01 697.29 716.85 697.29C723.03 697.305 729.074 695.477 734.21 692.04C738.37 695.48 743.602 697.359 749 697.35C761.58 697.35 771.78 687.5 771.78 675.35C771.78 674.82 771.78 674.35 771.7 673.79H771.78C785.25 673.79 796.17 663.24 796.17 650.22C796.138 645.826 794.873 641.53 792.52 637.819C790.167 634.109 786.82 631.133 782.86 629.23V629.23Z" fill="url(#paint25_linear)"/>
<path d="M780.4 629.14C785.266 623.981 787.983 617.162 788 610.07C787.972 605.183 786.679 600.386 784.247 596.146C781.814 591.907 778.325 588.37 774.12 585.88C776.007 583.142 777.018 579.895 777.02 576.57C777.02 567.23 769.18 559.65 759.51 559.65C755.774 559.612 752.125 560.775 749.1 562.968C746.075 565.161 743.835 568.267 742.71 571.83C740.322 568.074 737.02 564.986 733.112 562.856C729.205 560.726 724.82 559.623 720.37 559.65C705.96 559.65 694.28 570.94 694.28 584.86C694.279 587.833 694.821 590.782 695.88 593.56C695.35 593.56 694.82 593.48 694.28 593.48C682.71 593.48 673.34 602.54 673.34 613.71C673.343 614.378 673.38 615.046 673.45 615.71C668.839 617.57 664.883 620.755 662.083 624.863C659.283 628.972 657.765 633.818 657.72 638.79C657.72 652.67 669.36 663.92 683.72 663.92C685.228 663.919 686.733 663.792 688.22 663.54C688.14 664.38 688.1 665.22 688.1 666.08C688.1 681.65 701.17 694.28 717.28 694.28C723.194 694.302 728.98 692.562 733.9 689.28C737.881 692.534 742.869 694.301 748.01 694.28C760.01 694.28 769.81 684.85 769.81 673.22C769.81 672.72 769.81 672.22 769.73 671.73H769.81C782.7 671.73 793.16 661.63 793.16 649.17C793.115 644.973 791.896 640.872 789.641 637.332C787.386 633.793 784.185 630.955 780.4 629.14Z" fill="#009688"/>
<path d="M735.35 599.65H726.81V756.36H735.35V599.65Z" fill="url(#paint26_linear)"/>
<path d="M733.29 599.65H728.57V756.36H733.29V599.65Z" fill="#795548"/>
<path d="M756.753 616.392L728.773 644.935L732.143 648.239L760.124 619.696L756.753 616.392Z" fill="#795548"/>
<path d="M702.801 648.842L700.09 652.705L729.099 673.063L731.81 669.2L702.801 648.842Z" fill="#795548"/>
</g>
<defs>
<linearGradient id="paint0_linear" x1="709" y1="237.54" x2="768" y2="237.54" gradientUnits="userSpaceOnUse">
<stop stop-color="#808080" stop-opacity="0.25"/>
<stop offset="0.54" stop-color="#808080" stop-opacity="0.12"/>
<stop offset="1" stop-color="#808080" stop-opacity="0.1"/>
</linearGradient>
<linearGradient id="paint1_linear" x1="90521" y1="12100" x2="90521" y2="0" gradientUnits="userSpaceOnUse">
<stop stop-color="#F0DC27" stop-opacity="0.25"/>
<stop offset="0.54" stop-color="#808080" stop-opacity="0.12"/>
<stop offset="1" stop-color="#808080" stop-opacity="0.1"/>
</linearGradient>
<linearGradient id="paint2_linear" x1="132545" y1="224724" x2="132545" y2="63673.9" gradientUnits="userSpaceOnUse">
<stop stop-color="#808080" stop-opacity="0.25"/>
<stop offset="0.54" stop-color="#808080" stop-opacity="0.12"/>
<stop offset="1" stop-color="#808080" stop-opacity="0.1"/>
</linearGradient>
<linearGradient id="paint3_linear" x1="3875.15" y1="294510" x2="3875.15" y2="96030.9" gradientUnits="userSpaceOnUse">
<stop stop-color="#808080" stop-opacity="0.25"/>
<stop offset="0.54" stop-color="#808080" stop-opacity="0.12"/>
<stop offset="1" stop-color="#808080" stop-opacity="0.1"/>
</linearGradient>
<linearGradient id="paint4_linear" x1="178174" y1="194054" x2="178174" y2="81345.3" gradientUnits="userSpaceOnUse">
<stop stop-color="#808080" stop-opacity="0.25"/>
<stop offset="0.54" stop-color="#808080" stop-opacity="0.12"/>
<stop offset="1" stop-color="#808080" stop-opacity="0.1"/>
</linearGradient>
<linearGradient id="paint5_linear" x1="7610.57" y1="246447" x2="7610.57" y2="106627" gradientUnits="userSpaceOnUse">
<stop stop-color="#808080" stop-opacity="0.25"/>
<stop offset="0.54" stop-color="#808080" stop-opacity="0.12"/>
<stop offset="1" stop-color="#808080" stop-opacity="0.1"/>
</linearGradient>
<linearGradient id="paint6_linear" x1="391297" y1="300807" x2="391297" y2="156240" gradientUnits="userSpaceOnUse">
<stop stop-color="#808080" stop-opacity="0.25"/>
<stop offset="0.54" stop-color="#808080" stop-opacity="0.12"/>
<stop offset="1" stop-color="#808080" stop-opacity="0.1"/>
</linearGradient>
<linearGradient id="paint7_linear" x1="65964.8" y1="43767.4" x2="65964.8" y2="30153.1" gradientUnits="userSpaceOnUse">
<stop stop-color="#808080" stop-opacity="0.25"/>
<stop offset="0.54" stop-color="#808080" stop-opacity="0.12"/>
<stop offset="1" stop-color="#808080" stop-opacity="0.1"/>
</linearGradient>
<linearGradient id="paint8_linear" x1="41609.8" y1="55107.7" x2="41609.8" y2="44471.9" gradientUnits="userSpaceOnUse">
<stop stop-color="#808080" stop-opacity="0.25"/>
<stop offset="0.54" stop-color="#808080" stop-opacity="0.12"/>
<stop offset="1" stop-color="#808080" stop-opacity="0.1"/>
</linearGradient>
<linearGradient id="paint9_linear" x1="74911.6" y1="55107.7" x2="74911.6" y2="44471.9" gradientUnits="userSpaceOnUse">
<stop stop-color="#808080" stop-opacity="0.25"/>
<stop offset="0.54" stop-color="#808080" stop-opacity="0.12"/>
<stop offset="1" stop-color="#808080" stop-opacity="0.1"/>
</linearGradient>
<linearGradient id="paint10_linear" x1="365344" y1="142210" x2="365344" y2="33343.2" gradientUnits="userSpaceOnUse">
<stop stop-color="#808080" stop-opacity="0.25"/>
<stop offset="0.54" stop-color="#808080" stop-opacity="0.12"/>
<stop offset="1" stop-color="#808080" stop-opacity="0.1"/>
</linearGradient>
<linearGradient id="paint11_linear" x1="71151" y1="124017" x2="71151" y2="94291.7" gradientUnits="userSpaceOnUse">
<stop stop-color="#808080" stop-opacity="0.25"/>
<stop offset="0.54" stop-color="#808080" stop-opacity="0.12"/>
<stop offset="1" stop-color="#808080" stop-opacity="0.1"/>
</linearGradient>
<linearGradient id="paint12_linear" x1="15387" y1="16712.8" x2="15387" y2="16087.8" gradientUnits="userSpaceOnUse">
<stop stop-color="#808080" stop-opacity="0.25"/>
<stop offset="0.54" stop-color="#808080" stop-opacity="0.12"/>
<stop offset="1" stop-color="#808080" stop-opacity="0.1"/>
</linearGradient>
<linearGradient id="paint13_linear" x1="85995.8" y1="37775.7" x2="85995.8" y2="35275.7" gradientUnits="userSpaceOnUse">
<stop stop-color="#808080" stop-opacity="0.25"/>
<stop offset="0.54" stop-color="#808080" stop-opacity="0.12"/>
<stop offset="1" stop-color="#808080" stop-opacity="0.1"/>
</linearGradient>
<linearGradient id="paint14_linear" x1="74724.1" y1="134798" x2="74724.1" y2="100569" gradientUnits="userSpaceOnUse">
<stop stop-color="#808080" stop-opacity="0.25"/>
<stop offset="0.54" stop-color="#808080" stop-opacity="0.12"/>
<stop offset="1" stop-color="#808080" stop-opacity="0.1"/>
</linearGradient>
<linearGradient id="paint15_linear" x1="2532.64" y1="152515" x2="2532.64" y2="110343" gradientUnits="userSpaceOnUse">
<stop stop-color="#808080" stop-opacity="0.25"/>
<stop offset="0.54" stop-color="#808080" stop-opacity="0.12"/>
<stop offset="1" stop-color="#808080" stop-opacity="0.1"/>
</linearGradient>
<linearGradient id="paint16_linear" x1="79182.8" y1="114162" x2="79182.8" y2="90205.1" gradientUnits="userSpaceOnUse">
<stop stop-color="#808080" stop-opacity="0.25"/>
<stop offset="0.54" stop-color="#808080" stop-opacity="0.12"/>
<stop offset="1" stop-color="#808080" stop-opacity="0.1"/>
</linearGradient>
<linearGradient id="paint17_linear" x1="3565.84" y1="127946" x2="3565.84" y2="98236.2" gradientUnits="userSpaceOnUse">
<stop stop-color="#808080" stop-opacity="0.25"/>
<stop offset="0.54" stop-color="#808080" stop-opacity="0.12"/>
<stop offset="1" stop-color="#808080" stop-opacity="0.1"/>
</linearGradient>
<linearGradient id="paint18_linear" x1="2072.38" y1="209964" x2="2072.38" y2="131564" gradientUnits="userSpaceOnUse">
<stop stop-color="#808080" stop-opacity="0.25"/>
<stop offset="0.54" stop-color="#808080" stop-opacity="0.12"/>
<stop offset="1" stop-color="#808080" stop-opacity="0.1"/>
</linearGradient>
<linearGradient id="paint19_linear" x1="39995" y1="26325" x2="39995" y2="23935.2" gradientUnits="userSpaceOnUse">
<stop stop-color="#808080" stop-opacity="0.25"/>
<stop offset="0.54" stop-color="#808080" stop-opacity="0.12"/>
<stop offset="1" stop-color="#808080" stop-opacity="0.1"/>
</linearGradient>
<linearGradient id="paint20_linear" x1="768.39" y1="8683.92" x2="768.39" y2="8427.92" gradientUnits="userSpaceOnUse">
<stop stop-color="#808080" stop-opacity="0.25"/>
<stop offset="0.54" stop-color="#808080" stop-opacity="0.12"/>
<stop offset="1" stop-color="#808080" stop-opacity="0.1"/>
</linearGradient>
<linearGradient id="paint21_linear" x1="4410.13" y1="8683.92" x2="4410.13" y2="8427.92" gradientUnits="userSpaceOnUse">
<stop stop-color="#808080" stop-opacity="0.25"/>
<stop offset="0.54" stop-color="#808080" stop-opacity="0.12"/>
<stop offset="1" stop-color="#808080" stop-opacity="0.1"/>
</linearGradient>
<linearGradient id="paint22_linear" x1="13095.6" y1="73665.9" x2="42526.7" y2="73665.9" gradientUnits="userSpaceOnUse">
<stop stop-color="#808080" stop-opacity="0.25"/>
<stop offset="0.54" stop-color="#808080" stop-opacity="0.12"/>
<stop offset="1" stop-color="#808080" stop-opacity="0.1"/>
</linearGradient>
<linearGradient id="paint23_linear" x1="-79549" y1="126652" x2="-79549" y2="98362.7" gradientUnits="userSpaceOnUse">
<stop stop-color="#808080" stop-opacity="0.25"/>
<stop offset="0.54" stop-color="#808080" stop-opacity="0.12"/>
<stop offset="1" stop-color="#808080" stop-opacity="0.1"/>
</linearGradient>
<linearGradient id="paint24_linear" x1="-3294.41" y1="153109" x2="-3294.41" y2="118248" gradientUnits="userSpaceOnUse">
<stop stop-color="#808080" stop-opacity="0.25"/>
<stop offset="0.54" stop-color="#808080" stop-opacity="0.12"/>
<stop offset="1" stop-color="#808080" stop-opacity="0.1"/>
</linearGradient>
<linearGradient id="paint25_linear" x1="-80999.5" y1="107162" x2="-80999.5" y2="87355.4" gradientUnits="userSpaceOnUse">
<stop stop-color="#808080" stop-opacity="0.25"/>
<stop offset="0.54" stop-color="#808080" stop-opacity="0.12"/>
<stop offset="1" stop-color="#808080" stop-opacity="0.1"/>
</linearGradient>
<linearGradient id="paint26_linear" x1="-4293.6" y1="128471" x2="-4293.6" y2="103913" gradientUnits="userSpaceOnUse">
<stop stop-color="#808080" stop-opacity="0.25"/>
<stop offset="0.54" stop-color="#808080" stop-opacity="0.12"/>
<stop offset="1" stop-color="#808080" stop-opacity="0.1"/>
</linearGradient>
<clipPath id="clip0">
<rect width="886" height="757.3" fill="white"/>
</clipPath>
</defs>
</svg>
