<svg xmlns="http://www.w3.org/2000/svg" viewBox="0 0 500 500"><g id="freepik--background-complete--inject-12"><rect y="382.4" width="500" height="0.25" style="fill:#ebebeb"></rect><rect x="288.4" y="396.34" width="33.12" height="0.25" style="fill:#ebebeb"></rect><rect x="407.08" y="393.63" width="8.69" height="0.25" style="fill:#ebebeb"></rect><rect x="327.67" y="389.21" width="68.92" height="0.25" style="fill:#ebebeb"></rect><rect x="194.84" y="395.11" width="30.3" height="0.25" style="fill:#ebebeb"></rect><rect x="166.72" y="395.11" width="19.22" height="0.25" style="fill:#ebebeb"></rect><rect x="52.46" y="390.89" width="46.84" height="0.25" style="fill:#ebebeb"></rect><path d="M237,337.8H43.91a5.71,5.71,0,0,1-5.7-5.71V60.66A5.71,5.71,0,0,1,43.91,55H237a5.71,5.71,0,0,1,5.71,5.71V332.09A5.71,5.71,0,0,1,237,337.8ZM43.91,55.2a5.46,5.46,0,0,0-5.45,5.46V332.09a5.46,5.46,0,0,0,5.45,5.46H237a5.47,5.47,0,0,0,5.46-5.46V60.66A5.47,5.47,0,0,0,237,55.2Z" style="fill:#ebebeb"></path><path d="M453.31,337.8H260.21a5.72,5.72,0,0,1-5.71-5.71V60.66A5.72,5.72,0,0,1,260.21,55h193.1A5.71,5.71,0,0,1,459,60.66V332.09A5.71,5.71,0,0,1,453.31,337.8ZM260.21,55.2a5.47,5.47,0,0,0-5.46,5.46V332.09a5.47,5.47,0,0,0,5.46,5.46h193.1a5.47,5.47,0,0,0,5.46-5.46V60.66a5.47,5.47,0,0,0-5.46-5.46Z" style="fill:#ebebeb"></path><path d="M438.68,169.11a4.13,4.13,0,0,0-4.12-4.12H306.22a4.13,4.13,0,0,0-4.12,4.12v13.26H438.68Z" style="fill:#e6e6e6"></path><path d="M408.48,173.68a3.12,3.12,0,1,1-3.11-3.11A3.12,3.12,0,0,1,408.48,173.68Z" style="fill:#fff"></path><path d="M419.52,173.68a3.12,3.12,0,1,1-3.12-3.11A3.12,3.12,0,0,1,419.52,173.68Z" style="fill:#fff"></path><circle cx="427.44" cy="173.68" r="3.12" style="fill:#fff"></circle><path d="M306.22,271.69H434.56a4.13,4.13,0,0,0,4.12-4.12v-85.2H302.1v85.2A4.13,4.13,0,0,0,306.22,271.69Z" style="fill:#f0f0f0"></path><path d="M449.1,200.3a4.13,4.13,0,0,0-4.12-4.12H316.64a4.13,4.13,0,0,0-4.12,4.12v13.26H449.1Z" style="fill:#f0f0f0"></path><path d="M418.91,204.87a3.12,3.12,0,1,1-3.12-3.12A3.12,3.12,0,0,1,418.91,204.87Z" style="fill:#e6e6e6"></path><path d="M429.94,204.87a3.12,3.12,0,1,1-3.11-3.12A3.12,3.12,0,0,1,429.94,204.87Z" style="fill:#e6e6e6"></path><path d="M441,204.87a3.12,3.12,0,1,1-3.11-3.12A3.12,3.12,0,0,1,441,204.87Z" style="fill:#e6e6e6"></path><path d="M316.64,302.88H445a4.13,4.13,0,0,0,4.12-4.12v-85.2H312.52v85.2A4.13,4.13,0,0,0,316.64,302.88Z" style="fill:#fafafa"></path><path d="M49.66,73.41a3.92,3.92,0,0,1,3.91-3.9H222a3.92,3.92,0,0,1,3.91,3.9V86H49.66Z" style="fill:#e0e0e0"></path><path d="M81.26,81a3.21,3.21,0,1,1,3.21-3.21A3.21,3.21,0,0,1,81.26,81Zm0-5.91a2.7,2.7,0,1,0,2.7,2.7A2.7,2.7,0,0,0,81.26,75.05Z" style="fill:#fff"></path><path d="M70.79,81A3.21,3.21,0,1,1,74,77.75,3.21,3.21,0,0,1,70.79,81Zm0-5.91a2.7,2.7,0,1,0,2.7,2.7A2.7,2.7,0,0,0,70.79,75.05Z" style="fill:#fff"></path><path d="M60.32,81a3.21,3.21,0,1,1,3.21-3.21A3.21,3.21,0,0,1,60.32,81Zm0-5.91a2.7,2.7,0,1,0,2.7,2.7A2.7,2.7,0,0,0,60.32,75.05Z" style="fill:#fff"></path><path d="M53.57,190.56H222a3.92,3.92,0,0,0,3.91-3.91V86H49.66V186.65A3.92,3.92,0,0,0,53.57,190.56Z" style="fill:#ebebeb"></path><path d="M91.91,99.81a3.92,3.92,0,0,1,3.91-3.9h168.4a3.92,3.92,0,0,1,3.91,3.9v12.58H91.91Z" style="fill:#fafafa"></path><path d="M123.51,107.36a3.21,3.21,0,1,1,3.21-3.21A3.21,3.21,0,0,1,123.51,107.36Zm0-5.91a2.7,2.7,0,1,0,2.7,2.7A2.7,2.7,0,0,0,123.51,101.45Z" style="fill:#e6e6e6"></path><path d="M113,107.36a3.21,3.21,0,1,1,3.21-3.21A3.21,3.21,0,0,1,113,107.36Zm0-5.91a2.7,2.7,0,1,0,2.7,2.7A2.7,2.7,0,0,0,113,101.45Z" style="fill:#e6e6e6"></path><path d="M102.57,107.36a3.21,3.21,0,1,1,3.21-3.21A3.21,3.21,0,0,1,102.57,107.36Zm0-5.91a2.7,2.7,0,1,0,2.7,2.7A2.7,2.7,0,0,0,102.57,101.45Z" style="fill:#e6e6e6"></path><path d="M95.82,236.81h168.4a3.92,3.92,0,0,0,3.91-3.91V112.39H91.91V232.9A3.92,3.92,0,0,0,95.82,236.81Z" style="fill:#f5f5f5"></path><rect x="288.4" y="121.29" width="62" height="12.35" rx="1.3" style="fill:#e6e6e6"></rect><path d="M393.24,100.35,289.7,101a1.3,1.3,0,0,0-1.3,1.3l0,9.76a1.31,1.31,0,0,0,1.31,1.29l103.54-.65a1.3,1.3,0,0,0,1.29-1.3l0-9.76A1.29,1.29,0,0,0,393.24,100.35Z" style="fill:#f0f0f0"></path><rect x="288.4" y="80.05" width="83.44" height="12.35" rx="1.3" style="fill:#f0f0f0"></rect><rect x="60.8" y="280.11" width="21.85" height="8.2" rx="0.63" style="fill:#e6e6e6"></rect><path d="M97.75,266.57,61.26,267c-.26,0-.46.39-.46.86v6.48c0,.47.21.86.46.86l36.5-.44c.25,0,.46-.39.46-.86l0-6.48C98.21,267,98,266.57,97.75,266.57Z" style="fill:#f0f0f0"></path><rect x="60.8" y="253.47" width="29.41" height="8.2" rx="0.63" style="fill:#f0f0f0"></rect><path d="M97.75,306.54,61.26,307c-.26,0-.46.39-.46.86v6.48c0,.47.21.86.46.86l36.5-.44c.25,0,.46-.39.46-.86l0-6.48C98.21,306.93,98,306.54,97.75,306.54Z" style="fill:#f0f0f0"></path><rect x="60.8" y="293.44" width="29.41" height="8.2" rx="0.63" style="fill:#f0f0f0"></rect></g><g id="freepik--Windows--inject-12"><rect x="250.54" y="83.11" width="188.86" height="187.92" style="fill:#90CAF9"></rect><rect x="250.54" y="92.46" width="61.65" height="35.37" style="opacity:0.1"></rect><rect x="250.54" y="163.2" width="61.65" height="35.37" style="opacity:0.2"></rect><rect x="250.54" y="198.57" width="61.65" height="35.37" style="opacity:0.1"></rect><path d="M312.19,92.46H436.27a0,0,0,0,1,0,0V264a4.58,4.58,0,0,1-4.58,4.58H316.77a4.58,4.58,0,0,1-4.58-4.58V92.46a0,0,0,0,1,0,0Z" style="fill:#fff"></path><rect x="250.54" y="83.11" width="188.86" height="9.35" style="opacity:0.30000000000000004"></rect><circle cx="257.9" cy="87.79" r="1.9" style="fill:#90CAF9;opacity:0.8"></circle><circle cx="266.57" cy="87.79" r="1.9" style="fill:#90CAF9;opacity:0.8"></circle><circle cx="275.23" cy="87.79" r="1.9" style="fill:#90CAF9;opacity:0.8"></circle><rect x="321.77" y="110.09" width="78.01" height="62.54" rx="2.85" style="fill:#90CAF9;opacity:0.2"></rect><rect x="368.9" y="105.12" width="59.92" height="48.04" rx="2.19" style="fill:#90CAF9;opacity:0.2"></rect><rect x="337.83" y="192.81" width="59.92" height="48.04" rx="2.19" style="fill:#90CAF9;opacity:0.2"></rect><rect x="250.54" y="83.11" width="188.86" height="187.92" style="fill:#fff;opacity:0.7000000000000001"></rect><rect x="233.2" y="100.45" width="188.86" height="187.92" style="fill:#90CAF9"></rect><rect x="233.2" y="109.8" width="61.65" height="35.37" style="opacity:0.1"></rect><rect x="233.2" y="180.53" width="61.65" height="35.37" style="opacity:0.2"></rect><rect x="233.2" y="215.9" width="61.65" height="35.37" style="opacity:0.1"></rect><path d="M294.85,109.8H418.93a0,0,0,0,1,0,0V281.33a4.58,4.58,0,0,1-4.58,4.58H299.44a4.58,4.58,0,0,1-4.58-4.58V109.8A0,0,0,0,1,294.85,109.8Z" style="fill:#fff"></path><rect x="233.2" y="100.45" width="188.86" height="9.35" style="opacity:0.30000000000000004"></rect><circle cx="240.56" cy="105.12" r="1.9" style="fill:#90CAF9;opacity:0.8"></circle><circle cx="249.23" cy="105.12" r="1.9" style="fill:#90CAF9;opacity:0.8"></circle><circle cx="257.9" cy="105.12" r="1.9" style="fill:#90CAF9;opacity:0.8"></circle><rect x="304.44" y="127.43" width="78.01" height="62.54" rx="2.85" style="fill:#90CAF9;opacity:0.2"></rect><rect x="352.48" y="176.84" width="59.92" height="48.04" rx="2.19" style="fill:#90CAF9;opacity:0.2"></rect><rect x="320.5" y="210.15" width="59.92" height="48.04" rx="2.19" style="fill:#90CAF9;opacity:0.2"></rect><rect x="233.2" y="100.45" width="188.86" height="187.92" style="fill:#fff;opacity:0.5"></rect><rect x="215.87" y="117.78" width="188.86" height="187.92" style="fill:#90CAF9"></rect><rect x="215.87" y="127.13" width="61.65" height="35.37" style="opacity:0.1"></rect><rect x="215.87" y="197.87" width="61.65" height="35.37" style="opacity:0.2"></rect><rect x="215.87" y="233.24" width="61.65" height="35.37" style="opacity:0.1"></rect><path d="M277.52,127.13H401.6a0,0,0,0,1,0,0V298.67a4.58,4.58,0,0,1-4.58,4.58H282.1a4.58,4.58,0,0,1-4.58-4.58V127.13A0,0,0,0,1,277.52,127.13Z" style="fill:#fff"></path><rect x="215.87" y="117.78" width="188.86" height="9.35" style="opacity:0.30000000000000004"></rect><circle cx="223.23" cy="122.46" r="1.9" style="fill:#90CAF9;opacity:0.8"></circle><path d="M233.8,122.46a1.91,1.91,0,1,1-1.91-1.9A1.9,1.9,0,0,1,233.8,122.46Z" style="fill:#90CAF9;opacity:0.8"></path><circle cx="240.56" cy="122.46" r="1.9" style="fill:#90CAF9;opacity:0.8"></circle><rect x="205.42" y="113.17" width="117.21" height="93.97" rx="4.28" style="fill:#90CAF9;opacity:0.2"></rect><rect x="290.38" y="159.08" width="90.03" height="72.18" rx="3.29" style="fill:#90CAF9;opacity:0.2"></rect><rect x="320.5" y="248.23" width="90.03" height="72.18" rx="3.29" style="fill:#90CAF9;opacity:0.2"></rect></g></svg>