<svg xmlns="http://www.w3.org/2000/svg" viewBox="0 0 500 500"><g id="freepik--background-complete--inject-104"><rect y="382.4" width="500" height="0.25" style="fill:#ebebeb"></rect><rect x="394.36" y="393.85" width="50.9" height="0.25" style="fill:#ebebeb"></rect><rect x="52.46" y="390.89" width="47.21" height="0.25" style="fill:#ebebeb"></rect><rect x="378.81" y="389.21" width="19.19" height="0.25" style="fill:#ebebeb"></rect><rect x="317.14" y="395.84" width="14.08" height="0.25" style="fill:#ebebeb"></rect><rect x="272.79" y="395.84" width="35.44" height="0.25" style="fill:#ebebeb"></rect><rect x="195.22" y="391.62" width="56.99" height="0.25" style="fill:#ebebeb"></rect><path d="M237,337.8H43.91a5.71,5.71,0,0,1-5.7-5.71V60.66A5.71,5.71,0,0,1,43.91,55H237a5.71,5.71,0,0,1,5.71,5.71V332.09A5.71,5.71,0,0,1,237,337.8ZM43.91,55.2a5.46,5.46,0,0,0-5.45,5.46V332.09a5.46,5.46,0,0,0,5.45,5.46H237a5.47,5.47,0,0,0,5.46-5.46V60.66A5.47,5.47,0,0,0,237,55.2Z" style="fill:#ebebeb"></path><path d="M453.31,337.8H260.21a5.72,5.72,0,0,1-5.71-5.71V60.66A5.72,5.72,0,0,1,260.21,55h193.1A5.71,5.71,0,0,1,459,60.66V332.09A5.71,5.71,0,0,1,453.31,337.8ZM260.21,55.2a5.47,5.47,0,0,0-5.46,5.46V332.09a5.47,5.47,0,0,0,5.46,5.46h193.1a5.47,5.47,0,0,0,5.46-5.46V60.66a5.47,5.47,0,0,0-5.46-5.46Z" style="fill:#ebebeb"></path><rect x="77.01" y="81.58" width="140.63" height="124.81" transform="translate(294.65 287.96) rotate(180)" style="fill:#e6e6e6"></rect><rect x="73.88" y="81.58" width="140.63" height="124.81" transform="translate(288.4 287.96) rotate(180)" style="fill:#f5f5f5"></rect><rect x="88.1" y="79.27" width="112.21" height="129.41" transform="translate(288.18 -0.22) rotate(90)" style="fill:#fff"></rect><rect x="24.57" y="142.8" width="112.21" height="2.36" transform="translate(224.65 63.31) rotate(90)" style="fill:#e6e6e6"></rect><rect x="76.2" y="180.89" width="135.99" height="8.46" transform="translate(288.4 370.24) rotate(180)" style="fill:#f5f5f5"></rect><path d="M67.77,71.15h156a.86.86,0,0,1,.87.86h0a.87.87,0,0,1-.87.86h-156A.87.87,0,0,1,66.9,72h0A.86.86,0,0,1,67.77,71.15Z" style="fill:#e6e6e6"></path><path d="M64.74,72a2.16,2.16,0,1,0,2.16-2.16A2.16,2.16,0,0,0,64.74,72Z" style="fill:#e6e6e6"></path><path d="M216.47,76.85h0a1.18,1.18,0,0,0,1.17-1.17V73.17A1.17,1.17,0,0,0,216.47,72h0a1.16,1.16,0,0,0-1.16,1.16v2.51A1.17,1.17,0,0,0,216.47,76.85Z" style="fill:#e6e6e6"></path><path d="M80.79,76.85h0A1.18,1.18,0,0,0,82,75.68V73.17A1.17,1.17,0,0,0,80.79,72h0a1.16,1.16,0,0,0-1.16,1.16v2.51A1.17,1.17,0,0,0,80.79,76.85Z" style="fill:#e6e6e6"></path><rect x="68.04" y="72.01" width="144.15" height="122.16" transform="translate(280.24 266.18) rotate(180)" style="fill:#e0e0e0;opacity:0.4"></rect><path d="M200.43,72a2.16,2.16,0,1,0,2.16-2.16A2.16,2.16,0,0,0,200.43,72Z" style="fill:#e6e6e6"></path><rect x="180.31" y="244.63" width="31.94" height="131.56" transform="translate(392.57 620.82) rotate(180)" style="fill:#f0f0f0"></rect><rect x="83.47" y="376.19" width="122.66" height="6.21" transform="translate(289.59 758.59) rotate(180)" style="fill:#f0f0f0"></rect><rect x="77.33" y="244.63" width="102.98" height="131.56" style="fill:#f5f5f5"></rect><rect x="89.89" y="294.34" width="77.86" height="32.13" style="fill:#f0f0f0"></rect><rect x="89.89" y="332.34" width="77.86" height="32.13" style="fill:#f0f0f0"></rect><rect x="89.89" y="256.35" width="77.86" height="32.13" style="fill:#f0f0f0"></rect><rect x="73.08" y="233.83" width="107.24" height="10.8" transform="translate(253.39 478.46) rotate(180)" style="fill:#f0f0f0"></rect><rect x="180.31" y="233.83" width="36.4" height="10.8" style="fill:#e6e6e6"></rect><rect x="119.04" y="216.51" width="17.02" height="17.31" style="fill:#f0f0f0"></rect><rect x="88.85" y="216.51" width="30.19" height="17.31" transform="translate(207.88 450.34) rotate(180)" style="fill:#f5f5f5"></rect><rect x="88.67" y="219.12" width="47.38" height="1.4" style="fill:#e6e6e6;opacity:0.7000000000000001;mix-blend-mode:multiply"></rect><rect x="119.04" y="215.67" width="17.95" height="4.05" style="fill:#f0f0f0"></rect><rect x="87.91" y="215.67" width="31.13" height="4.05" transform="translate(206.94 435.38) rotate(180)" style="fill:#f5f5f5"></rect><rect x="179.48" y="216.51" width="17.02" height="17.31" style="fill:#f0f0f0"></rect><rect x="149.29" y="216.51" width="30.19" height="17.31" transform="translate(328.77 450.34) rotate(180)" style="fill:#f5f5f5"></rect><rect x="149.11" y="219.12" width="47.38" height="1.4" style="fill:#e6e6e6;opacity:0.7000000000000001;mix-blend-mode:multiply"></rect><rect x="179.48" y="215.67" width="17.95" height="4.05" style="fill:#f0f0f0"></rect><rect x="148.35" y="215.67" width="31.13" height="4.05" transform="translate(327.83 435.38) rotate(180)" style="fill:#f5f5f5"></rect><rect x="374.24" y="120.42" width="65.9" height="80.58" transform="translate(814.39 321.42) rotate(180)" style="fill:#f0f0f0"></rect><rect x="360.09" y="120.42" width="75.8" height="80.58" transform="translate(795.99 321.42) rotate(180)" style="fill:#f5f5f5"></rect><rect x="364.05" y="129.16" width="67.88" height="63.1" transform="translate(237.28 558.7) rotate(-90)" style="fill:#fff"></rect><rect x="380.51" y="144.45" width="34.98" height="32.51" rx="4.13" transform="translate(237.28 558.7) rotate(-90)" style="fill:#f5f5f5"></rect><rect x="288.92" y="82.96" width="65.9" height="80.58" transform="translate(643.73 246.5) rotate(180)" style="fill:#f0f0f0"></rect><rect x="274.76" y="82.96" width="75.8" height="80.58" transform="translate(625.33 246.5) rotate(180)" style="fill:#f5f5f5"></rect><rect x="278.72" y="91.7" width="67.88" height="63.1" transform="translate(189.42 435.91) rotate(-90)" style="fill:#fff"></rect><rect x="295.18" y="106.99" width="34.98" height="32.51" rx="8.94" transform="translate(189.42 435.91) rotate(-90)" style="fill:#f5f5f5"></rect><rect x="196.28" y="261.15" width="47.42" height="121.25" transform="translate(439.99 643.55) rotate(180)" style="fill:#e6e6e6"></rect><polygon points="201.05 382.4 196.28 382.4 196.28 365.89 206.06 365.89 201.05 382.4" style="fill:#f0f0f0"></polygon><rect x="270.6" y="261.15" width="47.42" height="121.25" transform="translate(588.63 643.55) rotate(180)" style="fill:#e6e6e6"></rect><rect x="196.28" y="261.15" width="78.48" height="111.12" transform="translate(471.05 633.41) rotate(180)" style="fill:#f0f0f0"></rect><rect x="199.98" y="266.07" width="71.08" height="30.47" transform="translate(471.05 562.62) rotate(180)" style="fill:#e6e6e6"></rect><path d="M228.56,275.54h10.72c4.65,0,9.1-3.76,12.3-10.39H216.26C219.46,271.78,223.91,275.54,228.56,275.54Z" style="fill:#f0f0f0"></path><polygon points="269.99 382.4 274.76 382.4 274.76 365.89 264.99 365.89 269.99 382.4" style="fill:#f0f0f0"></polygon><rect x="199.98" y="301.47" width="71.08" height="30.47" transform="translate(471.05 633.41) rotate(180)" style="fill:#e6e6e6"></rect><path d="M228.56,310.94h10.72c4.65,0,9.1-3.76,12.3-10.4H216.26C219.46,307.18,223.91,310.94,228.56,310.94Z" style="fill:#f0f0f0"></path><rect x="199.98" y="336.87" width="71.08" height="30.47" transform="translate(471.05 704.21) rotate(180)" style="fill:#e6e6e6"></rect><path d="M228.56,346.34h10.72c4.65,0,9.1-3.76,12.3-10.4H216.26C219.46,342.58,223.91,346.34,228.56,346.34Z" style="fill:#f0f0f0"></path><path d="M383.45,246.82l-8.53,29.95c.26,64.74-2.66,68.47-2.69,79.6h9C382.08,302.19,387.4,306.8,383.45,246.82Z" style="fill:#f0f0f0"></path><path d="M381.8,382.4h0a35.6,35.6,0,0,0,34.79-28,75.22,75.22,0,0,1,3.63-12.53l.27-.65H343.12l.27.65A74.25,74.25,0,0,1,347,354.36,35.61,35.61,0,0,0,381.8,382.4Z" style="fill:#fafafa"></path><polygon points="338.11 345.1 425.5 345.1 428 326.17 335.61 326.17 338.11 345.1" style="fill:#f0f0f0"></polygon><path d="M378.58,332.54c-3.23-62.39,37.94-66,54.25-44.9C441.49,310.29,380.44,368.42,378.58,332.54Z" style="fill:#f0f0f0"></path><path d="M378.64,306.73c-6.59-46.05,23.44-54.75,36.86-41.43C423.39,280.93,382.43,333.22,378.64,306.73Z" style="fill:#f0f0f0"></path><path d="M380.56,273.17c-6.83-29.06,11.87-36.33,21.2-28.58C407.69,254.13,384.49,289.88,380.56,273.17Z" style="fill:#f0f0f0"></path><path d="M374.36,293.88c11.84-35.34-10.57-46.52-23.06-38C342.82,267.1,367.55,314.2,374.36,293.88Z" style="fill:#f0f0f0"></path><path d="M381.47,275.87c17.21-33.05-3.18-47.59-16.86-41.09C354.5,244.49,371.57,294.88,381.47,275.87Z" style="fill:#f0f0f0"></path><path d="M377.11,328.59c8.48-54.47-27.33-61.33-43.55-44.32C323.91,303.38,372.23,359.91,377.11,328.59Z" style="fill:#f0f0f0"></path></g><g id="freepik--Shadow--inject-104"><ellipse id="freepik--path--inject-104" cx="250" cy="416.24" rx="193.89" ry="11.32" style="fill:#f5f5f5"></ellipse></g><g id="freepik--Spreadsheets--inject-104"><path d="M333.78,355.56,125.19,338.85a9.94,9.94,0,0,1-9.09-10.67l9.06-113.12A9.93,9.93,0,0,1,135.83,206l208.59,16.7a10,10,0,0,1,9.09,10.67l-9.06,113.13A10,10,0,0,1,333.78,355.56Z" style="fill:#90CAF9"></path><path d="M333.78,355.56,125.19,338.85a9.94,9.94,0,0,1-9.09-10.67l9.06-113.12A9.93,9.93,0,0,1,135.83,206l208.59,16.7a10,10,0,0,1,9.09,10.67l-9.06,113.13A10,10,0,0,1,333.78,355.56Z" style="opacity:0.4"></path><path d="M330.07,355.26l-208.59-16.7a10,10,0,0,1-9.09-10.67l9.06-113.13a10,10,0,0,1,10.67-9.09l208.59,16.7A10,10,0,0,1,349.8,233l-9.06,113.13A10,10,0,0,1,330.07,355.26Z" style="fill:#90CAF9"></path><path d="M338.25,341.45,115.6,323.62a1.65,1.65,0,0,1-1.52-1.77l7.77-97a1.65,1.65,0,0,1,1.77-1.52l222.66,17.83A1.66,1.66,0,0,1,347.8,243l-7.77,97A1.65,1.65,0,0,1,338.25,341.45Z" style="fill:#fff"></path><path d="M136.24,220.81a3.54,3.54,0,0,1-.46,0,5.67,5.67,0,1,1,.46,0Zm0-10.6a4.94,4.94,0,1,0,.39,0Z" style="fill:#fff"></path><path d="M152.64,222.12h-.46a6,6,0,1,1,.46,0Zm0-10.6a4.89,4.89,0,1,0,3.17,8.61,4.84,4.84,0,0,0,1.7-3.33h0a4.89,4.89,0,0,0-4.48-5.26Z" style="fill:#fff"></path><path d="M169,223.44l-.46,0a5.64,5.64,0,1,1,.46,0Zm0-10.6a4.82,4.82,0,1,0,.39,0Z" style="fill:#fff"></path><rect x="173.35" y="228.48" width="10.79" height="43" transform="translate(442.19 91.76) rotate(94.58)" style="fill:#90CAF9"></rect><rect x="267.9" y="250.03" width="10.79" height="43" transform="translate(565.78 20.78) rotate(94.58)" style="fill:#90CAF9"></rect><rect x="218.95" y="260.1" width="10.79" height="43" transform="translate(522.96 80.44) rotate(94.58)" style="fill:#90CAF9;opacity:0.5"></rect><rect x="168.9" y="284.06" width="10.79" height="43" transform="translate(492.79 156.21) rotate(94.58)" style="fill:#90CAF9;opacity:0.5"></rect><rect x="314.62" y="267.76" width="10.79" height="43" transform="translate(633.9 -6.65) rotate(94.58)" style="fill:#90CAF9"></rect><rect x="313.51" y="281.66" width="10.79" height="43" transform="translate(646.55 9.46) rotate(94.58)" style="fill:#90CAF9;opacity:0.5"></rect><rect x="264.56" y="291.72" width="10.79" height="43" transform="translate(603.73 69.12) rotate(94.58)" style="fill:#90CAF9"></rect><path d="M346.7,256.68l0-.49-47.59-3.81,1.19-14.87-.49,0-1.19,14.87-47.34-3.79,1.19-14.87-.5,0-1.19,14.87-47.34-3.79,1.19-14.87-.49,0L203,244.68l-47.34-3.79L156.84,226l-.49,0-1.19,14.87-34.37-2.75,0,.49,34.37,2.75L154,254.75,119.68,252l0,.5L154,255.24l-1.07,13.4-34.37-2.75,0,.49,34.37,2.76-1.07,13.4-34.37-2.75,0,.49L151.78,283l-1.08,13.41-34.36-2.76,0,.5,34.37,2.75-1.08,13.4-34.37-2.75,0,.49,34.36,2.76-1.23,15.41.49,0,1.24-15.42,47.34,3.8-1.24,15.41.5,0,1.23-15.42,47.34,3.79L244,333.9l.49,0,1.23-15.42,47.34,3.79-1.23,15.42.49,0,1.24-15.42,47.58,3.81,0-.49-47.58-3.81,1.07-13.4,47.59,3.81,0-.5L294.7,308l1.07-13.4,47.59,3.81,0-.49-47.59-3.81,1.08-13.41,47.58,3.81,0-.49-47.58-3.81,1.07-13.4,47.59,3.81,0-.5L298,266.27l1.07-13.4ZM250.78,249l-1.07,13.41-47.34-3.79,1.07-13.41Zm-50.63,37.41,1.07-13.4,47.34,3.79-1.07,13.4Zm47.3,4.28-1.08,13.41L199,300.3l1.08-13.4Zm-46.19-18.18,1.07-13.4,47.34,3.79-1.07,13.4Zm-45.65-31.13L203,245.17l-1.07,13.41-47.34-3.79Zm-1.11,13.9,47.34,3.79-1.08,13.4-47.34-3.79Zm-1.12,13.9L200.72,273l-1.07,13.4-47.34-3.79Zm-1.11,13.89,47.34,3.79-1.07,13.41-47.34-3.79Zm-2.18,27.3,1.07-13.4,47.34,3.79-1.07,13.4Zm47.83,3.83L199,300.8l47.34,3.79L245.26,318Zm95.17,7.62L245.75,318l1.08-13.4,47.34,3.79Zm1.12-13.9-47.34-3.79,1.07-13.4,47.34,3.79ZM295.32,294,248,290.24l1.07-13.4,47.34,3.79Zm1.11-13.9-47.34-3.79,1.07-13.4,47.34,3.79Zm1.11-13.89-47.34-3.79L251.28,249l47.34,3.79Z" style="fill:#e0e0e0"></path></g></svg>