<?xml version="1.0"?>
<svg xmlns="http://www.w3.org/2000/svg" xmlns:xlink="http://www.w3.org/1999/xlink" version="1.1" id="Capa_1" x="0px" y="0px" viewBox="0 0 512 512" style="enable-background:new 0 0 512 512;" xml:space="preserve" width="512px" height="512px"><g><g>
	<g>
		<path d="M191.863,200.398c-4.142,0-7.5,3.358-7.5,7.5v12.026c0,6.916-5.626,12.542-12.542,12.542s-12.542-5.626-12.542-12.542    V203.89c-0.001-6.915,5.626-12.542,12.542-12.542c4.142,0,7.5-3.358,7.5-7.5s-3.358-7.5-7.5-7.5    c-15.187,0-27.542,12.355-27.542,27.542v16.034c0,15.187,12.355,27.542,27.542,27.542s27.542-12.355,27.542-27.542v-12.026    C199.363,203.756,196.005,200.398,191.863,200.398z" data-original="#000000" class="active-path" data-old_color="#000000" fill="#5F7D95"/>
	</g>
</g><g>
	<g>
		<path d="M360.22,200.398c-4.142,0-7.5,3.358-7.5,7.5v12.026c0,6.916-5.626,12.542-12.542,12.542    c-6.916,0-12.543-5.626-12.543-12.542V203.89c0-6.915,5.627-12.542,12.543-12.542c4.142,0,7.5-3.358,7.5-7.5s-3.358-7.5-7.5-7.5    c-15.187,0-27.543,12.355-27.543,27.542v16.034c0,15.187,12.356,27.542,27.543,27.542c15.187,0,27.542-12.355,27.542-27.542    v-12.026C367.72,203.756,364.362,200.398,360.22,200.398z" data-original="#000000" class="active-path" data-old_color="#000000" fill="#5F7D95"/>
	</g>
</g><g>
	<g>
		<path d="M424.949,63.702C376.16,20.759,313.416-1.826,248.267,0.117c-65.44,1.947-126.988,28.528-173.305,74.846    C28.644,121.279,2.063,182.827,0.115,248.268C-1.824,313.414,20.757,376.162,63.7,424.951c1.482,1.685,3.552,2.545,5.633,2.545    c1.76,0,3.527-0.616,4.952-1.87c3.109-2.737,3.412-7.476,0.675-10.585c-40.422-45.925-61.677-104.994-59.852-166.327    c1.833-61.604,26.857-119.542,70.459-163.145C129.17,41.966,187.109,16.943,248.712,15.11    c61.335-1.824,120.401,19.43,166.327,59.852c3.109,2.736,7.848,2.435,10.585-0.675S428.059,66.438,424.949,63.702z" data-original="#000000" class="active-path" data-old_color="#000000" fill="#5F7D95"/>
	</g>
</g><g>
	<g>
		<path d="M448.3,87.052c-2.736-3.109-7.476-3.412-10.585-0.675c-3.109,2.736-3.412,7.476-0.675,10.585    c40.421,45.925,61.677,104.994,59.852,166.326c-1.833,61.604-26.856,119.542-70.459,163.145    c-43.603,43.603-101.541,68.625-163.145,70.459c-61.329,1.824-120.401-19.43-166.327-59.852    c-3.108-2.736-7.848-2.435-10.585,0.675c-2.737,3.109-2.435,7.849,0.675,10.585c46.854,41.239,106.579,63.7,168.941,63.7    c2.577,0,5.158-0.038,7.742-0.115c65.441-1.948,126.988-28.528,173.305-74.846c46.318-46.317,72.899-107.865,74.847-173.305    C513.823,198.588,491.242,135.84,448.3,87.052z" data-original="#000000" class="active-path" data-old_color="#000000" fill="#5F7D95"/>
	</g>
</g><g>
	<g>
		<path d="M255.971,288.586c-26.238,0-47.585,21.347-47.585,47.585v24.051c0,26.239,21.347,47.585,47.585,47.585    c26.239,0,47.585-21.347,47.585-47.585v-24.051C303.555,309.932,282.209,288.586,255.971,288.586z M288.557,360.222    c0,17.968-14.618,32.585-32.585,32.585c-17.967,0-32.585-14.618-32.585-32.585v-24.051c0-17.968,14.618-32.585,32.585-32.585    c17.967,0,32.585,14.618,32.585,32.585V360.222z" data-original="#000000" class="active-path" data-old_color="#000000" fill="#5F7D95"/>
	</g>
</g></g> </svg>
