<?xml version="1.0"?>
<svg xmlns="http://www.w3.org/2000/svg" xmlns:xlink="http://www.w3.org/1999/xlink" xmlns:svgjs="http://svgjs.com/svgjs" version="1.1" width="512" height="512" x="0" y="0" viewBox="0 0 36 36" style="enable-background:new 0 0 512 512" xml:space="preserve" class=""><g><g xmlns="http://www.w3.org/2000/svg" id="bg"><g><path d="m8.114 5.564c-1.805 6.677-6.504 10.327-7.374 13.545s-.847 10.475 13.955 14.477 19.432-4.501 20.388-8.041c4.481-16.572-23.772-31.807-26.969-19.981z" fill="#efefef" data-original="#efefef" style="" class=""/></g></g><g xmlns="http://www.w3.org/2000/svg" id="effect"><g><g><path d="m1.861 28.833h1v2h-1z" fill="#a4afc1" transform="matrix(.707 -.707 .707 .707 -20.404 10.407)" data-original="#a4afc1" style=""/></g><g><path d="m5.927 32.899h1v2h-1z" fill="#a4afc1" transform="matrix(.707 -.707 .707 .707 -22.088 14.473)" data-original="#a4afc1" style=""/></g><g><path d="m1.184 33.399h2v1h-2z" fill="#a4afc1" transform="matrix(.707 -.707 .707 .707 -23.331 11.473)" data-original="#a4afc1" style=""/></g></g><g><path d="m32.083 5.5c-.827 0-1.5-.673-1.5-1.5s.673-1.5 1.5-1.5 1.5.673 1.5 1.5-.673 1.5-1.5 1.5zm0-2c-.276 0-.5.224-.5.5s.224.5.5.5.5-.224.5-.5-.224-.5-.5-.5z" fill="#a4afc1" data-original="#a4afc1" style=""/></g></g><g xmlns="http://www.w3.org/2000/svg" id="color"><g><path d="m28.25 20.25h-12.5c-.552 0-1-.448-1-1v-2.5c0-.552.448-1 1-1h12.5c.552 0 1 .448 1 1v2.5c0 .552-.448 1-1 1z" fill="#2cb2ea" data-original="#2fdf84" style="" class=""/></g><g><path d="m28.25 29.25h-12.5c-.552 0-1-.448-1-1v-2.5c0-.552.448-1 1-1h12.5c.552 0 1 .448 1 1v2.5c0 .552-.448 1-1 1z" fill="#2cb2ea" data-original="#2fdf84" style="" class=""/></g><g><path d="m9 20.25c-1.243 0-2.25-1.007-2.25-2.25s1.007-2.25 2.25-2.25 2.25 1.007 2.25 2.25-1.007 2.25-2.25 2.25z" fill="#2cb2ea" data-original="#2fdf84" style="" class=""/></g><g><path d="m28.25 11.25h-12.5c-.552 0-1-.448-1-1v-2.5c0-.552.448-1 1-1h12.5c.552 0 1 .448 1 1v2.5c0 .552-.448 1-1 1z" fill="#f3f3f1" data-original="#f3f3f1" style="" class=""/></g><g><path d="m9 11.25c-1.243 0-2.25-1.007-2.25-2.25s1.007-2.25 2.25-2.25 2.25 1.007 2.25 2.25-1.007 2.25-2.25 2.25z" fill="#f3f3f1" data-original="#f3f3f1" style="" class=""/></g><g><path d="m9 29.25c-1.243 0-2.25-1.007-2.25-2.25s1.007-2.25 2.25-2.25 2.25 1.007 2.25 2.25-1.007 2.25-2.25 2.25z" fill="#2cb2ea" data-original="#2fdf84" style="" class=""/></g></g><g xmlns="http://www.w3.org/2000/svg" id="shadow"><g><circle cx="9" cy="9" fill="#d5dbe1" r="2.25" data-original="#d5dbe1" style="" class=""/></g><g><path d="m17 19.25v-2.5c0-.552.448-1 1-1h-2.25c-.552 0-1 .448-1 1v2.5c0 .552.448 1 1 1h2.25c-.552 0-1-.448-1-1z" fill="#cc0000" data-original="#00b871" style="" class=""/></g><g><path d="m17 28.25v-2.5c0-.552.448-1 1-1h-2.25c-.552 0-1 .448-1 1v2.5c0 .552.448 1 1 1h2.25c-.552 0-1-.448-1-1z" fill="#cc0000" data-original="#00b871" style="" class=""/></g><g><path d="m9 18c0-.831.455-1.548 1.125-1.938-.332-.193-.713-.312-1.125-.312-1.243 0-2.25 1.007-2.25 2.25s1.007 2.25 2.25 2.25c.412 0 .793-.119 1.125-.312-.67-.39-1.125-1.107-1.125-1.938z" fill="#cc0000" data-original="#00b871" style="" class=""/></g><g><path d="m17 10.25v-2.5c0-.552.448-1 1-1h-2.25c-.552 0-1 .448-1 1v2.5c0 .552.448 1 1 1h2.25c-.552 0-1-.448-1-1z" fill="#d5dbe1" data-original="#d5dbe1" style="" class=""/></g><g><path d="m11.25 11.25c-1.243 0-2.25-1.007-2.25-2.25s1.007-2.25 2.25-2.25 2.25 1.007 2.25 2.25-1.007 2.25-2.25 2.25z" fill="#d5dbe1" data-original="#d5dbe1" style="" class=""/></g><g><path d="m9 27c0-.831.455-1.548 1.125-1.938-.332-.193-.713-.312-1.125-.312-1.243 0-2.25 1.007-2.25 2.25s1.007 2.25 2.25 2.25c.412 0 .793-.119 1.125-.312-.67-.39-1.125-1.107-1.125-1.938z" fill="#cc0000" data-original="#00b871" style="" class=""/></g></g><g xmlns="http://www.w3.org/2000/svg" id="regular"><g><path d="m28.25 21h-12.5c-.965 0-1.75-.785-1.75-1.75v-2.5c0-.965.785-1.75 1.75-1.75h12.5c.965 0 1.75.785 1.75 1.75v2.5c0 .965-.785 1.75-1.75 1.75zm-12.5-4.5c-.138 0-.25.112-.25.25v2.5c0 .138.112.25.25.25h12.5c.138 0 .25-.112.25-.25v-2.5c0-.138-.112-.25-.25-.25z" fill="#000000" data-original="#000000" style="" class=""/></g><g><path d="m28.25 30h-12.5c-.965 0-1.75-.785-1.75-1.75v-2.5c0-.965.785-1.75 1.75-1.75h12.5c.965 0 1.75.785 1.75 1.75v2.5c0 .965-.785 1.75-1.75 1.75zm-12.5-4.5c-.138 0-.25.112-.25.25v2.5c0 .138.112.25.25.25h12.5c.138 0 .25-.112.25-.25v-2.5c0-.138-.112-.25-.25-.25z" fill="#000000" data-original="#000000" style="" class=""/></g><g><path d="m9 21c-1.654 0-3-1.346-3-3s1.346-3 3-3 3 1.346 3 3-1.346 3-3 3zm0-4.5c-.827 0-1.5.673-1.5 1.5s.673 1.5 1.5 1.5 1.5-.673 1.5-1.5-.673-1.5-1.5-1.5z" fill="#000000" data-original="#000000" style="" class=""/></g><g><path d="m28.25 12h-12.5c-.965 0-1.75-.785-1.75-1.75v-2.5c0-.965.785-1.75 1.75-1.75h12.5c.965 0 1.75.785 1.75 1.75v2.5c0 .965-.785 1.75-1.75 1.75zm-12.5-4.5c-.138 0-.25.112-.25.25v2.5c0 .138.112.25.25.25h12.5c.138 0 .25-.112.25-.25v-2.5c0-.138-.112-.25-.25-.25z" fill="#000000" data-original="#000000" style="" class=""/></g><g><path d="m9 12c-1.654 0-3-1.346-3-3s1.346-3 3-3 3 1.346 3 3-1.346 3-3 3zm0-4.5c-.827 0-1.5.673-1.5 1.5s.673 1.5 1.5 1.5 1.5-.673 1.5-1.5-.673-1.5-1.5-1.5z" fill="#000000" data-original="#000000" style="" class=""/></g><g><path d="m9 30c-1.654 0-3-1.346-3-3s1.346-3 3-3 3 1.346 3 3-1.346 3-3 3zm0-4.5c-.827 0-1.5.673-1.5 1.5s.673 1.5 1.5 1.5 1.5-.673 1.5-1.5-.673-1.5-1.5-1.5z" fill="#000000" data-original="#000000" style="" class=""/></g></g></g></svg>
