<svg width="200" height="200" viewBox="0 0 200 200" fill="none" xmlns="http://www.w3.org/2000/svg">
<path d="M200 152.96H0V153.06H200V152.96Z" fill="#EBEBEB"/>
<path d="M179.96 159.396H166.712V159.496H179.96V159.396Z" fill="#EBEBEB"/>
<path d="M132.488 160.484H129.012V160.584H132.488V160.484Z" fill="#EBEBEB"/>
<path d="M166.312 155.684H158.636V155.784H166.312V155.684Z" fill="#EBEBEB"/>
<path d="M38.2599 156.356H20.9839V156.456H38.2599V156.356Z" fill="#EBEBEB"/>
<path d="M44.356 156.356H41.824V156.456H44.356V156.356Z" fill="#EBEBEB"/>
<path d="M90.0599 158.044H52.5879V158.144H90.0599V158.044Z" fill="#EBEBEB"/>
<path d="M94.7999 135.12H17.5639C16.9589 135.119 16.379 134.878 15.9515 134.45C15.524 134.021 15.2839 133.441 15.2839 132.836V24.264C15.2892 23.6624 15.5316 23.0872 15.9585 22.6633C16.3854 22.2394 16.9623 22.001 17.5639 22H94.7999C95.4057 22 95.9866 22.2406 96.415 22.669C96.8433 23.0973 97.0839 23.6782 97.0839 24.284V132.836C97.0839 133.442 96.8433 134.023 96.415 134.451C95.9866 134.879 95.4057 135.12 94.7999 135.12ZM17.5639 22.08C16.9854 22.0811 16.4309 22.3116 16.0222 22.7211C15.6135 23.1306 15.3839 23.6855 15.3839 24.264V132.836C15.3839 133.415 15.6135 133.969 16.0222 134.379C16.4309 134.788 16.9854 135.019 17.5639 135.02H94.7999C95.3789 135.019 95.9337 134.789 96.3431 134.379C96.7524 133.97 96.9829 133.415 96.9839 132.836V24.264C96.9829 23.6851 96.7524 23.1302 96.3431 22.7208C95.9337 22.3115 95.3789 22.0811 94.7999 22.08H17.5639Z" fill="#EBEBEB"/>
<path d="M181.324 135.12H104.084C103.479 135.119 102.898 134.878 102.47 134.45C102.042 134.022 101.801 133.441 101.8 132.836V24.264C101.806 23.662 102.05 23.0868 102.477 22.663C102.905 22.2392 103.482 22.001 104.084 22H181.324C181.925 22.0021 182.501 22.2409 182.927 22.6647C183.353 23.0885 183.595 23.6631 183.6 24.264V132.836C183.6 133.44 183.361 134.02 182.934 134.448C182.507 134.876 181.928 135.118 181.324 135.12ZM104.084 22.08C103.505 22.0811 102.95 22.3115 102.541 22.7208C102.132 23.1302 101.901 23.6851 101.9 24.264V132.836C101.901 133.415 102.132 133.97 102.541 134.379C102.95 134.789 103.505 135.019 104.084 135.02H181.324C181.903 135.019 182.458 134.789 182.867 134.379C183.277 133.97 183.507 133.415 183.508 132.836V24.264C183.507 23.6851 183.277 23.1302 182.867 22.7208C182.458 22.3115 181.903 22.0811 181.324 22.08H104.084Z" fill="#EBEBEB"/>
<path d="M157.572 58.524L114.036 43.82L114 43.784L90.9999 20.208L72.5519 37.056L72.2839 36.76L91.0159 19.652L114.252 43.468L157.42 58.048L175.14 33.676L175.464 33.912L157.572 58.524Z" fill="#F0F0F0"/>
<path d="M22.2439 94.716C22.2439 95.1416 22.1177 95.5576 21.8813 95.9115C21.6448 96.2654 21.3087 96.5413 20.9155 96.7041C20.5223 96.867 20.0896 96.9096 19.6721 96.8266C19.2547 96.7436 18.8712 96.5386 18.5702 96.2376C18.2693 95.9367 18.0643 95.5532 17.9813 95.1358C17.8983 94.7183 17.9409 94.2857 18.1038 93.8924C18.2666 93.4992 18.5425 93.1631 18.8964 92.9266C19.2502 92.6902 19.6663 92.564 20.0919 92.564C20.6627 92.564 21.2101 92.7907 21.6136 93.1943C22.0172 93.5978 22.2439 94.1452 22.2439 94.716Z" fill="#F0F0F0"/>
<path d="M93.16 19.928C93.16 20.3536 93.0337 20.7697 92.7973 21.1236C92.5608 21.4775 92.2247 21.7533 91.8315 21.9162C91.4383 22.0791 91.0056 22.1217 90.5881 22.0387C90.1707 21.9556 89.7872 21.7507 89.4863 21.4497C89.1853 21.1487 88.9803 20.7653 88.8973 20.3478C88.8143 19.9304 88.8569 19.4977 89.0198 19.1045C89.1826 18.7112 89.4585 18.3751 89.8124 18.1387C90.1663 17.9022 90.5823 17.776 91.008 17.776C91.5787 17.776 92.1261 18.0027 92.5296 18.4063C92.9332 18.8099 93.16 19.3573 93.16 19.928Z" fill="#F0F0F0"/>
<path d="M177.452 33.792C177.452 34.2176 177.326 34.6337 177.089 34.9876C176.853 35.3415 176.517 35.6173 176.123 35.7802C175.73 35.9431 175.298 35.9857 174.88 35.9027C174.463 35.8196 174.079 35.6147 173.778 35.3137C173.477 35.0127 173.272 34.6293 173.189 34.2119C173.106 33.7944 173.149 33.3617 173.312 32.9685C173.475 32.5753 173.75 32.2392 174.104 32.0027C174.458 31.7662 174.874 31.64 175.3 31.64C175.871 31.64 176.418 31.8667 176.822 32.2703C177.225 32.6739 177.452 33.2213 177.452 33.792Z" fill="#F0F0F0"/>
<path d="M177.64 147.352C177.64 147.778 177.514 148.194 177.277 148.548C177.041 148.902 176.705 149.177 176.311 149.34C175.918 149.503 175.486 149.546 175.068 149.463C174.651 149.38 174.267 149.175 173.966 148.874C173.665 148.573 173.46 148.189 173.377 147.772C173.294 147.354 173.337 146.922 173.5 146.528C173.663 146.135 173.938 145.799 174.292 145.563C174.646 145.326 175.062 145.2 175.488 145.2C176.059 145.2 176.606 145.427 177.01 145.83C177.413 146.234 177.64 146.781 177.64 147.352Z" fill="#F0F0F0"/>
<path d="M116.296 43.644C116.296 44.0696 116.17 44.4857 115.933 44.8396C115.697 45.1935 115.361 45.4693 114.967 45.6322C114.574 45.7951 114.142 45.8377 113.724 45.7547C113.307 45.6716 112.923 45.4667 112.622 45.1657C112.321 44.8647 112.116 44.4813 112.033 44.0638C111.95 43.6464 111.993 43.2137 112.156 42.8205C112.319 42.4272 112.594 42.0911 112.948 41.8547C113.302 41.6182 113.718 41.492 114.144 41.492C114.715 41.492 115.262 41.7187 115.666 42.1223C116.069 42.5259 116.296 43.0733 116.296 43.644Z" fill="#F0F0F0"/>
<path d="M76.54 147.408L76.376 147.376L22.408 137.188L22.48 136.796L76.284 146.952L113.956 43.576L114.332 43.712L76.54 147.408Z" fill="#F0F0F0"/>
<path d="M24.992 53.1713L24.7268 53.4708L43.1396 69.7782L43.4048 69.4788L24.992 53.1713Z" fill="#F0F0F0"/>
<path d="M175.384 147.524L148.7 130.988L149.284 130.828L177.316 103.86L157.312 58.368L157.68 58.204L177.796 103.952L177.696 104.052L149.604 131.076L175.592 147.184L175.384 147.524Z" fill="#F0F0F0"/>
<path d="M22.612 137.1L22.276 136.88L38.404 111.972L19.812 94.724L19.948 94.58L43.232 69.368L43.372 69.448L149.484 130.836L149.284 131.18L43.308 69.876L20.376 94.704L38.92 111.908L22.612 137.1Z" fill="#F0F0F0"/>
<path d="M20.092 53.316C20.0913 54.2594 20.3703 55.1818 20.8939 55.9665C21.4175 56.7512 22.1622 57.3629 23.0336 57.7243C23.905 58.0857 24.864 58.1804 25.7893 57.9966C26.7145 57.8127 27.5645 57.3585 28.2315 56.6915C28.8986 56.0244 29.3528 55.1745 29.5366 54.2492C29.7205 53.3239 29.6257 52.3649 29.2643 51.4935C28.903 50.6221 28.2912 49.8775 27.5065 49.3539C26.7218 48.8303 25.7994 48.5512 24.856 48.552C24.2303 48.5515 23.6105 48.6743 23.0323 48.9136C22.4541 49.1528 21.9287 49.5037 21.4862 49.9462C21.0437 50.3887 20.6928 50.914 20.4536 51.4923C20.2144 52.0705 20.0915 52.6902 20.092 53.316Z" fill="#CC0000"/>
<path opacity="0.3" d="M25.5773 57.7506C28.0261 57.3531 29.689 55.0457 29.2915 52.5969C28.894 50.1481 26.5866 48.4852 24.1378 48.8827C21.689 49.2802 20.0261 51.5876 20.4236 54.0364C20.8211 56.4852 23.1285 58.1481 25.5773 57.7506Z" fill="white"/>
<path d="M22.1881 53.24C22.196 53.3955 22.254 53.5442 22.3535 53.6639C22.453 53.7836 22.5887 53.8679 22.7401 53.904C22.6651 54.1204 22.6651 54.3556 22.7401 54.572C22.8721 54.936 23.6081 54.936 23.6081 54.936C23.6363 55.0011 23.6826 55.0568 23.7414 55.0965C23.8002 55.1362 23.8692 55.1582 23.9401 55.16C23.9401 55.184 23.9761 55.2 23.9881 55.22L24.0921 55.364C24.1841 56.088 24.1681 56.848 23.8121 57.236C23.5041 57.268 23.1961 57.312 22.8881 57.36C22.7401 57.38 22.5961 57.408 22.4521 57.436C23.2742 57.9099 24.2191 58.1273 25.1656 58.0603C26.1121 57.9934 27.017 57.645 27.7641 57.06H27.3361C27.0881 57.06 26.8041 57.06 26.5001 57.06V57.04C26.3096 57.0324 26.1257 56.9682 25.9718 56.8556C25.818 56.7431 25.7011 56.5872 25.6361 56.408C25.5874 56.2488 25.5671 56.0823 25.5761 55.916C25.7142 55.8881 25.8485 55.8438 25.9761 55.784C26.3462 55.6008 26.6324 55.2832 26.7761 54.896C26.7989 54.8429 26.8177 54.788 26.8321 54.732C26.9479 54.2681 26.9831 53.7878 26.9361 53.312C27.0197 53.2637 27.0919 53.198 27.1478 53.1193C27.2037 53.0406 27.242 52.9508 27.2601 52.856C27.2936 52.7319 27.2771 52.5997 27.2143 52.4876C27.1515 52.3754 27.0474 52.2923 26.9241 52.256C27.0688 52.2207 27.1966 52.1356 27.285 52.0157C27.3735 51.8959 27.417 51.7487 27.4081 51.6C27.4202 51.5283 27.4167 51.4548 27.3979 51.3845C27.3791 51.3143 27.3454 51.2488 27.2991 51.1927C27.2528 51.1366 27.1951 51.0911 27.1297 51.0592C27.0643 51.0273 26.9928 51.0099 26.9201 51.008C26.9201 51.008 27.0921 50.76 26.7561 50.292C26.6705 50.1661 26.5402 50.0774 26.3917 50.044C26.2431 50.0106 26.0874 50.0349 25.9561 50.112C25.855 49.9625 25.7129 49.8453 25.5469 49.7744C25.381 49.7034 25.1981 49.6818 25.0201 49.712C24.8706 49.7324 24.7275 49.7861 24.6015 49.8692C24.4755 49.9523 24.3698 50.0626 24.2921 50.192C24.2921 50.192 24.2921 49.848 23.6321 50.04C23.4424 50.1091 23.2818 50.2405 23.1764 50.4126C23.0711 50.5848 23.0273 50.7877 23.0521 50.988C22.992 50.957 22.9261 50.9389 22.8586 50.9349C22.7911 50.931 22.7235 50.9412 22.6602 50.9649C22.5969 50.9887 22.5393 51.0254 22.491 51.0728C22.4428 51.1202 22.405 51.1771 22.3801 51.24C22.1521 51.716 22.6481 52.548 22.6481 52.548C22.5029 52.5918 22.3776 52.6849 22.2936 52.8112C22.2096 52.9375 22.1723 53.0892 22.1881 53.24Z" fill="#CC0000"/>
<path opacity="0.7" d="M20.092 53.316C20.0913 54.2594 20.3703 55.1818 20.8939 55.9665C21.4175 56.7512 22.1622 57.3629 23.0336 57.7243C23.905 58.0857 24.864 58.1804 25.7893 57.9966C26.7145 57.8127 27.5645 57.3585 28.2315 56.6915C28.8986 56.0244 29.3528 55.1745 29.5366 54.2492C29.7205 53.3239 29.6257 52.3649 29.2643 51.4935C28.903 50.6221 28.2912 49.8775 27.5065 49.3539C26.7218 48.8303 25.7994 48.5512 24.856 48.552C24.2303 48.5515 23.6105 48.6743 23.0323 48.9136C22.4541 49.1528 21.9287 49.5037 21.4862 49.9462C21.0437 50.3887 20.6928 50.914 20.4536 51.4923C20.2144 52.0705 20.0915 52.6902 20.092 53.316Z" fill="white"/>
<path d="M22.444 141.228C24.7835 141.228 26.68 139.332 26.68 136.992C26.68 134.653 24.7835 132.756 22.444 132.756C20.1045 132.756 18.208 134.653 18.208 136.992C18.208 139.332 20.1045 141.228 22.444 141.228Z" fill="#CC0000"/>
<path opacity="0.3" d="M26.4399 136.992C26.4399 137.783 26.2053 138.556 25.7658 139.214C25.3263 139.872 24.7016 140.385 23.9707 140.688C23.2398 140.99 22.4355 141.069 21.6596 140.915C20.8837 140.761 20.1709 140.38 19.6115 139.82C19.0521 139.261 18.6711 138.548 18.5168 137.772C18.3625 136.996 18.4417 136.192 18.7444 135.461C19.0472 134.73 19.5599 134.106 20.2177 133.666C20.8755 133.227 21.6488 132.992 22.4399 132.992C22.9664 132.988 23.4885 133.088 23.9757 133.288C24.4629 133.487 24.9056 133.782 25.2779 134.154C25.6502 134.526 25.9446 134.969 26.1441 135.456C26.3437 135.943 26.4442 136.466 26.4399 136.992Z" fill="white"/>
<path d="M25.6001 139.44C24.976 140.242 24.0701 140.776 23.0665 140.934C22.0628 141.093 21.0366 140.863 20.1961 140.292C20.3281 139.988 20.412 139.804 20.412 139.804C20.91 139.647 21.4177 139.522 21.9321 139.432C22.0826 139.303 22.2626 139.214 22.4561 139.172C22.5385 138.873 22.5287 138.557 22.4281 138.264C22.2716 138.156 22.136 138.021 22.0281 137.864C21.9455 137.805 21.8727 137.733 21.8121 137.652C21.6881 137.6 20.8401 137.204 20.7961 135.812C20.7921 135.756 20.7921 135.7 20.7961 135.644C20.5321 135.616 20.256 135.7 20.448 136.236C20.776 137.16 20.448 137.644 20.448 137.644C20.4554 137.44 20.4447 137.235 20.4161 137.032C20.4161 137.988 19.9001 138.048 19.9001 138.048C19.9001 138.048 20.2281 137.704 19.7441 136.644C19.2601 135.584 19.4001 134.14 20.3241 134.08C20.5159 134.064 20.7088 134.095 20.8863 134.17C21.0638 134.244 21.2208 134.36 21.3441 134.508C21.5838 134.285 21.8883 134.144 22.2134 134.106C22.5385 134.068 22.8673 134.135 23.1521 134.296C23.1521 134.296 23.9801 134.096 24.2161 134.296C24.2641 134.344 24.2161 134.452 24.1281 134.596C24.3661 134.755 24.5326 135 24.5921 135.28C24.645 135.501 24.652 135.73 24.6128 135.954C24.5736 136.177 24.4889 136.39 24.3641 136.58C24.4761 137.628 24.2961 138.416 23.4601 138.488C23.4601 138.516 23.4601 138.54 23.4601 138.568C23.4601 138.596 23.4601 138.64 23.4601 138.672C23.4507 138.824 23.4711 138.976 23.5201 139.12C23.6384 139.143 23.7547 139.175 23.8681 139.216C24.6161 139.216 25.4681 139.296 25.4681 139.296C25.516 139.34 25.5601 139.388 25.6001 139.44Z" fill="#CC0000"/>
<path opacity="0.7" d="M22.444 141.228C24.7835 141.228 26.68 139.332 26.68 136.992C26.68 134.653 24.7835 132.756 22.444 132.756C20.1045 132.756 18.208 134.653 18.208 136.992C18.208 139.332 20.1045 141.228 22.444 141.228Z" fill="white"/>
<path d="M180.861 107.211C182.687 105.385 182.687 102.424 180.861 100.598C179.035 98.7717 176.074 98.7717 174.248 100.598C172.422 102.424 172.422 105.385 174.248 107.211C176.074 109.037 179.035 109.037 180.861 107.211Z" fill="#CC0000"/>
<path opacity="0.3" d="M181.964 103.904C181.964 104.774 181.706 105.625 181.223 106.349C180.739 107.072 180.052 107.636 179.248 107.969C178.444 108.302 177.559 108.389 176.706 108.219C175.852 108.05 175.068 107.631 174.453 107.015C173.837 106.4 173.418 105.616 173.249 104.762C173.079 103.909 173.166 103.024 173.499 102.22C173.832 101.416 174.396 100.729 175.12 100.246C175.843 99.7621 176.694 99.504 177.564 99.504C178.731 99.504 179.85 99.9676 180.675 100.793C181.5 101.618 181.964 102.737 181.964 103.904Z" fill="white"/>
<path d="M181.224 106.348C180.889 106.853 180.454 107.283 179.945 107.611C179.436 107.94 178.865 108.16 178.267 108.258C177.669 108.355 177.058 108.328 176.471 108.179C175.884 108.029 175.334 107.76 174.856 107.388C174.831 107.147 174.839 106.903 174.88 106.664C174.936 106.128 175.556 105.692 175.548 105.316C175.54 104.94 174.908 104.452 175.312 104.232C175.716 104.012 175.804 103.176 175.48 102.708C175.297 102.513 175.197 102.255 175.202 101.987C175.206 101.72 175.315 101.465 175.504 101.276C175.807 100.914 176.236 100.68 176.704 100.62C177.11 100.428 177.564 100.363 178.008 100.432C178.47 100.469 178.915 100.62 179.304 100.872C179.604 101.08 179.838 101.368 179.98 101.704C180.264 102.3 180.313 102.982 180.116 103.612C179.896 104.244 180.876 104.208 180.916 104.784C180.956 105.36 180.456 105.396 180.544 105.784C180.572 105.96 180.912 106.128 181.224 106.348Z" fill="#CC0000"/>
<path opacity="0.7" d="M180.861 107.211C182.687 105.385 182.687 102.424 180.861 100.598C179.035 98.7717 176.074 98.7717 174.248 100.598C172.422 102.424 172.422 105.385 174.248 107.211C176.074 109.037 179.035 109.037 180.861 107.211Z" fill="white"/>
<path d="M157.318 57.2631L121.639 72.7323L121.798 73.0993L157.477 57.6301L157.318 57.2631Z" fill="#CC0000"/>
<path d="M72.5862 36.8007L72.2461 37.0112L87.5022 61.6552L87.8423 61.4446L72.5862 36.8007Z" fill="#CC0000"/>
<path d="M77.344 102.419L37.7668 110.709L37.8488 111.1L77.426 102.811L77.344 102.419Z" fill="#CC0000"/>
<path opacity="0.8" d="M157.318 57.2631L121.639 72.7323L121.798 73.0993L157.477 57.6301L157.318 57.2631Z" fill="white"/>
<path d="M126.462 96.0751L126.123 96.2875L148.897 132.634L149.236 132.422L126.462 96.0751Z" fill="#CC0000"/>
<path opacity="0.8" d="M126.462 96.0751L126.123 96.2875L148.897 132.634L149.236 132.422L126.462 96.0751Z" fill="white"/>
<path opacity="0.8" d="M72.5862 36.8007L72.2461 37.0112L87.5022 61.6552L87.8423 61.4446L72.5862 36.8007Z" fill="white"/>
<path opacity="0.8" d="M77.344 102.419L37.7668 110.709L37.8488 111.1L77.426 102.811L77.344 102.419Z" fill="white"/>
<path d="M76.3521 147.396L37.6001 110.968L43.0801 69.536L43.1241 69.488L72.3241 36.72H72.4001L125.308 29.4L157.616 57.4V57.504L149.248 132.7L149.104 132.728L76.3521 147.396ZM38.0241 110.82L76.4761 146.964L148.876 132.364L157.2 57.536L125.2 29.816L72.5201 37.096L43.4601 69.708L38.0241 110.82Z" fill="#CC0000"/>
<path opacity="0.8" d="M76.3521 147.396L37.6001 110.968L43.0801 69.536L43.1241 69.488L72.3241 36.72H72.4001L125.308 29.4L157.616 57.4V57.504L149.248 132.7L149.104 132.728L76.3521 147.396ZM38.0241 110.82L76.4761 146.964L148.876 132.364L157.2 57.536L125.2 29.816L72.5201 37.096L43.4601 69.708L38.0241 110.82Z" fill="white"/>
<path d="M88.272 61.552L87.672 65.056L87.072 61.552H88.272Z" fill="#CC0000"/>
<path d="M89.408 61.5521C89.408 61.8954 89.3062 62.231 89.1155 62.5165C88.9247 62.802 88.6536 63.0245 88.3364 63.1559C88.0192 63.2873 87.6701 63.3217 87.3334 63.2547C86.9966 63.1877 86.6873 63.0224 86.4445 62.7796C86.2017 62.5368 86.0364 62.2275 85.9694 61.8907C85.9024 61.554 85.9368 61.2049 86.0682 60.8877C86.1996 60.5705 86.4221 60.2994 86.7076 60.1086C86.9931 59.9179 87.3287 59.816 87.672 59.816C88.1324 59.816 88.574 59.9989 88.8996 60.3245C89.2251 60.6501 89.408 61.0916 89.408 61.5521Z" fill="#CC0000"/>
<path opacity="0.3" d="M87.8441 60.328C88.0361 60.58 87.8841 61.024 87.5001 61.312C87.1161 61.6 86.6561 61.632 86.4601 61.38C86.2641 61.128 86.4201 60.684 86.8001 60.396C87.1801 60.108 87.6481 60.076 87.8441 60.328Z" fill="white"/>
<path d="M122.32 72.924L121.72 76.428L121.12 72.924H122.32Z" fill="#CC0000"/>
<path d="M121.72 74.66C122.679 74.66 123.456 73.8828 123.456 72.924C123.456 71.9653 122.679 71.188 121.72 71.188C120.761 71.188 119.984 71.9653 119.984 72.924C119.984 73.8828 120.761 74.66 121.72 74.66Z" fill="#CC0000"/>
<path opacity="0.3" d="M121.888 71.7001C122.084 71.9521 121.928 72.3961 121.548 72.6841C121.168 72.9721 120.7 73.0041 120.508 72.7521C120.316 72.5001 120.468 72.0561 120.848 71.7681C121.228 71.4801 121.696 71.4441 121.888 71.7001Z" fill="white"/>
<path d="M77.992 102.408L77.392 105.912L76.792 102.408H77.992Z" fill="#CC0000"/>
<path d="M77.392 104.144C78.3508 104.144 79.128 103.367 79.128 102.408C79.128 101.449 78.3508 100.672 77.392 100.672C76.4332 100.672 75.656 101.449 75.656 102.408C75.656 103.367 76.4332 104.144 77.392 104.144Z" fill="#CC0000"/>
<path opacity="0.3" d="M77.564 101.2C77.756 101.452 77.604 101.896 77.224 102.184C76.844 102.472 76.376 102.508 76.18 102.252C75.984 101.996 76.14 101.556 76.524 101.268C76.908 100.98 77.368 100.932 77.564 101.2Z" fill="white"/>
<path d="M126.892 96.188L126.292 99.688L125.692 96.188H126.892Z" fill="#CC0000"/>
<path d="M128.028 96.188C128.027 96.5312 127.925 96.8664 127.734 97.1514C127.542 97.4363 127.271 97.6582 126.954 97.789C126.636 97.9198 126.288 97.9536 125.951 97.8862C125.615 97.8187 125.306 97.6531 125.063 97.4101C124.821 97.1672 124.656 96.8579 124.589 96.5212C124.523 96.1846 124.557 95.8357 124.689 95.5187C124.82 95.2018 125.043 94.9309 125.328 94.7403C125.613 94.5497 125.949 94.448 126.292 94.448C126.52 94.448 126.747 94.493 126.957 94.5805C127.168 94.668 127.36 94.7962 127.521 94.9579C127.682 95.1195 127.81 95.3113 127.897 95.5224C127.984 95.7335 128.029 95.9597 128.028 96.188Z" fill="#CC0000"/>
<path opacity="0.3" d="M126.46 94.96C126.656 95.216 126.504 95.656 126.12 95.948C125.736 96.24 125.272 96.268 125.08 96.016C124.888 95.764 125.04 95.32 125.42 95.028C125.8 94.736 126.268 94.708 126.46 94.96Z" fill="white"/>
<path d="M124.84 37.684C128.861 37.684 132.12 34.4247 132.12 30.404C132.12 26.3834 128.861 23.124 124.84 23.124C120.819 23.124 117.56 26.3834 117.56 30.404C117.56 34.4247 120.819 37.684 124.84 37.684Z" fill="#CC0000"/>
<path opacity="0.3" d="M131.7 30.4C131.701 31.7579 131.299 33.0856 130.545 34.2149C129.791 35.3443 128.719 36.2247 127.465 36.7447C126.21 37.2648 124.83 37.401 123.498 37.1363C122.166 36.8716 120.943 36.2178 119.982 35.2576C119.022 34.2974 118.368 33.074 118.104 31.7421C117.839 30.4103 117.975 29.0298 118.495 27.7754C119.015 26.521 119.896 25.4491 121.025 24.6951C122.154 23.9412 123.482 23.5392 124.84 23.54C125.742 23.5374 126.635 23.713 127.468 24.0568C128.302 24.4006 129.059 24.9058 129.697 25.5434C130.334 26.1809 130.839 26.9382 131.183 27.7717C131.527 28.6052 131.703 29.4984 131.7 30.4Z" fill="white"/>
<path d="M129.868 35.072C129.203 35.7889 128.393 36.3555 127.492 36.7337C126.59 37.1119 125.618 37.2931 124.641 37.2651C123.664 37.237 122.704 37.0005 121.825 36.5712C120.947 36.1419 120.171 35.5298 119.548 34.776L119.66 34.74C119.754 34.6088 119.869 34.4939 120 34.4C119.998 34.3814 119.998 34.3626 120 34.344H120.12C120.347 34.2096 120.608 34.1417 120.872 34.148C120.945 34.1421 121.019 34.1421 121.092 34.148L121.52 34.068C121.52 34.068 121.52 34.112 121.52 34.188L123.832 34.344C124.033 34.1933 124.181 33.9834 124.256 33.744C124.336 33.4854 124.365 33.2136 124.34 32.944C124.006 32.9266 123.68 32.8408 123.38 32.692C122.824 32.4081 122.396 31.9254 122.18 31.34C122.152 31.26 122.128 31.1785 122.108 31.096C121.913 30.2443 121.901 29.3608 122.072 28.504H122C121.982 28.5011 121.967 28.4917 121.955 28.4776C121.944 28.4636 121.939 28.4459 121.94 28.428C121.942 28.4175 121.945 28.4073 121.951 28.3981C121.956 28.389 121.963 28.381 121.972 28.3747C121.98 28.3683 121.99 28.3638 122 28.3612C122.011 28.3587 122.022 28.3583 122.032 28.36H122.052C122.013 27.8411 122.052 27.3193 122.168 26.812C122.053 26.5668 121.993 26.2991 121.993 26.028C121.993 25.7569 122.053 25.4892 122.168 25.244C122.424 24.876 122.224 25.076 122.896 25.016C123.568 24.956 123.164 24.364 123.592 24.356C124.02 24.348 123.932 24.62 124.456 24.82C124.98 25.02 124.788 24.42 125.388 24.364C125.988 24.308 126.068 24.764 126.496 24.876C126.769 24.9326 127.051 24.9326 127.324 24.876C127.636 24.876 127.664 25.788 127.796 25.956C127.928 26.124 128.152 25.872 128.436 26.356C128.472 26.425 128.489 26.5024 128.484 26.58C128.484 27.184 127.732 28.332 127.732 28.332C127.696 28.596 127.648 28.88 127.576 29.184C127.692 29.3009 127.767 29.4514 127.791 29.6139C127.816 29.7763 127.788 29.9423 127.712 30.088C127.566 30.3846 127.335 30.631 127.048 30.796C126.927 31.0603 126.782 31.3133 126.616 31.552C126.428 32.6 126.336 33.836 126.692 34.616C127.76 34.6947 128.821 34.8471 129.868 35.072Z" fill="#CC0000"/>
<path opacity="0.5" d="M124.84 37.684C128.861 37.684 132.12 34.4247 132.12 30.404C132.12 26.3834 128.861 23.124 124.84 23.124C120.819 23.124 117.56 26.3834 117.56 30.404C117.56 34.4247 120.819 37.684 124.84 37.684Z" fill="white"/>
<path d="M81.5575 151.691C84.4005 148.848 84.4005 144.238 81.5575 141.395C78.7144 138.552 74.105 138.552 71.262 141.395C68.419 144.238 68.419 148.848 71.262 151.691C74.105 154.534 78.7145 154.534 81.5575 151.691Z" fill="#CC0000"/>
<path opacity="0.2" d="M83.2761 146.544C83.2769 147.901 82.8753 149.228 82.1221 150.357C81.3689 151.486 80.2978 152.367 79.0444 152.887C77.7909 153.408 76.4113 153.545 75.0799 153.281C73.7484 153.018 72.525 152.366 71.5642 151.407C70.6033 150.449 69.9483 149.227 69.6817 147.896C69.4152 146.565 69.5492 145.185 70.0668 143.931C70.5843 142.676 71.4622 141.603 72.5895 140.847C73.7168 140.091 75.0429 139.686 76.4001 139.684C77.3035 139.678 78.1992 139.851 79.0352 140.193C79.8713 140.535 80.6311 141.04 81.2707 141.678C81.9102 142.316 82.4168 143.075 82.7611 143.91C83.1053 144.745 83.2804 145.641 83.2761 146.544Z" fill="white"/>
<path d="M81.1281 151.528C79.9884 152.608 78.5128 153.264 76.9476 153.387C75.3825 153.51 73.8225 153.092 72.5281 152.204C73.0281 152.132 73.5521 152.072 74.0841 152.016C74.4841 151.116 74.3921 149.688 74.1721 148.476C73.9832 148.199 73.8186 147.906 73.6801 147.6C73.3499 147.416 73.0824 147.137 72.9121 146.8C72.8246 146.631 72.7922 146.44 72.8195 146.252C72.8467 146.064 72.9323 145.889 73.0641 145.752C72.9334 145.211 72.8597 144.657 72.8441 144.1H72.8121C72.8121 144.1 72.2601 141.968 74.3241 141.188C76.3881 140.408 78.4721 141.804 78.4721 141.804C78.4721 141.804 78.9201 140.972 79.4521 141.188C79.9081 141.372 79.6641 141.964 79.5801 142.144C79.6953 141.969 79.8575 141.831 80.0481 141.744C80.4121 141.58 80.9161 142.044 79.7841 143.176C79.6678 143.294 79.5326 143.391 79.3841 143.464C79.4677 143.976 79.4784 144.497 79.4161 145.012C79.6131 146 79.5981 147.018 79.3721 148C79.3494 148.098 79.32 148.194 79.2841 148.288C79.0438 148.963 78.5542 149.519 77.9161 149.844C77.573 150.023 77.1947 150.124 76.8081 150.14C76.785 150.447 76.8161 150.756 76.9001 151.052C76.9899 151.327 77.1615 151.569 77.3921 151.744C78.4841 151.672 79.4361 151.616 80.0641 151.564C80.0665 151.519 80.0665 151.473 80.0641 151.428L80.5601 151.52C80.7488 151.496 80.9401 151.498 81.1281 151.528Z" fill="#CC0000"/>
<path opacity="0.5" d="M81.5575 151.691C84.4005 148.848 84.4005 144.238 81.5575 141.395C78.7144 138.552 74.105 138.552 71.262 141.395C68.419 144.238 68.419 148.848 71.262 151.691C74.105 154.534 78.7145 154.534 81.5575 151.691Z" fill="white"/>
<path d="M50.3556 71.2899C51.2792 67.3768 48.8557 63.4559 44.9426 62.5323C41.0295 61.6087 37.1086 64.0322 36.185 67.9453C35.2614 71.8584 37.6849 75.7793 41.598 76.7029C45.5111 77.6265 49.4321 75.203 50.3556 71.2899Z" fill="#CC0000"/>
<path opacity="0.2" d="M50.136 69.62C50.1368 70.9777 49.7349 72.3052 48.9811 73.4345C48.2274 74.5638 47.1556 75.4442 45.9015 75.9644C44.6473 76.4845 43.2671 76.621 41.9353 76.3566C40.6036 76.0922 39.3801 75.4388 38.4198 74.479C37.4595 73.5192 36.8053 72.2962 36.5401 70.9646C36.275 69.633 36.4107 68.2526 36.9301 66.9982C37.4495 65.7437 38.3292 64.6715 39.4581 63.9171C40.587 63.1627 41.9142 62.76 43.272 62.76C44.1739 62.7568 45.0676 62.9321 45.9015 63.2756C46.7355 63.6192 47.4932 64.1243 48.1312 64.7619C48.7692 65.3995 49.2747 66.157 49.6188 66.9907C49.9628 67.8245 50.1386 68.7181 50.136 69.62Z" fill="white"/>
<path d="M48.4001 74.192C47.2662 75.4614 45.7012 76.2645 44.0088 76.4456C42.3163 76.6266 40.6169 76.1728 39.2401 75.172L41.9601 74.332C42.0121 74.388 42.0601 74.452 42.1121 74.52L42.4601 74.452C42.6801 74.412 42.8961 74.384 43.1161 74.348C43.2671 74.0913 43.36 73.8046 43.3881 73.508H43.0121C43.0881 73.236 42.6841 72.672 42.6841 72.672L42.5481 73.416C42.3882 73.3888 42.234 73.3347 42.0921 73.256C41.9081 73.14 41.6921 72.328 41.6921 72.328C41.6921 72.328 41.2201 73.128 41.1161 73.3C41.0121 73.472 40.7401 73.3 40.7401 73.3C40.6366 72.8411 40.6517 72.3634 40.7841 71.912C40.8245 71.8354 40.8431 71.7491 40.8377 71.6627C40.8323 71.5762 40.8033 71.4929 40.7537 71.4218C40.7041 71.3508 40.636 71.2947 40.5567 71.2598C40.4774 71.2249 40.39 71.2126 40.3041 71.224C40.2867 71.4908 40.2259 71.7529 40.1241 72C39.9898 72.3213 39.927 72.668 39.9401 73.016C39.9401 73.304 39.9641 73.508 39.7601 73.508C39.5561 73.508 39.5281 73.324 39.5521 73.016C39.5761 72.708 39.2561 72.412 39.4401 72.16C39.6241 71.908 39.4841 71.224 39.4841 71.224C39.3721 71.704 38.8441 71.68 38.7561 72.024C38.6681 72.368 39.0041 72.848 38.8441 73.02C38.6841 73.192 38.4121 73.02 38.4121 73.02C38.4121 73.02 38.6401 72.644 38.4801 72.424C38.3201 72.204 38.0801 72.096 38.1801 71.648C38.2801 71.2 38.5001 71.204 38.4361 70.712C38.3721 70.22 38.1361 70.244 38.4361 70.06C38.8162 69.6747 39.0569 69.1736 39.1201 68.636C39.1201 68.236 38.9601 67.392 39.6001 67.088C40.2401 66.784 40.4001 66.548 40.2841 65.74C40.1681 64.932 40.7841 64.992 41.5641 65.152C41.5641 65.152 41.9641 64.536 42.3161 64.652C42.6681 64.768 42.9561 64.696 43.0321 64.492C43.1081 64.288 44.1201 64.308 44.2721 64.492C44.4139 64.6041 44.5814 64.6792 44.7594 64.7107C44.9374 64.7421 45.1205 64.7288 45.2921 64.672C45.6241 64.536 46.4921 65.072 46.4921 65.448C46.4921 65.824 46.4681 66.02 46.9401 66.228C47.4121 66.436 47.5001 66.548 47.7041 67.364C47.9081 68.18 47.5681 68.512 47.9801 68.828C48.3921 69.144 48.3441 70.404 48.3801 70.796C48.4161 71.188 48.3801 71.596 48.3801 71.596L48.2641 71.628C48.1521 71.66 48.0601 71.208 48.0801 70.872C48.1001 70.536 47.3881 70.072 47.3281 70.044C47.3281 70.076 47.4721 70.356 47.5561 70.576C47.6504 70.9767 47.6814 71.3897 47.6481 71.8C47.6241 72.2 48.0801 72.404 48.0801 72.404L47.5801 72.656C47.5801 72.656 47.1801 71.824 47.3241 71.392C47.3494 71.2486 47.34 71.1012 47.2969 70.962C47.2538 70.8229 47.1781 70.6961 47.0761 70.592V71.392C47.0761 71.392 46.9401 71.688 46.7361 72.076C46.5321 72.464 46.8961 72.58 46.9521 72.784C47.0081 72.988 46.5041 73 46.5041 73L46.4081 72.508L46.2361 73C45.9305 73.1667 45.5945 73.2701 45.2481 73.304C45.2502 73.5764 45.3189 73.8442 45.4481 74.084L45.9361 74.06C46.2561 74.06 46.5921 74.06 46.9161 74.06C47.4401 74.128 48.0001 74.164 48.4001 74.192Z" fill="#CC0000"/>
<path opacity="0.5" d="M50.3556 71.2899C51.2792 67.3768 48.8557 63.4559 44.9426 62.5323C41.0295 61.6087 37.1086 64.0322 36.185 67.9453C35.2614 71.8584 37.6849 75.7793 41.598 76.7029C45.5111 77.6265 49.4321 75.203 50.3556 71.2899Z" fill="white"/>
<path d="M170.832 58.288C170.837 61.1726 169.903 63.9804 168.172 66.288C167.031 67.7944 165.59 69.0476 163.94 69.968C162.123 70.9685 160.097 71.5307 158.024 71.6099C155.951 71.6891 153.888 71.283 152 70.424C151.844 70.36 151.688 70.284 151.536 70.204C150.597 69.7411 149.718 69.1648 148.92 68.488C147.206 67.0433 145.885 65.1902 145.077 63.0997C144.269 61.0091 144.001 58.7487 144.297 56.5272C144.594 54.3057 145.445 52.1948 146.774 50.3894C148.102 48.5841 149.863 47.1426 151.896 46.1981C153.928 45.2536 156.166 44.8365 158.402 44.9855C160.639 45.1344 162.801 45.8446 164.69 47.0503C166.58 48.256 168.135 49.9184 169.212 51.884C170.288 53.8495 170.853 56.0547 170.852 58.296L170.832 58.288Z" fill="#CC0000"/>
<path opacity="0.7" d="M166.654 67.4449C171.71 62.3884 171.71 54.1902 166.654 49.1337C161.597 44.0772 153.399 44.0772 148.343 49.1337C143.286 54.1902 143.286 62.3884 148.343 67.4449C153.399 72.5014 161.597 72.5014 166.654 67.4449Z" fill="white"/>
<path d="M148.9 64.336L150.152 59.136C150.152 59.136 150.952 58.504 150.992 58.044C151.032 57.584 150.504 54.868 150.16 54.704C149.816 54.54 147.784 55.248 147.688 55.828C147.592 56.408 148.388 58.692 148.548 58.876L146.496 64.916L148.9 64.336Z" fill="#E4897B"/>
<path d="M149.904 61.364L149.152 68.164C147.989 67.1879 147.009 66.0138 146.256 64.696C146.72 63.06 147.188 61.592 147.408 60.932C147.48 60.696 147.524 60.564 147.524 60.564L147.956 60.62L149.736 60.844L149.956 60.872L149.904 61.364Z" fill="#CC0000"/>
<path d="M153.304 65.756L152.144 70.072C151.992 70.008 151.84 69.932 151.696 69.856C150.786 69.404 149.934 68.8425 149.16 68.184C149.252 67.976 151.628 62.612 152.516 62.676L153.304 65.756Z" fill="#CC0000"/>
<path opacity="0.3" d="M149.904 61.364L149.152 68.164C147.989 67.1879 147.009 66.0138 146.256 64.696C146.72 63.06 147.188 61.592 147.408 60.932C147.48 60.696 147.524 60.564 147.524 60.564L147.956 60.62L149.736 60.844L149.956 60.872L149.904 61.364Z" fill="black"/>
<path opacity="0.3" d="M153.304 65.756L152.144 70.072C151.992 70.008 151.84 69.932 151.696 69.856C150.786 69.404 149.934 68.8425 149.16 68.184C149.252 67.976 151.628 62.612 152.516 62.676L153.304 65.756Z" fill="black"/>
<path d="M150.46 60.4639L150.052 61.3839L147.212 60.9119L147.276 60.3879L150.46 60.4639Z" fill="#CC0000"/>
<path d="M165.376 53.832C165.044 55.104 166.856 58.604 166.12 64.972C165.384 71.34 158.404 70.948 155.264 68.828C152.124 66.708 152.668 55.184 153.748 52.912C154.828 50.64 165.376 53.832 165.376 53.832Z" fill="#263238"/>
<path d="M167.22 64.128C167.152 64.316 167.096 64.496 167.032 64.68C166.968 64.864 166.904 65.044 166.844 65.22C166.728 65.568 166.616 65.912 166.504 66.244C166.28 66.908 166.08 67.54 165.888 68.136C165.231 68.7054 164.515 69.2029 163.752 69.62C161.987 70.5938 160.019 71.1418 158.005 71.2203C155.991 71.2987 153.987 70.9055 152.152 70.072C152 70.008 151.848 69.932 151.704 69.856C151.704 69.728 151.704 69.596 151.704 69.476C151.704 69.356 151.704 69.224 151.704 69.104C151.704 68.736 151.724 68.396 151.732 68.072C151.732 67.86 151.752 67.648 151.756 67.456C151.756 67.352 151.756 67.26 151.756 67.16C151.776 66.804 151.792 66.484 151.816 66.18C151.816 66.084 151.816 65.984 151.836 65.892C151.836 65.608 151.88 65.356 151.896 65.12C152.044 63.64 152.24 63.056 152.368 62.82C152.386 62.7839 152.409 62.7503 152.436 62.72C152.472 62.676 152.492 62.672 152.492 62.672L153.016 62.628C153.88 62.552 155.672 62.428 157.292 62.436H157.384C157.6 62.436 157.812 62.436 158.028 62.468C158.864 62.512 159.7 62.584 160.524 62.684L161.444 62.812C161.776 62.86 162.108 62.916 162.44 62.972L162.58 63C163.804 63.2062 165.015 63.4826 166.208 63.828C166.54 63.92 166.872 64.02 167.2 64.124L167.22 64.128Z" fill="#CC0000"/>
<path opacity="0.3" d="M167.2 64.128C167.136 64.308 167.072 64.488 167.02 64.668C166.968 64.848 166.892 65.032 166.832 65.208C166.716 65.556 166.604 65.9 166.492 66.232C166.268 66.896 166.068 67.528 165.876 68.124C165.219 68.6934 164.503 69.1909 163.74 69.608C161.975 70.5818 160.007 71.1298 157.993 71.2083C155.979 71.2867 153.975 70.8935 152.14 70.06C151.988 69.996 151.836 69.92 151.692 69.844C151.692 69.716 151.692 69.588 151.692 69.468C151.692 69.348 151.692 69.216 151.692 69.096C151.692 68.728 151.712 68.388 151.72 68.064C151.72 67.852 151.74 67.64 151.744 67.448C151.744 67.344 151.744 67.252 151.744 67.152C151.744 66.796 151.78 66.476 151.804 66.172C151.804 66.076 151.804 65.976 151.824 65.884C151.824 65.6 151.868 65.348 151.884 65.112C152.032 63.632 152.228 63.048 152.356 62.812C152.374 62.7759 152.397 62.7423 152.424 62.712C152.46 62.668 152.48 62.664 152.48 62.664L153.004 62.62C153.868 62.544 155.66 62.42 157.28 62.428H157.372C157.588 62.428 157.8 62.428 158.016 62.46C158.852 62.504 159.688 62.576 160.512 62.676L161.432 62.804C161.764 62.852 162.096 62.908 162.428 62.964L162.568 62.992C163.792 63.1982 165.003 63.4746 166.196 63.82C166.556 63.924 166.888 64.024 167.2 64.128Z" fill="black"/>
<path d="M159.728 62.092C162.584 62.316 162.928 63.18 162.632 63.632C162.336 64.084 158.456 67.864 157.292 70.4C157.292 70.4 153.096 61.572 159.728 62.092Z" fill="white"/>
<path d="M158.252 64.972C161.08 64.608 161.932 63.4 161.932 63.4C160.136 61.708 161.628 58.776 161.628 58.776L158.224 59.408C158.302 59.8829 158.347 60.3628 158.356 60.844C158.384 62.908 157.448 62.928 157.448 62.928C156.852 64.048 158.252 64.972 158.252 64.972Z" fill="#E4897B"/>
<path opacity="0.2" d="M158.224 59.408C158.302 59.8829 158.346 60.3628 158.356 60.844C160.656 60.844 161.628 58.776 161.628 58.776L158.224 59.408Z" fill="black"/>
<path d="M160.104 49.892C157.148 49.732 156.104 51.264 155.724 54.292C155.244 58.088 155.94 60.84 159.684 60.228C164.768 59.408 165.02 50.164 160.104 49.892Z" fill="#E4897B"/>
<path d="M157.644 54.24C157.384 54.6757 157.072 55.0786 156.716 55.44C156.795 55.5682 156.908 55.6716 157.044 55.7381C157.179 55.8046 157.33 55.8316 157.48 55.816L157.644 54.24Z" fill="#DE5753"/>
<path d="M159.468 54.096C159.468 54.34 159.568 54.548 159.728 54.56C159.888 54.572 160.036 54.384 160.056 54.16C160.076 53.936 159.96 53.708 159.796 53.696C159.632 53.684 159.488 53.852 159.468 54.096Z" fill="#263238"/>
<path d="M159.864 53.696L159.352 53.448C159.352 53.448 159.6 53.912 159.864 53.696Z" fill="#263238"/>
<path d="M156.456 53.808C156.436 54.052 156.552 54.26 156.716 54.272C156.88 54.284 157.024 54.1 157.044 53.872C157.064 53.644 156.944 53.424 156.784 53.408C156.624 53.392 156.476 53.568 156.456 53.808Z" fill="#263238"/>
<path d="M156.852 53.4119L156.34 53.1639C156.34 53.1639 156.568 53.6279 156.852 53.4119Z" fill="#263238"/>
<path d="M160.872 52.712C160.85 52.7126 160.828 52.7074 160.808 52.6968C160.788 52.6863 160.772 52.6708 160.76 52.652C160.616 52.495 160.439 52.3722 160.242 52.2926C160.045 52.213 159.832 52.1786 159.62 52.192C159.602 52.193 159.584 52.1906 159.567 52.1847C159.55 52.1789 159.535 52.1697 159.521 52.1579C159.508 52.146 159.497 52.1315 159.489 52.1154C159.481 52.0993 159.477 52.0818 159.476 52.064C159.474 52.0462 159.475 52.0281 159.48 52.011C159.485 51.9938 159.494 51.978 159.506 51.9644C159.518 51.9508 159.532 51.9399 159.548 51.9322C159.564 51.9245 159.582 51.9204 159.6 51.92C159.859 51.9002 160.118 51.9417 160.358 52.0411C160.598 52.1404 160.811 52.2949 160.98 52.492C161.001 52.5214 161.01 52.5578 161.005 52.5936C160.999 52.6294 160.98 52.6618 160.952 52.684C160.928 52.7009 160.901 52.7106 160.872 52.712Z" fill="#263238"/>
<path d="M156.276 52.128C156.245 52.1299 156.214 52.1212 156.189 52.1032C156.163 52.0852 156.145 52.059 156.136 52.0291C156.128 51.9991 156.13 51.9672 156.142 51.9386C156.155 51.91 156.176 51.8865 156.204 51.872C156.395 51.7419 156.613 51.6577 156.842 51.6258C157.071 51.5939 157.304 51.6152 157.524 51.688C157.54 51.6949 157.556 51.7051 157.568 51.7181C157.581 51.731 157.59 51.7464 157.597 51.7633C157.603 51.7801 157.606 51.7981 157.605 51.8161C157.604 51.8342 157.6 51.8518 157.592 51.868C157.578 51.9006 157.551 51.9264 157.519 51.9399C157.486 51.9533 157.449 51.9534 157.416 51.94C157.236 51.8858 157.046 51.8727 156.861 51.9018C156.675 51.9309 156.498 52.0014 156.344 52.108C156.324 52.1224 156.3 52.1295 156.276 52.128Z" fill="#263238"/>
<path d="M157.848 56.9839C157.969 57.3258 158.066 57.6761 158.136 58.0319H158.328C159.192 57.9919 159.58 57.6879 159.748 57.3599C159.827 57.1997 159.867 57.0228 159.864 56.8439C159.865 56.7426 159.851 56.6416 159.824 56.5439C159.3 56.8064 158.726 56.9537 158.14 56.9759C157.96 56.9839 157.848 56.9839 157.848 56.9839Z" fill="#263238"/>
<path d="M158.14 56.968L158.236 57.2719C159.036 57.2319 159.62 57.096 159.864 56.836C159.865 56.7346 159.851 56.6336 159.824 56.5359C159.3 56.7984 158.726 56.9457 158.14 56.968Z" fill="white"/>
<path d="M158.328 58.024C159.192 57.984 159.58 57.68 159.748 57.352C159.42 57.3796 159.099 57.4635 158.8 57.6C158.602 57.6887 158.437 57.8369 158.328 58.024Z" fill="#DE5753"/>
<path d="M163.064 55.056C163.064 55.056 161.816 52.552 162.128 50.684C162.128 50.684 156.396 47.968 155.78 53.884C155.78 53.884 155.496 48.568 160.58 48.728C165.664 48.888 165.244 56.328 162.496 58.404C162.504 58.424 163.84 56.624 163.064 55.056Z" fill="#263238"/>
<path d="M162.548 55.6559C162.595 55.3148 162.776 55.0064 163.051 54.7981C163.325 54.5897 163.67 54.4984 164.012 54.5439C164.92 54.6959 165.256 56.5999 162.952 56.9439C162.62 56.9759 162.452 56.6479 162.548 55.6559Z" fill="#E4897B"/>
<path d="M161.34 50.4C161.135 52.8476 161.741 55.2945 163.064 57.364C164.728 59.88 162.816 62.08 162.816 62.08C162.816 62.08 165.772 60.2 165.876 57.364C165.876 57.364 168.316 50.584 163.248 48.756C163.248 48.756 163.228 47.232 159.924 47.52C156.62 47.808 153.96 50.644 153.456 54.252C152.952 57.86 154.832 61.884 154.832 61.884C154.832 61.884 152.832 49.084 161.34 50.4Z" fill="#263238"/>
<path d="M161.532 50.452C161.312 51.3069 161.228 52.1911 161.284 53.072C161.333 53.967 161.475 54.8544 161.708 55.72C161.936 56.5904 162.269 57.4299 162.7 58.22C163.122 59.0189 163.689 59.7323 164.372 60.324C163.662 59.7543 163.065 59.057 162.612 58.268C162.147 57.4847 161.779 56.6479 161.516 55.776C161.249 54.9015 161.07 54.0023 160.984 53.092C160.893 52.1678 160.949 51.235 161.148 50.328L161.532 50.452Z" fill="#263238"/>
<path d="M167.86 66.0479C167.286 66.8182 166.624 67.519 165.888 68.1359C165.231 68.7054 164.515 69.2029 163.752 69.6199C163.796 69.4519 163.852 69.2799 163.912 69.108C164.421 67.7825 165.141 66.548 166.044 65.452C166.405 64.9906 166.796 64.5524 167.212 64.14C167.528 64.4 167.728 65.0799 167.86 66.0479Z" fill="#CC0000"/>
<path opacity="0.3" d="M167.86 66.0479C167.286 66.8182 166.624 67.519 165.888 68.1359C165.231 68.7054 164.515 69.2029 163.752 69.6199C163.796 69.4519 163.852 69.2799 163.912 69.108C164.421 67.7825 165.141 66.548 166.044 65.452C166.405 64.9906 166.796 64.5524 167.212 64.14C167.528 64.4 167.728 65.0799 167.86 66.0479Z" fill="black"/>
<path d="M159.658 141.411C165.244 135.825 165.244 126.768 159.658 121.182C154.072 115.596 145.015 115.596 139.429 121.182C133.843 126.768 133.843 135.825 139.429 141.411C145.015 146.997 154.072 146.997 159.658 141.411Z" fill="#CC0000"/>
<path opacity="0.7" d="M163.448 131.296C163.452 133.464 162.943 135.602 161.964 137.536C161.776 137.912 161.564 138.276 161.348 138.632C161.176 138.908 160.996 139.18 160.8 139.432C159.987 140.557 159.01 141.554 157.9 142.388C157.648 142.584 157.388 142.76 157.12 142.94C156.039 143.643 154.867 144.193 153.636 144.576C150.389 145.571 146.89 145.347 143.796 143.948C143.572 143.844 143.348 143.732 143.128 143.62C140.664 142.329 138.638 140.335 137.308 137.892C137.124 137.552 136.952 137.192 136.796 136.832C135.973 134.937 135.582 132.883 135.652 130.819C135.722 128.754 136.251 126.731 137.201 124.897C138.151 123.062 139.498 121.463 141.144 120.214C142.789 118.965 144.692 118.099 146.715 117.678C148.737 117.257 150.828 117.292 152.835 117.781C154.842 118.269 156.716 119.199 158.318 120.502C159.921 121.805 161.214 123.448 162.102 125.314C162.99 127.179 163.451 129.218 163.452 131.284L163.448 131.296Z" fill="white"/>
<path d="M142.604 130.744C142.351 131.119 142.063 131.468 141.744 131.788L140.544 137.464L139.744 141.168C138.773 140.205 137.947 139.105 137.292 137.904C137.388 137.604 137.492 137.296 137.592 136.976C138.44 134.344 139.416 131.3 139.488 131C139.616 130.464 139.148 127.832 139.256 127.352C139.364 126.872 141.764 126.3 142.284 126.308C142.804 126.316 142.8 130.4 142.604 130.744Z" fill="#9F5B53"/>
<path d="M144.48 137V137.02L143.976 142.192L143.8 143.96C143.576 143.856 143.352 143.744 143.132 143.632C140.668 142.341 138.642 140.348 137.312 137.904C137.128 137.564 136.956 137.204 136.8 136.844L137.6 136.976L140.536 137.464L141.168 137.568L140.428 141.168C140.428 141.168 143.128 137.404 144.48 137Z" fill="#CC0000"/>
<path opacity="0.3" d="M144.48 137V137.02L143.976 142.192L143.8 143.96C143.576 143.856 143.352 143.744 143.132 143.632C140.668 142.341 138.642 140.348 137.312 137.904C137.128 137.564 136.956 137.204 136.8 136.844L137.6 136.976L140.536 137.464L141.168 137.568L140.428 141.168C140.428 141.168 143.128 137.404 144.48 137Z" fill="black"/>
<path d="M161.964 137.536C161.776 137.912 161.564 138.276 161.348 138.632C161.176 138.908 160.996 139.18 160.8 139.432C159.987 140.557 159.01 141.554 157.9 142.388C157.648 142.584 157.388 142.76 157.12 142.94C156.039 143.643 154.867 144.193 153.636 144.576C150.389 145.57 146.89 145.347 143.796 143.948C143.572 143.844 143.348 143.732 143.128 143.62C143.413 141.386 143.863 139.175 144.476 137.008V136.988C145.917 136.576 147.388 136.275 148.876 136.088H148.948C151.089 135.917 153.238 135.871 155.384 135.952C156.88 135.99 158.37 136.14 159.844 136.4C160.586 136.709 161.295 137.09 161.964 137.536Z" fill="#CC0000"/>
<path opacity="0.3" d="M161.964 137.536C161.776 137.912 161.564 138.276 161.348 138.632C161.176 138.908 160.996 139.18 160.8 139.432C159.987 140.557 159.01 141.554 157.9 142.388C157.648 142.584 157.388 142.76 157.12 142.94C156.039 143.643 154.867 144.193 153.636 144.576C150.389 145.57 146.89 145.347 143.796 143.948C143.572 143.844 143.348 143.732 143.128 143.62C143.413 141.386 143.863 139.175 144.476 137.008V136.988C145.917 136.576 147.388 136.275 148.876 136.088H148.948C151.089 135.917 153.238 135.871 155.384 135.952C156.88 135.99 158.37 136.14 159.844 136.4C160.586 136.709 161.295 137.09 161.964 137.536Z" fill="black"/>
<path opacity="0.8" d="M157.9 142.4C157.648 142.596 157.388 142.772 157.12 142.952C156.039 143.655 154.867 144.205 153.636 144.588C150.389 145.583 146.89 145.359 143.796 143.96C143.572 143.856 143.348 143.744 143.128 143.632C143.148 143.512 143.164 143.4 143.18 143.288C143.427 142.909 143.694 142.543 143.98 142.192C145.336 140.546 146.831 139.019 148.448 137.628C148.857 138.069 149.408 138.352 150.004 138.428C151.316 138.688 152.804 138.072 154.06 137.332C154.828 138.094 155.555 138.895 156.24 139.732C156.809 140.418 157.304 141.162 157.716 141.952C157.78 142.108 157.844 142.26 157.9 142.4Z" fill="white"/>
<path d="M155.408 136C154.801 136.654 154.069 137.181 153.256 137.55C152.443 137.919 151.565 138.122 150.672 138.148C147.98 138.268 148.88 136.148 148.88 136.148C149.868 135.888 150.416 135.428 150.692 134.864C151.04 134.136 150.94 133.24 150.716 132.36L150.668 132.176L154.604 128.672C154.24 130.752 153.912 134.608 155.408 136Z" fill="#9F5B53"/>
<path opacity="0.2" d="M153.956 131.736C153.748 133.088 152.104 134.416 150.692 134.836C151.04 134.108 150.94 133.212 150.716 132.332L153.976 129.836C154.09 130.465 154.083 131.11 153.956 131.736Z" fill="black"/>
<path d="M151.408 124.096C152.34 125.148 151.496 126.316 148.42 127.696C147.728 126.096 148.224 123.428 149.22 122.984C150.216 122.54 150.592 123.2 151.408 124.096Z" fill="#263238"/>
<path d="M155.728 127.436C154.9 130.168 154.552 131.804 152.82 132.896C150.212 134.532 147.092 132.456 147.088 129.532C147.088 126.908 148.436 122.884 151.408 122.428C152.426 122.267 153.467 122.516 154.302 123.121C155.136 123.726 155.697 124.638 155.86 125.656C155.953 126.252 155.908 126.861 155.728 127.436Z" fill="#9F5B53"/>
<path d="M151.412 127.2C151.36 127.424 151.196 127.58 151.048 127.544C150.9 127.508 150.828 127.3 150.88 127.076C150.932 126.852 151.092 126.676 151.24 126.728C151.388 126.78 151.448 126.992 151.412 127.2Z" fill="#263238"/>
<path d="M148.848 126.612C148.796 126.836 148.632 127.012 148.484 126.956C148.336 126.9 148.26 126.712 148.312 126.484C148.364 126.256 148.532 126.104 148.676 126.14C148.82 126.176 148.904 126.4 148.848 126.612Z" fill="#263238"/>
<path d="M149.66 126.916C149.229 127.542 148.712 128.105 148.124 128.588C148.253 128.734 148.412 128.851 148.59 128.929C148.768 129.008 148.961 129.047 149.156 129.044L149.66 126.916Z" fill="#892B29"/>
<path d="M152.304 126.576C152.333 126.584 152.363 126.584 152.392 126.576C152.425 126.561 152.451 126.534 152.464 126.5C152.478 126.467 152.478 126.429 152.464 126.396C152.382 126.196 152.253 126.02 152.088 125.88C151.923 125.741 151.727 125.644 151.516 125.596C151.482 125.589 151.447 125.595 151.418 125.614C151.388 125.633 151.368 125.662 151.36 125.696C151.355 125.731 151.364 125.767 151.385 125.796C151.406 125.825 151.437 125.845 151.472 125.852C151.638 125.892 151.791 125.971 151.92 126.082C152.049 126.193 152.149 126.334 152.212 126.492C152.221 126.512 152.233 126.529 152.249 126.544C152.265 126.558 152.284 126.569 152.304 126.576Z" fill="#263238"/>
<path d="M147.888 125.472C147.914 125.477 147.94 125.476 147.965 125.467C147.989 125.459 148.011 125.444 148.028 125.424C148.132 125.29 148.267 125.181 148.42 125.109C148.574 125.036 148.742 125 148.912 125.004C148.949 125.007 148.985 124.996 149.014 124.973C149.042 124.95 149.06 124.916 149.064 124.88C149.068 124.845 149.057 124.809 149.034 124.781C149.012 124.754 148.98 124.736 148.944 124.732C148.728 124.723 148.513 124.765 148.316 124.857C148.12 124.948 147.949 125.085 147.816 125.256C147.804 125.268 147.794 125.283 147.787 125.299C147.78 125.315 147.777 125.332 147.777 125.35C147.777 125.367 147.78 125.385 147.787 125.401C147.794 125.417 147.804 125.432 147.816 125.444C147.837 125.46 147.862 125.47 147.888 125.472Z" fill="#263238"/>
<path d="M155.2 124.724C153.8 124.86 153.628 126.292 154.948 129.392C156.548 128.68 157.996 126.392 157.568 125.392C157.14 124.392 156.428 124.604 155.2 124.724Z" fill="#263238"/>
<path d="M156.52 129.964C156.347 130.274 156.114 130.547 155.834 130.767C155.555 130.987 155.234 131.149 154.892 131.244C153.976 131.492 153.524 130.672 153.784 129.812C154.02 129.036 154.78 127.972 155.696 128.104C155.897 128.133 156.088 128.212 156.25 128.335C156.412 128.458 156.541 128.62 156.623 128.806C156.705 128.992 156.739 129.196 156.721 129.398C156.703 129.601 156.634 129.795 156.52 129.964Z" fill="#9F5B53"/>
<path d="M152.516 123.568C152.516 123.568 152.224 126.44 154.84 127.292C157.456 128.144 158.44 126.648 158.44 126.648C158.215 126.625 157.992 126.588 157.772 126.536C158.095 126.187 158.326 125.762 158.443 125.301C158.56 124.84 158.561 124.357 158.444 123.896C158 122.4 155.688 120.372 153.544 120.564C152.982 120.209 152.352 119.974 151.695 119.873C151.038 119.772 150.367 119.807 149.724 119.976C147.608 120.576 147.324 122.996 147.324 122.996C147.324 122.996 147.6 121.556 148.564 121.396C148.564 121.396 146.752 124.044 148.164 125.228C148.176 125.2 149.068 122.4 152.516 123.568Z" fill="#263238"/>
<path d="M148.664 130.084C148.865 130.396 149.043 130.722 149.196 131.06L149.384 131.008C150.24 130.768 150.556 130.372 150.648 130.008C150.691 129.83 150.691 129.645 150.648 129.468C150.626 129.366 150.589 129.268 150.54 129.176C150.08 129.559 149.542 129.839 148.964 129.996C148.8 130.056 148.664 130.084 148.664 130.084Z" fill="#263238"/>
<path d="M148.956 130L149.12 130.284C149.92 130.056 150.456 129.788 150.64 129.484C150.618 129.382 150.581 129.284 150.532 129.192C150.071 129.571 149.533 129.846 148.956 130Z" fill="white"/>
<path d="M149.384 131.008C150.24 130.768 150.556 130.372 150.648 130.008C150.326 130.108 150.023 130.262 149.752 130.464C149.576 130.603 149.447 130.793 149.384 131.008Z" fill="#DE5753"/>
<path d="M71.9199 48.516C78.6622 48.516 84.1279 43.0503 84.1279 36.308C84.1279 29.5657 78.6622 24.1 71.9199 24.1C65.1776 24.1 59.7119 29.5657 59.7119 36.308C59.7119 43.0503 65.1776 48.516 71.9199 48.516Z" fill="#CC0000"/>
<path opacity="0.7" d="M83.728 36.308C83.7308 38.914 82.8668 41.4469 81.272 43.508C80.8509 44.0585 80.381 44.5699 79.868 45.036C79.3975 45.4686 78.8903 45.8594 78.352 46.204C78.3329 46.2236 78.3097 46.2387 78.284 46.248C77.8643 46.5235 77.4259 46.7694 76.972 46.984C74.6255 48.0953 71.978 48.4018 69.4396 47.8558C66.9013 47.3098 64.614 45.9419 62.932 43.964C61.6992 42.5156 60.8346 40.7908 60.4116 38.9365C59.9887 37.0821 60.0199 35.153 60.5027 33.3133C60.9855 31.4736 61.9056 29.7778 63.1846 28.3701C64.4637 26.9624 66.0639 25.8845 67.849 25.2281C69.6341 24.5717 71.5514 24.3563 73.4377 24.6001C75.324 24.8439 77.1235 25.5398 78.683 26.6286C80.2426 27.7173 81.5161 29.1666 82.3951 30.8533C83.2742 32.5399 83.7328 34.414 83.732 36.316L83.728 36.308Z" fill="white"/>
<path d="M74.6677 36.308C74.9277 35.732 75.1118 35.984 75.8678 36.564C76.1517 36.7472 76.3818 37.0028 76.5343 37.3044C76.6869 37.6059 76.7564 37.9427 76.7358 38.28C76.7358 38.896 76.6198 40.124 76.6198 40.124L78.5718 42.312L77.6878 43.644L75.4198 41.084C75.4198 41.084 74.2997 40.24 74.1117 39.292C73.9237 38.344 74.6677 36.308 74.6677 36.308Z" fill="#EBB376"/>
<path d="M74.3998 35.652L75.9998 38.524C76.0354 38.5868 76.0503 38.6593 76.0424 38.7311C76.0345 38.8029 76.0042 38.8704 75.9558 38.924L74.7158 40.356C74.6795 40.3981 74.6337 40.431 74.5822 40.452C74.5307 40.4731 74.475 40.4816 74.4196 40.4769C74.3642 40.4722 74.3106 40.4545 74.2634 40.4251C74.2162 40.3957 74.1766 40.3556 74.1478 40.308L72.7158 37.948L74.3998 35.652Z" fill="#263238"/>
<path opacity="0.4" d="M74.3198 35.96L75.7318 38.62L74.3878 40.2L72.9438 37.856L74.3198 35.96Z" fill="#CC0000"/>
<path d="M78.3517 46.2C78.3517 46.26 78.3717 46.316 78.3797 46.372L78.2837 46.244C77.864 46.5195 77.4256 46.7654 76.9717 46.98C77.0757 46.18 77.1917 45.436 77.2957 44.824C77.3997 44.212 77.4717 43.804 77.5357 43.48C77.5997 43.156 77.6357 42.968 77.6437 42.936C77.7826 42.963 77.9171 43.0087 78.0437 43.072C78.6557 43.372 79.2437 44.088 79.8477 45.036C79.3834 45.4663 78.8829 45.8557 78.3517 46.2Z" fill="#CC0000"/>
<path d="M78.3999 46.372L78.3039 46.244C77.8842 46.5195 77.4458 46.7655 76.9919 46.98C74.6454 48.0914 71.9979 48.3978 69.4596 47.8518C66.9213 47.3058 64.6339 45.9379 62.9519 43.96C63.1559 43.912 63.3519 43.868 63.5719 43.828H63.6359L63.7599 43.804C64.2999 43.7 64.8519 43.608 65.4039 43.528L66.1279 43.428C66.4479 43.384 66.7679 43.348 67.0839 43.312H67.1599C67.8919 43.228 68.6239 43.16 69.3359 43.108L70.0319 43.064L70.9199 43.008L71.7839 42.968H72.1319L73.1359 42.94C74.1879 42.916 75.1119 42.916 75.8479 42.94H76.3359L77.0399 42.96C77.4399 42.96 77.6479 42.96 77.6479 42.96C77.6959 43.136 77.7439 43.32 77.7879 43.508C77.9919 44.308 78.1879 45.24 78.3559 46.22C78.3639 46.26 78.3719 46.316 78.3999 46.372Z" fill="#CC0000"/>
<path opacity="0.2" d="M78.3998 46.372L78.3038 46.244C77.8841 46.5195 77.4457 46.7654 76.9918 46.98C74.6453 48.0913 71.9978 48.3978 69.4595 47.8518C66.9212 47.3058 64.6338 45.9379 62.9518 43.96L62.6638 44.02L62.9478 43.956L63.5718 43.828H63.6358L63.7598 43.804C64.2998 43.7 64.8518 43.608 65.4038 43.528L66.1278 43.428C66.4478 43.384 66.7678 43.348 67.0838 43.312H67.1598C67.8918 43.228 68.6238 43.16 69.3358 43.108L70.0278 43.06L70.9238 43.008L71.7878 42.968H72.1358L73.1358 42.936C74.1918 42.936 75.1358 42.936 75.8518 42.936H76.3398H77.0358L77.6518 42.96C77.6998 43.136 77.7478 43.32 77.7918 43.508C77.9958 44.308 78.1918 45.24 78.3598 46.22C78.3638 46.26 78.3718 46.316 78.3998 46.372Z" fill="black"/>
<path d="M67.0598 43.2839C68.3558 44.4839 71.5398 44.0279 71.5398 44.0279C71.5398 44.0279 73.5398 43.4839 73.1078 42.8639C71.9398 42.6679 71.3718 42.1239 71.1398 41.4239C71.012 40.9909 70.9712 40.5368 71.0198 40.0879C71.038 39.8384 71.0701 39.59 71.1158 39.3439L67.1998 36.4319C67.6998 38.3519 68.3318 41.8879 67.0598 43.2839Z" fill="#EBB376"/>
<path opacity="0.2" d="M68.0918 38.28C68.2478 40.64 70.1878 41.292 71.1398 41.424C71.012 40.9909 70.9712 40.5369 71.0198 40.088L68.0918 38.28Z" fill="black"/>
<path d="M74.8798 30.824C74.8798 30.824 75.4398 34.496 73.4878 35.908C71.5358 37.32 71.5398 30.484 71.5398 30.484L74.8798 30.824Z" fill="#263238"/>
<path d="M67.8277 38.828C68.2362 39.4329 68.832 39.8869 69.5236 40.1203C70.2151 40.3537 70.9642 40.3536 71.6557 40.12C72.5572 39.8359 73.3157 39.2176 73.7757 38.392C73.8416 38.2784 73.9003 38.1608 73.9517 38.04C74.9117 35.796 75.2157 31.868 72.8437 30.4C72.443 30.1465 71.9961 29.9746 71.5288 29.8943C71.0615 29.814 70.5829 29.8268 70.1205 29.932C69.6581 30.0372 69.2211 30.2327 68.8345 30.5072C68.4479 30.7818 68.1193 31.1301 67.8677 31.532C67.5609 32.014 67.3743 32.5628 67.3237 33.132C67.0317 35.744 66.7357 37.276 67.8277 38.828Z" fill="#EBB376"/>
<path d="M71.1478 34.524C71.0998 34.732 71.1958 34.924 71.3358 34.948C71.4758 34.972 71.6158 34.816 71.6518 34.608C71.6878 34.4 71.6038 34.208 71.4678 34.18C71.3318 34.152 71.1998 34.308 71.1478 34.524Z" fill="#263238"/>
<path d="M73.5438 34.932C73.4958 35.14 73.5918 35.332 73.7318 35.356C73.8718 35.38 74.0118 35.228 74.0478 35.016C74.0838 34.804 73.9998 34.616 73.8638 34.592C73.7278 34.568 73.5998 34.732 73.5438 34.932Z" fill="#263238"/>
<path d="M72.7679 34.908C72.9075 35.6038 73.1431 36.2769 73.4679 36.908C73.304 36.985 73.1251 37.0249 72.9439 37.0249C72.7628 37.0249 72.5839 36.985 72.4199 36.908L72.7679 34.908Z" fill="#D58745"/>
<path d="M70.5399 33.6199C70.5617 33.6272 70.5852 33.6285 70.6077 33.6236C70.6303 33.6186 70.651 33.6077 70.6679 33.5919C70.7811 33.4814 70.9184 33.3985 71.069 33.35C71.2196 33.3014 71.3794 33.2884 71.5359 33.3119C71.5682 33.3199 71.6024 33.3147 71.6309 33.2974C71.6594 33.2802 71.6799 33.2523 71.6879 33.2199C71.6958 33.1876 71.6906 33.1534 71.6733 33.1249C71.6561 33.0964 71.6282 33.0759 71.5959 33.0679C71.3987 33.0325 71.1959 33.0448 71.0045 33.104C70.8131 33.1632 70.6386 33.2674 70.4959 33.4079C70.4843 33.4195 70.475 33.4332 70.4687 33.4483C70.4625 33.4634 70.4592 33.4796 70.4592 33.4959C70.4592 33.5123 70.4625 33.5285 70.4687 33.5436C70.475 33.5587 70.4843 33.5724 70.4959 33.5839C70.509 33.5977 70.5238 33.6098 70.5399 33.6199Z" fill="#263238"/>
<path d="M74.7158 34.28C74.7392 34.2876 74.7644 34.2876 74.7878 34.28C74.804 34.2758 74.8192 34.2684 74.8325 34.2583C74.8458 34.2481 74.8569 34.2353 74.8651 34.2207C74.8733 34.2062 74.8785 34.1901 74.8803 34.1735C74.8822 34.1568 74.8806 34.14 74.8758 34.124C74.8244 33.93 74.7271 33.7513 74.592 33.603C74.4569 33.4547 74.2881 33.3412 74.0998 33.272C74.084 33.2671 74.0675 33.2653 74.051 33.2669C74.0346 33.2685 74.0187 33.2734 74.0041 33.2812C73.9896 33.289 73.9768 33.2996 73.9664 33.3125C73.9561 33.3253 73.9484 33.3401 73.9438 33.356C73.9359 33.3878 73.9402 33.4213 73.9557 33.4502C73.9712 33.479 73.9969 33.501 74.0278 33.512C74.1754 33.5707 74.3072 33.6632 74.4128 33.7819C74.5184 33.9007 74.5947 34.0425 74.6358 34.196C74.6413 34.2154 74.6514 34.2333 74.6654 34.2479C74.6793 34.2625 74.6966 34.2735 74.7158 34.28Z" fill="#263238"/>
<path d="M69.7877 30.2V31.372C69.5822 31.4418 69.4103 31.5861 69.3059 31.7764C69.2015 31.9666 69.1722 32.1891 69.2237 32.4C69.4757 33.416 68.7397 34.856 67.9237 35.368C67.9237 35.368 67.9517 34.944 67.5837 35C67.2157 35.056 67.0477 37.26 67.6117 38.392C67.6117 38.392 66.6797 37.316 66.3677 34.944C66.0797 32.748 66.2277 30.968 66.7677 30.196L69.7877 30.2Z" fill="#263238"/>
<path d="M65.8238 35.06C66.0098 35.698 66.4414 36.236 67.0238 36.556C67.7998 36.956 68.3798 36.324 68.3278 35.488C68.2718 34.748 67.8118 33.616 66.9518 33.552C66.7649 33.5389 66.5776 33.5729 66.4073 33.6509C66.2369 33.7289 66.0888 33.8484 65.9766 33.9984C65.8643 34.1484 65.7915 34.3243 65.7648 34.5097C65.7381 34.6952 65.7584 34.8844 65.8238 35.06Z" fill="#EBB376"/>
<path d="M69.7878 31.372C69.7878 31.372 70.5478 32.128 71.2878 31.576C71.2878 31.576 72.1238 32.272 72.8078 31.776C72.9158 31.9548 73.0591 32.1099 73.229 32.2316C73.3988 32.3533 73.5917 32.4392 73.7958 32.484C73.8735 32.4947 73.9527 32.4881 74.0275 32.4647C74.1024 32.4412 74.1712 32.4015 74.2289 32.3484C74.2866 32.2953 74.3319 32.23 74.3614 32.1573C74.391 32.0846 74.4041 32.0063 74.3998 31.928C74.3998 31.928 75.3678 32.484 75.7278 32.224C76.0878 31.964 75.5318 30.924 75.5318 30.924C75.5318 30.924 75.9878 30.68 75.6918 29.844C75.3958 29.008 74.0558 29.2 74.0558 29.2C74.0558 29.2 74.1078 28.4 73.1638 27.6C73.0646 27.488 72.9394 27.402 72.7992 27.3495C72.6591 27.2971 72.5082 27.2798 72.3598 27.2991C72.2114 27.3184 72.07 27.3738 71.948 27.4605C71.826 27.5471 71.727 27.6623 71.6598 27.796C71.6598 27.796 70.7478 26.56 69.6158 26.724C68.4838 26.888 68.6158 27.664 68.6158 27.664C68.6158 27.664 67.3118 26.864 66.7278 27.664C66.1438 28.464 66.7278 28.864 66.7278 28.864C66.7278 28.864 65.4278 29.3 65.4918 30.188C65.5558 31.076 66.2238 30.944 66.2238 30.944C66.2238 30.944 65.8518 31.368 66.6958 31.744C67.5398 32.12 68.3358 31.224 68.3358 31.224C68.2898 31.296 68.2604 31.3775 68.2498 31.4623C68.2392 31.5471 68.2476 31.6333 68.2744 31.7145C68.3012 31.7957 68.3457 31.8699 68.4048 31.9317C68.4638 31.9936 68.5359 32.0415 68.6158 32.072C69.2238 32.4 69.7878 31.372 69.7878 31.372Z" fill="#263238"/>
<path d="M72.3639 37.696C72.0983 37.9445 71.851 38.2118 71.6239 38.496L71.4599 38.4C70.7079 37.964 70.5039 37.516 70.5039 37.148C70.5094 36.9699 70.5574 36.7957 70.6439 36.64C70.6849 36.5533 70.7374 36.4726 70.7999 36.4C71.1443 36.8735 71.5863 37.2677 72.0959 37.556C72.2639 37.64 72.3639 37.696 72.3639 37.696Z" fill="#263238"/>
<path d="M72.1118 37.544L71.8878 37.772C71.1798 37.372 70.7398 36.972 70.6438 36.636C70.6851 36.5507 70.7376 36.4714 70.7998 36.4C71.1501 36.8709 71.5976 37.261 72.1118 37.544Z" fill="white"/>
<path d="M71.4599 38.3999C70.7079 37.9639 70.5039 37.5159 70.5039 37.1479C70.786 37.3199 71.0363 37.5391 71.2439 37.7959C71.3763 37.9703 71.4518 38.1812 71.4599 38.3999Z" fill="#DE5753"/>
<path d="M71.5399 44.028C71.5399 44.028 66.9519 40.908 65.4919 40.736C64.0319 40.564 64.2919 42.38 64.2919 42.38C64.2919 42.38 63.1639 42.38 63.5959 43.768C64.0279 45.156 70.2639 45.92 72.5639 45.232C74.8639 44.544 76.2359 43.256 75.8559 42.032C75.4759 40.808 74.4079 41.86 74.4079 41.86C74.4079 41.86 73.7879 40.712 72.8959 40.98C72.0039 41.248 71.5399 44.028 71.5399 44.028Z" fill="#CC0000"/>
<path d="M81.2717 43.504C80.8506 44.0545 80.3807 44.5659 79.8677 45.032C79.3973 45.4646 78.89 45.8554 78.3517 46.2C78.3517 46.26 78.3717 46.316 78.3797 46.372L78.2837 46.244C77.9797 45.844 77.6277 45.34 77.2957 44.824C76.8945 44.2244 76.5706 43.5767 76.3317 42.896C76.2792 42.7353 76.247 42.5686 76.2357 42.4L75.8357 41.872L75.9597 41.728L76.9677 40.528L77.1877 40.272L77.6197 40.836C77.6197 40.836 78.1757 40.636 79.9557 42.168C80.4259 42.5811 80.8657 43.0276 81.2717 43.504Z" fill="#CC0000"/>
<path d="M38.1761 123.008C44.5517 123.008 49.7201 117.84 49.7201 111.464C49.7201 105.088 44.5517 99.92 38.1761 99.92C31.8005 99.92 26.6321 105.088 26.6321 111.464C26.6321 117.84 31.8005 123.008 38.1761 123.008Z" fill="#CC0000"/>
<path opacity="0.7" d="M49.316 111.464C49.3175 114.028 48.4281 116.512 46.8 118.492C46.3221 119.078 45.786 119.614 45.2 120.092C45.016 120.244 44.824 120.392 44.624 120.532C44.0808 120.925 43.5023 121.266 42.896 121.552C41.2627 122.325 39.4654 122.688 37.66 122.61C35.8546 122.531 34.0957 122.013 32.536 121.1C32.1174 120.855 31.7164 120.581 31.336 120.28L31.276 120.228C30.8233 119.878 30.4017 119.49 30.016 119.068C28.7771 117.741 27.8814 116.13 27.407 114.378C26.9326 112.625 26.8938 110.783 27.294 109.012C27.6942 107.241 28.5212 105.594 29.7032 104.216C30.8851 102.837 32.3861 101.769 34.0754 101.103C35.7647 100.437 37.5912 100.194 39.3958 100.396C41.2003 100.597 42.9283 101.237 44.4293 102.259C45.9302 103.28 47.1586 104.654 48.0076 106.259C48.8565 107.864 49.3002 109.652 49.3 111.468L49.316 111.464Z" fill="white"/>
<path d="M45.2321 120.08C45.0481 120.232 44.8561 120.38 44.6561 120.52C44.1129 120.913 43.5344 121.254 42.9281 121.54C41.2948 122.313 39.4975 122.676 37.6921 122.598C35.8867 122.519 34.1278 122.001 32.5681 121.088C32.1495 120.843 31.7485 120.569 31.3681 120.268L31.3081 120.216V120.14C31.4041 119.78 31.4961 119.404 31.5801 119.012C31.7001 118.484 31.8081 117.936 31.9041 117.364C32.1684 115.808 32.2809 114.23 32.2401 112.652C32.0441 106.752 33.1161 104.588 35.5281 103.432C35.6361 103.38 35.7481 103.324 35.8681 103.276C36.4054 103.054 36.9927 102.98 37.5681 103.064C39.6321 103.344 41.4241 105.268 41.4241 105.268C41.7749 105.779 42.0903 106.314 42.3681 106.868C43.962 110.041 44.9046 113.501 45.1401 117.044C45.222 118.054 45.2527 119.067 45.2321 120.08Z" fill="#263238"/>
<path d="M45.1481 117.04C44.8042 116.762 44.4085 116.556 43.9841 116.432C43.9841 116.432 41.6321 116.204 39.5841 116.22L38.9081 116.252C37.8601 116.308 36.8121 116.416 35.7761 116.572C35.4721 116.616 35.1681 116.664 34.8681 116.72C33.8698 116.884 32.8805 117.099 31.9041 117.364C31.4361 117.488 30.9721 117.624 30.5081 117.764C30.2714 118.161 30.1087 118.597 30.0281 119.052C30.4138 119.474 30.8353 119.862 31.2881 120.212L31.3481 120.264C31.7285 120.565 32.1294 120.839 32.5481 121.084C34.1078 121.997 35.8667 122.515 37.6721 122.594C39.4775 122.672 41.2748 122.309 42.9081 121.536C43.5144 121.25 44.0929 120.909 44.6361 120.516C44.8361 120.376 45.0361 120.228 45.2121 120.076C45.7981 119.598 46.3341 119.062 46.8121 118.476C46.2926 117.958 45.7365 117.478 45.1481 117.04Z" fill="#CC0000"/>
<path opacity="0.2" d="M45.1481 117.04C44.8042 116.762 44.4085 116.556 43.9841 116.432C43.9841 116.432 41.6321 116.204 39.5841 116.22L38.9081 116.252C37.8601 116.308 36.8121 116.416 35.7761 116.572C35.4721 116.616 35.1681 116.664 34.8681 116.72C33.8698 116.884 32.8805 117.099 31.9041 117.364C31.4361 117.488 30.9721 117.624 30.5081 117.764C30.2714 118.161 30.1087 118.597 30.0281 119.052C30.4138 119.474 30.8353 119.862 31.2881 120.212L31.3481 120.264C31.7285 120.565 32.1294 120.839 32.5481 121.084C34.1078 121.997 35.8667 122.515 37.6721 122.594C39.4775 122.672 41.2748 122.309 42.9081 121.536C43.5144 121.25 44.0929 120.909 44.6361 120.516C44.8361 120.376 45.0361 120.228 45.2121 120.076C45.7981 119.598 46.3341 119.062 46.8121 118.476C46.2926 117.958 45.7365 117.478 45.1481 117.04Z" fill="white"/>
<path d="M38.724 118.54C36.132 118.208 35.356 117.1 35.356 117.1C36.412 116.1 36.22 114.628 35.952 113.712C35.8691 113.421 35.7621 113.137 35.632 112.864L38.748 113.448C38.6768 113.882 38.6367 114.32 38.628 114.76C38.6201 115.084 38.6496 115.407 38.716 115.724C38.928 116.656 39.46 116.668 39.46 116.668C40 117.692 38.724 118.54 38.724 118.54Z" fill="#EEC1BB"/>
<path opacity="0.2" d="M38.6281 114.76C38.6202 115.084 38.6497 115.407 38.7161 115.724C37.4801 115.56 36.5401 114.572 35.9521 113.724C35.8692 113.433 35.7622 113.149 35.6321 112.876L38.7481 113.46C38.6775 113.89 38.6374 114.324 38.6281 114.76Z" fill="black"/>
<path d="M38.1161 104.8C40.8281 104.9 41.6441 106.4 41.7401 109.2C41.8601 112.7 40.9921 115.152 37.6281 114.28C33.0641 113.096 33.6001 104.644 38.1161 104.8Z" fill="#EEC1BB"/>
<path d="M40 108.984C40.2034 109.396 40.4544 109.783 40.748 110.136C40.6645 110.245 40.5522 110.33 40.4236 110.379C40.2951 110.429 40.1554 110.441 40.02 110.416L40 108.984Z" fill="#D4827D"/>
<path d="M37.2 107.332C37.1663 107.334 37.1333 107.322 37.108 107.3C37.0821 107.273 37.0676 107.237 37.0676 107.2C37.0676 107.163 37.0821 107.127 37.108 107.1C37.2821 106.934 37.4925 106.812 37.7224 106.743C37.9524 106.673 38.1954 106.658 38.432 106.7C38.4686 106.706 38.5013 106.726 38.5231 106.756C38.5448 106.786 38.5538 106.823 38.548 106.86C38.5457 106.879 38.5394 106.897 38.5297 106.913C38.52 106.929 38.507 106.943 38.4916 106.954C38.4762 106.965 38.4586 106.973 38.4401 106.976C38.4216 106.98 38.4025 106.98 38.384 106.976C38.1947 106.947 38.0012 106.961 37.8179 107.016C37.6345 107.072 37.4658 107.167 37.324 107.296C37.3076 107.311 37.2878 107.322 37.2663 107.329C37.2447 107.335 37.2221 107.336 37.2 107.332Z" fill="#263238"/>
<path d="M41.432 107.2C41.4022 107.2 41.3731 107.192 41.348 107.176C41.2181 107.067 41.0656 106.989 40.9016 106.947C40.7376 106.904 40.5662 106.899 40.4 106.932C40.3644 106.941 40.3268 106.937 40.2942 106.92C40.2617 106.903 40.2367 106.874 40.224 106.84C40.2126 106.804 40.2158 106.765 40.2331 106.731C40.2503 106.697 40.2801 106.672 40.316 106.66C40.5244 106.613 40.7409 106.614 40.9488 106.663C41.1568 106.712 41.3507 106.808 41.516 106.944C41.5457 106.967 41.5656 107 41.5715 107.038C41.5775 107.075 41.569 107.113 41.548 107.144C41.5341 107.161 41.5165 107.176 41.4964 107.185C41.4763 107.195 41.4543 107.2 41.432 107.2Z" fill="#263238"/>
<path d="M39.6002 111.468C39.4608 111.77 39.3431 112.081 39.2482 112.4L39.0722 112.376C38.2722 112.268 37.9602 111.956 37.8322 111.644C37.7747 111.491 37.7542 111.326 37.7722 111.164C37.7805 111.072 37.8007 110.982 37.8322 110.896C38.2889 111.178 38.8002 111.359 39.3322 111.428L39.6002 111.468Z" fill="#263238"/>
<path d="M39.3122 111.428L39.2002 111.7C38.4602 111.596 37.9522 111.42 37.7522 111.164C37.7605 111.072 37.7807 110.982 37.8122 110.896C38.2689 111.178 38.7802 111.359 39.3122 111.428Z" fill="white"/>
<path d="M39.052 112.376C38.252 112.268 37.94 111.956 37.812 111.644C38.1101 111.691 38.3973 111.791 38.66 111.94C38.8351 112.038 38.9729 112.191 39.052 112.376Z" fill="#DE5753"/>
<path d="M34.98 109.272C34.98 109.272 36.332 107.092 36.204 105.364C36.204 105.364 41.66 103.364 41.72 108.832C41.72 108.832 42.428 104.008 37.768 103.728C33.108 103.448 32.88 110.268 35.2 112.4C35.2 112.4 34.144 110.636 34.98 109.272Z" fill="#263238"/>
<path d="M35.4041 109.86C35.3865 109.547 35.2469 109.253 35.0151 109.041C34.7833 108.829 34.4778 108.717 34.1641 108.728C33.3201 108.788 32.8561 110.5 34.9281 110.992C35.2281 111.06 35.4081 110.776 35.4041 109.86Z" fill="#EEC1BB"/>
<path d="M36.5921 103.02C38.0601 102.62 41.9681 102.56 42.8921 106.62L42.3481 106.892C41.4311 106.424 40.4384 106.122 39.4161 106C39.1976 105.614 38.9431 105.25 38.6561 104.912C38.6842 105.255 38.6842 105.601 38.6561 105.944C38.6561 105.944 36.1041 106.32 34.9641 107.356C33.1721 108.988 33.0601 110.02 33.0601 110.02C33.0601 110.02 31.8201 104.348 36.5921 103.02Z" fill="#263238"/>
<path d="M43.2722 106.568C43.2517 106.567 43.2319 106.561 43.2155 106.548C43.199 106.536 43.1867 106.519 43.1802 106.5C43.0061 105.879 42.7069 105.301 42.3011 104.8C41.8952 104.299 41.3913 103.887 40.8202 103.588C38.8202 102.596 36.4202 103.404 36.4202 103.412C36.4081 103.416 36.3953 103.418 36.3825 103.417C36.3698 103.417 36.3573 103.413 36.3458 103.408C36.3342 103.402 36.3239 103.394 36.3154 103.385C36.3069 103.375 36.3004 103.364 36.2962 103.352C36.292 103.34 36.2902 103.327 36.2909 103.314C36.2917 103.302 36.2949 103.289 36.3005 103.278C36.3061 103.266 36.3139 103.256 36.3234 103.247C36.333 103.239 36.3441 103.232 36.3562 103.228C36.3802 103.228 38.8362 102.388 40.9202 103.412C41.5145 103.722 42.0391 104.151 42.4615 104.672C42.8839 105.193 43.1951 105.794 43.3762 106.44C43.3838 106.464 43.3818 106.49 43.3706 106.512C43.3594 106.535 43.3399 106.552 43.3162 106.56L43.2722 106.568Z" fill="#263238"/>
<path d="M37.6001 108.704C37.6001 108.704 38.2361 108.164 38.5361 108.888C38.2453 108.746 37.9228 108.683 37.6001 108.704Z" fill="#263238"/>
<path d="M40.6121 109.104C40.6121 109.104 40.9641 108.368 41.4121 108.888C41.1325 108.898 40.8589 108.972 40.6121 109.104Z" fill="#263238"/>
<path d="M107.581 55.5341L102.1 55.2717C101.285 55.2328 100.594 55.8612 100.555 56.6755L100.292 62.1572C100.253 62.9715 100.882 63.6631 101.696 63.7021L107.178 63.9644C107.992 64.0034 108.684 63.3749 108.723 62.5607L108.985 57.0789C109.024 56.2647 108.396 55.573 107.581 55.5341Z" fill="#CC0000"/>
<path opacity="0.6" d="M107.04 58.0681C106.492 57.0761 105.336 57.3921 104.712 58.1161C104.16 57.3361 103.04 56.9161 102.4 57.8481C101.316 59.4281 103.312 61.0481 104.26 61.6761L104.532 61.8601L104.82 61.7041C105.824 61.1601 107.964 59.7481 107.04 58.0681Z" fill="white"/>
<path d="M105.376 63.2241C105.376 63.2241 104.148 65.7 101.632 66.372C101.632 66.372 103.04 65.6481 103.06 63.0081L105.376 63.2241Z" fill="#CC0000"/>
<path d="M111.804 89.328C111.804 89.328 114.98 86.152 116 83.892C116 83.892 115.6 82.624 115.976 81.972C116.352 81.32 118.456 79.436 119.02 79.836C119.584 80.236 120.4 81.812 120.064 82.472C119.728 83.132 117.664 84.472 117.664 84.472C117.664 84.472 115.092 89.632 113.5 90.792C111.908 91.952 111.804 89.328 111.804 89.328Z" fill="#EBB376"/>
<path d="M103.772 79.78C105.62 80.02 107.732 88.98 109.208 89.832C110.684 90.684 114.52 85.72 114.52 85.72L116.276 87.72C116.276 87.72 111.2 94.8 109.2 94.152C107.2 93.504 103.428 86.552 103.428 86.552L103.772 79.78Z" fill="#263238"/>
<path opacity="0.05" d="M103.772 79.78C105.62 80.02 107.732 88.98 109.208 89.832C110.684 90.684 114.52 85.72 114.52 85.72L116.276 87.72C116.276 87.72 111.2 94.8 109.2 94.152C107.2 93.504 103.428 86.552 103.428 86.552L103.772 79.78Z" fill="white"/>
<path d="M114.996 162.496L112.568 162.928L111.572 159.612L110.66 156.572L113.464 155.596L114.276 159.248L114.996 162.496Z" fill="#EBB376"/>
<path d="M112.02 162.864C111.98 162.592 115.308 162.224 115.308 162.224C115.308 162.224 117.708 163.924 119.744 164.04C121.78 164.156 120.9 165.528 118.704 165.916L113.264 166.876C111.704 167.152 112.444 165.652 112.02 162.864Z" fill="#263238"/>
<path d="M116.94 162.776C116.534 162.759 116.131 162.694 115.74 162.584H115.712C115.702 162.578 115.694 162.57 115.688 162.56V162.54C115.686 162.527 115.686 162.513 115.688 162.5C115.688 162.46 115.836 161.648 116.248 161.384C116.311 161.343 116.381 161.316 116.455 161.305C116.529 161.294 116.604 161.299 116.676 161.32C116.84 161.364 116.928 161.444 116.944 161.556C116.944 161.732 116.76 161.956 116.516 162.136C116.758 162.051 117.018 162.034 117.268 162.088C117.316 162.102 117.36 162.127 117.397 162.16C117.435 162.193 117.464 162.234 117.484 162.28C117.521 162.334 117.54 162.397 117.54 162.462C117.54 162.527 117.521 162.59 117.484 162.644C117.407 162.703 117.32 162.744 117.226 162.767C117.132 162.79 117.035 162.793 116.94 162.776ZM116.04 162.476C116.56 162.596 117.196 162.668 117.328 162.516C117.328 162.516 117.376 162.46 117.328 162.336C117.304 162.289 117.262 162.253 117.212 162.236C116.807 162.207 116.401 162.29 116.04 162.476ZM116.524 161.46C116.458 161.459 116.394 161.479 116.34 161.516C116.114 161.731 115.96 162.01 115.9 162.316C116.356 162.044 116.78 161.704 116.764 161.556C116.764 161.508 116.676 161.48 116.628 161.464C116.594 161.459 116.559 161.457 116.524 161.46Z" fill="#CC0000"/>
<path opacity="0.2" d="M114.288 159.324L111.584 159.68L110.668 156.608L113.468 155.612L114.288 159.324Z" fill="black"/>
<path d="M98.7761 163.54H96.3081L95.9041 160.104L95.5361 156.952L98.4681 156.476L98.6321 160.216L98.7761 163.54Z" fill="#EBB376"/>
<path d="M95.78 163.38C95.78 163.108 99.128 163.32 99.128 163.32C99.128 163.32 101.184 165.412 103.184 165.884C105.184 166.356 104.064 167.552 101.832 167.552H96.308C94.724 167.552 95.716 166.2 95.78 163.38Z" fill="#263238"/>
<path d="M100.888 164.176C100.406 164.116 99.9371 163.973 99.504 163.752L99.472 163.732V163.712C99.4641 163.69 99.4641 163.666 99.472 163.644C99.472 163.612 99.764 162.844 100.22 162.644C100.288 162.613 100.361 162.596 100.436 162.596C100.511 162.596 100.584 162.613 100.652 162.644C100.804 162.716 100.876 162.808 100.872 162.924C100.872 163.1 100.624 163.276 100.352 163.42C100.604 163.376 100.864 163.405 101.1 163.504C101.144 163.526 101.183 163.558 101.215 163.596C101.246 163.635 101.268 163.68 101.28 163.728C101.304 163.789 101.309 163.855 101.295 163.918C101.281 163.982 101.248 164.04 101.2 164.084C101.11 164.15 101 164.183 100.888 164.176ZM99.808 163.696C100.3 163.904 100.912 164.096 101.072 163.96C101.072 163.96 101.124 163.916 101.072 163.784C101.065 163.759 101.053 163.736 101.037 163.716C101.02 163.696 100.999 163.679 100.976 163.668C100.592 163.57 100.187 163.579 99.808 163.696ZM100.404 162.776C100.359 162.778 100.314 162.787 100.272 162.804C100.008 162.977 99.8067 163.229 99.696 163.524C100.192 163.336 100.672 163.076 100.68 162.924C100.68 162.88 100.604 162.836 100.56 162.812C100.51 162.788 100.455 162.776 100.4 162.776H100.404Z" fill="#CC0000"/>
<path opacity="0.2" d="M98.6321 160.292L95.9041 160.172L95.5361 156.984L98.4681 156.492L98.6321 160.292Z" fill="black"/>
<path d="M114.52 157.396L110.52 158.1C106.488 148.06 103.624 139.676 101.6 132.72C100.508 128.968 99.66 125.628 99.004 122.668L99.2 133.6V158.432H95.136C85.268 111.38 92.26 100.624 92.26 100.624L104.064 98.624C104.529 100.793 104.859 102.99 105.052 105.2L105.584 109.1L110.2 132.928L114.52 157.396Z" fill="#CC0000"/>
<path d="M109.9 157.608L114.852 155.964L114.784 158.072L110.688 159.376L109.9 157.608Z" fill="#CC0000"/>
<path d="M94.604 157.836L99.772 157.08L99.336 159.144L95.076 159.716L94.604 157.836Z" fill="#CC0000"/>
<path d="M103 74.876C102.983 74.8813 102.965 74.8813 102.948 74.876C101.444 73.968 100.1 70.628 100.044 70.476C100.039 70.464 100.036 70.451 100.036 70.4379C100.036 70.4249 100.039 70.4119 100.044 70.3999C100.05 70.3879 100.057 70.3772 100.067 70.3682C100.076 70.3593 100.088 70.3524 100.1 70.348C100.125 70.3386 100.153 70.3392 100.177 70.3496C100.202 70.3601 100.221 70.3795 100.232 70.404C100.232 70.436 101.604 73.824 103.032 74.696C103.055 74.7101 103.072 74.7326 103.078 74.7587C103.085 74.7849 103.081 74.8126 103.068 74.836C103.051 74.8574 103.027 74.8717 103 74.876Z" fill="#263238"/>
<path d="M90.8919 66.1C90.8919 66.1 91.4799 64.1 95.3999 63.764C99.3199 63.428 101.268 67.284 100.344 70.164C100.344 70.164 101.168 74.068 102.744 75.216C102.744 75.216 95.1999 78.624 91.3919 78.644C90.5439 78.644 88.7359 74.44 88.4999 71.408C88.2839 68.48 89.1639 66.192 90.8919 66.1Z" fill="#263238"/>
<path d="M92.26 98.864V100.624L104.3 99.7V97.616L92.26 98.864Z" fill="#263238"/>
<path opacity="0.3" d="M92.26 98.864V100.624L104.3 99.7V97.616L92.26 98.864Z" fill="white"/>
<path d="M101.523 98.0403L98.8892 98.2762L99.068 100.272L101.701 100.036L101.523 98.0403Z" fill="white"/>
<path d="M96.3064 98.1172L95.7112 98.1476L95.8668 101.188L96.462 101.157L96.3064 98.1172Z" fill="#CC0000"/>
<path d="M103.655 97.3134L103.06 97.3438L103.215 100.384L103.81 100.353L103.655 97.3134Z" fill="#CC0000"/>
<path d="M104.348 97.828L92.3081 98.868C92.1921 97.048 92.0761 95.488 91.8001 93.74C91.6241 92.62 91.3801 91.42 91.0281 90.024C90.7561 88.932 90.4161 87.716 89.9841 86.324C89.9641 86.248 89.9401 86.172 89.9161 86.096C89.6681 85.296 87.9161 85.908 87.7441 84.952C87.0481 80.696 91.6401 80.384 93.3441 80.104C95.131 79.7868 96.9383 79.597 98.7521 79.536C101.092 79.516 103.784 79.78 103.784 79.78C103.784 79.78 104.184 79.872 104.408 82.356C104.616 84.684 104.832 89.348 104.348 97.828Z" fill="#263238"/>
<path d="M97.7439 82.196C94.7799 81.796 93.8879 80.548 93.8879 80.548C95.7679 78.772 94.2039 75.692 94.2039 75.692L97.7759 76.36C97.6954 76.8576 97.6486 77.3601 97.6359 77.864C97.6119 80.032 98.5919 80.052 98.5919 80.052C99.1999 81.228 97.7439 82.196 97.7439 82.196Z" fill="#EBB376"/>
<path opacity="0.2" d="M97.7761 76.36C97.6955 76.8576 97.6488 77.3601 97.6361 77.864C95.2361 77.864 94.2041 75.692 94.2041 75.692L97.7761 76.36Z" fill="black"/>
<path d="M95.04 66.364C98.072 65.676 99.416 67.08 100.344 70.156C101.508 73.996 101.268 76.956 97.288 76.992C91.884 77.024 90 67.504 95.04 66.364Z" fill="#EBB376"/>
<path d="M98.344 70.428C98.6901 70.8262 99.0822 71.182 99.512 71.488C99.4505 71.6296 99.3519 71.752 99.2265 71.8421C99.1012 71.9322 98.9538 71.9868 98.8 72L98.344 70.428Z" fill="#D58745"/>
<path d="M96.432 70.6C96.496 70.848 96.412 71.084 96.248 71.124C96.084 71.1641 95.896 71.0001 95.848 70.752C95.8 70.504 95.848 70.268 96.032 70.228C96.216 70.188 96.372 70.352 96.432 70.6Z" fill="#263238"/>
<path d="M95.9561 70.256L96.4401 69.912C96.4401 69.912 96.2881 70.432 95.9561 70.256Z" fill="#263238"/>
<path d="M99.5 69.776C99.564 70.024 99.48 70.256 99.316 70.3C99.152 70.344 98.964 70.172 98.916 69.924C98.868 69.676 98.936 69.444 99.1 69.404C99.264 69.364 99.44 69.528 99.5 69.776Z" fill="#263238"/>
<path d="M99.0239 69.432L99.5079 69.084C99.5079 69.084 99.3559 69.6 99.0239 69.432Z" fill="#263238"/>
<path d="M94.716 69.4161C94.695 69.4211 94.6731 69.4211 94.652 69.4161C94.6183 69.3989 94.5926 69.3691 94.5806 69.3332C94.5687 69.2973 94.5713 69.258 94.588 69.2241C94.7285 68.9901 94.9217 68.7923 95.1523 68.6464C95.3829 68.5005 95.6445 68.4107 95.916 68.3841C95.954 68.3818 95.9914 68.3942 96.0205 68.4188C96.0495 68.4434 96.068 68.4782 96.072 68.516C96.0743 68.535 96.0727 68.5542 96.0675 68.5725C96.0622 68.5908 96.0534 68.6079 96.0415 68.6228C96.0296 68.6377 96.0148 68.65 95.9981 68.6592C95.9814 68.6683 95.963 68.6741 95.944 68.6761C95.7222 68.6986 95.5083 68.7711 95.3184 68.8882C95.1286 69.0053 94.9678 69.1639 94.848 69.3521C94.8335 69.3733 94.8137 69.3903 94.7905 69.4016C94.7674 69.4128 94.7417 69.4178 94.716 69.4161Z" fill="#263238"/>
<path d="M98.104 68.032C98.0798 68.032 98.0561 68.0257 98.0351 68.0138C98.014 68.0019 97.9964 67.9847 97.984 67.964C97.9638 67.9319 97.9566 67.8932 97.9641 67.856C97.9715 67.8188 97.993 67.7859 98.024 67.764C98.2388 67.6529 98.4761 67.5919 98.7179 67.5857C98.9597 67.5794 99.1997 67.6281 99.42 67.728C99.4387 67.734 99.456 67.7438 99.4708 67.7567C99.4856 67.7696 99.4976 67.7854 99.5061 67.8031C99.5145 67.8208 99.5193 67.8401 99.52 67.8597C99.5208 67.8794 99.5175 67.8989 99.5104 67.9173C99.5033 67.9356 99.4925 67.9522 99.4787 67.9662C99.4649 67.9802 99.4484 67.9913 99.4302 67.9986C99.412 68.006 99.3925 68.0096 99.3728 68.0091C99.3532 68.0087 99.3339 68.0042 99.316 67.996C99.1394 67.9112 98.9459 67.8672 98.75 67.8672C98.5541 67.8672 98.3606 67.9112 98.184 67.996C98.1617 68.016 98.1338 68.0286 98.104 68.032Z" fill="#263238"/>
<path d="M98.6199 73.304C98.5543 73.6781 98.5155 74.0564 98.5039 74.4361L98.3039 74.4641C97.4039 74.5721 96.9479 74.3281 96.7039 74.0201C96.5929 73.868 96.5214 73.6906 96.4959 73.504C96.4805 73.3993 96.4805 73.2928 96.4959 73.188C97.0835 73.3676 97.703 73.4181 98.3119 73.336C98.4999 73.324 98.6199 73.304 98.6199 73.304Z" fill="#263238"/>
<path d="M98.3121 73.336L98.2681 73.6681C97.4161 73.7721 96.8041 73.7281 96.5081 73.5041C96.4927 73.3993 96.4927 73.2928 96.5081 73.188C97.0919 73.3659 97.7071 73.4164 98.3121 73.336Z" fill="white"/>
<path d="M98.3041 74.464C97.4041 74.572 96.9481 74.328 96.7041 74.02C97.0485 73.9827 97.3969 74.0084 97.7321 74.096C97.9575 74.1536 98.1582 74.2827 98.3041 74.464Z" fill="#DE5753"/>
<path d="M92.88 72.224C92.88 72.224 93.736 69.424 93.084 67.54C93.084 67.54 98.54 63.72 100.216 69.756C100.216 69.756 99.576 64.204 94.336 65.264C89.096 66.324 90.844 73.948 94.052 75.608C94.052 75.6 92.356 74 92.88 72.224Z" fill="#263238"/>
<path d="M93.524 72.752C93.4146 72.4082 93.1735 72.1217 92.8534 71.9553C92.5333 71.7889 92.1602 71.7561 91.816 71.864C90.9 72.176 90.888 74.208 93.328 74.144C93.68 74.132 93.796 73.764 93.524 72.752Z" fill="#EBB376"/>
<path d="M93.0841 67.54C93.0841 67.54 96.2281 66.38 97.9961 67.252C97.9961 67.252 96.0921 65.54 92.8601 67.152L93.0841 67.54Z" fill="#263238"/>
<path d="M91.136 80.876C91.136 80.876 94.62 83.704 97.864 83.656C101.108 83.608 102.264 79.964 102.264 79.964C102.264 79.964 97.2 78.476 91.136 80.876Z" fill="#EBB376"/>
<path opacity="0.2" d="M101.6 132.72C100.508 128.968 99.6601 125.628 99.0042 122.668C99.061 119.162 99.3161 115.661 99.7681 112.184C99.7681 112.184 101.5 125.708 101.6 132.72Z" fill="black"/>
<path d="M81.388 87.14C81.388 87.14 78.988 83.332 78.508 80.9C78.508 80.9 79.168 79.752 78.96 79.036C78.752 78.32 77.108 76.012 76.472 76.276C75.836 76.54 74.684 77.876 74.872 78.612C75.06 79.348 76.776 81.112 76.776 81.112C76.776 81.112 78.132 86.712 79.424 88.2C80.716 89.688 81.388 87.14 81.388 87.14Z" fill="#EBB376"/>
<path d="M87.8881 82.868C89.0881 82.7 91.5521 85.068 91.1801 87.116C90.8081 89.164 87.3761 94.924 84.7281 94.476C80.9881 93.84 76.8801 84 76.8801 84L78.9321 82.212C78.9321 82.212 83.7761 90.612 84.7281 90.436C85.6801 90.26 87.8881 82.868 87.8881 82.868Z" fill="#263238"/>
<path opacity="0.05" d="M87.8881 82.868C89.0881 82.7 91.5521 85.068 91.1801 87.116C90.8081 89.164 87.3761 94.924 84.7281 94.476C80.9881 93.84 76.8801 84 76.8801 84L78.9321 82.212C78.9321 82.212 83.7761 90.612 84.7281 90.436C85.6801 90.26 87.8881 82.868 87.8881 82.868Z" fill="white"/>
<path d="M76.04 83.38L79.036 81.584L79.512 82.36L76.684 84.86L76.04 83.38Z" fill="#263238"/>
<path d="M113.852 85.664L116.276 88.668L116.7 87.728L114.52 85.192L113.852 85.664Z" fill="#263238"/>
<path d="M115.064 81.6L118.896 76.928C118.928 76.8901 118.967 76.859 119.011 76.8367C119.055 76.8144 119.104 76.8013 119.153 76.7983C119.203 76.7953 119.252 76.8025 119.299 76.8193C119.345 76.8361 119.388 76.8622 119.424 76.896L121.132 78.496C121.199 78.5586 121.24 78.6443 121.245 78.7357C121.251 78.8271 121.222 78.9174 121.164 78.988L117.272 83.764C117.24 83.8039 117.2 83.8365 117.154 83.8596C117.109 83.8827 117.059 83.8958 117.007 83.8981C116.956 83.9004 116.905 83.8917 116.858 83.8728C116.81 83.8538 116.767 83.8249 116.732 83.788L115.08 82.068C115.023 82.0044 114.99 81.9226 114.987 81.837C114.984 81.7514 115.011 81.6675 115.064 81.6Z" fill="#CC0000"/>
<path opacity="0.3" d="M115.064 81.6L118.896 76.928C118.928 76.8901 118.967 76.859 119.011 76.8367C119.055 76.8144 119.104 76.8013 119.153 76.7983C119.203 76.7953 119.252 76.8025 119.299 76.8193C119.345 76.8361 119.388 76.8622 119.424 76.896L121.132 78.496C121.199 78.5586 121.24 78.6443 121.245 78.7357C121.251 78.8271 121.222 78.9174 121.164 78.988L117.272 83.764C117.24 83.8039 117.2 83.8365 117.154 83.8596C117.109 83.8827 117.059 83.8958 117.007 83.8981C116.956 83.9004 116.905 83.8917 116.858 83.8728C116.81 83.8538 116.767 83.8249 116.732 83.788L115.08 82.068C115.023 82.0044 114.99 81.9226 114.987 81.837C114.984 81.7514 115.011 81.6675 115.064 81.6Z" fill="black"/>
<path d="M114.908 81.416L118.744 76.744C118.776 76.706 118.815 76.675 118.859 76.6527C118.904 76.6304 118.952 76.6173 119.001 76.6143C119.051 76.6113 119.1 76.6184 119.147 76.6352C119.193 76.652 119.236 76.6782 119.272 76.712L120.98 78.312C121.046 78.3751 121.086 78.4606 121.092 78.5518C121.098 78.6429 121.07 78.7329 121.012 78.804L117.12 83.604C117.086 83.6424 117.044 83.6731 116.997 83.6942C116.95 83.7152 116.9 83.7261 116.848 83.7261C116.797 83.7261 116.746 83.7152 116.699 83.6942C116.652 83.6731 116.61 83.6424 116.576 83.604L114.928 81.884C114.87 81.8212 114.835 81.7395 114.832 81.6537C114.828 81.5679 114.855 81.4836 114.908 81.416Z" fill="#CC0000"/>
<path opacity="0.6" d="M118.896 76.932L120.792 78.768L117.084 83.328L115.24 81.392L118.896 76.932Z" fill="white"/>
</svg>
