<svg xmlns="http://www.w3.org/2000/svg" viewBox="0 0 500 500"><g id="freepik--background-complete--inject-1"><rect y="382.4" width="500" height="0.25" style="fill:#e0e0e0"></rect><rect x="384.97" y="393.28" width="20.54" height="0.25" style="fill:#e0e0e0"></rect><rect x="412.84" y="393.15" width="12.69" height="0.25" style="fill:#e0e0e0"></rect><rect x="276.89" y="393.15" width="38.81" height="0.25" style="fill:#e0e0e0"></rect><rect x="154.21" y="397.54" width="47.46" height="0.25" style="fill:#e0e0e0"></rect><rect x="95.44" y="389.63" width="7.07" height="0.25" style="fill:#e0e0e0"></rect><rect x="108.07" y="389.63" width="54.49" height="0.25" style="fill:#e0e0e0"></rect><rect x="70.35" y="395.67" width="28.63" height="0.25" style="fill:#e0e0e0"></rect><path d="M237,337.8H43.91a5.71,5.71,0,0,1-5.7-5.71V60.66A5.71,5.71,0,0,1,43.91,55H237a5.71,5.71,0,0,1,5.71,5.71V332.09A5.71,5.71,0,0,1,237,337.8ZM43.91,55.2a5.46,5.46,0,0,0-5.45,5.46V332.09a5.46,5.46,0,0,0,5.45,5.46H237a5.47,5.47,0,0,0,5.46-5.46V60.66A5.47,5.47,0,0,0,237,55.2Z" style="fill:#e0e0e0"></path><path d="M453.31,337.8H260.21a5.72,5.72,0,0,1-5.71-5.71V60.66A5.72,5.72,0,0,1,260.21,55h193.1A5.71,5.71,0,0,1,459,60.66V332.09A5.71,5.71,0,0,1,453.31,337.8ZM260.21,55.2a5.47,5.47,0,0,0-5.46,5.46V332.09a5.47,5.47,0,0,0,5.46,5.46h193.1a5.47,5.47,0,0,0,5.46-5.46V60.66a5.47,5.47,0,0,0-5.46-5.46Z" style="fill:#e0e0e0"></path><path d="M77.23,382.4H56.68S44,371.16,39.91,356.08C38,349.13,47.35,344.34,53,349.3,66.22,360.92,77.23,382.4,77.23,382.4Z" style="fill:#ebebeb"></path><path d="M85.88,382.4H65.33s-11.75-24.14-7.21-41.71a7.86,7.86,0,0,1,13.45-3.32C87.11,354.47,85.88,382.4,85.88,382.4Z" style="fill:#ebebeb"></path><path d="M85.9,382.4H99.17s8.32-14.67,16.13-32.7c7.29-16.81-5.13-23.83-12.93-7.31C92.45,363.41,85.9,382.4,85.9,382.4Z" style="fill:#ebebeb"></path><path d="M89.53,382.4h20.55s20.69-9.79,19.54-28.32c-.31-4.85-5.85-8-10.76-6.12C96.8,356.42,89.53,382.4,89.53,382.4Z" style="fill:#ebebeb"></path><path d="M78,382.4H98.54s6.21-34.28-1.15-55.87c-2.2-6.45-10-7.58-13.62-2C70.38,345.41,78,382.4,78,382.4Z" style="fill:#ebebeb"></path><polygon points="214.11 200 272 154.03 440.75 208.33 214.11 208.33 214.11 200" style="fill:#e0e0e0"></polygon><rect x="337.22" y="216.67" width="96.44" height="165.73" transform="translate(770.89 599.07) rotate(180)" style="fill:#ebebeb"></rect><path d="M408.83,382.4H390.28s-11.43-9-15.15-21.16c-1.71-5.59,6.72-9.45,11.82-5.46C398.89,365.13,408.83,382.4,408.83,382.4Z" style="fill:#f5f5f5"></path><path d="M416.65,382.4H398.09s-10.61-19.41-6.51-33.54c1.42-4.9,8.32-6.41,12.14-2.67C417.76,359.94,416.65,382.4,416.65,382.4Z" style="fill:#f5f5f5"></path><path d="M416.67,382.4h12a296.28,296.28,0,0,0,14.58-26.29c6.58-13.52-4.64-19.17-11.68-5.88A336.33,336.33,0,0,0,416.67,382.4Z" style="fill:#f5f5f5"></path><path d="M419.94,382.4H438.5s18.69-7.87,17.64-22.77c-.27-3.9-5.28-6.43-9.71-4.92C426.51,361.51,419.94,382.4,419.94,382.4Z" style="fill:#f5f5f5"></path><path d="M409.53,382.4h18.55s5.61-27.56-1-44.93a7.08,7.08,0,0,0-12.3-1.58C402.65,352.65,409.53,382.4,409.53,382.4Z" style="fill:#f5f5f5"></path><polygon points="337.22 216.67 433.67 216.67 440.75 208.33 337.22 208.33 337.22 216.67" style="fill:#e0e0e0"></polygon><rect x="294.79" y="230.46" width="96.27" height="80.56" style="fill:#e0e0e0"></rect><rect x="307.73" y="227.12" width="70.39" height="87.22" transform="translate(613.66 -72.19) rotate(90)" style="fill:#f5f5f5"></rect><rect x="296.67" y="267.32" width="92.53" height="6.82" style="fill:#e0e0e0"></rect><rect x="91" y="187.85" width="246.22" height="194.54" style="fill:#f5f5f5"></rect><rect x="110.08" y="222.55" width="115.18" height="96.38" style="fill:#ebebeb"></rect><rect x="125.56" y="218.56" width="84.22" height="104.35" transform="translate(438.4 103.07) rotate(90)" style="fill:#fafafa"></rect><rect x="134.25" y="209.86" width="66.83" height="104.35" transform="translate(429.71 94.37) rotate(90)" style="fill:#f5f5f5"></rect><rect x="112.32" y="291.37" width="110.7" height="8.16" style="fill:#ebebeb"></rect><rect x="251.63" y="218.63" width="65.81" height="139.93" transform="translate(569.08 577.18) rotate(180)" style="fill:#e0e0e0"></rect><rect x="216.16" y="260.74" width="136.75" height="58.88" transform="translate(574.72 5.64) rotate(90)" style="fill:#ebebeb"></rect><rect x="257.67" y="229.92" width="53.73" height="48.48" transform="translate(538.69 -30.39) rotate(90)" style="fill:#e0e0e0"></rect><rect x="257.67" y="291.86" width="53.73" height="48.48" transform="translate(600.64 31.56) rotate(90)" style="fill:#e0e0e0"></rect><polygon points="341.22 201.41 87 201.41 87 183.85 214.11 117.63 341.22 183.85 341.22 201.41" style="fill:#ebebeb"></polygon><polygon points="352.46 193.09 214.11 121.02 75.76 193.09 72.99 187.77 214.11 114.25 355.23 187.77 352.46 193.09" style="fill:#e0e0e0"></polygon><path d="M214.11,189.73a27.38,27.38,0,1,1,27.37-27.38A27.41,27.41,0,0,1,214.11,189.73Zm0-48.75a21.38,21.38,0,1,0,21.37,21.37A21.4,21.4,0,0,0,214.11,141Z" style="fill:#e0e0e0"></path><circle cx="214.11" cy="162.35" r="19.93" style="fill:#f5f5f5"></circle><rect x="243.19" y="356.22" width="82.7" height="4.29" style="fill:#ebebeb"></rect><rect x="245.08" y="360.52" width="78.92" height="8.79" style="fill:#e0e0e0"></rect><rect x="236.91" y="369.31" width="95.26" height="4.29" style="fill:#ebebeb"></rect><rect x="239.09" y="373.6" width="90.9" height="8.79" style="fill:#e0e0e0"></rect><path d="M310.75,281.81a3.63,3.63,0,1,1-3.63-3.63A3.63,3.63,0,0,1,310.75,281.81Z" style="fill:#fafafa"></path><path d="M73.62,90.4c-5.8-12.53-1.19-21.46,13-21.46,8.89,0,19.91,3.52,30.65,9.23,1.21-3.26,4.63-5.21,10.13-5.21,9.67,0,23,6,33.46,14.55,2.53-1.89,6.19-3.06,10.9-3.24C181,83.88,192.22,87.35,202,93a6,6,0,0,1,4.29-1.62c5.34-.22,12.56,3.28,16.14,7.81.23.29.43.56.62.84H66.42C61.47,95.57,66.94,90.62,73.62,90.4Z" style="fill:#f5f5f5"></path><path d="M278.36,111.63a11.9,11.9,0,0,1,1.34-.07c-.41-4.65,2-7.62,7.14-7.62,3.72,0,8.27,1.55,12.91,4.17-1.32-9,2.93-14.89,12.56-14.89,7.77,0,17.61,3.82,27.33,10,.85-3.54,3.72-5.66,8.53-5.66,8.45,0,20.46,6.55,30.09,15.8,0,0,0,0,0,0,2.08-2.06,5.2-3.33,9.31-3.54,8.05-.41,18,3.35,26.9,9.49a4.34,4.34,0,0,1,3.66-1.76c4.4-.23,10.46,3.16,14,7.69H271.28C267.5,118.41,270.51,112.4,278.36,111.63Z" style="fill:#f5f5f5"></path></g><g id="freepik--Shadow--inject-1"><ellipse cx="250" cy="416.24" rx="193.89" ry="11.32" style="fill:#f5f5f5"></ellipse></g><g id="freepik--Character--inject-1"><rect x="272.6" y="97.02" width="5.11" height="64.58" rx="0.96" transform="translate(290.04 -174.35) rotate(67.63)" style="fill:#407BFF"></rect><rect x="272.6" y="97.02" width="5.11" height="64.58" rx="0.96" transform="translate(290.04 -174.35) rotate(67.63)" style="fill:#fafafa;opacity:0.6000000000000001"></rect><rect x="286.69" y="121.13" width="5.11" height="4.77" transform="translate(293.41 -190.98) rotate(67.63)" style="fill:#407BFF"></rect><rect x="286.69" y="121.13" width="5.11" height="4.77" transform="translate(293.41 -190.98) rotate(67.63)" style="fill:#fafafa;opacity:0.30000000000000004"></rect><rect x="283.54" y="114.88" width="24.77" height="11.77" rx="5.56" transform="translate(295 -198.85) rotate(67.63)" style="fill:#407BFF"></rect><rect x="283.54" y="114.88" width="24.77" height="11.77" rx="5.56" transform="translate(295 -198.85) rotate(67.63)" style="opacity:0.30000000000000004"></rect><polygon points="275.64 407.21 268.36 407.21 266.42 390.33 273.71 390.33 275.64 407.21" style="fill:#e4897b"></polygon><polygon points="326.92 407.21 319.63 407.21 313.95 390.33 321.24 390.33 326.92 407.21" style="fill:#e4897b"></polygon><path d="M318.66,406.36h8.88a.63.63,0,0,1,.62.5l1.44,6.48a1.07,1.07,0,0,1-1.06,1.29c-2.86-.05-5-.21-8.55-.21-2.21,0-6.77.23-9.83.23s-3.46-3-2.21-3.3c5.62-1.23,7.73-2.92,9.53-4.54A1.75,1.75,0,0,1,318.66,406.36Z" style="fill:#263238"></path><path d="M268.41,406.36h8a.65.65,0,0,1,.62.5l1.44,6.48a1.06,1.06,0,0,1-1.05,1.29c-2.87-.05-7-.21-10.63-.21-4.22,0-7.86.23-12.81.23-3,0-3.82-3-2.56-3.3,5.7-1.25,10.35-1.38,15.27-4.42A3.4,3.4,0,0,1,268.41,406.36Z" style="fill:#263238"></path><path d="M270.42,197.92c-1.21-1-2.27-1.94-3.35-3s-2.13-2-3.17-3c-2.08-2.07-4.09-4.21-6-6.45s-3.77-4.59-5.52-7.06l-1.28-1.89-1.21-2c-.41-.64-.77-1.37-1.15-2.06l-.56-1.05c-.2-.42-.4-.83-.58-1.26a21.58,21.58,0,0,1-1.48-10.6,30.9,30.9,0,0,1,2.64-9.4,45.58,45.58,0,0,1,4.62-7.93c.88-1.22,1.82-2.39,2.78-3.53a43.38,43.38,0,0,1,3.11-3.31l4.1,3.62c-.67,1-1.42,2.22-2.09,3.36s-1.3,2.34-1.89,3.53a46.77,46.77,0,0,0-2.94,7.2c-1.51,4.82-1.66,9.61.17,13,.1.22.23.42.35.63l.5.79c.35.52.64,1.05,1,1.56l1.11,1.56,1.2,1.55c1.63,2,3.38,4,5.21,6s3.75,3.9,5.69,5.79,4,3.79,5.89,5.53Z" style="fill:#e4897b"></path><path d="M280.2,203.06c-6.81,1.46-23.95-13.68-23.95-13.68l10-13.24s10.11,8.31,18.67,11.14C293.68,190.19,287.68,201.45,280.2,203.06Z" style="fill:#263238"></path><path d="M256.5,140.83l.84-6.16h9.58s-2.35,9.33-7.62,8.71Z" style="fill:#e4897b"></path><polygon points="259.5 130.29 265.99 128.76 266.92 134.67 257.34 134.67 259.5 130.29" style="fill:#e4897b"></polygon><polygon points="266.42 390.34 267.42 399.04 274.71 399.04 273.71 390.34 266.42 390.34" style="fill:#ce6f64"></polygon><polygon points="321.25 390.34 313.96 390.34 316.88 399.04 324.17 399.04 321.25 390.34" style="fill:#ce6f64"></polygon><path d="M270.47,190.26s-8.6,22-.43,63h39c.27-6-3.49-35.16,2.28-63.35a102,102,0,0,0-13-1.65,143,143,0,0,0-16.57,0A73.19,73.19,0,0,0,270.47,190.26Z" style="fill:#263238"></path><path d="M283.43,201.6c-3.17-.15-4.89-.12-5.64-.08h-.28c-1.45,6.95-2.94,18.73-1.62,35l10.54.22a239.62,239.62,0,0,1,2.45-34.81C287.27,201.82,285.37,201.69,283.43,201.6Z" style="fill:#407BFF"></path><path d="M283.43,201.6c-3.17-.15-4.89-.12-5.64-.08h-.28c-1.45,6.95-2.94,18.73-1.62,35l10.54.22a239.62,239.62,0,0,1,2.45-34.81C287.27,201.82,285.37,201.69,283.43,201.6Z" style="fill:#fafafa;opacity:0.30000000000000004"></path><path d="M296.6,169.58c-1,5.33-2.08,15.1,1.65,18.65a24.21,24.21,0,0,1-14.33,6.08c-4.31-1.56-3.52-4.2-3.08-5.06a2.69,2.69,0,0,1,1.62-1.23c5.15-1.61,5-5.81,4-9.76Z" style="fill:#e4897b"></path><path d="M292.46,173.12l-6,5.14a16.93,16.93,0,0,1,.51,2.94c2.33.3,5.47-2,5.47-4.59A21.84,21.84,0,0,0,292.46,173.12Z" style="fill:#ce6f64"></path><path d="M277,154.08c-3.34,2-4.31,13.24.55,14.91S283.34,150.32,277,154.08Z" style="fill:#263238"></path><path d="M283.44,160c-3.48-.44-14.4.36-11.79-6.55s14.09-2.64,15,.62S289.52,160.8,283.44,160Z" style="fill:#263238"></path><path d="M295.16,161c.53,7.21,1.21,11.4-1.9,15.57-4.68,6.26-13.95,4.19-16.63-2.72-2.41-6.22-2.88-17,3.73-20.76A9.86,9.86,0,0,1,295.16,161Z" style="fill:#e4897b"></path><path d="M295.61,168.1c-3.56,2.07-13.19-12.21-1.86-15.43S301.38,164.76,295.61,168.1Z" style="fill:#263238"></path><path d="M290.44,158.63c-4.65-1.34-19.67-2.59-14.65-11.43s19.74-.58,20.24,4S298.55,161,290.44,158.63Z" style="fill:#263238"></path><path d="M291.06,156c-1.94-3.54-10-13.17-1.85-15.4s12,11.35,9.51,14.36S294.44,162.19,291.06,156Z" style="fill:#263238"></path><path d="M298.54,153.62a27.07,27.07,0,0,0,1.24-8.49C300.84,146.75,301.84,152,298.54,153.62Z" style="fill:#263238"></path><path d="M304.14,153.27a16.14,16.14,0,0,0-6.55.17C298.57,152.15,302.23,150.33,304.14,153.27Z" style="fill:#263238"></path><path d="M293.58,156.81c2.07,2,7.16,9.45,10.26,4.23s-5.52-10.42-8.07-9.31S290,153.29,293.58,156.81Z" style="fill:#263238"></path><path d="M299.46,168.47a6.92,6.92,0,0,1-3.83,3.59c-2.26.83-3.59-1.15-3.12-3.39.43-2,2.11-4.86,4.46-4.73A3.08,3.08,0,0,1,299.46,168.47Z" style="fill:#e4897b"></path><path d="M270,253.23s-20.55,52.07-19.76,74.29c.83,23.11,14.41,69.83,14.41,69.83H277S272,352,272.52,329.28c.6-24.74,23.14-76,23.14-76Z" style="fill:#407BFF"></path><path d="M286.41,270.44l1.19,2.68a351,351,0,0,0-11.25,34C276,294,278.73,279.5,286.41,270.44Z" style="fill:#407BFF"></path><path d="M286.41,270.44l1.19,2.68a351,351,0,0,0-11.25,34C276,294,278.73,279.5,286.41,270.44Z" style="opacity:0.2"></path><path d="M283.86,253.23s-4.15,53.27.39,74.13c5,22.85,29.21,70,29.21,70H326.8s-17.85-45.3-20.69-67.92c-3.08-24.54,2.9-76.2,2.9-76.2Z" style="fill:#407BFF"></path><polygon points="311.1 397.64 328.54 397.64 328.54 392.94 309.04 392.64 311.1 397.64" style="fill:#407BFF"></polygon><polygon points="311.1 397.64 328.54 397.64 328.54 392.94 309.04 392.64 311.1 397.64" style="fill:#fafafa;opacity:0.6000000000000001"></polygon><polygon points="261.93 397.64 279.38 397.64 279.38 392.89 259.88 392.64 261.93 397.64" style="fill:#407BFF"></polygon><polygon points="261.93 397.64 279.38 397.64 279.38 392.89 259.88 392.64 261.93 397.64" style="fill:#fafafa;opacity:0.6000000000000001"></polygon><path d="M284.58,164.51c.08.58-.16,1.09-.54,1.14s-.76-.37-.84-1,.17-1.09.55-1.14S284.5,163.92,284.58,164.51Z" style="fill:#263238"></path><path d="M278,165.4c.08.59-.16,1.1-.54,1.15s-.76-.38-.84-1,.17-1.1.55-1.15S277.92,164.82,278,165.4Z" style="fill:#263238"></path><path d="M280.13,165.41a20.86,20.86,0,0,1-2.1,5.36,3.38,3.38,0,0,0,2.85.14Z" style="fill:#de5753"></path><path d="M282.78,172.29a.18.18,0,0,1-.18-.15.19.19,0,0,1,.15-.2,4.66,4.66,0,0,0,3.52-2.31.17.17,0,0,1,.23-.08.18.18,0,0,1,.08.23,5,5,0,0,1-3.78,2.51Z" style="fill:#263238"></path><path d="M286.23,162.12A.32.32,0,0,1,286,162a2.77,2.77,0,0,0-2.35-.84.35.35,0,0,1-.41-.27.33.33,0,0,1,.27-.4,3.39,3.39,0,0,1,3,1,.34.34,0,0,1,0,.49A.35.35,0,0,1,286.23,162.12Z" style="fill:#263238"></path><path d="M274.76,163.54l-.1,0a.34.34,0,0,1-.22-.43,3.39,3.39,0,0,1,2.19-2.26.34.34,0,0,1,.42.24.34.34,0,0,1-.24.42h0a2.76,2.76,0,0,0-1.72,1.81A.34.34,0,0,1,274.76,163.54Z" style="fill:#263238"></path><path d="M314.55,197.37c.31,3.34.45,6.52.56,9.78s.09,6.49,0,9.75a92.23,92.23,0,0,1-2.34,20,33.84,33.84,0,0,1-1.81,5.29c-.17.42-.46,1-.71,1.43s-.51.88-.76,1.26c-.51.81-1,1.52-1.56,2.21a91.45,91.45,0,0,1-6.52,7.52,172,172,0,0,1-14.14,13.15l-3.91-3.82c3.84-5,7.75-10,11.47-14.91,1.83-2.48,3.67-5,5.2-7.42a18.2,18.2,0,0,0,1.72-3.29,23.9,23.9,0,0,0,1-3.77,65.44,65.44,0,0,0,1.06-8.67c.2-3,.31-6,.31-9.11,0-6.11-.23-12.39-.61-18.43Z" style="fill:#e4897b"></path><path d="M317.91,194.59c5.73,9.14.93,24.13.93,24.13l-17.74-.52s1.06-9,1.56-18C303.19,190.49,312.3,185.63,317.91,194.59Z" style="fill:#263238"></path><path d="M316.25,407.64a2.19,2.19,0,0,1-1.4-.38,1,1,0,0,1-.36-.91.55.55,0,0,1,.3-.49c.81-.4,3.15,1,3.42,1.2a.18.18,0,0,1,.08.17.17.17,0,0,1-.13.14A8.21,8.21,0,0,1,316.25,407.64Zm-1.08-1.51a.53.53,0,0,0-.23,0,.22.22,0,0,0-.11.2.72.72,0,0,0,.24.63,3.54,3.54,0,0,0,2.59.13A7.12,7.12,0,0,0,315.17,406.13Z" style="fill:#407BFF"></path><path d="M318.12,407.38l-.09,0c-.75-.41-2.21-2-2-2.82,0-.15.13-.4.55-.45a.91.91,0,0,1,.73.22c.85.69,1,2.79,1,2.88a.18.18,0,0,1-.08.16Zm-1.47-3h-.08c-.23,0-.25.13-.25.17-.1.48.83,1.69,1.58,2.26a4.13,4.13,0,0,0-.86-2.28A.56.56,0,0,0,316.65,404.42Z" style="fill:#407BFF"></path><path d="M265.38,407.64a2.8,2.8,0,0,1-1.77-.45,1,1,0,0,1-.32-.84.53.53,0,0,1,.28-.46c.89-.49,3.81,1,4.14,1.16a.18.18,0,0,1,.1.18.19.19,0,0,1-.14.15A12.68,12.68,0,0,1,265.38,407.64Zm-1.32-1.51a.73.73,0,0,0-.32.06.22.22,0,0,0-.11.19.61.61,0,0,0,.21.55c.45.4,1.65.47,3.25.2A9.43,9.43,0,0,0,264.06,406.13Z" style="fill:#407BFF"></path><path d="M267.64,407.38l-.07,0c-.88-.39-2.63-2-2.49-2.79,0-.19.17-.44.64-.48a1.27,1.27,0,0,1,1,.29c.92.76,1.12,2.73,1.13,2.81a.2.2,0,0,1-.07.16A.19.19,0,0,1,267.64,407.38Zm-1.78-3h-.11c-.31,0-.33.15-.33.19-.08.5,1.1,1.74,2,2.28a4,4,0,0,0-1-2.25A.94.94,0,0,0,265.86,404.42Z" style="fill:#407BFF"></path><path d="M286.72,263.23l-7-2.38.95,9.26s6.42.7,7.17-2.65Z" style="fill:#e4897b"></path><polygon points="268.84 268.33 275.11 270.44 280.67 270.11 279.72 260.85 268.84 268.33" style="fill:#e4897b"></polygon></g><g id="freepik--Sign--inject-1"><rect x="210.11" y="257.67" width="13" height="158.57" style="fill:#407BFF"></rect><rect x="210.11" y="257.67" width="13" height="158.57" style="fill:#fafafa;opacity:0.6000000000000001"></rect><path d="M223.11,257.67c0,.33-2.91.61-6.5.61s-6.5-.28-6.5-.61,2.91-.61,6.5-.61S223.11,257.33,223.11,257.67Z" style="fill:#407BFF"></path><path d="M223.11,257.67c0,.33-2.91.61-6.5.61s-6.5-.28-6.5-.61,2.91-.61,6.5-.61S223.11,257.33,223.11,257.67Z" style="fill:#fafafa;opacity:0.4"></path><polygon points="223.11 357.28 210.11 356.34 210.11 346.56 223.11 346.56 223.11 357.28" style="fill:#407BFF"></polygon><polygon points="223.11 357.28 210.11 356.34 210.11 346.56 223.11 346.56 223.11 357.28" style="fill:#fafafa;opacity:0.4"></polygon><rect x="145.26" y="263.36" width="142.67" height="88.42" transform="translate(27.69 -17.74) rotate(5.01)" style="fill:#407BFF"></rect><rect x="145.26" y="263.36" width="142.67" height="88.42" transform="translate(27.69 -17.74) rotate(5.01)" style="opacity:0.30000000000000004"></rect><rect x="136.04" y="269.98" width="5.55" height="1" transform="translate(-142.82 384.99) rotate(-84.96)" style="fill:#407BFF"></rect><rect x="136.04" y="269.98" width="5.55" height="1" transform="translate(-142.82 384.99) rotate(-84.96)" style="fill:#fafafa;opacity:0.2"></rect><rect x="130.63" y="285.72" width="13.62" height="1" transform="translate(-159.76 397.97) rotate(-84.96)" style="fill:#407BFF"></rect><rect x="130.63" y="285.72" width="13.62" height="1" transform="translate(-159.76 397.97) rotate(-84.96)" style="fill:#fafafa;opacity:0.2"></rect><rect x="138.9" y="262.8" width="142.67" height="88.42" transform="translate(27.62 -17.19) rotate(5.01)" style="fill:#407BFF"></rect><rect x="138.9" y="262.8" width="142.67" height="88.42" transform="translate(27.62 -17.19) rotate(5.01)" style="fill:#fafafa;opacity:0.2"></rect><polygon points="285.85 282.9 259.19 281.68 285.67 285 285.85 282.9" style="fill:#407BFF;opacity:0.4"></polygon><polygon points="285.85 282.9 259.19 281.68 285.67 285 285.85 282.9" style="opacity:0.1"></polygon><polygon points="284.72 285.9 268.27 286.13 284.44 289.05 284.72 285.9" style="fill:#407BFF;opacity:0.4"></polygon><polygon points="284.72 285.9 268.27 286.13 284.44 289.05 284.72 285.9" style="opacity:0.1"></polygon><polygon points="137.27 322.46 151.65 322.61 137.46 320.36 137.27 322.46" style="fill:#407BFF;opacity:0.4"></polygon><polygon points="137.27 322.46 151.65 322.61 137.46 320.36 137.27 322.46" style="opacity:0.1"></polygon><polygon points="138.73 305.86 151.1 305.27 139 302.71 138.73 305.86" style="fill:#407BFF;opacity:0.4"></polygon><polygon points="138.73 305.86 151.1 305.27 139 302.71 138.73 305.86" style="opacity:0.1"></polygon><polygon points="279.43 347.92 267.05 348.51 279.15 351.08 279.43 347.92" style="fill:#407BFF;opacity:0.4"></polygon><polygon points="279.43 347.92 267.05 348.51 279.15 351.08 279.43 347.92" style="opacity:0.1"></polygon><path d="M174.9,274.48l19.57,1.72-.49,5.5-11.62-1-.39,4.48,9.93.87-.46,5.17-9.92-.87-.92,10.46-7.95-.69Z" style="fill:#407BFF"></path><path d="M196.61,289.31q.55-6.27,4.35-9.46t10-2.64q6.39.56,9.55,4.29c2.11,2.5,3,5.8,2.62,9.93a15.76,15.76,0,0,1-2.16,7.23,10.77,10.77,0,0,1-4.76,4.09,14.46,14.46,0,0,1-7.26,1,16.47,16.47,0,0,1-7.05-2,10.86,10.86,0,0,1-4.22-4.78A14.59,14.59,0,0,1,196.61,289.31Zm7.91.73c-.22,2.58.09,4.48.95,5.7a4.94,4.94,0,0,0,3.78,2,4.87,4.87,0,0,0,4.09-1.32c1-1,1.67-3,1.92-5.83.22-2.41-.12-4.22-1-5.42a5,5,0,0,0-3.81-2,4.83,4.83,0,0,0-4,1.36Q204.87,286.12,204.52,290Z" style="fill:#407BFF"></path><path d="M226.4,304.81l2.24-25.62,13.2,1.16a19.57,19.57,0,0,1,5.55,1.12,5.93,5.93,0,0,1,2.92,2.61,7,7,0,0,1,.83,4.25,6.88,6.88,0,0,1-3.95,5.89,9.82,9.82,0,0,1-2.87.77,8.05,8.05,0,0,1,2,1.12,7.65,7.65,0,0,1,1.15,1.46,9.48,9.48,0,0,1,1,1.69L251.6,307l-8.95-.78-3.54-8.2a6.08,6.08,0,0,0-1.26-2.1,3.39,3.39,0,0,0-1.89-.77l-.7-.06-.91,10.4Zm9.29-14.54,3.33.29a12.2,12.2,0,0,0,2.13-.16,2.11,2.11,0,0,0,1.35-.69,2.42,2.42,0,0,0,.63-1.45,2.33,2.33,0,0,0-.62-2,4.77,4.77,0,0,0-2.89-.92l-3.48-.31Z" style="fill:#407BFF"></path><path d="M158.16,323.34l7.58.19a5.69,5.69,0,0,0,.75,2.89,4.22,4.22,0,0,0,3.35,1.86,3.89,3.89,0,0,0,2.69-.57,2.41,2.41,0,0,0,1.08-1.76,2.37,2.37,0,0,0-.72-1.86,10.13,10.13,0,0,0-3.93-1.84q-5.1-1.63-7.15-3.76a6.26,6.26,0,0,1-1.8-5.14,6.64,6.64,0,0,1,1.47-3.63,7.55,7.55,0,0,1,3.68-2.46,16.11,16.11,0,0,1,6.39-.46c3.27.29,5.72,1.12,7.33,2.49a7.93,7.93,0,0,1,2.56,6.08l-7.5-.22a4.05,4.05,0,0,0-1-2.63,4,4,0,0,0-2.56-1,3.13,3.13,0,0,0-2.13.4,1.81,1.81,0,0,0-.83,1.36,1.46,1.46,0,0,0,.48,1.15,6.49,6.49,0,0,0,2.58,1.18,33.69,33.69,0,0,1,7.23,2.91,7.88,7.88,0,0,1,3,3.13,7.27,7.27,0,0,1,.69,3.88,8.1,8.1,0,0,1-1.76,4.42,8.5,8.5,0,0,1-4.09,2.82,15.27,15.27,0,0,1-6.26.54q-6.54-.57-8.83-3.31A10,10,0,0,1,158.16,323.34Z" style="fill:#407BFF"></path><path d="M200.76,331.36l-9-.79-1.62,4.12-8.08-.71L194,309.21l8.63.76L210,336.42l-8.29-.72Zm-1.15-5.69-2-9.45-3.61,9Z" style="fill:#407BFF"></path><path d="M214.73,311l7.91.69L221,331l12.35,1.08-.55,6.31-20.27-1.77Z" style="fill:#407BFF"></path><path d="M238.58,313.12,259.79,315l-.48,5.47L246,319.29l-.36,4.07L258,324.44l-.46,5.22-12.32-1.08-.44,5.05,13.67,1.2-.51,5.8-21.6-1.89Z" style="fill:#407BFF"></path><g style="opacity:0.30000000000000004"><path d="M174.9,274.48l19.57,1.72-.49,5.5-11.62-1-.39,4.48,9.93.87-.46,5.17-9.92-.87-.92,10.46-7.95-.69Z"></path><path d="M196.61,289.31q.55-6.27,4.35-9.46t10-2.64q6.39.56,9.55,4.29c2.11,2.5,3,5.8,2.62,9.93a15.76,15.76,0,0,1-2.16,7.23,10.77,10.77,0,0,1-4.76,4.09,14.46,14.46,0,0,1-7.26,1,16.47,16.47,0,0,1-7.05-2,10.86,10.86,0,0,1-4.22-4.78A14.59,14.59,0,0,1,196.61,289.31Zm7.91.73c-.22,2.58.09,4.48.95,5.7a4.94,4.94,0,0,0,3.78,2,4.87,4.87,0,0,0,4.09-1.32c1-1,1.67-3,1.92-5.83.22-2.41-.12-4.22-1-5.42a5,5,0,0,0-3.81-2,4.83,4.83,0,0,0-4,1.36Q204.87,286.12,204.52,290Z"></path><path d="M226.4,304.81l2.24-25.62,13.2,1.16a19.57,19.57,0,0,1,5.55,1.12,5.93,5.93,0,0,1,2.92,2.61,7,7,0,0,1,.83,4.25,6.88,6.88,0,0,1-3.95,5.89,9.82,9.82,0,0,1-2.87.77,8.05,8.05,0,0,1,2,1.12,7.65,7.65,0,0,1,1.15,1.46,9.48,9.48,0,0,1,1,1.69L251.6,307l-8.95-.78-3.54-8.2a6.08,6.08,0,0,0-1.26-2.1,3.39,3.39,0,0,0-1.89-.77l-.7-.06-.91,10.4Zm9.29-14.54,3.33.29a12.2,12.2,0,0,0,2.13-.16,2.11,2.11,0,0,0,1.35-.69,2.42,2.42,0,0,0,.63-1.45,2.33,2.33,0,0,0-.62-2,4.77,4.77,0,0,0-2.89-.92l-3.48-.31Z"></path><path d="M158.16,323.34l7.58.19a5.69,5.69,0,0,0,.75,2.89,4.22,4.22,0,0,0,3.35,1.86,3.89,3.89,0,0,0,2.69-.57,2.41,2.41,0,0,0,1.08-1.76,2.37,2.37,0,0,0-.72-1.86,10.13,10.13,0,0,0-3.93-1.84q-5.1-1.63-7.15-3.76a6.26,6.26,0,0,1-1.8-5.14,6.64,6.64,0,0,1,1.47-3.63,7.55,7.55,0,0,1,3.68-2.46,16.11,16.11,0,0,1,6.39-.46c3.27.29,5.72,1.12,7.33,2.49a7.93,7.93,0,0,1,2.56,6.08l-7.5-.22a4.05,4.05,0,0,0-1-2.63,4,4,0,0,0-2.56-1,3.13,3.13,0,0,0-2.13.4,1.81,1.81,0,0,0-.83,1.36,1.46,1.46,0,0,0,.48,1.15,6.49,6.49,0,0,0,2.58,1.18,33.69,33.69,0,0,1,7.23,2.91,7.88,7.88,0,0,1,3,3.13,7.27,7.27,0,0,1,.69,3.88,8.1,8.1,0,0,1-1.76,4.42,8.5,8.5,0,0,1-4.09,2.82,15.27,15.27,0,0,1-6.26.54q-6.54-.57-8.83-3.31A10,10,0,0,1,158.16,323.34Z"></path><path d="M200.76,331.36l-9-.79-1.62,4.12-8.08-.71L194,309.21l8.63.76L210,336.42l-8.29-.72Zm-1.15-5.69-2-9.45-3.61,9Z"></path><path d="M214.73,311l7.91.69L221,331l12.35,1.08-.55,6.31-20.27-1.77Z"></path><path d="M238.58,313.12,259.79,315l-.48,5.47L246,319.29l-.36,4.07L258,324.44l-.46,5.22-12.32-1.08-.44,5.05,13.67,1.2-.51,5.8-21.6-1.89Z"></path></g></g></svg>