<svg width="200" height="200" viewBox="0 0 200 200" fill="none" xmlns="http://www.w3.org/2000/svg">
<path d="M128.24 158.26C121.468 151.664 121.356 141.46 123.116 132.6C123.412 131.12 123.516 129.524 124.428 128.332C125.34 127.14 127.144 126.52 128.376 127.368C129.396 128.068 129.668 129.432 130.112 130.596C130.704 132.15 131.725 133.504 133.056 134.5C133.924 135.148 135.056 135.64 136.064 135.28C137.464 134.78 137.908 133.032 138.14 131.552C138.572 128.789 139.007 126.028 139.444 123.268C139.676 121.784 139.92 120.272 140.608 118.944C141.296 117.616 142.532 116.476 144.004 116.312C145.476 116.148 147.084 117.244 147.144 118.744C147.099 119.365 147.012 119.982 146.884 120.592C146.824 121.212 147 121.94 147.556 122.192C148.112 122.444 148.78 122.14 149.292 121.792C151.064 120.548 152.416 118.796 153.692 117.04C154.968 115.284 156.236 113.476 157.892 112.072C159.548 110.668 161.672 109.692 163.812 109.92C165.952 110.148 168 111.824 168.192 114C168.384 116.176 166.824 118.092 165.224 119.564C162.848 121.748 160.17 123.577 157.272 124.996C156.752 125.252 156.188 125.524 155.92 126.044C155.436 126.98 156.212 128.112 157.12 128.596C158.164 129.144 159.376 129.224 160.508 129.552C161.64 129.88 162.808 130.588 163.068 131.752C163.424 133.352 161.9 134.74 160.484 135.576C157.649 137.248 154.548 138.42 151.316 139.04C150.164 139.26 148.96 139.42 147.956 140.044C146.952 140.668 146.208 141.908 146.568 143.036C146.928 144.164 148.232 144.724 149.408 144.7C150.584 144.676 151.704 144.22 152.86 143.988C155.02 143.556 157.624 144.124 158.636 146.096C159.304 147.392 159.116 149.012 158.456 150.32C157.74 151.597 156.774 152.716 155.616 153.612C151.728 156.9 147.052 159.296 142.064 160.16C137.076 161.024 132.636 160.752 128.228 158.268" fill="#CC0000"/>
<path d="M127.04 164.852C128.126 160.786 129.599 156.833 131.44 153.048C133.715 148.435 136.253 143.955 139.04 139.632L141.216 136.22C141.932 135.1 142.64 133.988 143.404 132.948C144.874 130.946 146.453 129.027 148.136 127.2C149.736 125.444 151.296 123.84 152.78 122.348C154.264 120.856 155.672 119.5 157.012 118.316C159.113 116.434 161.36 114.722 163.732 113.196C164.572 112.656 165.236 112.256 165.688 111.996L166.208 111.696C166.269 111.658 166.333 111.626 166.4 111.6C166.348 111.645 166.291 111.685 166.232 111.72L165.728 112.04C165.284 112.316 164.632 112.728 163.804 113.284C161.459 114.838 159.235 116.569 157.152 118.46C155.824 119.66 154.428 121.016 152.952 122.508C151.476 124 149.916 125.616 148.336 127.368C146.67 129.191 145.105 131.103 143.648 133.096C142.892 134.132 142.188 135.236 141.472 136.356C140.756 137.476 140.036 138.616 139.3 139.768C136.521 144.084 133.984 148.551 131.7 153.148C129.851 156.913 128.359 160.844 127.244 164.888" fill="#263238"/>
<path d="M143.496 132.948C143.461 132.731 143.447 132.511 143.456 132.292C143.456 131.872 143.456 131.26 143.456 130.508C143.488 129 143.604 126.908 143.736 124.624C143.868 122.34 143.96 120.256 143.968 118.748C143.968 117.996 143.968 117.388 143.968 116.968C143.95 116.749 143.958 116.529 143.992 116.312C144.042 116.526 144.07 116.744 144.076 116.964C144.116 117.364 144.144 117.992 144.164 118.748C144.204 120.256 144.164 122.348 144.012 124.64C143.86 126.932 143.748 128.952 143.648 130.516C143.612 131.22 143.58 131.816 143.552 132.296C143.559 132.515 143.54 132.734 143.496 132.948Z" fill="#263238"/>
<path d="M163.108 132.508C162.85 132.523 162.592 132.512 162.336 132.476C161.84 132.44 161.136 132.38 160.236 132.34C158.46 132.244 156.008 132.196 153.296 132.26C150.584 132.324 148.136 132.496 146.364 132.66C145.48 132.74 144.764 132.824 144.272 132.88C144.016 132.924 143.756 132.945 143.496 132.94C143.744 132.861 143.998 132.805 144.256 132.772C144.748 132.684 145.456 132.572 146.344 132.464C148.116 132.24 150.572 132.044 153.292 131.972C155.612 131.908 157.934 131.963 160.248 132.136C161.136 132.204 161.848 132.288 162.348 132.36C162.606 132.384 162.86 132.434 163.108 132.508Z" fill="#263238"/>
<path d="M131.748 152.736C131.748 152.736 131.708 152.652 131.656 152.484C131.604 152.316 131.528 152.04 131.44 151.74C131.26 151.096 131.02 150.14 130.74 148.992C130.18 146.66 129.508 143.42 128.812 139.828C128.116 136.236 127.472 132.996 126.96 130.656C126.708 129.52 126.5 128.584 126.348 127.888C126.28 127.588 126.228 127.336 126.184 127.132C126.159 127.045 126.145 126.955 126.144 126.864C126.189 126.944 126.221 127.03 126.24 127.12C126.296 127.32 126.364 127.564 126.452 127.86C126.632 128.504 126.872 129.46 127.152 130.612C127.712 132.94 128.388 136.184 129.08 139.776C129.772 143.368 130.42 146.608 130.932 148.948C131.184 150.084 131.392 151.02 131.544 151.716C131.612 152.016 131.664 152.264 131.708 152.468C131.733 152.555 131.746 152.645 131.748 152.736Z" fill="#263238"/>
<path d="M158.368 148.728C158.282 148.76 158.192 148.78 158.1 148.788L157.324 148.916L154.472 149.348C152.072 149.716 148.748 150.264 145.08 150.868C141.412 151.472 138.084 151.992 135.668 152.308C134.468 152.468 133.48 152.588 132.804 152.656L132.004 152.732C131.914 152.746 131.822 152.746 131.732 152.732C131.819 152.702 131.909 152.682 132 152.672L132.772 152.544L135.624 152.112C138.024 151.744 141.352 151.2 145.02 150.592C148.688 149.984 152.016 149.468 154.432 149.152C155.632 148.992 156.616 148.872 157.296 148.804L158.096 148.732C158.186 148.716 158.278 148.715 158.368 148.728Z" fill="#263238"/>
<path d="M60.9521 68.316C60.349 67.8132 59.8897 67.1598 59.6206 66.4222C59.3516 65.6846 59.2824 64.8889 59.4201 64.116C59.5719 63.3469 59.875 62.6158 60.3117 61.9648C60.7484 61.3139 61.3101 60.7561 61.9641 60.324C62.5601 59.924 63.3001 59.588 63.996 59.792C64.315 59.9083 64.5973 60.1074 64.8138 60.3689C65.0303 60.6304 65.1733 60.9449 65.228 61.28C65.3292 61.9554 65.2491 62.6456 64.996 63.28C64.236 65.472 63.1001 67.456 60.9521 68.328" fill="#455A64"/>
<path d="M58.9239 72.0599C57.6916 70.9573 56.2142 70.1645 54.6142 69.7471C53.0142 69.3297 51.3377 69.2998 49.7239 69.6599C48.9239 69.8479 47.9839 70.28 47.8519 71.108C47.7199 71.936 48.4559 72.644 49.1839 73.068C50.7205 73.921 52.4752 74.3003 54.227 74.1579C55.9787 74.0156 57.6492 73.358 59.0279 72.268" fill="#455A64"/>
<path d="M47.2 54.724C47.8794 54.5672 48.5834 54.5479 49.2703 54.6675C49.9573 54.787 50.6134 55.0429 51.2 55.42C52.378 56.1884 53.3634 57.2177 54.08 58.428C55.528 60.716 56.04 63.796 56.104 66.504C53.096 66.384 50.528 64.02 49.304 62.736C47.36 60.712 45.08 55.876 47.176 54.736" fill="#455A64"/>
<path d="M63.4719 76.152C63.1981 75.7891 62.947 75.4097 62.7199 75.016C61.9415 73.49 61.3724 71.866 61.0279 70.188C60.6886 68.488 60.8186 66.7277 61.4039 65.096C61.5867 64.6076 61.8299 64.144 62.1279 63.716C62.2291 63.5526 62.3545 63.4056 62.4999 63.28C62.1522 63.8849 61.8527 64.5162 61.6039 65.168C61.0965 66.7745 61.0002 68.4826 61.3239 70.136C61.6727 71.7917 62.2095 73.4021 62.9239 74.936" fill="#263238"/>
<path d="M63.4999 76.188L61.9319 74.168C60.6159 72.46 58.7879 70.104 56.7319 67.528C54.6759 64.952 52.7919 62.648 51.4239 60.984L49.8239 58.984C49.6132 58.7516 49.4231 58.5013 49.2559 58.236C49.4918 58.4424 49.7112 58.6671 49.9119 58.908C50.3119 59.356 50.8999 60.008 51.6079 60.824C53.0199 62.456 54.9359 64.744 56.9919 67.32C59.0479 69.896 60.8439 72.276 62.1199 74.02C62.7599 74.892 63.2679 75.62 63.6119 76.096" fill="#263238"/>
<path d="M51.5999 71.432C51.7634 71.351 51.939 71.297 52.1199 71.272C52.3257 71.2153 52.5357 71.1751 52.7479 71.152C53.0273 71.1058 53.309 71.075 53.5919 71.06C54.3301 71.0134 55.0712 71.0416 55.8039 71.144C56.6992 71.2775 57.5775 71.5068 58.4239 71.828C59.2664 72.1647 60.0709 72.5898 60.8239 73.096C61.4319 73.5154 61.9961 73.9952 62.5079 74.528C62.7077 74.7292 62.896 74.9415 63.0719 75.164C63.2164 75.3256 63.35 75.4966 63.4719 75.676C63.6679 75.968 63.6399 76.104 63.6239 76.116C63.2337 75.6154 62.8171 75.1361 62.3759 74.68C61.8539 74.1807 61.2891 73.7283 60.6879 73.328C59.9468 72.8513 59.1603 72.4493 58.3399 72.128C57.5126 71.8142 56.6565 71.5824 55.7839 71.436C55.0698 71.3222 54.3467 71.274 53.6239 71.292C52.3599 71.304 51.5999 71.488 51.5999 71.432Z" fill="#263238"/>
<path d="M118.696 173.496L72.4959 173.28C69.8306 173.264 67.2806 172.191 65.4057 170.297C63.5307 168.402 62.4842 165.841 62.4959 163.176L62.9839 47.3481C62.9956 44.681 64.0654 42.1276 65.9585 40.2488C67.8515 38.3701 70.4129 37.3195 73.0799 37.3281L119.28 37.5401C121.945 37.558 124.495 38.6322 126.369 40.527C128.244 42.4218 129.291 44.9827 129.28 47.6481L128.8 163.472C128.788 166.141 127.717 168.696 125.823 170.576C123.928 172.455 121.365 173.506 118.696 173.496Z" fill="#263238"/>
<path d="M119.2 41.54L110.24 41.496C109.948 41.5012 109.66 41.5639 109.392 41.6805C109.124 41.7971 108.882 41.9654 108.679 42.1756C108.476 42.3858 108.317 42.634 108.21 42.9058C108.103 43.1777 108.051 43.468 108.056 43.76V45.384C108.061 45.6761 108.009 45.9664 107.902 46.2382C107.795 46.5101 107.636 46.7582 107.433 46.9684C107.23 47.1787 106.988 47.3469 106.72 47.4635C106.452 47.5801 106.164 47.6428 105.872 47.648L88.412 47.568C87.8225 47.5513 87.2636 47.3014 86.858 46.8733C86.4523 46.4452 86.233 45.8736 86.248 45.284V43.66C86.2631 43.0697 86.0432 42.4976 85.6367 42.0694C85.2302 41.6411 84.6703 41.3917 84.08 41.376H80.932L73.092 41.34C71.222 41.3326 69.4256 42.0678 68.0973 43.384C66.769 44.7003 66.0176 46.49 66.008 48.36L65.532 161.412C65.5246 163.281 66.2593 165.076 67.5749 166.404C68.8904 167.731 70.6791 168.483 72.548 168.492L118.656 168.704C119.582 168.708 120.499 168.53 121.356 168.18C122.212 167.829 122.992 167.314 123.649 166.662C124.307 166.011 124.829 165.236 125.187 164.383C125.545 163.529 125.732 162.614 125.736 161.688L126.212 48.632C126.219 47.7055 126.043 46.7867 125.694 45.9284C125.345 45.0701 124.83 44.2891 124.178 43.6303C123.527 42.9714 122.752 42.4476 121.898 42.0889C121.043 41.7302 120.127 41.5437 119.2 41.54Z" fill="#FAFAFA"/>
<path d="M93.1198 157.864C93.1493 158.059 93.1183 158.258 93.0311 158.435C92.9438 158.611 92.8046 158.757 92.632 158.852C92.4595 158.947 92.2619 158.987 92.0659 158.967C91.87 158.946 91.685 158.866 91.536 158.737C91.387 158.608 91.281 158.437 91.2324 158.246C91.1838 158.055 91.1949 157.854 91.2642 157.669C91.3335 157.485 91.4576 157.326 91.6199 157.214C91.7822 157.102 91.9748 157.043 92.1718 157.044C92.4057 157.03 92.6359 157.107 92.8131 157.261C92.9903 157.414 93.1004 157.631 93.1198 157.864Z" fill="#455A64"/>
<path d="M96.0679 157.88C96.0965 158.075 96.0648 158.274 95.977 158.45C95.8891 158.626 95.7495 158.771 95.5767 158.866C95.404 158.96 95.2065 159 95.0107 158.978C94.8149 158.957 94.6303 158.877 94.4817 158.748C94.3331 158.618 94.2276 158.447 94.1795 158.256C94.1313 158.065 94.1427 157.864 94.2122 157.68C94.2817 157.495 94.4059 157.337 94.5682 157.225C94.7305 157.114 94.923 157.055 95.1199 157.056C95.3544 157.042 95.5852 157.12 95.7625 157.274C95.9398 157.428 96.0495 157.646 96.0679 157.88Z" fill="#455A64"/>
<path d="M99.0161 157.892C99.0455 158.087 99.0145 158.286 98.9273 158.463C98.8401 158.639 98.7008 158.785 98.5282 158.88C98.3557 158.975 98.1581 159.015 97.9622 158.995C97.7662 158.974 97.5813 158.894 97.4322 158.765C97.2832 158.636 97.1773 158.465 97.1287 158.274C97.0801 158.083 97.0911 157.882 97.1604 157.697C97.2297 157.513 97.3538 157.354 97.5161 157.242C97.6784 157.13 97.871 157.071 98.0681 157.072C98.3022 157.057 98.5329 157.134 98.7104 157.287C98.8878 157.441 98.9976 157.658 99.0161 157.892Z" fill="#455A64"/>
<path d="M79.8079 96.04C80.5599 96.148 125.88 105.036 125.88 105.036V96.04H79.8079Z" fill="#EBEBEB"/>
<path d="M65.5479 153.16C65.5479 153.16 114.852 146.184 114.42 146.4C113.988 146.616 65.5479 146.4 65.5479 146.4V153.16Z" fill="#EBEBEB"/>
<path d="M122.8 21.164C122.856 21.164 122.904 23.656 122.904 26.728C122.904 29.8 122.856 32.296 122.8 32.296C122.744 32.296 122.696 29.804 122.696 26.728C122.696 23.652 122.744 21.164 122.8 21.164Z" fill="#263238"/>
<path d="M142.532 33.976C142.556 34.028 140.292 35.076 137.48 36.316C134.668 37.556 132.368 38.524 132.344 38.468C132.32 38.412 134.584 37.368 137.396 36.128C140.208 34.888 142.508 33.92 142.532 33.976Z" fill="#263238"/>
<path d="M142.032 14.544C142.008 14.6208 141.973 14.6936 141.928 14.76C141.836 14.912 141.724 15.108 141.584 15.348C141.284 15.86 140.84 16.592 140.28 17.488C139.16 19.288 137.548 21.728 135.72 24.392C133.892 27.056 132.268 29.484 131.116 31.26C130.552 32.128 130.092 32.86 129.756 33.364L129.38 33.932C129.34 34.0017 129.292 34.0662 129.236 34.124C129.265 34.049 129.302 33.9767 129.344 33.908C129.436 33.756 129.548 33.56 129.688 33.32C129.984 32.808 130.432 32.08 130.992 31.18C132.112 29.38 133.724 26.94 135.548 24.276C137.372 21.612 139.004 19.2 140.156 17.412L141.516 15.304L141.892 14.736C141.933 14.6683 141.98 14.6041 142.032 14.544Z" fill="#263238"/>
<path d="M169.692 61.636H79.512C79.0489 61.636 78.5904 61.7273 78.1625 61.9046C77.7347 62.082 77.3461 62.3419 77.0188 62.6696C76.6915 62.9972 76.432 63.3862 76.2551 63.8142C76.0783 64.2422 75.9875 64.7009 75.988 65.164V93.136C75.9875 93.5991 76.0783 94.0578 76.2551 94.4858C76.432 94.9138 76.6915 95.3028 77.0188 95.6304C77.3461 95.9581 77.7347 96.218 78.1625 96.3954C78.5904 96.5727 79.0489 96.664 79.512 96.664H86.232C86.772 99.584 87.404 103.268 87.404 103.268L93.484 96.664H169.692C170.155 96.664 170.614 96.5727 171.042 96.3954C171.469 96.218 171.858 95.9581 172.185 95.6304C172.513 95.3028 172.772 94.9138 172.949 94.4858C173.126 94.0578 173.217 93.5991 173.216 93.136V65.164C173.217 64.7009 173.126 64.2422 172.949 63.8142C172.772 63.3862 172.513 62.9972 172.185 62.6696C171.858 62.3419 171.469 62.082 171.042 61.9046C170.614 61.7273 170.155 61.636 169.692 61.636Z" fill="#CC0000"/>
<path d="M132.484 76.8C132.484 76.856 121.752 76.904 108.516 76.904C95.2802 76.904 84.5442 76.856 84.5442 76.8C84.5442 76.744 95.2762 76.692 108.516 76.692C121.756 76.692 132.484 76.752 132.484 76.8Z" fill="#F5F5F5"/>
<path d="M132.484 72.512C132.484 72.568 121.752 72.616 108.516 72.616C95.2802 72.616 84.5442 72.568 84.5442 72.512C84.5442 72.456 95.2762 72.408 108.516 72.408C121.756 72.408 132.484 72.452 132.484 72.512Z" fill="#F5F5F5"/>
<path d="M132.484 81.064C132.484 81.12 121.752 81.168 108.516 81.168C95.2802 81.168 84.5442 81.12 84.5442 81.064C84.5442 81.008 95.2762 80.96 108.516 80.96C121.756 80.96 132.484 81.004 132.484 81.064Z" fill="#F5F5F5"/>
<path d="M115.944 85.468C115.944 85.524 108.916 85.572 100.244 85.572C91.5722 85.572 84.5442 85.524 84.5442 85.468C84.5442 85.412 91.5722 85.364 100.244 85.364C108.916 85.364 115.944 85.408 115.944 85.468Z" fill="#F5F5F5"/>
<path d="M128.944 111.928H38.0281C37.7035 111.927 37.382 111.991 37.0821 112.115C36.7821 112.239 36.5097 112.421 36.2803 112.651C36.051 112.881 35.8693 113.154 35.7457 113.454C35.6221 113.754 35.559 114.075 35.5601 114.4V144C35.5601 144.655 35.8201 145.282 36.2829 145.745C36.7458 146.208 37.3735 146.468 38.0281 146.468H104.06L110.06 153C110.06 153 110.688 149.328 111.22 146.468H128.932C129.587 146.468 130.214 146.208 130.677 145.745C131.14 145.282 131.4 144.655 131.4 144V114.4C131.401 114.076 131.338 113.756 131.216 113.456C131.093 113.157 130.912 112.885 130.684 112.655C130.456 112.426 130.185 112.243 129.886 112.119C129.588 111.994 129.268 111.929 128.944 111.928Z" fill="#455A64"/>
<path d="M125.38 127.2C125.38 127.256 114.648 127.304 101.408 127.304C88.168 127.304 77.436 127.256 77.436 127.2C77.436 127.144 88.168 127.096 101.408 127.096C114.648 127.096 125.38 127.128 125.38 127.2Z" fill="#F5F5F5"/>
<path d="M125.38 122.888C125.38 122.944 114.648 122.992 101.408 122.992C88.168 122.992 77.436 122.944 77.436 122.888C77.436 122.832 88.168 122.784 101.408 122.784C114.648 122.784 125.38 122.828 125.38 122.888Z" fill="#F5F5F5"/>
<path d="M125.38 131.44C125.38 131.496 114.648 131.544 101.408 131.544C88.168 131.544 77.436 131.496 77.436 131.44C77.436 131.384 88.168 131.336 101.408 131.336C114.648 131.336 125.38 131.384 125.38 131.44Z" fill="#F5F5F5"/>
<path d="M108.84 135.844C108.84 135.904 101.812 135.948 93.14 135.948C84.468 135.948 77.436 135.904 77.436 135.844C77.436 135.784 84.468 135.74 93.14 135.74C101.812 135.74 108.84 135.788 108.84 135.844Z" fill="#F5F5F5"/>
<path d="M147.02 49.772C147.076 49.036 146.42 48.024 145.82 47.44C145.472 47.1266 145.224 46.7185 145.105 46.2658C144.986 45.8131 145.003 45.3356 145.152 44.892C145.396 43.984 145.972 44.052 146.2 43.516C146.311 43.1016 146.355 42.6723 146.332 42.244C146.379 41.8822 146.501 41.534 146.689 41.2212C146.877 40.9085 147.127 40.6378 147.425 40.4261C147.722 40.2144 148.06 40.0663 148.417 39.9909C148.774 39.9155 149.142 39.9145 149.5 39.988C149.699 39.2781 150.106 38.6444 150.669 38.169C151.233 37.6937 151.926 37.3987 152.659 37.3224C153.392 37.246 154.132 37.3919 154.781 37.741C155.43 38.0901 155.959 38.6263 156.3 39.28C156.714 39.0696 157.174 38.9644 157.638 38.9738C158.102 38.9832 158.557 39.1068 158.963 39.3338C159.368 39.5607 159.711 39.884 159.962 40.2751C160.212 40.6662 160.363 41.1129 160.4 41.576C160.82 41.3081 161.322 41.2011 161.815 41.2746C162.307 41.3481 162.757 41.5972 163.08 41.976C163.383 42.3722 163.564 42.8491 163.598 43.347C163.632 43.845 163.519 44.342 163.272 44.776C163.018 45.2064 162.671 45.5739 162.255 45.851C161.84 46.128 161.367 46.3075 160.872 46.376C159.88 46.502 158.872 46.319 157.988 45.852C157.107 45.388 156.307 44.7842 155.62 44.064" fill="#263238"/>
<path d="M153.56 95.74C163.123 95.74 170.876 88.1682 170.876 78.828C170.876 69.4877 163.123 61.916 153.56 61.916C143.997 61.916 136.244 69.4877 136.244 78.828C136.244 88.1682 143.997 95.74 153.56 95.74Z" fill="#E0E0E0"/>
<path d="M170.948 78.84L169.032 73.928L162.164 78.244L168.284 87.68C168.284 87.68 170.772 84.448 170.948 78.84Z" fill="#EB996E"/>
<path d="M152 68.2C153.183 68.2069 154.323 67.7584 155.185 66.9475C156.047 66.1366 156.563 65.0253 156.628 63.844C156.728 61.808 156.816 59.844 156.816 59.844C156.816 59.844 160.592 59.572 160.94 55.876C161.288 52.18 161.34 43.64 161.34 43.64C159.291 42.5646 156.994 42.0511 154.683 42.1516C152.371 42.2521 150.128 42.9629 148.18 44.212L147.82 44.44L147.384 63.56C147.38 64.1684 147.496 64.7718 147.726 65.335C147.956 65.8983 148.296 66.4105 148.725 66.8419C149.154 67.2732 149.665 67.6154 150.227 67.8485C150.789 68.0816 151.391 68.201 152 68.2Z" fill="#FFBE9D"/>
<path d="M154.152 49.328C154.251 49.363 154.338 49.4266 154.402 49.5108C154.465 49.595 154.502 49.6961 154.509 49.8013C154.515 49.9066 154.49 50.0114 154.437 50.1026C154.384 50.1937 154.306 50.2673 154.211 50.314C154.117 50.3607 154.01 50.3785 153.906 50.3652C153.801 50.3518 153.703 50.3079 153.623 50.239C153.543 50.17 153.486 50.0791 153.457 49.9775C153.429 49.8759 153.431 49.7683 153.464 49.668C153.51 49.5319 153.609 49.4197 153.738 49.356C153.867 49.2923 154.016 49.2822 154.152 49.328Z" fill="#263238"/>
<path d="M155.2 49.52C155.136 49.58 154.8 49.276 154.272 49.244C153.744 49.212 153.368 49.452 153.316 49.384C153.264 49.316 153.356 49.24 153.524 49.128C153.754 48.9828 154.025 48.9155 154.296 48.936C154.566 48.9542 154.823 49.0595 155.028 49.236C155.168 49.372 155.22 49.492 155.2 49.52Z" fill="#263238"/>
<path d="M159.792 49.328C159.891 49.363 159.978 49.4266 160.042 49.5108C160.105 49.595 160.142 49.6961 160.149 49.8013C160.155 49.9066 160.13 50.0114 160.077 50.1026C160.024 50.1937 159.946 50.2673 159.851 50.314C159.757 50.3607 159.65 50.3785 159.546 50.3652C159.441 50.3518 159.343 50.3079 159.263 50.239C159.183 50.17 159.126 50.0791 159.097 49.9775C159.069 49.8759 159.071 49.7683 159.104 49.668C159.15 49.5319 159.249 49.4197 159.378 49.356C159.507 49.2923 159.655 49.2822 159.792 49.328Z" fill="#263238"/>
<path d="M160.896 49.528C160.836 49.592 160.496 49.288 159.968 49.256C159.44 49.224 159.064 49.464 159.012 49.396C158.96 49.328 159.052 49.252 159.224 49.14C159.452 48.9943 159.722 48.9269 159.992 48.948C160.263 48.9671 160.521 49.0722 160.728 49.248C160.88 49.384 160.928 49.504 160.896 49.528Z" fill="#263238"/>
<path d="M157.016 53.524C157.289 53.4397 157.574 53.4032 157.86 53.416C157.996 53.416 158.104 53.392 158.12 53.32C158.139 53.1833 158.116 53.044 158.056 52.92C157.952 52.572 157.844 52.22 157.732 51.852C157.292 50.332 157 49.084 157.076 49.052C157.152 49.02 157.576 50.252 158.016 51.764C158.12 52.132 158.216 52.488 158.316 52.836C158.388 53.0141 158.398 53.2116 158.344 53.396C158.32 53.4459 158.284 53.4895 158.241 53.5235C158.197 53.5575 158.146 53.5809 158.092 53.592C158.015 53.6015 157.937 53.6015 157.86 53.592C157.577 53.6175 157.291 53.5945 157.016 53.524Z" fill="#263238"/>
<path d="M156.8 59.796C155.077 59.6894 153.423 59.0756 152.048 58.032C152.048 58.032 152.98 60.788 156.732 60.756L156.8 59.796Z" fill="#EB996E"/>
<path d="M147.708 49.872C147.711 49.7268 147.658 49.586 147.56 49.4792C147.461 49.3725 147.325 49.3082 147.18 49.3C146.484 49.268 145.34 49.52 145.18 51.424C144.972 54.144 147.628 53.516 147.64 53.424C147.652 53.332 147.696 50.932 147.708 49.872Z" fill="#FFBE9D"/>
<path d="M147.072 52.356C147.072 52.356 147.02 52.3879 146.936 52.4159C146.88 52.4394 146.819 52.4515 146.758 52.4515C146.697 52.4515 146.636 52.4394 146.58 52.4159C146.411 52.2918 146.279 52.1246 146.196 51.9319C146.114 51.7391 146.085 51.5278 146.112 51.32C146.122 51.0862 146.185 50.8579 146.296 50.652C146.33 50.5677 146.385 50.493 146.454 50.4345C146.524 50.3759 146.607 50.3352 146.696 50.316C146.752 50.3048 146.81 50.3139 146.86 50.3418C146.91 50.3697 146.948 50.4144 146.968 50.468C147 50.544 146.968 50.6 146.992 50.604C147.016 50.608 147.056 50.564 147.04 50.448C147.03 50.3797 146.996 50.3172 146.944 50.272C146.874 50.2094 146.782 50.1764 146.688 50.1799C146.572 50.1947 146.462 50.2393 146.369 50.3095C146.276 50.3796 146.202 50.4728 146.156 50.58C146.019 50.8047 145.942 51.0609 145.932 51.324C145.901 51.5658 145.942 51.8114 146.05 52.0299C146.158 52.2484 146.329 52.4301 146.54 52.552C146.612 52.5781 146.69 52.588 146.766 52.5811C146.843 52.5742 146.917 52.5506 146.984 52.512C147.06 52.424 147.08 52.364 147.072 52.356Z" fill="#EB996E"/>
<path d="M152.752 48.068C152.888 48.244 153.36 48.164 153.976 48.136C154.592 48.108 155.068 48.112 155.176 47.92C155.284 47.728 154.712 47.268 153.92 47.336C153.128 47.404 152.6 47.888 152.752 48.068Z" fill="#263238"/>
<path d="M158.744 47.888C158.816 48.124 159.268 48.196 159.768 48.192C160.268 48.188 160.716 48.1 160.784 47.86C160.852 47.62 160.384 47.296 159.756 47.304C159.128 47.312 158.668 47.656 158.744 47.888Z" fill="#263238"/>
<path d="M161.848 44.8C161.848 44.8 159.604 45.888 156.688 44.432C154.772 43.476 152.544 43.008 152.052 43.392C151.56 43.776 151.456 45.752 149.56 46.328C149.56 46.328 149.688 50.088 148.188 49.956C146.688 49.824 147.624 44 147.624 44L151.296 42.208L155.296 41.452L159.068 41.984L161.988 42.784L161.848 44.8Z" fill="#263238"/>
<path d="M136.724 66.592C140.648 62.556 147.552 62.992 147.552 62.992L153.276 67.092L156.52 63.312C158.82 63.6252 161.053 64.3158 163.128 65.356L163.348 65.424V65.468C165.86 66.832 169.412 70.104 172.8 73.276L168.748 77.036L164.26 81.036C164.27 81.0617 164.27 81.0903 164.26 81.116C164.216 81.36 164.884 86.836 165.572 90.996C163.619 92.9225 161.225 94.3442 158.599 95.138C155.973 95.9318 153.193 96.0739 150.5 95.552C148.664 95.228 147.776 94.784 146.076 94.352C144.851 94.0273 143.756 93.3326 142.941 92.3626C142.125 91.3925 141.629 90.1945 141.52 88.932C141.216 85.444 140.984 81.124 140.984 81.124" fill="#455A64"/>
<path d="M160.108 64.02C160.208 64.2274 160.291 64.4428 160.356 64.664C160.504 65.064 160.7 65.692 160.936 66.448C161.408 67.96 162.012 70.048 162.58 72.42C163.148 74.792 163.576 76.924 163.844 78.484C163.98 79.284 164.08 79.9 164.14 80.34C164.183 80.5657 164.208 80.7943 164.216 81.024C164.145 80.8047 164.093 80.5799 164.06 80.352C163.968 79.884 163.848 79.264 163.7 78.512C163.392 76.96 162.944 74.82 162.376 72.468C161.808 70.116 161.232 68 160.8 66.492L160.28 64.688C160.207 64.4696 160.15 64.2464 160.108 64.02Z" fill="#263238"/>
<path d="M163.792 78.44C163.756 78.396 165.468 76.94 167.616 75.192C169.764 73.444 171.532 72.06 171.568 72.104C171.604 72.148 169.896 73.604 167.748 75.352C165.6 77.1 163.832 78.484 163.792 78.44Z" fill="#263238"/>
<path opacity="0.2" d="M141.904 72.128L138.4 83.676L139.708 84.356L140.996 81.092C140.996 81.092 142.308 74.228 141.904 72.128Z" fill="black"/>
<g opacity="0.2">
<path opacity="0.2" d="M159.728 64.028C161.62 65.024 156.876 67.424 154.736 67.36L156.292 63.256C156.292 63.256 159.092 63.692 159.728 64.028Z" fill="black"/>
</g>
<path d="M146.988 63.256V60.196C146.988 60.196 152.96 61.736 153.176 65.308C153.176 65.308 153.936 61.356 157.016 61.168L157.452 66.724L153.852 69.844H150.24L147.364 67.36L146.988 63.504" fill="#455A64"/>
<path d="M154.524 82.452C154.503 82.2338 154.503 82.0141 154.524 81.796C154.524 81.372 154.524 80.76 154.544 80.004C154.544 78.496 154.5 76.404 154.312 74.112C154.124 71.82 153.82 69.748 153.568 68.26C153.44 67.544 153.332 66.952 153.252 66.5C153.2 66.286 153.168 66.0678 153.156 65.848C153.231 66.0551 153.29 66.2677 153.332 66.484C153.436 66.884 153.568 67.492 153.712 68.236C154.082 70.1738 154.349 72.1299 154.512 74.096C154.674 76.0622 154.73 78.0357 154.68 80.008C154.66 80.764 154.632 81.376 154.596 81.8C154.587 82.0187 154.563 82.2366 154.524 82.452Z" fill="#263238"/>
<path d="M152.904 64.28C152.785 64.2598 152.662 64.2709 152.548 64.312C152.255 64.4772 152.039 64.752 151.948 65.076C151.455 66.1426 151.07 67.2563 150.8 68.4L150.768 68.536L150.648 68.464C150.292 68.248 149.924 68.016 149.556 67.768C148.885 67.3114 148.239 66.8201 147.62 66.296C147.338 66.0608 147.113 65.7656 146.96 65.432C146.84 65.1381 146.772 64.8253 146.76 64.508C146.748 64.0589 146.792 63.61 146.892 63.172C146.916 63.0084 146.96 62.8485 147.024 62.696C147.019 62.8597 147.002 63.0229 146.972 63.184C146.904 63.6191 146.883 64.0603 146.908 64.5C146.927 64.797 146.999 65.0882 147.12 65.36C147.267 65.6705 147.481 65.9439 147.748 66.16C148.312 66.632 148.968 67.12 149.672 67.6C150.04 67.848 150.4 68.084 150.756 68.3L150.604 68.364C150.871 67.215 151.274 66.1019 151.804 65.048C151.885 64.8633 151.99 64.6899 152.116 64.532C152.214 64.4099 152.347 64.3195 152.496 64.272C152.8 64.176 152.912 64.276 152.904 64.28Z" fill="#263238"/>
<path d="M157.016 61.168C157.052 61.3241 157.071 61.4837 157.072 61.644L157.168 62.948C157.212 63.496 157.28 64.148 157.392 64.864C157.488 65.2482 157.513 65.6469 157.464 66.04C157.313 66.4522 157.032 66.8043 156.664 67.044C156.196 67.3342 155.757 67.6677 155.352 68.04L155.192 68.22V67.98C155.119 66.9351 154.818 65.919 154.308 65.004C153.928 64.32 153.616 63.972 153.64 63.952C153.664 63.932 153.736 64.024 153.876 64.188C154.077 64.4238 154.259 64.6753 154.42 64.94C154.976 65.8594 155.309 66.8965 155.392 67.968L155.216 67.908C155.627 67.52 156.076 67.1743 156.556 66.876C156.881 66.6625 157.13 66.3516 157.268 65.988C157.31 65.6217 157.288 65.2509 157.204 64.892C157.104 64.168 157.052 63.508 157.024 62.956C156.996 62.404 156.992 61.956 156.996 61.648C156.982 61.4878 156.989 61.3265 157.016 61.168Z" fill="#263238"/>
<path d="M176.244 61.936C176 62.22 167.2 74 167.2 74L168.44 74.704L177.464 63.104L176.244 61.936Z" fill="#263238"/>
<path d="M140.912 71.232C140.912 71.232 150.164 84.552 150.724 84.812C151.82 85.328 164.476 74.392 165.684 73.344C165.852 73.12 166.196 72.652 166.884 71.72C166.884 71.72 167.884 67.152 168.948 67.5C170.012 67.848 168.364 69.824 169.06 71.56C169.756 73.296 172.932 69.16 173.06 68.784L173.88 67.712C173.88 67.712 174.74 70.148 174.68 71.168C174.492 74.428 171.408 78.304 171.408 78.304C171.408 78.304 157.556 95.464 148.068 95.996C145.336 96.148 140.468 88.396 137.232 82.58C136.287 80.8817 135.996 78.8964 136.414 76.9983C136.831 75.1002 137.929 73.4205 139.5 72.276L140.912 71.232Z" fill="#FFBE9D"/>
<path d="M173.108 71.744C173.285 71.3344 173.483 70.9339 173.7 70.544C173.878 70.1335 174.079 69.733 174.3 69.344C174.048 70.2098 173.641 71.0229 173.1 71.744H173.108Z" fill="#EB996E"/>
<path d="M139.348 64.732C139.348 64.732 129.416 68.264 136.8 84.964L148.264 78.044L146.632 74.14L139.348 64.732Z" fill="#455A64"/>
<path d="M138.588 65.024C138.991 64.9865 139.397 65.0203 139.788 65.124C140.246 65.2425 140.684 65.4271 141.088 65.672C141.623 66.0049 142.11 66.4085 142.536 66.872C143.619 68.0816 144.527 69.4376 145.232 70.9C146.072 72.524 146.856 74.3759 147.66 76.3159C147.9 76.8999 148.14 77.4719 148.364 78.0159L148.4 78.1039L148.316 78.1479C145 79.9559 142.112 81.6479 140.072 82.9159C139.048 83.5479 138.236 84.068 137.672 84.428L137.032 84.828C136.959 84.8788 136.881 84.923 136.8 84.9599C136.864 84.8983 136.933 84.8434 137.008 84.7959C137.148 84.692 137.356 84.54 137.632 84.352C138.176 83.952 138.98 83.432 139.992 82.784C142.016 81.484 144.896 79.764 148.216 77.952L148.168 78.0799C147.944 77.5359 147.704 76.9639 147.464 76.3799C146.664 74.4399 145.864 72.5919 145.064 70.9719C144.372 69.5254 143.487 68.1797 142.432 66.972C142.02 66.5126 141.549 66.1091 141.032 65.772C140.636 65.5237 140.208 65.3312 139.76 65.2C139.375 65.1081 138.983 65.0493 138.588 65.024Z" fill="#263238"/>
<path d="M159.948 40.264C159.973 40.3197 159.989 40.3791 159.996 40.44C160.026 40.6102 160.037 40.7833 160.028 40.956C159.989 41.6056 159.72 42.2199 159.268 42.688C158.924 43.0306 158.495 43.2743 158.025 43.3932C157.554 43.5122 157.061 43.5021 156.596 43.364C156.033 43.2142 155.545 42.8607 155.228 42.372C155.06 42.1023 154.988 41.7837 155.024 41.468C155.042 41.3034 155.095 41.1447 155.18 41.0025C155.265 40.8603 155.38 40.7381 155.516 40.644C155.658 40.5545 155.82 40.5018 155.988 40.4906C156.155 40.4794 156.323 40.5101 156.476 40.58C156.772 40.7058 157.008 40.9427 157.132 41.24C157.23 41.5173 157.258 41.8149 157.212 42.1056C157.166 42.3963 157.047 42.6708 156.868 42.904C156.568 43.2927 156.14 43.5629 155.659 43.6668C155.179 43.7707 154.678 43.7017 154.244 43.472C153.931 43.3079 153.599 43.1817 153.256 43.096C152.999 43.0382 152.731 43.0663 152.492 43.176C152.292 43.284 152.102 43.4099 151.924 43.552C151.924 43.552 151.96 43.5 152.04 43.412C152.089 43.357 152.144 43.3074 152.204 43.264C152.282 43.1989 152.368 43.1439 152.46 43.1C152.707 42.9764 152.987 42.9344 153.26 42.98C153.616 43.0569 153.961 43.1779 154.288 43.34C154.473 43.4217 154.666 43.4847 154.864 43.528C155.077 43.5678 155.295 43.5678 155.508 43.528C155.987 43.4519 156.417 43.1922 156.708 42.804C156.866 42.5973 156.97 42.3544 157.01 42.0974C157.051 41.8403 157.027 41.5773 156.94 41.332C156.892 41.208 156.819 41.0953 156.725 41.0014C156.631 40.9076 156.518 40.8345 156.394 40.787C156.27 40.7394 156.137 40.7185 156.005 40.7256C155.872 40.7327 155.742 40.7675 155.624 40.828C155.513 40.9071 155.421 41.0084 155.352 41.1256C155.283 41.2427 155.239 41.373 155.224 41.508C155.195 41.7777 155.257 42.0492 155.4 42.28C155.69 42.7267 156.134 43.0513 156.648 43.192C157.082 43.3249 157.543 43.3398 157.985 43.2351C158.426 43.1303 158.832 42.9097 159.16 42.596C159.6 42.1578 159.875 41.5815 159.94 40.964C159.957 40.731 159.96 40.4973 159.948 40.264Z" fill="#455A64"/>
<path d="M157.784 55.348C157.784 55.372 157.664 55.428 157.444 55.436C157.156 55.4399 156.871 55.3743 156.613 55.2448C156.355 55.1153 156.133 54.9257 155.964 54.692C155.844 54.508 155.808 54.376 155.832 54.364C156.095 54.6301 156.389 54.8637 156.708 55.06C157.054 55.1989 157.415 55.2956 157.784 55.348Z" fill="#263238"/>
<path d="M147.296 53.6C147.316 53.6 147.428 53.776 147.296 54.052C147.254 54.1299 147.197 54.1987 147.129 54.2543C147.06 54.31 146.981 54.3513 146.896 54.376C146.787 54.4004 146.674 54.3982 146.566 54.3696C146.458 54.3411 146.359 54.287 146.276 54.212C146.186 54.1383 146.114 54.0447 146.066 53.9385C146.018 53.8323 145.996 53.7164 146 53.6C146.007 53.4241 146.072 53.2554 146.184 53.12C146.376 52.896 146.584 52.872 146.584 52.896C146.584 52.92 146.44 52.996 146.312 53.208C146.23 53.3309 146.195 53.479 146.212 53.6257C146.23 53.7724 146.299 53.9079 146.408 54.008C146.467 54.0615 146.537 54.1011 146.613 54.1239C146.689 54.1468 146.77 54.1523 146.848 54.14C146.98 54.1103 147.097 54.0335 147.176 53.924C147.304 53.76 147.264 53.6 147.296 53.6Z" fill="#263238"/>
<path d="M160.608 41.6C160.74 41.8225 160.806 42.0775 160.8 42.336C160.831 42.9677 160.618 43.5872 160.203 44.065C159.789 44.5428 159.206 44.8419 158.576 44.9C158.321 44.9436 158.058 44.9131 157.82 44.812C157.82 44.776 158.112 44.812 158.556 44.752C159.132 44.6634 159.659 44.3739 160.042 43.9347C160.426 43.4956 160.642 42.935 160.652 42.352C160.664 41.896 160.572 41.62 160.608 41.6Z" fill="#455A64"/>
<path d="M147.08 75.08C147.104 75.132 144.468 76.488 141.188 78.108C137.908 79.728 135.232 81.004 135.188 80.952C135.144 80.9 137.796 79.544 141.076 77.92C144.356 76.296 147.056 75.028 147.08 75.08Z" fill="#E0E0E0"/>
<path d="M144.676 70.5439C144.704 70.5919 142.356 71.9079 139.432 73.4759C136.508 75.0439 134.116 76.2759 134.092 76.2239C134.068 76.1719 136.412 74.8599 139.336 73.2919C142.26 71.7239 144.648 70.4919 144.676 70.5439Z" fill="#E0E0E0"/>
<path d="M142.352 66.876C141.979 67.1347 141.587 67.366 141.18 67.568L138.308 69.168L135.452 70.8C135.068 71.0444 134.667 71.261 134.252 71.448C134.605 71.159 134.983 70.9008 135.38 70.676C136.092 70.224 137.088 69.624 138.208 68.988C139.328 68.352 140.36 67.816 141.116 67.44C141.511 67.217 141.925 67.0283 142.352 66.876Z" fill="#E0E0E0"/>
<path d="M151.14 66C150.869 65.9874 150.605 65.9164 150.364 65.792C149.778 65.5292 149.238 65.1741 148.764 64.74C148.289 64.3065 147.853 63.8328 147.46 63.324C147.281 63.1281 147.129 62.9088 147.008 62.672C147.032 62.672 147.24 62.868 147.572 63.232C147.904 63.596 148.352 64.092 148.904 64.584C149.369 65.0063 149.887 65.3666 150.444 65.656C150.856 65.884 151.148 65.976 151.14 66Z" fill="#E0E0E0"/>
<path d="M156.972 63.84C156.84 64.3222 156.548 64.7453 156.144 65.04C155.786 65.3897 155.318 65.6057 154.82 65.652C155.234 65.418 155.635 65.1602 156.02 64.88C156.354 64.5494 156.672 64.2023 156.972 63.84Z" fill="#E0E0E0"/>
<path d="M167.376 69.8599C167.303 69.8824 167.228 69.8958 167.152 69.8999L166.508 69.9799C165.948 70.0439 165.136 70.1199 164.136 70.1999C162.136 70.3599 159.336 70.5159 156.284 70.6279C153.232 70.7399 150.436 70.7759 148.42 70.7599C147.416 70.7599 146.6 70.7319 146.04 70.7119L145.392 70.6799C145.316 70.68 145.241 70.6706 145.168 70.6519C145.242 70.6424 145.318 70.6424 145.392 70.6519H146.04L148.42 70.6319C150.42 70.6119 153.22 70.5479 156.276 70.4399C159.332 70.3319 162.116 70.1919 164.124 70.0719L166.5 69.9199L167.148 69.8799C167.223 69.863 167.299 69.8562 167.376 69.8599Z" fill="#E0E0E0"/>
<path d="M164.216 74.604C164 74.6533 163.781 74.6881 163.56 74.708C163.132 74.76 162.516 74.824 161.756 74.896C160.232 75.036 158.124 75.18 155.792 75.276C153.46 75.372 151.344 75.392 149.792 75.376C149.028 75.376 148.408 75.352 147.98 75.336C147.758 75.3377 147.535 75.3203 147.316 75.284C147.536 75.2575 147.758 75.2468 147.98 75.252L149.792 75.228C151.32 75.228 153.432 75.16 155.76 75.068C158.088 74.976 160.2 74.852 161.724 74.748L163.532 74.624C163.759 74.5959 163.988 74.5892 164.216 74.604Z" fill="#E0E0E0"/>
<path d="M157.044 80.452C156.609 80.5526 156.166 80.6155 155.72 80.64C154.896 80.724 153.76 80.816 152.5 80.88C151.24 80.944 150.1 80.964 149.272 80.96C148.826 80.981 148.379 80.9636 147.936 80.908C148.377 80.8407 148.822 80.8086 149.268 80.812L152.488 80.672L155.688 80.492C156.139 80.4477 156.592 80.4343 157.044 80.452Z" fill="#E0E0E0"/>
<path d="M147.88 66.572C147.88 66.632 146.652 66.644 145.14 66.708C143.628 66.772 142.408 66.856 142.4 66.796C144.208 66.4763 146.051 66.4009 147.88 66.572Z" fill="#E0E0E0"/>
<path d="M164.752 66.356C163.571 66.4532 162.385 66.4826 161.2 66.444C160.013 66.4752 158.826 66.4365 157.644 66.328C158.827 66.2281 160.014 66.1974 161.2 66.2359C162.385 66.2045 163.572 66.2445 164.752 66.356Z" fill="#E0E0E0"/>
<path d="M165.368 90.696C165.255 90.7797 165.133 90.8495 165.004 90.904C164.764 91.028 164.408 91.192 163.964 91.38C162.797 91.8604 161.593 92.2444 160.364 92.528C159.135 92.8082 157.886 92.9888 156.628 93.068C156.148 93.096 155.756 93.104 155.484 93.096C155.35 93.1022 155.216 93.0928 155.084 93.068C155.084 93.036 155.676 93.012 156.632 92.92C157.877 92.8003 159.113 92.6012 160.332 92.324C161.555 92.0432 162.757 91.681 163.932 91.24C164.8 90.904 165.356 90.664 165.368 90.696Z" fill="#E0E0E0"/>
<path d="M57.316 145.14C66.8794 145.14 74.632 137.744 74.632 128.62C74.632 119.496 66.8794 112.1 57.316 112.1C47.7526 112.1 40 119.496 40 128.62C40 137.744 47.7526 145.14 57.316 145.14Z" fill="#E0E0E0"/>
<path d="M53.788 88.8C51.044 88.944 49.964 91.808 49.636 92.448C49.3543 93.1114 49.2048 93.8233 49.196 94.544C49.1876 95.2656 49.0066 95.9747 48.668 96.612C48.064 97.576 46.792 98.076 46.448 99.16C46.048 100.388 47.06 101.7 46.792 102.96C46.648 103.636 46.156 104.192 45.992 104.86C45.8407 105.574 45.9742 106.319 46.364 106.936C47.264 108.488 49.136 109.264 50.928 109.336C52.72 109.408 54.472 108.864 56.188 108.336" fill="#263238"/>
<path d="M65.876 92.352C65.7706 92.6553 65.7522 92.9819 65.8229 93.2951C65.8936 93.6083 66.0506 93.8954 66.276 94.124C66.7367 94.5658 67.2345 94.9673 67.764 95.324C68.0284 95.5062 68.2543 95.7389 68.4287 96.0087C68.603 96.2785 68.7224 96.58 68.7799 96.896C68.8319 97.48 68.5359 98.064 68.6159 98.644C68.8239 100.144 71.2119 100.592 71.3359 102.096C71.4239 103.1 70.3919 104.024 70.6799 104.988C70.8358 105.35 71.0374 105.69 71.2799 106C71.9599 107.128 71.4999 108.68 70.5159 109.552C69.5319 110.424 68.1719 110.732 66.8599 110.792C65.7559 110.84 64.5 110.66 63.852 109.768C63.256 108.948 63.38 107.836 63.496 106.832C64.052 102.144 63.956 97.408 63.864 92.688" fill="#263238"/>
<path d="M54.5118 114.044C54.5318 111.58 54.5118 108.988 54.5118 108.988C54.5118 108.988 51.3478 108.424 50.7358 104.28C50.1558 100.324 51.1358 91.82 51.1358 91.82C55.7238 90.008 60.8918 90.708 64.1038 94.4L63.5998 114.4C63.5438 116.72 61.4998 118.52 59.0158 118.44C56.5078 118.356 54.4918 116.4 54.5118 114.044Z" fill="#FFBE9D"/>
<path d="M51.9999 98.348C51.9966 98.4864 52.0474 98.6207 52.1415 98.7223C52.2356 98.8238 52.3656 98.8847 52.5039 98.892C52.5715 98.898 52.6396 98.8905 52.7043 98.87C52.769 98.8494 52.8289 98.8162 52.8807 98.7723C52.9324 98.7284 52.9749 98.6746 53.0057 98.6141C53.0364 98.5536 53.0549 98.4876 53.0599 98.42C53.0622 98.2812 53.0105 98.1469 52.9157 98.0454C52.821 97.9439 52.6906 97.8832 52.5519 97.876C52.4845 97.87 52.4166 97.8775 52.3522 97.8981C52.2877 97.9186 52.228 97.9519 52.1766 97.9959C52.1252 98.0398 52.0831 98.0936 52.0527 98.1541C52.0224 98.2146 52.0044 98.2805 51.9999 98.348Z" fill="#263238"/>
<path d="M51.1479 97.94C51.2119 98.008 51.6159 97.716 52.1879 97.724C53.2639 97.88 53.2439 98.044 53.2359 97.952C53.2679 97.924 53.2039 97.796 53.0199 97.664C52.7764 97.4884 52.4841 97.3933 52.1839 97.392C51.8861 97.389 51.595 97.48 51.3519 97.652C51.1759 97.784 51.1159 97.908 51.1479 97.94Z" fill="#263238"/>
<path d="M57.8478 98.52C57.8445 98.658 57.8955 98.7918 57.9897 98.8928C58.0839 98.9937 58.2139 99.0537 58.3518 99.0599C58.4193 99.0665 58.4874 99.0594 58.5521 99.039C58.6168 99.0187 58.6767 98.9855 58.7282 98.9414C58.7798 98.8973 58.8219 98.8433 58.8521 98.7826C58.8822 98.7218 58.8998 98.6556 58.9038 98.588C58.9071 98.4495 58.8563 98.3152 58.7622 98.2137C58.6681 98.1121 58.5381 98.0512 58.3998 98.044C58.3322 98.0385 58.2642 98.0465 58.1998 98.0676C58.1353 98.0886 58.0757 98.1223 58.0243 98.1665C57.9729 98.2108 57.9309 98.2649 57.9006 98.3255C57.8703 98.3862 57.8524 98.4523 57.8478 98.52Z" fill="#263238"/>
<path d="M57.1039 98.136C57.1679 98.208 57.5759 97.912 58.1439 97.92C58.7119 97.928 59.1319 98.22 59.1959 98.152C59.2599 98.084 59.1599 97.996 58.9799 97.86C58.735 97.6847 58.4411 97.591 58.1399 97.592C57.8424 97.5867 57.551 97.6764 57.3079 97.848C57.1319 98 57.0719 98.104 57.1039 98.136Z" fill="#263238"/>
<path d="M54.9799 102.236C54.6816 102.134 54.3707 102.074 54.0559 102.056C53.912 102.056 53.7719 102.008 53.7479 101.908C53.7395 101.757 53.7757 101.607 53.852 101.476L54.296 100.372C54.705 99.4341 55.0407 98.4658 55.2999 97.476C55.2359 97.452 54.6839 98.712 54.064 100.276C53.916 100.676 53.776 101.036 53.64 101.388C53.5445 101.562 53.5147 101.765 53.556 101.96C53.5761 102.012 53.6083 102.059 53.6501 102.097C53.6918 102.134 53.7418 102.161 53.796 102.176C53.8749 102.201 53.9572 102.213 54.04 102.212C54.351 102.259 54.6668 102.268 54.9799 102.236Z" fill="#263238"/>
<path d="M54.5078 108.988C56.4561 109.041 58.3807 108.552 60.0678 107.576C60.0678 107.576 58.6918 110.404 54.5518 109.976L54.5078 108.988Z" fill="#EB996E"/>
<path d="M55.2 103.6C55.3107 103.465 55.4539 103.36 55.6161 103.295C55.7784 103.23 55.9545 103.207 56.128 103.228C56.2598 103.239 56.3877 103.278 56.5035 103.343C56.6193 103.407 56.7203 103.494 56.8 103.6C56.875 103.697 56.9187 103.814 56.9252 103.936C56.9316 104.059 56.9005 104.18 56.836 104.284C56.7422 104.384 56.6208 104.455 56.4871 104.487C56.3533 104.519 56.2131 104.511 56.084 104.464C55.8156 104.365 55.5695 104.214 55.36 104.02C55.2967 103.973 55.2424 103.914 55.2 103.848C55.1786 103.817 55.1672 103.78 55.1672 103.742C55.1672 103.704 55.1786 103.667 55.2 103.636" fill="#EB996E"/>
<path d="M56.6598 102.648C56.5638 102.648 56.5558 103.264 56.0198 103.696C55.4838 104.128 54.8198 104.056 54.8198 104.14C54.8198 104.224 54.9678 104.264 55.2438 104.272C55.608 104.285 55.9646 104.165 56.2478 103.936C56.5186 103.718 56.6948 103.404 56.7398 103.06C56.7678 102.8 56.6998 102.644 56.6598 102.648Z" fill="#263238"/>
<path d="M62.304 91.4479C60.792 93.6079 56.78 95.8279 53.904 96.3439C54.236 95.9039 56 94.8159 56.336 94.376C55.036 95.3439 53.172 96.6479 51.448 96.7319C51.2446 96.7618 51.0369 96.7297 50.852 96.64C50.7552 96.5626 50.6777 96.4637 50.6257 96.3513C50.5736 96.2388 50.5484 96.1158 50.552 95.9919C50.4539 94.7407 50.4941 93.4824 50.672 92.24C50.8088 91.19 51.3427 90.2323 52.164 89.564C53.272 88.708 54.852 88.5 56.344 88.464C57.5927 88.3828 58.8451 88.5515 60.028 88.96C61.172 89.4079 62.152 90.2999 62.32 91.3599" fill="#263238"/>
<path d="M66.6479 101.124C66.8373 100.21 66.9709 99.2859 67.0479 98.356C67.1719 96.22 66.5559 88.356 59.1919 88.972L58.8919 91.216C58.8919 91.216 57.7559 98.892 62.5199 98.948C62.8401 100.662 63.6777 102.237 64.9199 103.46C64.9199 103.46 66.1679 103.424 66.6159 101.124" fill="#263238"/>
<path d="M62.5318 98.948C62.9767 98.8605 63.437 98.895 63.8638 99.048C64.2913 99.2091 64.6378 99.5326 64.8278 99.948C64.9938 100.372 64.9938 100.844 64.8278 101.268C64.6565 101.688 64.3942 102.065 64.0598 102.372C63.8395 102.609 63.565 102.789 63.2598 102.896C63.1059 102.949 62.9412 102.963 62.7806 102.936C62.62 102.91 62.4685 102.844 62.3398 102.744" fill="#FFBE9D"/>
<path d="M62.7439 101.636C62.6919 101.636 62.8839 101.92 63.2879 101.816C63.3967 101.782 63.4974 101.726 63.584 101.651C63.6706 101.577 63.7413 101.486 63.7919 101.384C63.9172 101.159 63.9961 100.912 64.0239 100.656C64.0622 100.376 63.9983 100.092 63.8439 99.8559C63.7816 99.7572 63.697 99.6743 63.597 99.6139C63.4971 99.5535 63.3844 99.5172 63.2679 99.5079C62.8679 99.5079 62.7199 99.7799 62.7639 99.7879C62.8079 99.7959 62.9599 99.6759 63.2319 99.7439C63.3984 99.8086 63.5358 99.9313 63.6188 100.089C63.7019 100.247 63.725 100.43 63.6839 100.604C63.6319 101.06 63.4519 101.476 63.2079 101.576C62.9639 101.676 62.7719 101.6 62.7439 101.636Z" fill="#EB996E"/>
<path d="M63.3359 90.64C63.9068 90.964 64.5818 91.0516 65.2165 90.8841C65.8512 90.7167 66.3951 90.3074 66.7319 89.744C66.965 89.3904 67.0484 88.9589 66.9639 88.544C66.8694 88.2729 66.7055 88.0314 66.4887 87.8433C66.2719 87.6552 66.0096 87.5272 65.7279 87.472C65.3253 87.3669 64.9029 87.3626 64.4983 87.4596C64.0936 87.5566 63.7191 87.7518 63.4079 88.028C63.1035 88.3131 62.8856 88.6782 62.7795 89.0816C62.6734 89.4849 62.6832 89.91 62.8079 90.308C62.9492 90.6991 63.2089 91.0363 63.5509 91.2729C63.8929 91.5095 64.3001 91.6336 64.7159 91.628" fill="#263238"/>
<path d="M63.9998 102.576C63.5784 102.856 63.194 103.188 62.8558 103.564C62.5174 103.947 62.341 104.446 62.3638 104.956C62.4258 105.232 62.4566 105.513 62.4558 105.796C62.3341 106.166 62.1366 106.507 61.8758 106.796C61.6342 107.239 61.54 107.747 61.6069 108.247C61.6738 108.747 61.8983 109.212 62.2478 109.576C62.974 110.29 63.9535 110.687 64.9718 110.68C65.5577 110.73 66.144 110.59 66.6438 110.28C67.3318 109.8 67.5958 108.896 67.6158 108.052" fill="#263238"/>
<path d="M64.504 92.292C64.4022 92.5646 64.2562 92.8187 64.072 93.044C63.6654 93.6186 63.1883 94.14 62.652 94.596C62.1197 95.057 61.5326 95.4506 60.904 95.768C60.6552 95.9139 60.3854 96.0205 60.104 96.084C60.954 95.6006 61.7645 95.0509 62.528 94.44C63.2417 93.7766 63.9024 93.0584 64.504 92.292Z" fill="#455A64"/>
<path d="M65.2679 92.248C65.2792 92.5903 65.2346 92.9321 65.1359 93.26C64.9387 94.0609 64.6232 94.828 64.1999 95.536C63.7738 96.242 63.2439 96.8798 62.6279 97.428C62.384 97.6686 62.1031 97.8685 61.7959 98.02C62.6511 97.2606 63.3992 96.3886 64.0199 95.428C64.5797 94.4302 64.9997 93.3602 65.2679 92.248Z" fill="#455A64"/>
<path d="M49.2799 95.6C49.3399 95.6 49.4199 96.288 49.6799 97.108C49.9399 97.928 50.2159 98.556 50.1599 98.584C49.5409 97.7158 49.2311 96.6651 49.2799 95.6Z" fill="#455A64"/>
<path d="M66.9238 109.736C67.1051 109.855 67.3152 109.923 67.5318 109.932C67.7835 109.929 68.0285 109.851 68.2358 109.708C68.5017 109.512 68.6901 109.229 68.7678 108.908C68.8637 108.514 68.8637 108.102 68.7678 107.708C68.6838 107.272 68.5158 106.824 68.3678 106.332C68.1867 105.819 68.1251 105.272 68.1878 104.732C68.2798 104.148 68.6598 103.672 68.8438 103.132C68.9308 102.874 68.9654 102.602 68.9455 102.33C68.9255 102.059 68.8515 101.794 68.7278 101.552C68.5002 101.093 68.1094 100.735 67.6318 100.548C67.3973 100.46 67.1676 100.36 66.9438 100.248C66.7205 100.138 66.5311 99.9691 66.3958 99.76C66.1973 99.3713 66.1114 98.9349 66.1478 98.5C66.1746 98.1609 66.1612 97.8199 66.1078 97.484C66.0638 97.2341 65.961 96.9983 65.8078 96.796C65.67 96.6273 65.4801 96.5091 65.2678 96.46C65.3256 96.4459 65.386 96.4459 65.4438 96.46C65.6097 96.5031 65.7588 96.5951 65.8718 96.724C66.0416 96.9331 66.1619 97.1778 66.2238 97.44C66.2921 97.7835 66.3163 98.1343 66.2958 98.484C66.2676 98.8875 66.3536 99.2909 66.5438 99.648C66.7678 100.016 67.2318 100.168 67.7038 100.356C68.2262 100.555 68.6545 100.944 68.9038 101.444C69.0409 101.71 69.1236 102.002 69.1469 102.3C69.1703 102.599 69.1339 102.899 69.0398 103.184C68.8318 103.756 68.4638 104.212 68.3838 104.736C68.3229 105.25 68.379 105.771 68.5478 106.26C68.6878 106.74 68.8518 107.2 68.9478 107.652C69.0371 108.075 69.0248 108.514 68.9118 108.932C68.8167 109.283 68.5998 109.59 68.2998 109.796C68.0711 109.945 67.8007 110.018 67.5278 110.004C67.3567 109.996 67.1908 109.942 67.0478 109.848C66.9991 109.82 66.9568 109.782 66.9238 109.736Z" fill="#455A64"/>
<path d="M64.0359 109.452C64.0359 109.452 64.0879 109.58 64.2799 109.672C64.4144 109.728 64.5637 109.737 64.7042 109.699C64.8447 109.661 64.9684 109.576 65.0559 109.46C65.1591 109.265 65.2076 109.046 65.1964 108.825C65.1851 108.605 65.1144 108.392 64.9919 108.208C64.7639 107.756 64.3119 107.312 64.1919 106.652C64.1592 106.491 64.1619 106.325 64.1999 106.166C64.2379 106.006 64.3102 105.857 64.4119 105.728C64.6079 105.488 64.8399 105.328 64.9879 105.132C65.2441 104.758 65.3445 104.299 65.2679 103.852C65.2184 103.543 65.1422 103.239 65.0399 102.944C64.9933 102.837 64.9611 102.724 64.9439 102.608C64.9439 102.608 65.0199 102.712 65.1119 102.916C65.2515 103.207 65.3524 103.515 65.4119 103.832C65.4631 104.073 65.4658 104.322 65.4198 104.565C65.3738 104.807 65.28 105.038 65.1439 105.244C64.9719 105.476 64.7439 105.644 64.5759 105.856C64.4919 105.962 64.4322 106.086 64.4011 106.218C64.37 106.35 64.3683 106.487 64.3959 106.62C64.4919 107.192 64.9159 107.628 65.1599 108.12C65.2914 108.335 65.361 108.582 65.361 108.834C65.361 109.086 65.2914 109.333 65.1599 109.548C65.0992 109.627 65.0227 109.692 64.9352 109.74C64.8477 109.787 64.7512 109.816 64.6519 109.824C64.5057 109.841 64.3577 109.813 64.2279 109.744C64.0279 109.6 64.0279 109.448 64.0359 109.452Z" fill="#455A64"/>
<path d="M48.3558 108.4C48.2332 108.306 48.123 108.197 48.0278 108.076C47.7423 107.764 47.5074 107.409 47.3318 107.024C47.2133 106.749 47.156 106.451 47.1638 106.152C47.1656 105.797 47.29 105.454 47.5158 105.18C47.7638 104.896 48.1238 104.744 48.3398 104.476C48.4445 104.329 48.5137 104.16 48.5422 103.981C48.5706 103.803 48.5575 103.62 48.5038 103.448C48.4062 103.078 48.2595 102.723 48.0678 102.392C47.8801 102.064 47.7451 101.709 47.6678 101.34C47.6029 100.99 47.6761 100.629 47.8718 100.332C48.0465 100.095 48.2508 99.8811 48.4798 99.696C48.8106 99.4564 49.0515 99.1127 49.1638 98.72C49.1909 98.5746 49.1909 98.4254 49.1638 98.28C49.1638 98.28 49.1958 98.312 49.2238 98.384C49.2639 98.4953 49.2763 98.6148 49.2598 98.732C49.1733 99.157 48.9378 99.5372 48.5958 99.804C48.3848 99.9885 48.1956 100.196 48.0318 100.424C47.866 100.687 47.8086 101.004 47.8718 101.308C47.9541 101.656 48.089 101.989 48.2718 102.296C48.4737 102.642 48.6284 103.013 48.7318 103.4C48.7909 103.603 48.8029 103.816 48.7669 104.024C48.7308 104.232 48.6477 104.429 48.5238 104.6C48.2518 104.92 47.8918 105.06 47.6838 105.304C47.4813 105.541 47.3668 105.84 47.3598 106.152C47.3475 106.425 47.3925 106.697 47.4918 106.952C47.6489 107.332 47.859 107.687 48.1158 108.008C48.2083 108.131 48.2886 108.262 48.3558 108.4Z" fill="#455A64"/>
<path d="M65.0359 91.16C64.7501 90.7722 64.4228 90.4167 64.0599 90.1C63.6568 89.8377 63.2263 89.6204 62.7759 89.452C63.2851 89.4601 63.7785 89.6299 64.1848 89.937C64.591 90.244 64.8891 90.6723 65.0359 91.16Z" fill="#CC0000"/>
<path d="M65.5999 87.332C65.6239 87.332 65.7559 87.476 65.8639 87.784C66.0022 88.1938 66.0148 88.6355 65.9 89.0525C65.7853 89.4695 65.5484 89.8427 65.2199 90.124C64.9639 90.336 64.7719 90.4 64.7599 90.38C64.7479 90.36 64.9079 90.244 65.1159 90.02C65.3928 89.734 65.5936 89.3831 65.6998 88.9995C65.806 88.6158 65.8143 88.2116 65.7239 87.824C65.6684 87.6639 65.6269 87.4993 65.5999 87.332Z" fill="#455A64"/>
<path opacity="0.3" d="M45.2998 136.536C45.2998 136.536 55.2398 145.976 61.1478 144.264C67.0558 142.552 68.7998 138.124 68.7998 138.124L68.9438 136.524L68.3518 136.124L45.5998 134.308L45.2998 136.536Z" fill="black"/>
<path d="M39.4238 127.696L41.3398 122.8L48.2078 127.116L42.0878 136.552C42.0878 136.552 39.5998 133.304 39.4238 127.696Z" fill="#EB996E"/>
<path d="M47.1719 114.12C50.3719 112.448 54.5079 111.968 54.5079 111.968C55.7079 114.368 59.4959 114.676 61.7879 113.036L63.7239 111.728C63.9911 111.724 64.2582 111.736 64.5239 111.764C66.7318 111.971 68.8143 112.884 70.4627 114.368C72.1111 115.851 73.2378 117.826 73.6759 120C74.0577 121.706 74.2203 123.453 74.1599 125.2C73.9079 129.572 69.3839 129.968 69.3839 129.968C69.3839 129.968 69.1519 134.284 68.8439 137.776C68.7776 138.992 68.3719 140.166 67.6727 141.163C66.9735 142.161 66.0088 142.943 64.8879 143.42C63.3036 144.212 61.5994 144.738 59.8439 144.976C57.1035 145.405 54.2998 145.155 51.6784 144.248C49.0569 143.342 46.6979 141.806 44.8079 139.776C45.4959 135.616 46.1519 130.228 46.1039 129.984C46.0961 129.958 46.0961 129.93 46.1039 129.904L41.6199 125.924L39.0759 123.788C39.0759 123.788 44.6759 115.508 47.1639 114.148" fill="#CC0000"/>
<path d="M52.7319 116.8C52.3935 116.608 52.0129 116.502 51.6239 116.492C51.2081 116.491 50.8045 116.632 50.4799 116.892C50.2955 117.061 50.1243 117.245 49.9679 117.44C49.7894 117.679 49.5335 117.849 49.2439 117.92C48.9441 117.958 48.6415 117.877 48.3999 117.696C48.1679 117.548 47.9719 117.388 47.7679 117.272C47.5925 117.169 47.3963 117.106 47.1936 117.088C46.9909 117.07 46.7867 117.097 46.5959 117.168C46.3286 117.259 46.0917 117.422 45.9119 117.64C45.7879 117.796 45.7439 117.9 45.7239 117.892C45.7389 117.783 45.7816 117.68 45.8479 117.592C46.0155 117.337 46.2589 117.141 46.5439 117.032C46.7546 116.942 46.9834 116.901 47.2123 116.914C47.4412 116.926 47.6642 116.991 47.8639 117.104C48.0879 117.224 48.2879 117.388 48.5079 117.524C48.7082 117.675 48.9586 117.744 49.2079 117.716C49.4504 117.654 49.6655 117.513 49.8199 117.316C49.9822 117.113 50.1629 116.926 50.3599 116.756C50.7207 116.477 51.1685 116.336 51.6239 116.356C51.9248 116.367 52.2186 116.45 52.4799 116.6C52.6639 116.712 52.7399 116.8 52.7319 116.8Z" fill="#FAFAFA"/>
<path d="M57.2878 122.8C57.0294 122.508 56.7022 122.285 56.3358 122.152C55.9469 122.019 55.5248 122.019 55.1358 122.152C54.9092 122.255 54.6901 122.374 54.4798 122.508C54.2337 122.677 53.9372 122.756 53.6398 122.732C53.3433 122.672 53.0821 122.498 52.9118 122.248C52.7398 122.036 52.6038 121.82 52.4478 121.644C52.3146 121.491 52.149 121.369 51.9629 121.287C51.7768 121.205 51.575 121.166 51.3718 121.172C51.0895 121.175 50.8132 121.253 50.5718 121.4C50.4038 121.508 50.3278 121.592 50.3118 121.58C50.2958 121.568 50.3638 121.468 50.5278 121.332C50.8338 121.102 51.214 120.994 51.5952 121.028C51.9763 121.062 52.3314 121.236 52.5918 121.516C52.7638 121.704 52.9038 121.916 53.0678 122.12C53.2119 122.322 53.4255 122.465 53.6678 122.52C53.9201 122.533 54.17 122.465 54.3798 122.324C54.5989 122.183 54.8305 122.062 55.0718 121.964C55.5045 121.816 55.9759 121.829 56.3998 122C56.6835 122.104 56.9366 122.277 57.1358 122.504C57.2558 122.668 57.2958 122.776 57.2878 122.8Z" fill="#FAFAFA"/>
<path d="M67.4119 114.04C67.0404 113.925 66.6464 113.901 66.2639 113.972C65.8567 114.059 65.4912 114.282 65.2279 114.604C65.0861 114.808 64.9591 115.022 64.8479 115.244C64.7227 115.516 64.5082 115.738 64.2399 115.872C63.954 115.967 63.6428 115.952 63.3679 115.828C63.1119 115.732 62.8839 115.616 62.6599 115.544C62.4661 115.481 62.2608 115.462 62.0588 115.489C61.8568 115.515 61.6632 115.586 61.4919 115.696C61.2518 115.843 61.0556 116.051 60.9239 116.3C60.8359 116.476 60.8119 116.592 60.7959 116.588C60.7799 116.584 60.7959 116.468 60.8519 116.264C60.9968 115.909 61.2679 115.621 61.613 115.455C61.958 115.289 62.3524 115.256 62.7199 115.364C62.9639 115.436 63.1959 115.548 63.4359 115.636C63.6631 115.742 63.9225 115.757 64.1599 115.676C64.3849 115.56 64.565 115.373 64.6719 115.144C64.7853 114.912 64.9191 114.692 65.0719 114.484C65.3678 114.136 65.7773 113.903 66.2279 113.828C66.5242 113.773 66.8297 113.793 67.1159 113.888C67.226 113.912 67.328 113.965 67.4119 114.04Z" fill="#FAFAFA"/>
<path d="M62.74 120.6C62.5411 120.38 62.2968 120.205 62.024 120.088C61.7296 119.973 61.4048 119.963 61.104 120.06C60.9255 120.128 60.753 120.211 60.588 120.308C60.3873 120.432 60.1503 120.484 59.916 120.456C59.6848 120.4 59.4842 120.256 59.356 120.056C59.232 119.884 59.136 119.712 59.024 119.572C58.929 119.45 58.8078 119.35 58.6694 119.281C58.5309 119.212 58.3788 119.175 58.224 119.172C57.9282 119.174 57.6397 119.264 57.396 119.432C57.396 119.432 57.436 119.344 57.564 119.244C57.8084 119.073 58.1076 118.999 58.4034 119.037C58.6992 119.075 58.9703 119.221 59.164 119.448C59.292 119.6 59.396 119.772 59.512 119.928C59.6108 120.088 59.7665 120.205 59.948 120.256C60.316 120.32 60.652 119.988 61.036 119.88C61.3792 119.78 61.747 119.807 62.072 119.956C62.636 120.208 62.764 120.608 62.74 120.6Z" fill="#FAFAFA"/>
<path d="M52.44 126.128C52.2389 125.908 51.9935 125.734 51.72 125.616C51.4242 125.505 51.0994 125.5 50.8 125.6C50.6219 125.669 50.4494 125.752 50.284 125.848C50.0808 125.977 49.8388 126.031 49.6 126C49.3704 125.942 49.1715 125.799 49.044 125.6C48.916 125.428 48.82 125.256 48.712 125.12C48.6164 124.998 48.4951 124.899 48.3568 124.83C48.2185 124.761 48.0666 124.723 47.912 124.72C47.6159 124.72 47.3268 124.81 47.084 124.98C47.084 124.98 47.12 124.892 47.252 124.792C47.4434 124.651 47.6743 124.574 47.912 124.572C48.092 124.565 48.2711 124.6 48.4355 124.673C48.5999 124.747 48.7452 124.857 48.86 124.996C48.988 125.148 49.088 125.32 49.208 125.476C49.305 125.636 49.4595 125.754 49.64 125.804C50.008 125.868 50.348 125.536 50.732 125.428C51.0739 125.328 51.4404 125.355 51.764 125.504C52.332 125.736 52.46 126.136 52.44 126.128Z" fill="#FAFAFA"/>
<path d="M62.0679 126.256C61.8102 126.106 61.5213 126.019 61.2239 126C60.9082 125.988 60.598 126.084 60.3439 126.272C60.2 126.394 60.0662 126.528 59.9439 126.672C59.7937 126.854 59.5865 126.979 59.3559 127.028C59.1174 127.045 58.8812 126.971 58.6959 126.82C58.5199 126.7 58.3759 126.568 58.2239 126.472C58.0942 126.389 57.9477 126.335 57.7949 126.315C57.6421 126.295 57.4867 126.309 57.3399 126.356C57.0604 126.454 56.8166 126.634 56.6399 126.872C56.6399 126.872 56.6399 126.776 56.7399 126.636C56.8772 126.442 57.0715 126.295 57.2959 126.216C57.4636 126.151 57.6441 126.126 57.8232 126.143C58.0022 126.159 58.175 126.217 58.3279 126.312C58.4959 126.412 58.6479 126.544 58.8119 126.652C58.9558 126.772 59.1407 126.833 59.3279 126.82C59.6959 126.764 59.9079 126.34 60.2359 126.112C60.5286 125.908 60.8845 125.814 61.2399 125.848C61.3997 125.849 61.5571 125.887 61.7004 125.957C61.8438 126.028 61.9694 126.13 62.0679 126.256Z" fill="#FAFAFA"/>
<path d="M58.8878 130.648C58.6279 130.504 58.3402 130.416 58.0438 130.392C57.727 130.381 57.4156 130.477 57.1598 130.664C57.0168 130.787 56.8831 130.921 56.7598 131.064C56.61 131.246 56.4026 131.372 56.1718 131.42C55.934 131.437 55.6985 131.364 55.5118 131.216C55.3358 131.092 55.1918 130.96 55.0398 130.868C54.9108 130.783 54.7644 130.728 54.6114 130.708C54.4585 130.687 54.3028 130.701 54.1558 130.748C53.8755 130.845 53.6313 131.025 53.4558 131.264C53.4647 131.178 53.498 131.096 53.5518 131.028C53.7285 130.782 53.9915 130.612 54.2882 130.552C54.585 130.492 54.8934 130.546 55.1518 130.704C55.3238 130.804 55.4758 130.936 55.6398 131.044C55.7837 131.164 55.9686 131.225 56.1558 131.212C56.5238 131.156 56.7358 130.732 57.0638 130.504C57.3571 130.301 57.7125 130.207 58.0678 130.24C58.2261 130.243 58.3816 130.282 58.5234 130.352C58.6651 130.423 58.7896 130.524 58.8878 130.648Z" fill="#FAFAFA"/>
<path d="M52.1719 141.552C51.9673 141.335 51.7193 141.163 51.4439 141.048C51.1462 140.943 50.8216 140.943 50.5239 141.048C50.3467 141.121 50.1755 141.208 50.0119 141.308C49.8133 141.434 49.5774 141.487 49.3439 141.46C49.1111 141.405 48.9088 141.262 48.7799 141.06C48.6519 140.892 48.5519 140.72 48.4399 140.584C48.3438 140.463 48.2224 140.365 48.0842 140.295C47.946 140.226 47.7944 140.188 47.6399 140.184C47.3432 140.188 47.0552 140.285 46.8159 140.46C46.8159 140.46 46.8519 140.368 46.9799 140.264C47.1718 140.123 47.4022 140.045 47.6399 140.04C47.8186 140.03 47.9973 140.06 48.1623 140.129C48.3274 140.199 48.4743 140.305 48.5919 140.44C48.7199 140.592 48.8239 140.764 48.9439 140.916C49.0443 141.075 49.2018 141.189 49.3839 141.236C49.7519 141.296 50.0839 140.96 50.4679 140.836C50.8098 140.733 51.1773 140.756 51.5039 140.9C52.0559 141.16 52.1919 141.556 52.1719 141.552Z" fill="#FAFAFA"/>
<path d="M60.0318 143.872C59.7773 143.722 59.4935 143.63 59.1998 143.6C58.8843 143.585 58.5728 143.676 58.3158 143.86C58.1718 143.982 58.038 144.116 57.9158 144.26C57.7632 144.438 57.5544 144.56 57.3238 144.604C57.0859 144.621 56.8507 144.545 56.6678 144.392C56.4918 144.268 56.3478 144.132 56.1998 144.036C56.0712 143.95 55.9253 143.894 55.7725 143.871C55.6198 143.849 55.4638 143.86 55.3158 143.904C55.0355 143.999 54.7903 144.176 54.6118 144.412C54.6118 144.412 54.6118 144.316 54.7118 144.18C54.8537 143.993 55.049 143.854 55.2718 143.78C55.4412 143.72 55.6219 143.699 55.8006 143.719C55.9792 143.738 56.1512 143.797 56.3038 143.892C56.4718 143.996 56.6238 144.128 56.7838 144.24C56.9279 144.361 57.1119 144.424 57.2998 144.416C57.6678 144.36 57.8878 143.944 58.2158 143.72C58.5121 143.521 58.8687 143.432 59.2238 143.468C59.3797 143.473 59.5327 143.511 59.6723 143.581C59.8118 143.651 59.9345 143.75 60.0318 143.872Z" fill="#FAFAFA"/>
<path d="M34.1279 110.8C34.3679 111.084 43.1639 122.844 43.1639 122.844L41.9279 123.548L32.8999 111.948L34.1279 110.8Z" fill="#263238"/>
<path d="M68.4519 119.2C68.4519 119.2 60.2039 133.428 59.6519 133.688C58.5519 134.204 45.8959 123.264 44.6879 122.22C44.5239 121.996 44.1799 121.528 43.4879 120.596C43.4879 120.596 42.4919 116.024 41.4239 116.376C40.3559 116.728 42.0079 118.7 41.3159 120.436C40.6239 122.172 37.4439 118.036 37.3159 117.66L36.5159 116.588C36.5159 116.588 35.6559 119.024 35.7159 120.044C35.8999 123.304 38.9839 127.18 38.9839 127.18C38.9839 127.18 51.5199 142.884 61.0079 143.416C63.7399 143.572 68.9599 135.704 72.2079 129.888C74.1679 126.376 73.2559 122.812 70.0079 120.44L68.4519 119.2Z" fill="#FFBE9D"/>
<path d="M37.264 120.6C36.7226 119.879 36.316 119.066 36.064 118.2C36.096 118.2 36.332 118.74 36.664 119.4C36.996 120.06 37.292 120.584 37.264 120.6Z" fill="#EB996E"/>
<path d="M68.064 115.224C67.74 115.42 60.064 129.66 60.064 129.66L69.94 137.392C71.4496 133.642 72.7581 129.814 73.86 125.924C74.228 124.528 74.04 120.796 73.52 119.356C72.784 117.312 71.672 117.82 70.004 116.624L68.064 115.224Z" fill="#CC0000"/>
<g opacity="0.7">
<path opacity="0.7" d="M71.3079 115.224C71.3079 115.224 71.2119 115.168 71.0279 115.076C70.7598 114.94 70.4601 114.877 70.1599 114.896C69.6863 114.941 69.2373 115.127 68.8719 115.432C68.3829 115.823 67.9543 116.284 67.5999 116.8C67.1653 117.445 66.7648 118.113 66.3999 118.8C65.9999 119.524 65.5439 120.3 65.0799 121.116C64.1479 122.744 63.1199 124.536 62.0479 126.416C61.3879 127.556 60.7519 128.664 60.1519 129.704L60.1279 129.576L66.8079 134.856L68.7479 136.412L69.2599 136.836C69.3225 136.882 69.3802 136.934 69.4319 136.992C69.3637 136.956 69.2993 136.913 69.2399 136.864L68.7039 136.464L66.7279 134.952L60.0039 129.752L59.9319 129.696L59.9999 129.6C60.5999 128.56 61.2359 127.452 61.8879 126.308C62.9679 124.432 63.9999 122.648 64.9359 121.02L66.2719 118.712C66.6363 118.025 67.0369 117.357 67.4719 116.712C67.8429 116.182 68.2936 115.712 68.8079 115.32C69.1951 115.012 69.6663 114.828 70.1599 114.792C70.4729 114.781 70.7826 114.86 71.0519 115.02C71.1218 115.059 71.1887 115.103 71.2519 115.152C71.2919 115.2 71.3119 115.22 71.3079 115.224Z" fill="black"/>
</g>
<path d="M68.3599 128.576C68.1622 128.354 67.9176 128.179 67.6439 128.064C67.3496 127.95 67.0254 127.939 66.7239 128.032C66.5454 128.102 66.3728 128.186 66.2079 128.284C66.0065 128.406 65.7701 128.458 65.5359 128.432C65.3047 128.376 65.1041 128.232 64.9759 128.032C64.8519 127.86 64.7559 127.688 64.6439 127.548C64.5489 127.426 64.4277 127.326 64.2893 127.257C64.1508 127.188 63.9986 127.151 63.8439 127.148C63.5481 127.15 63.2596 127.24 63.0159 127.408C63.0159 127.408 63.0559 127.32 63.1839 127.216C63.3789 127.08 63.61 127.005 63.8479 127C64.0273 126.993 64.2058 127.028 64.3696 127.101C64.5333 127.175 64.6779 127.285 64.7919 127.424C64.9199 127.576 65.0239 127.748 65.1399 127.904C65.2399 128.063 65.3951 128.18 65.5759 128.232C65.9439 128.296 66.2799 127.964 66.6639 127.856C67.0066 127.755 67.3744 127.78 67.6999 127.928C68.2559 128.18 68.3999 128.58 68.3599 128.576Z" fill="#FAFAFA"/>
<path d="M72.8719 126.736C72.7445 126.465 72.5554 126.228 72.3199 126.044C72.0669 125.857 71.7585 125.76 71.4439 125.768C71.2538 125.79 71.0654 125.825 70.8799 125.872C70.6526 125.936 70.4103 125.922 70.1919 125.832C69.9845 125.713 69.8311 125.518 69.7639 125.288C69.6919 125.088 69.6439 124.888 69.5759 124.736C69.5167 124.593 69.4263 124.465 69.3115 124.361C69.1967 124.257 69.0602 124.18 68.9119 124.136C68.6264 124.058 68.3239 124.068 68.0439 124.164C68.0439 124.164 68.1039 124.088 68.2559 124.028C68.4786 123.943 68.7225 123.932 68.9519 123.996C69.1274 124.038 69.2908 124.119 69.4296 124.234C69.5684 124.35 69.6787 124.495 69.7519 124.66C69.8319 124.84 69.8839 125.032 69.9559 125.216C70.0074 125.396 70.1263 125.549 70.2879 125.644C70.6239 125.808 71.0359 125.58 71.4359 125.576C71.7924 125.576 72.1378 125.7 72.4119 125.928C72.5444 126.019 72.6545 126.14 72.7341 126.279C72.8137 126.419 72.8608 126.575 72.8719 126.736Z" fill="#FAFAFA"/>
<path d="M73.1039 120.848C72.9744 120.58 72.7857 120.344 72.5519 120.16C72.2997 119.971 71.9907 119.874 71.6759 119.884C71.4852 119.902 71.2965 119.937 71.1119 119.988C70.8843 120.053 70.6414 120.037 70.4239 119.944C70.2175 119.825 70.0643 119.632 69.9959 119.404C69.9239 119.204 69.8759 119.004 69.8079 118.848C69.7472 118.706 69.6564 118.579 69.5418 118.475C69.4271 118.371 69.2914 118.294 69.1439 118.248C68.8583 118.17 68.5558 118.18 68.2759 118.276C68.2759 118.276 68.3359 118.204 68.4879 118.14C68.7109 118.057 68.9542 118.046 69.1839 118.108C69.3585 118.152 69.521 118.234 69.6595 118.349C69.798 118.464 69.9089 118.608 69.9839 118.772C70.0639 118.952 70.1159 119.148 70.1879 119.328C70.2392 119.509 70.358 119.664 70.5199 119.76C70.8559 119.92 71.2679 119.692 71.6679 119.692C72.025 119.688 72.3717 119.813 72.6439 120.044C72.7756 120.135 72.8852 120.255 72.9648 120.394C73.0444 120.533 73.0919 120.688 73.1039 120.848Z" fill="#FAFAFA"/>
<path d="M70.9198 134.4C70.7885 134.133 70.6001 133.898 70.3678 133.712C70.1144 133.523 69.804 133.425 69.4878 133.436C69.2984 133.454 69.111 133.489 68.9278 133.54C68.7005 133.604 68.4582 133.59 68.2398 133.5C68.0339 133.379 67.8812 133.185 67.8118 132.956C67.7358 132.756 67.6918 132.556 67.6198 132.4C67.56 132.258 67.47 132.131 67.356 132.027C67.242 131.924 67.1068 131.846 66.9598 131.8C66.6743 131.719 66.3706 131.73 66.0918 131.832C66.0918 131.832 66.1518 131.756 66.3038 131.692C66.5865 131.592 66.8964 131.601 67.1726 131.718C67.4487 131.835 67.6711 132.051 67.7958 132.324C67.8798 132.504 67.9318 132.7 68.0038 132.88C68.0549 133.06 68.172 133.214 68.3318 133.312C68.6718 133.472 69.0838 133.244 69.4838 133.244C69.841 133.24 70.1876 133.365 70.4598 133.596C70.5915 133.687 70.7012 133.807 70.7808 133.946C70.8603 134.085 70.9078 134.24 70.9198 134.4Z" fill="#FAFAFA"/>
</svg>
