<svg width="66" height="66" viewBox="0 0 66 66" fill="none" xmlns="http://www.w3.org/2000/svg">
<g clip-path="url(#clip0_443_801)">
<path d="M57.2284 44.2793H8.7713C4.47886 44.2793 0.998535 47.7589 0.998535 52.0521C0.998535 56.3452 4.47886 59.8248 8.7713 59.8248H57.2284C61.5216 59.8248 65.0012 56.3445 65.0012 52.0521C65.0012 47.7589 61.5209 44.2793 57.2284 44.2793Z" fill="#87B6E2"/>
<path d="M19.3283 44.2794H46.671C51.4548 40.3354 54.5042 34.3632 54.5042 27.6792C54.5042 15.8025 44.876 6.17432 32.9993 6.17432C21.1225 6.17432 11.4944 15.8025 11.4944 27.6792C11.4951 34.3632 14.5452 40.3347 19.3283 44.2794Z" fill="#E6E6E6"/>
<path d="M32.9998 32.5925C29.5934 32.5925 26.8328 29.8311 26.8328 26.4254V23.4195C26.8328 20.0131 29.5941 17.2524 32.9998 17.2524C36.4061 17.2524 39.1668 20.0138 39.1668 23.4195V26.4254C39.1668 29.8318 36.4061 32.5925 32.9998 32.5925Z" fill="#FCC392"/>
<path d="M44.1505 44.2794V43.7432C44.1505 37.5847 39.1583 32.5925 32.9998 32.5925C26.8413 32.5925 21.8491 37.5847 21.8491 43.7432V44.2794H44.1505Z" fill="#FF4D48"/>
<path d="M13.9441 53.3252C13.2415 53.3252 12.6711 52.7556 12.6711 52.0522C12.6711 51.3489 13.2408 50.7793 13.9441 50.7793C14.6474 50.7793 15.217 51.3489 15.217 52.0522C15.217 52.7556 14.6474 53.3252 13.9441 53.3252Z" fill="#EDEDED"/>
<path d="M23.4719 53.3252C22.7693 53.3252 22.199 52.7556 22.199 52.0522C22.199 51.3489 22.7686 50.7793 23.4719 50.7793C24.1752 50.7793 24.7449 51.3489 24.7449 52.0522C24.7449 52.7556 24.1745 53.3252 23.4719 53.3252Z" fill="#EDEDED"/>
<path d="M33 53.3252C32.2974 53.3252 31.7271 52.7556 31.7271 52.0522C31.7271 51.3489 32.2967 50.7793 33 50.7793C33.7033 50.7793 34.2729 51.3489 34.2729 52.0522C34.2729 52.7556 33.7026 53.3252 33 53.3252Z" fill="#EDEDED"/>
<path d="M42.5278 53.3252C41.8252 53.3252 41.2549 52.7556 41.2549 52.0522C41.2549 51.3489 41.8245 50.7793 42.5278 50.7793C43.2304 50.7793 43.8008 51.3489 43.8008 52.0522C43.8008 52.7556 43.2304 53.3252 42.5278 53.3252Z" fill="#EDEDED"/>
<path d="M52.0557 53.3252C51.353 53.3252 50.7827 52.7556 50.7827 52.0522C50.7827 51.3489 51.3523 50.7793 52.0557 50.7793C52.7583 50.7793 53.3286 51.3489 53.3286 52.0522C53.3286 52.7556 52.7583 53.3252 52.0557 53.3252Z" fill="#EDEDED"/>
</g>
<defs>
<clipPath id="clip0_443_801">
<rect width="65" height="65" fill="white" transform="translate(0.5 0.5)"/>
</clipPath>
</defs>
</svg>
