<svg height="512pt" viewBox="0 0 512 512" width="512pt" xmlns="http://www.w3.org/2000/svg" xmlns:xlink="http://www.w3.org/1999/xlink"><linearGradient id="a" gradientUnits="userSpaceOnUse" x1="0" x2="512" y1="256" y2="256"><stop offset="0" stop-color="#80d8ff"/><stop offset="1" stop-color="#ea80fc"/></linearGradient><path d="m59.332031 118.667969c32.71875 0 59.332031-26.617188 59.332031-59.335938 0-32.714843-26.613281-59.332031-59.332031-59.332031-32.714843 0-59.332031 26.617188-59.332031 59.332031 0 32.71875 26.617188 59.335938 59.332031 59.335938zm0-78.667969c10.660157 0 19.332031 8.671875 19.332031 19.332031 0 10.660157-8.671874 19.335938-19.332031 19.335938-10.660156 0-19.332031-8.675781-19.332031-19.335938 0-10.660156 8.671875-19.332031 19.332031-19.332031zm393.335938 78.667969c32.714843 0 59.332031-26.617188 59.332031-59.335938 0-32.714843-26.617188-59.332031-59.332031-59.332031-32.71875 0-59.335938 26.617188-59.335938 59.332031 0 32.71875 26.617188 59.335938 59.335938 59.335938zm0-78.667969c10.660156 0 19.332031 8.671875 19.332031 19.332031 0 10.660157-8.671875 19.335938-19.332031 19.335938-10.660157 0-19.335938-8.675781-19.335938-19.335938 0-10.660156 8.675781-19.332031 19.335938-19.332031zm-393.335938 353.332031c-32.714843 0-59.332031 26.617188-59.332031 59.335938 0 32.714843 26.617188 59.332031 59.332031 59.332031 32.71875 0 59.332031-26.617188 59.332031-59.332031 0-32.71875-26.613281-59.335938-59.332031-59.335938zm0 78.667969c-10.660156 0-19.332031-8.671875-19.332031-19.332031 0-10.660157 8.671875-19.335938 19.332031-19.335938 10.660157 0 19.332031 8.675781 19.332031 19.335938.003907 10.660156-8.671874 19.332031-19.332031 19.332031zm393.335938-78.667969c-32.71875 0-59.335938 26.617188-59.335938 59.335938 0 32.714843 26.617188 59.332031 59.335938 59.332031 32.714843 0 59.332031-26.617188 59.332031-59.332031 0-32.71875-26.617188-59.335938-59.332031-59.335938zm0 78.667969c-10.660157 0-19.335938-8.671875-19.335938-19.332031 0-10.660157 8.675781-19.335938 19.335938-19.335938 10.660156 0 19.332031 8.675781 19.332031 19.335938 0 10.660156-8.671875 19.332031-19.332031 19.332031zm-196.667969-19c109.332031 0 197-89.113281 197-197 0-108.625-88.375-197-197-197s-197 88.375-197 197c0 108.117188 87.898438 197 197 197zm-78.328125-60.976562v-104.867188l78.328125-47.144531 78.328125 47.144531v104.867188c-48.359375 27.957031-108.210937 28.007812-156.65625 0zm-78.671875-136.023438c0-86.570312 70.429688-157 157-157s157 70.429688 157 157c0 39.410156-14.601562 75.46875-38.671875 103.066406v-83.214844c0-7.015624-3.675781-13.519531-9.683594-17.136718l-98.332031-59.179688c-6.34375-3.820312-14.28125-3.820312-20.625 0l-98.332031 59.179688c-6.007813 3.617187-9.683594 10.121094-9.683594 17.136718v83.21875c-24.070313-27.601562-38.671875-63.660156-38.671875-103.070312zm0 0" fill="url(#a)"/></svg>