<svg height="492pt" viewBox="0 -18 492.0398 492" width="492pt" xmlns="http://www.w3.org/2000/svg"><path d="m330.757812 320.058594c.054688-43.699219 31.566407-81.011719 74.640626-88.378906-35.140626-5.960938-70.472657 9.460937-89.992188 39.28125-19.519531 29.820312-19.519531 68.375 0 98.195312s54.851562 45.242188 89.992188 39.28125c-43.074219-7.367188-74.585938-44.679688-74.640626-88.378906zm0 0" fill="#d4e1f4"/><g fill="#0635c9"><path d="m9.566406 149.933594 10.101563-7.335938v211.285156c0 3.316407 2.683593 6 6 6 3.3125 0 6-2.683593 6-6v-220l41.363281-30.054687 41.316406 30.136719v202.558594c0 3.3125 2.683594 6 6 6 3.3125 0 6-2.6875 6-6v-193.808594l10.058594 7.339844c2.679688 1.953124 6.429688 1.363281 8.382812-1.3125 1.953126-2.675782 1.367188-6.429688-1.308593-8.382813l-17.132813-12.5v-25.640625c0-3.3125-2.6875-6-6-6-3.316406 0-6 2.6875-6 6v16.890625l-37.769531-27.554687c-2.105469-1.535157-4.957031-1.539063-7.0625-.007813l-67 48.679687c-1.757813 1.25-2.703125 3.347657-2.484375 5.492188s1.570312 4.007812 3.542969 4.878906c1.972656.871094 4.257812.617188 5.992187-.664062zm0 0"/><path d="m151.117188 59.550781 10.101562-7.335937-.015625 169.367187c0 3.3125 2.6875 6 6 6s6-2.6875 6-6l.007813-178.089843 41.367187-30.050782 41.3125 30.136719-.015625 190.355469c0 3.3125 2.6875 6 6 6 3.316406 0 6-2.6875 6-6l.011719-181.601563 10.0625 7.339844c2.675781 1.953125 6.429687 1.367187 8.382812-1.308594s1.367188-6.429687-1.308593-8.382812l-17.132813-12.5v-25.640625c0-3.316406-2.6875-6-6-6-3.316406 0-6 2.683594-6 6v16.886718l-37.773437-27.554687c-2.101563-1.535156-4.953126-1.535156-7.0625-.007813l-67 48.679688c-2.679688 1.949219-3.273438 5.699219-1.324219 8.382812 1.945312 2.679688 5.699219 3.273438 8.378906 1.324219zm0 0"/><path d="m308.710938 221.976562h-.007813c-3.3125 0-5.996094 2.679688-6 5.992188l-.015625 11.488281c-.003906 3.316407 2.675781 6.007813 5.992188 6.011719h.007812c3.3125 0 5.996094-2.683594 6-5.992188l.015625-11.492187c.003906-3.316406-2.679687-6.003906-5.992187-6.007813zm0 0"/><path d="m284.285156 134.738281c1.949219 2.679688 5.699219 3.273438 8.382813 1.328125l10.089843-7.332031-.039062 79.882813c0 3.316406 2.683594 6 6 6 3.3125 0 6-2.683594 6-6l.042969-88.609376 41.367187-30.058593 41.273438 30.109375-.035156 27.492187v32.914063c0 3.3125 2.6875 6 6 6s6-2.6875 6-6v-32.902344l.023437-18.753906 10.109375 7.375c1.730469 1.3125 4.03125 1.585937 6.023438.722656 1.988281-.867188 3.355468-2.738281 3.574218-4.898438.21875-2.160156-.746094-4.265624-2.519531-5.515624l-17.164063-12.519532.03125-25.609375c.003907-3.316406-2.679687-6.003906-5.992187-6.007812h-.007813c-3.3125 0-5.996093 2.679687-6 5.992187l-.023437 16.878906-37.75-27.539062c-2.101563-1.535156-4.953125-1.535156-7.0625-.003906l-66.992187 48.675781c-2.679688 1.945313-3.277344 5.699219-1.332032 8.378906zm0 0"/><path d="m57.222656 414.902344c-3.3125 0-6 2.6875-6 6v28.9375c0 3.316406 2.6875 6 6 6s6-2.683594 6-6v-28.9375c0-3.3125-2.6875-6-6-6zm0 0"/><path d="m63.222656 327.808594c0-3.316406-2.6875-6-6-6s-6 2.683594-6 6v71.457031c0 3.3125 2.6875 6 6 6s6-2.6875 6-6zm0 0"/><path d="m63.222656 297.726562c0-3.3125-2.6875-6-6-6s-6 2.6875-6 6v7.578126c0 3.316406 2.6875 6 6 6s6-2.683594 6-6zm0 0"/><path d="m25.664062 410.917969c-3.316406 0-6 2.683593-6 6v22.921875c0 3.316406 2.683594 6 6 6 3.3125 0 6-2.683594 6-6v-22.921875c0-3.316407-2.6875-6-6-6zm0 0"/><path d="m31.664062 370.851562c0-3.316406-2.6875-6-6-6-3.316406 0-6 2.683594-6 6v23.800782c0 3.3125 2.683594 6 6 6 3.3125 0 6-2.6875 6-6zm0 0"/><path d="m120.34375 402.273438c-3.316406 0-6 2.683593-6 6v32.539062c0 3.3125 2.683594 6 6 6 3.3125 0 6-2.6875 6-6v-32.539062c0-3.316407-2.6875-6-6-6zm0 0"/><path d="m126.34375 358.054688c0-3.316407-2.6875-6-6-6-3.316406 0-6 2.683593-6 6v28.953124c0 3.3125 2.683594 6 6 6 3.3125 0 6-2.6875 6-6zm0 0"/><path d="m94.78125 310.300781c0-3.3125-2.683594-6-6-6-3.3125 0-6 2.6875-6 6v38.355469c0 3.3125 2.6875 6 6 6 3.316406 0 6-2.6875 6-6zm0 0"/><path d="m88.78125 364.554688c-3.3125 0-6 2.6875-6 6v80.257812c0 3.3125 2.6875 6 6 6 3.316406 0 6-2.6875 6-6v-80.257812c0-3.3125-2.683594-6-6-6zm0 0"/><path d="m94.78125 285.875c0-3.316406-2.683594-6-6-6-3.3125 0-6 2.683594-6 6v7.289062c0 3.3125 2.6875 6 6 6 3.316406 0 6-2.6875 6-6zm0 0"/><path d="m198.757812 261.738281c-3.3125 0-6 2.6875-6 6v49.027344c0 3.316406 2.6875 6 6 6 3.316407 0 6-2.683594 6-6v-49.027344c0-3.3125-2.683593-6-6-6zm0 0"/><path d="m204.757812 245.875c0-3.316406-2.683593-6-6-6-3.3125 0-6 2.683594-6 6v1.953125c0 3.316406 2.6875 6 6 6 3.316407 0 6-2.683594 6-6zm0 0"/><path d="m204.757812 154.734375c0-3.3125-2.683593-6-6-6-3.3125 0-6 2.6875-6 6v71.460937c0 3.3125 2.6875 6 6 6 3.316407 0 6-2.6875 6-6zm0 0"/><path d="m161.199219 243.84375v22.921875c0 3.316406 2.6875 6 6 6s6-2.683594 6-6v-22.921875c0-3.3125-2.6875-6-6-6s-6 2.6875-6 6zm0 0"/><path d="m255.875 255.195312v12.539063c0 3.3125 2.6875 6 6 6 3.316406 0 6-2.6875 6-6v-12.539063c0-3.316406-2.683594-6-6-6-3.3125 0-6 2.683594-6 6zm0 0"/><path d="m236.320312 175.582031c0-3.3125-2.6875-6-6-6-3.316406 0-6 2.6875-6 6v1.644531c0 3.3125 2.683594 6 6 6 3.3125 0 6-2.6875 6-6zm0 0"/><path d="m236.320312 197.480469c0-3.3125-2.6875-6-6-6-3.316406 0-6 2.6875-6 6v95.394531c0 3.3125 2.683594 6 6 6 3.3125 0 6-2.6875 6-6zm0 0"/><path d="m230.320312 308.726562c-3.316406 0-6 2.6875-6 6v3.011719c0 3.3125 2.683594 6 6 6 3.3125 0 6-2.6875 6-6v-3.011719c0-3.3125-2.6875-6-6-6zm0 0"/><path d="m340.308594 175.027344c-3.3125 0-6 2.683594-6 6v33.511718c0 3.3125 2.6875 6 6 6s6-2.6875 6-6v-33.511718c0-3.316406-2.6875-6-6-6zm0 0"/><path d="m346.308594 160.082031c0-3.316406-2.6875-6-6-6s-6 2.683594-6 6v.382813c0 3.3125 2.6875 6 6 6s6-2.6875 6-6zm0 0"/><path d="m403.429688 192.621094c-3.316407 0-6 2.6875-6 6v4.808594c0 3.3125 2.683593 6 6 6 3.3125 0 6-2.6875 6-6v-4.808594c0-3.3125-2.6875-6-6-6zm0 0"/><path d="m365.867188 177.558594v26.660156c0 3.316406 2.6875 6 6 6 3.316406 0 6-2.683594 6-6v-26.660156c0-3.316406-2.683594-6-6-6-3.3125 0-6 2.683594-6 6zm0 0"/></g><path d="m390.398438 218.417969c-56.136719 0-101.640626 45.503906-101.644532 101.640625 0 56.136718 45.507813 101.640625 101.644532 101.640625 56.136718 0 101.640624-45.503907 101.640624-101.640625-.0625-56.109375-45.53125-101.578125-101.640624-101.640625zm0 191.28125c-49.507813 0-89.640626-40.132813-89.644532-89.640625 0-49.507813 40.136719-89.644532 89.644532-89.644532 49.507812 0 89.640624 40.136719 89.640624 89.644532-.054687 49.484375-40.15625 89.585937-89.640624 89.640625zm0 0" fill="#1ae5be"/><path d="m390.398438 275.492188c10.488281.015624 18.988281 8.511718 19 19 0 3.316406 2.6875 6 6 6s6-2.683594 6-6c-.019532-14.796876-10.484376-27.527344-25-30.410157v-8.324219c0-3.316406-2.6875-6-6-6s-6 2.683594-6 6v8.324219c-15.648438 3.089844-26.394532 17.550781-24.84375 33.425781 1.550781 15.875 14.894531 27.980469 30.84375 27.984376 10.335937.171874 18.636718 8.574218 18.683593 18.910156.050781 10.335937-8.171875 18.8125-18.503906 19.082031-.0625 0-.121094-.007813-.179687-.007813-.058594 0-.117188.007813-.179688.007813-10.414062-.105469-18.804688-8.574219-18.820312-18.992187 0-3.3125-2.6875-6-6-6s-6 2.6875-6 6c.019531 14.800781 10.484374 27.53125 25 30.414062v9.460938c0 3.3125 2.6875 6 6 6s6-2.6875 6-6v-9.460938c15.648437-3.09375 26.394531-17.550781 24.84375-33.425781-1.550782-15.875-14.894532-27.980469-30.84375-27.988281-10.492188 0-19-8.503907-19-19 0-10.492188 8.507812-19 19-19zm0 0" fill="#1ae5be"/></svg>