<svg xmlns="http://www.w3.org/2000/svg" viewBox="0 0 30 30" height="30" width="30"><title>hospital-15.svg</title><rect fill="none" x="0" y="0" width="30" height="30"></rect><rect x="3" y="3" rx="4" ry="4" width="24" height="24" stroke="rgba(255,255,255,0.55)" style="stroke-linejoin:round;stroke-miterlimit:4;" fill="rgba(255,255,255,0.55)" stroke-width="4"></rect><rect x="3" y="3" width="24" height="24" rx="4" ry="4" fill="rgba(79,77,77,0.76)"></rect><path fill="#ff0f0f" transform="translate(7 7)" d="M7,1C6.4,1,6,1.4,6,2v4H2C1.4,6,1,6.4,1,7v1
	c0,0.6,0.4,1,1,1h4v4c0,0.6,0.4,1,1,1h1c0.6,0,1-0.4,1-1V9h4c0.6,0,1-0.4,1-1V7c0-0.6-0.4-1-1-1H9V2c0-0.6-0.4-1-1-1H7z"></path></svg>