<svg xmlns="http://www.w3.org/2000/svg" viewBox="0 0 26 26" height="26" width="26"><title>hospital-11.svg</title><rect fill="none" x="0" y="0" width="26" height="26"></rect><rect x="3" y="3" rx="4" ry="4" width="20" height="20" stroke="rgba(255,255,255,0.55)" style="stroke-linejoin:round;stroke-miterlimit:4;" fill="rgba(255,255,255,0.55)" stroke-width="4"></rect><rect x="3" y="3" width="20" height="20" rx="4" ry="4" fill="rgba(79,77,77,0.76)"></rect><path fill="#ff0f0f" transform="translate(7 7)" d="M10,4H7V1C6.9616,0.4644,6.5356,0.0384,6,0H5C4.4644,0.0384,4.0384,0.4644,4,1v3H1C0.4644,4.0384,0.0384,4.4644,0,5v1
	c0.0384,0.5356,0.4644,0.9616,1,1h3v3c0.0384,0.5356,0.4644,0.9616,1,1h1c0.5356-0.0384,0.9616-0.4644,1-1V7h3
	c0.5356-0.0384,0.9616-0.4644,1-1V5C11,4.4477,10.5523,4,10,4z"></path></svg>